<?xml version="1.0" encoding="utf-8"?>
<svg width="42" height="42" viewBox="0 0 42 42" fill="none" xmlns="http://www.w3.org/2000/svg">
  <path d="M19.9541 41.9795Q19.8721 41.9795 19.79 41.9692Q19.708 41.959 19.626 41.9385Q18.1699 41.4463 16.5703 40.4312Q14.9707 39.416 13.3608 38.001Q11.751 36.5859 10.1924 34.812Q8.63379 33.0381 7.25977 31.0283Q6.0293 29.2031 4.7373 26.7935Q3.44531 24.3838 2.38916 21.3999Q1.33301 18.416 0.666504 14.8989Q0 11.3818 0 7.3418Q0 6.91114 0.307617 6.60352Q0.615234 6.2959 1.0459 6.2959Q3.26074 6.2959 5.96777 5.62939Q8.6748 4.96289 11.2588 4.00928Q13.8428 3.05566 16.0166 1.99951Q18.1904 0.943363 19.3594 0.164063Q19.626 -0.0205078 19.9438 -0.0205078Q20.2617 -0.0205078 20.5283 0.164063Q21.6973 0.943363 23.8813 1.99951Q26.0654 3.05566 28.6494 4.00928Q31.2334 4.96289 33.9302 5.62939Q36.627 6.2959 38.8418 6.2959Q39.293 6.2959 39.6006 6.60352Q39.9082 6.91114 39.9082 7.3418Q39.9082 11.3818 39.2314 14.8989Q38.5547 18.416 37.5088 21.3999Q36.4629 24.3838 35.1709 26.7935Q33.8789 29.2031 32.6279 31.0283Q31.2744 33.0381 29.7158 34.812Q28.1572 36.5859 26.5474 38.001Q24.9375 39.416 23.3379 40.4312Q21.7383 41.4463 20.2822 41.9385Q20.2002 41.959 20.1182 41.9692Q20.0361 41.9795 19.9541 41.9795ZM2.1123 8.34668Q2.19434 11.9971 2.86084 15.186Q3.52734 18.375 4.51172 21.0718Q5.49609 23.7686 6.67529 25.9731Q7.85449 28.1777 9.00293 29.8389Q10.3975 31.8896 11.8843 33.5508Q13.3711 35.2119 14.8066 36.4731Q16.2422 37.7344 17.5649 38.5752Q18.8877 39.416 19.9541 39.8262Q21.0205 39.416 22.3433 38.5752Q23.666 37.7344 25.1016 36.4731Q26.5371 35.2119 28.0239 33.5508Q29.5107 31.8897 30.8848 29.8389Q32.0332 28.1777 33.2227 25.9731Q34.4121 23.7686 35.3965 21.0718Q36.3809 18.375 37.0371 15.186Q37.6934 11.9971 37.7959 8.34668Q36.5039 8.26465 35.1709 8.02881Q33.8379 7.79297 32.5562 7.45459Q31.2744 7.11621 30.0747 6.72656Q28.875 6.33691 27.8496 5.96777Q26.7422 5.53711 25.6348 5.07568Q24.5273 4.61426 23.502 4.14258Q22.4766 3.6709 21.5742 3.19922Q20.6719 2.72754 19.9541 2.27637Q19.2363 2.72754 18.3237 3.19922Q17.4111 3.6709 16.396 4.14258Q15.3809 4.61426 14.2734 5.07568Q13.166 5.53711 12.0381 5.96777Q11.0332 6.33691 9.8335 6.72656Q8.63379 7.11621 7.3418 7.45459Q6.0498 7.79297 4.72705 8.02881Q3.4043 8.26465 2.1123 8.34668ZM17.8418 26.2295Q17.6572 26.2295 17.4624 26.1577Q17.2676 26.0859 17.1035 25.9219L12.8994 21.7383Q12.5918 21.4307 12.5918 20.9897Q12.5918 20.5488 12.8994 20.2412Q13.207 19.9336 13.6479 19.9336Q14.0889 19.9336 14.3965 20.2412L17.8418 23.707L27.6035 13.9453Q27.9111 13.6377 28.3521 13.6377Q28.793 13.6377 29.1006 13.9453Q29.4082 14.2529 29.4082 14.6836Q29.4082 15.1143 29.1006 15.4219L18.6006 25.9219Q18.4365 26.0859 18.2417 26.1577Q18.0469 26.2295 17.8418 26.2295Z" fill="#0277BD" />
</svg>