<?xml version="1.0" encoding="utf-8"?>
<svg width="36" height="36" viewBox="0 0 36 36" fill="none" xmlns="http://www.w3.org/2000/svg">
  <path d="M27.8965 34.1895Q27.791 34.1895 27.6768 34.1631Q27.5625 34.1367 27.4746 34.084L18 28.916L8.52539 34.084Q8.29687 34.207 8.04199 34.1895Q7.78711 34.1719 7.57617 34.0313Q7.36523 33.873 7.26855 33.6357Q7.17187 33.3984 7.20703 33.1348L8.92969 22.7988L2.05664 15.9258Q1.88086 15.75 1.81934 15.5039Q1.75781 15.2578 1.8457 15.0117Q1.91602 14.7656 2.10938 14.6074Q2.30273 14.4492 2.54883 14.3965L12.9023 12.6738L17.1914 4.0957Q17.3145 3.84961 17.5254 3.71777Q17.7363 3.58594 18 3.58594Q18.2637 3.58594 18.4746 3.71777Q18.6855 3.84961 18.8086 4.0957L23.0977 12.6738L33.4512 14.3965Q33.6973 14.4492 33.8906 14.6074Q34.084 14.7656 34.1543 15.0117Q34.2422 15.2578 34.1807 15.5039Q34.1191 15.75 33.9434 15.9258L27.0703 22.7988L28.793 33.1348Q28.8281 33.3984 28.7314 33.6357Q28.6348 33.873 28.4238 34.0313Q28.3008 34.1016 28.1689 34.1455Q28.0371 34.1895 27.8965 34.1895ZM18 26.9824Q18.1055 26.9824 18.2197 27.0176Q18.334 27.0527 18.4395 27.1055L26.7012 31.623L25.207 22.6406Q25.1719 22.4297 25.2422 22.2188Q25.3125 22.0078 25.4707 21.8496L31.4297 15.8906L22.3594 14.3789Q22.1309 14.3438 21.9639 14.2119Q21.7969 14.0801 21.6914 13.8867L18 6.50391L14.3086 13.8867Q14.2031 14.0801 14.0361 14.2119Q13.8691 14.3438 13.6406 14.3789L4.57031 15.8906L10.5293 21.8496Q10.6875 22.0078 10.7578 22.2188Q10.8281 22.4297 10.793 22.6406L9.29883 31.623L17.5605 27.1055Q17.666 27.0527 17.7803 27.0176Q17.8945 26.9824 18 26.9824Z" fill="#0277BD" />
</svg>