<?xml version="1.0" encoding="utf-8"?>
<svg width="36" height="36" viewBox="0 0 36 36" fill="none" xmlns="http://www.w3.org/2000/svg">
  <path d="M34.4355 30.6914Q34.4355 30.6914 34.4355 30.6914Q34.4355 30.6914 34.4355 30.6914Q34.1016 30.6914 33.7764 30.5596Q33.4512 30.4277 33.1348 30.1641L26.9473 25.2246Q26.1914 24.627 25.6992 23.5898Q25.207 22.5527 25.207 21.5859L25.207 16.1895Q25.207 15.2402 25.6992 14.2031Q26.1914 13.166 26.9473 12.5684L33.1348 7.61133Q33.4512 7.34766 33.7764 7.22461Q34.1016 7.10156 34.4355 7.10156Q35.0156 7.10156 35.5078 7.55859Q36 8.01563 36 8.98242L36 28.793Q36 29.1621 35.9121 29.4785Q35.8242 29.7949 35.666 30.041Q35.4375 30.3398 35.1211 30.5156Q34.8047 30.6914 34.4355 30.6914ZM34.207 9.07031L28.0723 13.9746Q27.6504 14.3086 27.3252 14.9766Q27 15.6445 27 16.1895L27 21.5859Q27 22.1309 27.3252 22.8076Q27.6504 23.4844 28.0723 23.8184L34.207 28.7227L34.207 9.07031ZM20.707 30.5859L2.70703 30.5859Q1.58203 30.5859 0.791016 29.7949Q0 29.0039 0 27.8965L0 9.89648Q0 8.77148 0.791016 7.98047Q1.58203 7.18945 2.70703 7.18945L20.707 7.18945Q21.8145 7.18945 22.6055 7.98047Q23.3965 8.77148 23.3965 9.89648L23.3965 27.8965Q23.3965 29.0039 22.6055 29.7949Q21.8145 30.5859 20.707 30.5859ZM2.70703 8.98242Q2.32031 8.98242 2.05664 9.24609Q1.79297 9.50977 1.79297 9.89648L1.79297 27.8965Q1.79297 28.2656 2.05664 28.5293Q2.32031 28.793 2.70703 28.793L20.707 28.793Q21.0762 28.793 21.3398 28.5293Q21.6035 28.2656 21.6035 27.8965L21.6035 9.89648Q21.6035 9.50977 21.3398 9.24609Q21.0762 8.98242 20.707 8.98242L2.70703 8.98242Z" fill="#0277BD" />
</svg>