<?xml version="1.0" encoding="utf-8"?>
<svg width="42" height="42" viewBox="0 0 42 42" fill="none" xmlns="http://www.w3.org/2000/svg">
  <path d="M38.8418 10.4795L29.4082 10.4795L29.4082 7.3418Q29.4082 6.0293 28.4854 5.10645Q27.5625 4.18359 26.25 4.18359L15.75 4.18359Q14.4375 4.18359 13.5146 5.10645Q12.5918 6.0293 12.5918 7.3418L12.5918 10.4795L3.1582 10.4795Q1.8457 10.4795 0.922852 11.4023Q0 12.3252 0 13.6377L0 36.7295Q0 38.042 0.922852 38.9648Q1.8457 39.8877 3.1582 39.8877L38.8418 39.8877Q40.1543 39.8877 41.0771 38.9648Q42 38.042 42 36.7295L42 13.6377Q42 12.3252 41.0771 11.4023Q40.1543 10.4795 38.8418 10.4795ZM14.7041 7.3418Q14.7041 6.91114 15.0117 6.60352Q15.3193 6.2959 15.75 6.2959L26.25 6.2959Q26.6807 6.2959 26.9883 6.60352Q27.2959 6.91114 27.2959 7.3418L27.2959 10.4795L14.7041 10.4795L14.7041 7.3418ZM3.1582 12.5918L38.8418 12.5918Q39.293 12.5918 39.6006 12.8994Q39.9082 13.207 39.9082 13.6377L39.9082 29.3877L35.7041 29.3877L35.7041 28.3418Q35.7041 27.9111 35.3965 27.6035Q35.0889 27.2959 34.6582 27.2959L30.4541 27.2959Q30.0234 27.2959 29.7158 27.6035Q29.4082 27.9111 29.4082 28.3418L29.4082 29.3877L12.5918 29.3877L12.5918 28.3418Q12.5918 27.9111 12.2842 27.6035Q11.9766 27.2959 11.5459 27.2959L7.3418 27.2959Q6.91113 27.2959 6.60352 27.6035Q6.2959 27.9111 6.2959 28.3418L6.2959 29.3877L2.0918 29.3877L2.0918 13.6377Q2.0918 13.207 2.39941 12.8994Q2.70703 12.5918 3.1582 12.5918ZM33.5918 29.3877L33.5918 31.4795L31.5 31.4795L31.5 29.3877L33.5918 29.3877ZM10.5 29.3877L10.5 31.4795L8.4082 31.4795L8.4082 29.3877L10.5 29.3877ZM38.8418 37.7959L3.1582 37.7959Q2.70703 37.7959 2.39941 37.4883Q2.0918 37.1807 2.0918 36.7295L2.0918 31.4795L6.2959 31.4795L6.2959 32.5459Q6.2959 32.9766 6.60352 33.2842Q6.91113 33.5918 7.3418 33.5918L11.5459 33.5918Q11.9766 33.5918 12.2842 33.2842Q12.5918 32.9766 12.5918 32.5459L12.5918 31.4795L29.4082 31.4795L29.4082 32.5459Q29.4082 32.9766 29.7158 33.2842Q30.0234 33.5918 30.4541 33.5918L34.6582 33.5918Q35.0889 33.5918 35.3965 33.2842Q35.7041 32.9766 35.7041 32.5459L35.7041 31.4795L39.9082 31.4795L39.9082 36.7295Q39.9082 37.1807 39.6006 37.4883Q39.293 37.7959 38.8418 37.7959Z" fill="#0277BD" />
</svg>