<?xml version="1.0" encoding="utf-8"?>
<svg width="36" height="36" viewBox="0 0 36 36" fill="none" xmlns="http://www.w3.org/2000/svg">
  <path d="M17.1035 35.9824Q17.0332 35.9824 16.9629 35.9736Q16.8926 35.9648 16.8223 35.9473Q15.5742 35.5254 14.2031 34.6553Q12.832 33.7852 11.4521 32.5723Q10.0723 31.3594 8.73633 29.8389Q7.40039 28.3184 6.22266 26.5957Q5.16797 25.0313 4.06055 22.9658Q2.95313 20.9004 2.04785 18.3428Q1.14258 15.7852 0.571289 12.7705Q0 9.75586 0 6.29297Q0 5.92383 0.263672 5.66016Q0.527344 5.39649 0.896484 5.39648Q2.79492 5.39649 5.11523 4.8252Q7.43555 4.25391 9.65039 3.43652Q11.8652 2.61914 13.7285 1.71387Q15.5918 0.808598 16.5938 0.140625Q16.8223 -0.0175781 17.0947 -0.0175781Q17.3672 -0.0175781 17.5957 0.140625Q18.5977 0.808598 20.4697 1.71387Q22.3418 2.61914 24.5566 3.43652Q26.7715 4.25391 29.083 4.8252Q31.3945 5.39649 33.293 5.39648Q33.6797 5.39649 33.9434 5.66016Q34.207 5.92383 34.207 6.29297Q34.207 9.75586 33.627 12.7705Q33.0469 15.7852 32.1504 18.3428Q31.2539 20.9004 30.1465 22.9658Q29.0391 25.0313 27.9668 26.5957Q26.8066 28.3184 25.4707 29.8389Q24.1348 31.3594 22.7549 32.5723Q21.375 33.7852 20.0039 34.6553Q18.6328 35.5254 17.3848 35.9473Q17.3145 35.9648 17.2441 35.9736Q17.1738 35.9824 17.1035 35.9824ZM1.81055 7.1543Q1.88086 10.2832 2.45215 13.0166Q3.02344 15.75 3.86719 18.0615Q4.71094 20.373 5.72168 22.2627Q6.73242 24.1523 7.7168 25.5762Q8.91211 27.334 10.1865 28.7578Q11.4609 30.1816 12.6914 31.2627Q13.9219 32.3438 15.0557 33.0645Q16.1895 33.7852 17.1035 34.1367Q18.0176 33.7852 19.1514 33.0645Q20.2852 32.3438 21.5156 31.2627Q22.7461 30.1816 24.0205 28.7578Q25.2949 27.334 26.4727 25.5762Q27.457 24.1523 28.4766 22.2627Q29.4961 20.373 30.3398 18.0615Q31.1836 15.75 31.7461 13.0166Q32.3086 10.2832 32.3965 7.1543Q31.2891 7.08399 30.1465 6.88184Q29.0039 6.67969 27.9053 6.38965Q26.8066 6.09961 25.7783 5.76563Q24.75 5.43164 23.8711 5.11523Q22.9219 4.74609 21.9727 4.35059Q21.0234 3.95508 20.1445 3.55078Q19.2656 3.14649 18.4922 2.74219Q17.7187 2.33789 17.1035 1.95117Q16.4883 2.33789 15.7061 2.74219Q14.9238 3.14648 14.0537 3.55078Q13.1836 3.95508 12.2344 4.35059Q11.2852 4.74609 10.3184 5.11523Q9.45703 5.43164 8.42871 5.76563Q7.40039 6.09961 6.29297 6.38965Q5.18555 6.67969 4.05176 6.88184Q2.91797 7.08399 1.81055 7.1543ZM15.293 22.4824Q15.1348 22.4824 14.9678 22.4209Q14.8008 22.3594 14.6602 22.2188L11.0566 18.6328Q10.793 18.3691 10.793 17.9912Q10.793 17.6133 11.0566 17.3496Q11.3203 17.0859 11.6982 17.0859Q12.0762 17.0859 12.3398 17.3496L15.293 20.3203L23.6602 11.9531Q23.9238 11.6895 24.3018 11.6895Q24.6797 11.6895 24.9434 11.9531Q25.207 12.2168 25.207 12.5859Q25.207 12.9551 24.9434 13.2188L15.9434 22.2188Q15.8027 22.3594 15.6357 22.4209Q15.4687 22.4824 15.293 22.4824Z" fill="#0277BD" />
</svg>