<?xml version="1.0" encoding="UTF-8"?>
<svg width="12px" height="7px" viewBox="0 0 12 7" version="1.1" xmlns="http://www.w3.org/2000/svg" xmlns:xlink="http://www.w3.org/1999/xlink">
    <title>Path Copy 5</title>
    <g id="Page-1" stroke="none" stroke-width="1" fill="none" fill-rule="evenodd">
        <g id="m---stc---mobile---v2" transform="translate(-119.000000, -868.000000)" fill="#00639E" fill-rule="nonzero" stroke="#37474F" stroke-width="0.5">
            <path d="M119.5,868.798828 C119.5,868.759766 119.506595,868.72168 119.519784,868.68457 C119.532974,868.647461 119.554642,868.615234 119.584789,868.587891 C119.641316,868.529297 119.709147,868.5 119.788284,868.5 C119.86742,868.5 119.935252,868.529297 119.991778,868.587891 L125,873.773437 L130.002569,868.587891 C130.059096,868.529297 130.127869,868.5 130.20889,868.5 C130.289911,868.5 130.358684,868.529297 130.415211,868.587891 C130.471737,868.646484 130.5,868.716797 130.5,868.798828 C130.5,868.880859 130.471737,868.951172 130.415211,869.009766 L125.203494,874.412109 C125.146968,874.470703 125.079137,874.5 125,874.5 C124.920863,874.5 124.853032,874.470703 124.796506,874.412109 L119.584789,869.009766 C119.554642,868.982422 119.532974,868.950195 119.519784,868.913086 C119.506595,868.875977 119.5,868.837891 119.5,868.798828 Z" id="Path-Copy-5" transform="translate(125.000000, 871.500000) scale(-1, -1) rotate(-180.000000) translate(-125.000000, -871.500000) "></path>
        </g>
    </g>
</svg>