<?xml version="1.0" encoding="UTF-8"?>
<svg width="25px" height="26px" viewBox="0 0 25 26" version="1.1" xmlns="http://www.w3.org/2000/svg" xmlns:xlink="http://www.w3.org/1999/xlink">
    <!-- Generator: Sketch 55.2 (78181) - https://sketchapp.com -->
    <title>m</title>
    <desc>Created with Sketch.</desc>
    <g id="Page-1" stroke="none" stroke-width="1" fill="none" fill-rule="evenodd">
        <g id="Mobile-–-nav-new" transform="translate(-227.000000, -13.000000)" fill="#28363E" fill-rule="nonzero">
            <path d="M249.084961,32.9375 C249.440431,33.2167983 249.749348,33.5214827 250.011719,33.8515625 C250.27409,34.1816423 250.49414,34.5434551 250.671875,34.9370117 C250.84961,35.3305684 250.98291,35.7516254 251.071777,36.2001953 C251.160645,36.6487653 251.205078,37.1311823 251.205078,37.6474609 C251.205078,37.8251962 251.141602,37.9775384 251.014648,38.1044922 C250.887695,38.2314459 250.731121,38.2949219 250.544922,38.2949219 L228.455078,38.2949219 C228.268879,38.2949219 228.112305,38.2314459 227.985352,38.1044922 C227.858398,37.9775384 227.794922,37.8251962 227.794922,37.6474609 C227.794922,37.1311823 227.839355,36.6487653 227.928223,36.2001953 C228.01709,35.7516254 228.15039,35.3305684 228.328125,34.9370117 C228.50586,34.5434551 228.72591,34.1816423 228.988281,33.8515625 C229.250652,33.5214827 229.559569,33.2167983 229.915039,32.9375 C230.278973,32.6582017 230.680987,32.4064139 231.121094,32.1821289 C231.5612,31.9578439 232.022459,31.7568368 232.504883,31.5791016 C232.987307,31.4013663 233.478188,31.2426765 233.977539,31.1030273 C234.476891,30.9633782 234.967771,30.8385422 235.450195,30.7285156 C235.60254,30.6861977 235.771809,30.5465507 235.958008,30.3095703 C236.144207,30.07259 236.279622,29.776369 236.364258,29.4208984 C236.398112,29.2685539 236.415039,28.9744488 236.415039,28.5385742 C236.415039,28.1026996 236.22038,27.7154965 235.831055,27.3769531 C235.543293,27.1315092 235.308432,26.8606786 235.126465,26.5644531 C234.944498,26.2682277 234.802735,25.9550798 234.701172,25.625 C234.481119,25.3880196 234.273764,25.1193049 234.079102,24.8188477 C233.884439,24.5183904 233.704591,24.2010108 233.539551,23.8666992 C233.374511,23.5323877 233.222169,23.1811542 233.08252,22.8129883 C232.94287,22.4448224 232.826498,22.0703144 232.733398,21.6894531 C232.623372,21.2662739 232.540853,20.8515645 232.48584,20.4453125 C232.430827,20.0390605 232.407552,19.6518573 232.416016,19.2836914 C232.424479,18.9155255 232.460449,18.5685238 232.523926,18.2426758 C232.587403,17.9168278 232.678385,17.6142592 232.796875,17.3349609 C233.016928,16.8356095 233.323729,16.4357111 233.717285,16.1352539 C234.110842,15.8347967 234.574216,15.6507165 235.107422,15.5830078 C235.225912,15.295246 235.395181,15.0307629 235.615234,14.7895508 C235.835288,14.5483386 236.097655,14.3388681 236.402344,14.1611328 C236.740887,13.974934 237.121743,13.8268235 237.544922,13.7167969 C237.968101,13.6067703 238.420896,13.5432944 238.90332,13.5263672 C239.267254,13.50944 239.635415,13.5200193 240.007812,13.5581055 C240.38021,13.5961916 240.748371,13.6575517 241.112305,13.7421875 C241.476239,13.8268233 241.83382,13.9347324 242.185059,14.065918 C242.536297,14.1971035 242.87272,14.3473299 243.194336,14.5166016 C243.575197,14.7197276 243.922199,14.9461251 244.235352,15.1958008 C244.548504,15.4454765 244.829914,15.7163071 245.07959,16.0083008 C245.329266,16.3002944 245.540852,16.6113265 245.714355,16.9414062 C245.887859,17.271486 246.029622,17.614256 246.139648,17.9697266 C246.317384,18.6044954 246.425293,19.2307912 246.463379,19.8486328 C246.501465,20.4664744 246.465495,21.0673799 246.355469,21.6513672 C246.28776,21.9983741 246.198894,22.3411441 246.088867,22.6796875 C245.978841,23.0182309 245.843425,23.3525374 245.682617,23.6826172 C245.521809,24.012697 245.335613,24.3406559 245.124023,24.6665039 C244.912434,24.9923519 244.679689,25.3118474 244.425781,25.625 C244.290364,25.9550798 244.118979,26.2682277 243.911621,26.5644531 C243.704263,26.8606786 243.456707,27.1315092 243.168945,27.3769531 C242.771157,27.7154965 242.563802,28.0900045 242.546875,28.5004883 C242.529948,28.9109721 242.546875,29.209309 242.597656,29.3955078 C242.682292,29.7594419 242.819823,30.0620105 243.010254,30.3032227 C243.200685,30.5444348 243.380533,30.6861977 243.549805,30.7285156 C244.032229,30.8385422 244.523109,30.9633782 245.022461,31.1030273 C245.521812,31.2426765 246.012693,31.4013663 246.495117,31.5791016 C246.977541,31.7568368 247.4388,31.9578439 247.878906,32.1821289 C248.319013,32.4064139 248.721027,32.6582017 249.084961,32.9375 Z M233.990234,17.8554688 C233.863281,18.134767 233.780762,18.4584943 233.742676,18.8266602 C233.70459,19.1948261 233.70459,19.5862609 233.742676,20.0009766 C233.780762,20.4156922 233.854817,20.8430968 233.964844,21.2832031 C234.07487,21.7233095 234.210286,22.1507141 234.371094,22.5654297 L234.371094,22.0703125 C234.371094,21.9687495 234.392252,21.8714197 234.43457,21.7783203 C234.476888,21.6852209 234.536132,21.6090498 234.612305,21.5498047 C234.815431,21.3889966 235.031249,21.0039093 235.259766,20.3945312 C235.488282,19.7851532 235.602539,19.0361373 235.602539,18.1474609 C235.602539,18.0205072 235.638509,17.9020188 235.710449,17.7919922 C235.78239,17.6819656 235.877604,17.6015628 235.996094,17.5507812 C236.123048,17.4999997 236.249999,17.4873046 236.376953,17.5126953 C236.503907,17.5380861 236.613932,17.5973303 236.707031,17.6904297 C236.876303,17.8597014 237.161945,18.0120436 237.563965,18.1474609 C237.965985,18.2828783 238.461097,18.3992508 239.049316,18.496582 C239.637535,18.5939132 240.301917,18.6679685 241.04248,18.71875 C241.783044,18.7695315 242.56803,18.7949219 243.397461,18.7949219 C243.70215,18.7949219 243.939127,18.9218737 244.108398,19.1757812 C244.27767,19.4296888 244.404622,19.6793608 244.489258,19.9248047 C244.590821,20.1787122 244.679687,20.4876284 244.755859,20.8515625 C244.832032,21.2154966 244.887044,21.6132791 244.920898,22.0449219 C245.098634,21.4440074 245.183268,20.8367544 245.174805,20.2231445 C245.166341,19.6095347 245.069011,18.9768913 244.882812,18.3251953 C244.713541,17.7242808 244.419436,17.1995465 244.000488,16.7509766 C243.581541,16.3024066 243.097008,15.9321304 242.546875,15.6401367 C241.996742,15.3481431 241.408532,15.1323249 240.782227,14.9926758 C240.155921,14.8530266 239.546552,14.7958983 238.954102,14.8212891 C238.361651,14.8466798 237.786136,14.9736317 237.227539,15.2021484 C236.668943,15.4306652 236.338868,15.807289 236.237305,16.3320312 C236.20345,16.4843758 236.127279,16.6092118 236.008789,16.706543 C235.890299,16.8038742 235.754884,16.8525391 235.602539,16.8525391 C235.196287,16.8525391 234.86198,16.9350578 234.599609,17.1000977 C234.337238,17.2651375 234.134115,17.5169254 233.990234,17.8554688 Z M229.12793,37 L249.87207,37 C249.812825,36.3313769 249.654135,35.7516301 249.395996,35.2607422 C249.137857,34.7698543 248.767581,34.338218 248.285156,33.9658203 C248.031249,33.7711579 247.745607,33.5870777 247.428223,33.4135742 C247.110838,33.2400707 246.749025,33.0729175 246.342773,32.9121094 C245.936521,32.7513013 245.477379,32.5947273 244.965332,32.4423828 C244.453285,32.2900383 243.879886,32.1376961 243.245117,31.9853516 C242.813474,31.8837886 242.42204,31.6235373 242.070801,31.2045898 C241.719562,30.7856424 241.472006,30.2841826 241.328125,29.7001953 C241.17578,29.0654265 241.188476,28.4539417 241.366211,27.8657227 C241.543946,27.2775036 241.865558,26.7845072 242.331055,26.3867188 C242.813479,25.9720031 243.143554,25.4726592 243.321289,24.8886719 C243.499024,24.3046846 243.604818,23.7757185 243.638672,23.3017578 C243.689453,22.5738896 243.651368,21.9116241 243.524414,21.3149414 C243.39746,20.7182587 243.27474,20.3141287 243.15625,20.1025391 C242.606117,20.0940755 242.06234,20.0771486 241.524902,20.0517578 C240.987465,20.0263671 240.477541,19.9882815 239.995117,19.9375 C239.31803,19.8613277 238.717125,19.7682297 238.192383,19.6582031 C237.667641,19.5481765 237.214846,19.4127612 236.833984,19.2519531 C236.749349,19.9628942 236.597006,20.5807265 236.376953,21.1054688 C236.1569,21.630211 235.924155,22.0322252 235.678711,22.3115234 L235.678711,22.6669922 C235.678711,23.0224627 235.685059,23.375812 235.697754,23.7270508 C235.710449,24.0782895 235.748535,24.4168278 235.812012,24.7426758 C235.875489,25.0685238 235.972818,25.3710924 236.104004,25.6503906 C236.235189,25.9296889 236.423501,26.1751292 236.668945,26.3867188 C237.125979,26.7760436 237.439127,27.2669241 237.608398,27.859375 C237.77767,28.4518259 237.781902,29.07389 237.621094,29.7255859 C237.485676,30.3095732 237.246584,30.8068013 236.903809,31.2172852 C236.561033,31.627769 236.178062,31.8837886 235.754883,31.9853516 C235.120114,32.1376961 234.546715,32.2900383 234.034668,32.4423828 C233.522621,32.5947273 233.063479,32.7513013 232.657227,32.9121094 C232.250975,33.0729175 231.889162,33.2400707 231.571777,33.4135742 C231.254393,33.5870777 230.968751,33.7711579 230.714844,33.9658203 C230.232419,34.338218 229.862143,34.7698543 229.604004,35.2607422 C229.345865,35.7516301 229.187175,36.3313769 229.12793,37 Z" id="m"></path>
        </g>
    </g>
</svg>
