<?xml version="1.0" encoding="UTF-8"?>
<svg width="24px" height="25px" viewBox="0 0 24 25" version="1.1" xmlns="http://www.w3.org/2000/svg" xmlns:xlink="http://www.w3.org/1999/xlink">
    <!-- Generator: Sketch 55.2 (78181) - https://sketchapp.com -->
    <title>p</title>
    <desc>Created with Sketch.</desc>
    <g id="Page-1" stroke="none" stroke-width="1" fill="none" fill-rule="evenodd">
        <g id="Mobile-–-nav-new" transform="translate(-176.000000, -14.000000)" fill="#28363E" fill-rule="nonzero">
            <path d="M195.195312,38.1953125 C194.66406,38.1953125 194.125003,38.1582035 193.578125,38.0839844 C193.031247,38.0097653 192.476565,37.8984382 191.914062,37.75 C191.35156,37.6015618 190.785159,37.4160167 190.214844,37.1933594 C189.644528,36.970702 189.066409,36.710939 188.480469,36.4140625 C187.941404,36.1406236 187.406253,35.8378923 186.875,35.5058594 C186.343747,35.1738265 185.820315,34.8164082 185.304688,34.4335938 C184.78906,34.0507793 184.281252,33.6445334 183.78125,33.2148438 C183.281248,32.7851541 182.796877,32.3398461 182.328125,31.8789062 C181.867185,31.4101539 181.421877,30.9257838 180.992188,30.4257812 C180.562498,29.9257787 180.158205,29.4179713 179.779297,28.9023438 C179.400389,28.3867162 179.044924,27.8613308 178.712891,27.3261719 C178.380858,26.7910129 178.078126,26.2578152 177.804688,25.7265625 C177.507811,25.1406221 177.248048,24.5605497 177.025391,23.9863281 C176.802733,23.4121065 176.617188,22.8437528 176.46875,22.28125 C176.320312,21.7187472 176.207032,21.1640652 176.128906,20.6171875 C176.050781,20.0703098 176.011719,19.5312527 176.011719,19 C176.011719,18.6562483 176.082031,18.318361 176.222656,17.9863281 C176.363282,17.6542952 176.531249,17.3476577 176.726562,17.0664062 C176.921876,16.7851548 177.123046,16.5332042 177.330078,16.3105469 C177.53711,16.0878895 177.710937,15.9140631 177.851562,15.7890625 C178.046876,15.6015616 178.26953,15.4140634 178.519531,15.2265625 C178.769532,15.0390616 179.025389,14.8691414 179.287109,14.7167969 C179.548829,14.5644524 179.810546,14.4394536 180.072266,14.3417969 C180.333986,14.2441401 180.578124,14.1953125 180.804688,14.1953125 C181.023439,14.1953125 181.26953,14.2714836 181.542969,14.4238281 C181.816408,14.5761726 182.124998,14.8124984 182.46875,15.1328125 C182.718751,15.3671887 182.984374,15.6406234 183.265625,15.953125 C183.546876,16.2656266 183.83203,16.6093731 184.121094,16.984375 C184.207032,17.0937505 184.36328,17.3027328 184.589844,17.6113281 C184.816407,17.9199234 185.048827,18.2656231 185.287109,18.6484375 C185.525392,19.0312519 185.736327,19.4179668 185.919922,19.8085938 C186.103517,20.1992207 186.195312,20.5312486 186.195312,20.8046875 C186.195312,21.2500022 185.982424,21.6406233 185.556641,21.9765625 C185.130857,22.3125017 184.64844,22.6484358 184.109375,22.984375 C183.906249,23.1093756 183.703126,23.2363275 183.5,23.3652344 C183.296874,23.4941413 183.117188,23.6210931 182.960938,23.7460938 C182.796874,23.8789069 182.689453,23.9804684 182.638672,24.0507812 C182.58789,24.1210941 182.5625,24.1640624 182.5625,24.1796875 C182.843751,24.8906286 183.25781,25.6249962 183.804688,26.3828125 C184.351565,27.1406288 184.966793,27.8613247 185.650391,28.5449219 C186.333988,29.228519 187.054684,29.8437473 187.8125,30.390625 C188.570316,30.9375027 189.304684,31.3554673 190.015625,31.6445312 C190.03125,31.6367187 190.074218,31.6093752 190.144531,31.5625 C190.214844,31.5156248 190.316406,31.4101571 190.449219,31.2460938 C190.574219,31.089843 190.701171,30.9101573 190.830078,30.7070312 C190.958985,30.5039052 191.089843,30.2968761 191.222656,30.0859375 C191.550783,29.5468723 191.882811,29.0644553 192.21875,28.6386719 C192.554689,28.2128885 192.949216,28 193.402344,28 C193.675783,28 194.007811,28.091796 194.398438,28.2753906 C194.789064,28.4589853 195.173826,28.6699207 195.552734,28.9082031 C195.931643,29.1464856 196.275389,29.3789051 196.583984,29.6054688 C196.89258,29.8320324 197.105468,29.9882808 197.222656,30.0742188 C197.589846,30.3632827 197.931639,30.6484361 198.248047,30.9296875 C198.564455,31.2109389 198.839843,31.4804675 199.074219,31.7382812 C199.38672,32.082033 199.61914,32.3886705 199.771484,32.6582031 C199.923829,32.9277357 200,33.1757801 200,33.4023438 C200,33.6289074 199.951172,33.8730456 199.853516,34.1347656 C199.755859,34.3964857 199.63086,34.6582018 199.478516,34.9199219 C199.326171,35.1816419 199.156251,35.4374988 198.96875,35.6875 C198.781249,35.9375012 198.597657,36.1601553 198.417969,36.3554688 C198.292968,36.4960945 198.119142,36.6699208 197.896484,36.8769531 C197.673827,37.0839854 197.419923,37.2871084 197.134766,37.4863281 C196.849608,37.6855479 196.541017,37.8535149 196.208984,37.9902344 C195.876951,38.1269538 195.539064,38.1953125 195.195312,38.1953125 Z M180.792969,15.4023438 C180.628905,15.4023438 180.351564,15.5039052 179.960938,15.7070312 C179.570311,15.9101573 179.136721,16.2304666 178.660156,16.6679688 C178.214842,17.0820333 177.863283,17.4980448 177.605469,17.9160156 C177.347655,18.3339865 177.21875,18.695311 177.21875,19 C177.21875,21.0156351 177.777338,23.08788 178.894531,25.2167969 C180.011724,27.3457138 181.441398,29.2831944 183.183594,31.0292969 C184.92579,32.7753994 186.859364,34.2070257 188.984375,35.3242188 C191.109386,36.4414118 193.179677,37 195.195312,37 C195.507814,37 195.873045,36.8691419 196.291016,36.6074219 C196.708986,36.3457018 197.121092,35.9921897 197.527344,35.546875 C197.964846,35.0703101 198.285155,34.6347676 198.488281,34.2402344 C198.691407,33.8457012 198.796875,33.5664071 198.804688,33.4023438 C198.78125,33.2929682 198.591799,33.0253928 198.236328,32.5996094 C197.880858,32.173826 197.269536,31.6289096 196.402344,30.9648438 C196.035154,30.6757798 195.685549,30.4218761 195.353516,30.203125 C195.021483,29.9843739 194.724611,29.800782 194.462891,29.6523438 C194.201171,29.5039055 193.978517,29.3925785 193.794922,29.3183594 C193.611327,29.2441403 193.480469,29.203125 193.402344,29.1953125 C193.394531,29.203125 193.355469,29.2304685 193.285156,29.2773438 C193.214843,29.324219 193.113282,29.4335929 192.980469,29.6054688 C192.863281,29.753907 192.742188,29.9257803 192.617188,30.1210938 C192.492187,30.3164072 192.367188,30.515624 192.242188,30.71875 C191.906248,31.2656277 191.566408,31.7558572 191.222656,32.1894531 C190.878905,32.623049 190.476565,32.8398438 190.015625,32.8398438 C189.9375,32.8398438 189.863282,32.8339844 189.792969,32.8222656 C189.722656,32.8105468 189.652344,32.7890627 189.582031,32.7578125 C188.792965,32.4453109 187.984379,31.9921905 187.15625,31.3984375 C186.328121,30.8046845 185.542972,30.1367225 184.800781,29.3945312 C184.05859,28.65234 183.392581,27.8691447 182.802734,27.0449219 C182.212888,26.220699 181.757814,25.4140664 181.4375,24.625 C181.367187,24.4374991 181.351562,24.2011733 181.390625,23.9160156 C181.429688,23.6308579 181.636717,23.316408 182.011719,22.9726562 C182.207032,22.8007804 182.435546,22.6289071 182.697266,22.4570312 C182.958986,22.2851554 183.222655,22.1171883 183.488281,21.953125 C183.683595,21.8359369 183.878905,21.7148444 184.074219,21.5898438 C184.269532,21.4648431 184.445312,21.3437506 184.601562,21.2265625 C184.773438,21.0859368 184.882812,20.9804691 184.929688,20.9101562 C184.976563,20.8398434 185,20.8007813 185,20.7929688 C185,20.7148434 184.960938,20.5839853 184.882812,20.4003906 C184.804687,20.216796 184.691407,19.9941419 184.542969,19.7324219 C184.394531,19.4707018 184.210939,19.1757829 183.992188,18.8476562 C183.773436,18.5195296 183.523439,18.1679706 183.242188,17.7929688 C182.570309,16.9335895 182.02344,16.3242205 181.601562,15.9648438 C181.179685,15.605467 180.910157,15.4179688 180.792969,15.4023438 Z" id="p"></path>
        </g>
    </g>
</svg>
