<?xml version="1.0" encoding="UTF-8"?>
<svg width="405px" height="351px" viewBox="0 0 405 351" version="1.1" xmlns="http://www.w3.org/2000/svg" xmlns:xlink="http://www.w3.org/1999/xlink">
    <!-- Generator: Sketch 54.1 (76490) - https://sketchapp.com -->
    <title>Fill 1</title>
    <desc>Created with Sketch.</desc>
    <g id="Page-1" stroke="none" stroke-width="1" fill="none" fill-rule="evenodd" opacity="0.285086496">
        <g id="Hub-Page-–-Sound-Deadening" transform="translate(-875.000000, -1719.000000)" fill="#023560">
            <g id="Deaden-the-noise--block-the" transform="translate(0.000000, 1692.000000)">
                <path d="M1160.52533,202.39857 C1159.17919,204.343318 1157.46135,206.449289 1155.24123,208.716483 C1153.01106,210.983676 1150.26856,213.391939 1146.87307,215.941272 C1143.4575,218.490605 1139.38895,221.140703 1134.60714,223.810953 C1129.82534,226.481203 1124.35037,229.141376 1118.3028,231.640327 C1112.26527,234.129202 1105.67522,236.456854 1098.81393,238.46206 C1084.90049,242.532932 1070.35416,245.193106 1057.32475,246.291435 C1050.71461,246.855714 1044.38575,247.057243 1038.54914,246.916173 C1032.72257,246.785179 1027.38825,246.341817 1022.64663,245.666697 C1017.91505,244.981501 1013.78622,244.0847 1010.24005,243.056906 C1006.69388,242.049264 1003.74042,240.920706 1001.21892,239.741765 C998.707468,238.562825 996.648077,237.343578 994.930244,236.124332 C988.500928,231.458952 986.150209,226.592043 985.808652,221.342231 C985.617781,216.737309 987.074423,212.142464 990.570364,207.003492 C991.916502,205.048667 993.624289,202.942697 995.844413,200.68558 C998.074582,198.418386 1000.81709,196.000046 1004.22262,193.450713 C1007.62814,190.911457 1011.70674,188.251283 1016.4785,185.581033 C1021.2603,182.910783 1026.74531,180.250609 1032.78284,177.761735 C1038.82037,175.262784 1045.42047,172.935132 1052.27171,170.929925 C1066.18515,166.859054 1080.73148,164.19888 1093.76089,163.110627 C1100.37103,162.546348 1106.70994,162.344819 1112.53651,162.475813 C1118.37312,162.606806 1123.70744,163.060245 1128.43902,163.735365 C1133.17059,164.410485 1137.29942,165.317362 1140.84559,166.33508 C1144.40181,167.342721 1147.35527,168.481356 1149.86672,169.650221 C1152.37818,170.829161 1154.45766,172.048407 1156.1554,173.267654 C1162.59476,177.94311 1164.94548,182.799942 1165.27699,188.059831 C1165.46786,192.654677 1164.02127,197.259598 1160.52533,202.39857 M1288.01666,91.0844107 C1285.09333,83.617787 1280.87409,76.4736086 1275.68041,70.175849 C1271.09952,74.4381727 1266.07662,78.1966756 1259.76785,81.9652549 C1253.46913,85.7237578 1245.88455,89.4822607 1237.26524,92.8578598 C1228.64594,96.2435353 1218.98188,99.2463071 1209.07671,101.553806 C1199.17154,103.871382 1188.99514,105.483608 1179.44158,106.319951 C1169.88802,107.146217 1160.9372,107.186522 1153.11152,106.622243 C1145.27579,106.047887 1138.55515,104.868947 1133.01991,103.357484 C1127.48467,101.846022 1123.13483,100.002038 1119.70921,98.0270608 C1112.64701,93.8856541 1109.5529,89.4822607 1108.25699,84.9075681 C1107.60401,82.5295341 1107.48347,80.050736 1107.94557,77.3905624 C1108.40768,74.7303887 1109.45244,71.8888396 1111.32096,68.7953801 C1113.18948,65.7119971 1115.88176,62.3565508 1119.71926,58.7894998 C1123.5668,55.2325252 1128.53948,51.4538695 1134.80806,47.6852902 C1141.07664,43.9066344 1148.63109,40.1481315 1157.2303,36.7725324 C1165.81947,33.3868569 1175.45339,30.3639323 1185.2581,28.0463568 C1169.2049,26.4643596 1152.98092,26.6658879 1136.55603,28.7214766 C1120.14118,30.7669889 1103.53546,34.6665616 1087.92428,40.1481315 C1072.32314,45.6297014 1057.71654,52.703345 1044.8579,60.7745536 C1032.00932,68.8457622 1020.89866,77.9246124 1011.84738,87.3359842 C993.985938,105.9572 984.020498,125.817814 981.067031,144.499488 C979.610389,153.729484 979.821351,162.687418 981.589413,171.322905 C968.017528,176.159585 954.907749,182.35658 943.154155,189.399994 C931.410607,196.443409 921.023243,204.343318 912.243207,212.626132 C886.304934,237.273043 874.772348,263.582564 875.003401,288.259705 C875.103859,296.220073 876.449997,303.938607 879.03177,311.344772 C881.613542,318.740861 885.430949,325.824581 890.222799,332.15257 C895.77813,328.021239 901.69511,324.373577 908.686992,320.897214 C915.678873,317.400698 923.755702,314.065404 932.545783,311.173473 C941.34591,308.301695 950.869335,305.873279 960.342531,304.119982 C969.805681,302.376762 979.208556,301.308662 987.888134,300.915682 C996.577757,300.532778 1004.53404,300.824994 1011.46564,301.600878 C1018.39725,302.376762 1024.29414,303.656467 1029.1764,305.188082 C1034.04862,306.729774 1037.89616,308.523376 1040.95009,310.427818 C1050.61415,316.685272 1052.45253,323.174484 1051.60869,329.905529 C1051.24704,332.394404 1050.36301,335.034424 1048.77577,337.896126 C1047.18853,340.757828 1044.90813,343.851288 1041.6332,347.146275 C1038.35827,350.45134 1034.09885,353.968009 1028.68416,357.53506 C1023.26947,361.112187 1016.70955,364.72962 1009.13502,368.095143 C1001.55043,371.470742 992.971312,374.584354 984.221414,377.093382 C1000.24448,378.564538 1016.42827,378.252169 1032.78284,376.105893 C1049.13742,373.969693 1065.65273,369.999585 1081.15341,364.467633 C1096.65409,358.935681 1111.13009,351.841885 1123.86818,343.770676 C1136.59621,335.699468 1147.58633,326.64077 1156.53714,317.259628 C1174.19767,298.7291 1184.05261,278.959173 1186.95584,260.378264 C1188.39239,251.188573 1188.17139,242.281022 1186.41337,233.675763 C1200.2364,228.73832 1213.57723,222.400254 1225.5016,215.195618 C1237.42598,207.980904 1247.93389,199.889543 1256.76416,191.415278 C1282.7828,166.214163 1293.93364,139.572121 1292.93911,114.451618 C1292.5875,106.390485 1290.93999,98.5611108 1288.01666,91.0844107" id="Fill-1"></path>
            </g>
        </g>
    </g>
</svg>
