<?xml version="1.0" encoding="utf-8"?>
<svg width="42" height="42" viewBox="0 0 42 42" fill="none" xmlns="http://www.w3.org/2000/svg">
  <path d="M11.5459 36.7295Q11.3408 36.7295 11.146 36.6577Q10.9512 36.5859 10.8076 36.4219L0.307617 25.9219Q0 25.6143 0 25.1836Q0 24.7529 0.307617 24.4453Q0.615234 24.1377 1.0459 24.1377Q1.47656 24.1377 1.78418 24.4453L11.5459 34.207L40.2158 5.53711Q40.5234 5.22949 40.9541 5.22949Q41.3848 5.22949 41.6924 5.53711Q42 5.84473 42 6.28564Q42 6.72657 41.6924 7.03418L12.2842 36.4219Q12.1406 36.5859 11.9458 36.6577Q11.751 36.7295 11.5459 36.7295Z" fill="#0277BD" />
</svg>