<?xml version="1.0" encoding="utf-8"?>
<svg width="36" height="36" viewBox="0 0 36 36" fill="none" xmlns="http://www.w3.org/2000/svg">
  <path d="M35.2266 0.755859Q34.8574 0.386723 34.3477 0.193359Q33.8379 3.8147e-06 33.2227 0Q32.7129 0 32.1152 0.131836Q31.5176 0.263672 30.8408 0.527344Q30.1641 0.791016 29.3994 1.18652Q28.6348 1.58203 27.7734 2.10938Q27.2461 1.54688 26.2441 0.84375Q25.2422 0.140625 23.9414 0.0351563Q22.9043 -0.0527306 21.9287 0.360352Q20.9531 0.773441 20.0566 1.65234Q19.1074 2.60157 18.3867 3.62988Q17.666 4.65821 17.1211 5.66895Q16.5762 6.67969 16.1719 7.62012Q15.7676 8.56055 15.4688 9.31641Q15.2578 9.84375 15.0293 10.3799Q14.8008 10.916 14.6602 11.0566Q14.625 11.1094 14.4844 11.1709Q14.3437 11.2324 14.1152 11.0391Q13.8516 10.793 13.4912 10.793Q13.1309 10.793 12.8672 11.0566Q12.6035 11.3203 12.6035 11.6895Q12.6035 12.0586 12.8672 12.3223Q12.9727 12.4277 13.2451 12.6123Q13.5176 12.7969 13.8691 12.9023Q14.0273 12.9375 14.168 12.9551Q14.3086 12.9727 14.4492 12.9727Q14.625 12.9727 14.792 12.9463Q14.959 12.9199 15.1172 12.8672Q14.9414 13.043 14.7568 13.2363Q14.5723 13.4297 14.3789 13.623Q12.0059 16.1016 9.59766 18.9492Q7.18945 21.7969 5.17676 24.6445Q3.16406 27.4922 1.7666 30.1641Q0.369141 32.8359 0.0175781 34.9453Q-0.0175781 35.1563 0.0439453 35.3672Q0.105469 35.5781 0.263672 35.7188Q0.386719 35.8594 0.553711 35.9209Q0.720703 35.9824 0.896484 35.9824Q0.931641 35.9824 0.975586 35.9824Q1.01953 35.9824 1.05469 35.9824Q1.93359 35.8242 2.95313 35.4727Q3.97266 35.1211 5.13281 34.5674Q6.29297 34.0137 7.57617 33.2578Q8.85937 32.502 10.2656 31.5527Q11.5313 30.709 12.8408 29.7334Q14.1504 28.7578 15.4951 27.668Q16.8398 26.5781 18.2197 25.3916Q19.5996 24.2051 20.9707 22.9219Q22.3066 21.6914 23.5811 20.4346Q24.8555 19.1777 26.042 17.9209Q27.2285 16.6641 28.3184 15.4336Q29.4082 14.2031 30.3926 13.0078Q31.1133 12.1113 31.9131 11.0566Q32.7129 10.002 33.4336 8.89453Q34.1543 7.78711 34.752 6.6709Q35.3496 5.55469 35.666 4.55273Q36.0703 3.28711 35.9648 2.33789Q35.8594 1.38868 35.2266 0.755859ZM21.3398 2.93555Q21.9375 2.32031 22.5527 2.04785Q23.168 1.77539 23.8008 1.82813Q24.5566 1.88086 25.1895 2.30273Q25.8223 2.72461 26.2441 3.12891Q25.9102 3.35742 25.5674 3.60352Q25.2246 3.84961 24.873 4.11328Q23.9238 4.83398 22.8955 5.66895Q21.8672 6.50391 20.8125 7.43555Q19.7578 8.36719 18.6768 9.37793Q17.5957 10.3887 16.5059 11.4609Q16.6465 11.1621 16.8047 10.8018Q16.9629 10.4414 17.1387 10.002Q17.4199 9.28125 17.7979 8.40234Q18.1758 7.52344 18.6768 6.5918Q19.1777 5.66016 19.8281 4.71973Q20.4785 3.7793 21.3398 2.93555ZM5.4668 27.4219L8.56055 30.5332Q7.64648 31.1309 6.77637 31.6406Q5.90625 32.1504 5.09766 32.5723Q4.28906 32.9941 3.55078 33.3105Q2.8125 33.627 2.14453 33.8555Q2.35547 33.1875 2.68066 32.4404Q3.00586 31.6934 3.41895 30.8848Q3.83203 30.0762 4.35059 29.2148Q4.86914 28.3535 5.4668 27.4219ZM19.7402 21.6035Q18.4746 22.7813 17.2266 23.8623Q15.9785 24.9434 14.7656 25.9365Q13.5527 26.9297 12.375 27.8262Q11.1973 28.7227 10.0898 29.4961L6.48633 25.9102Q7.38281 24.627 8.41113 23.2822Q9.43945 21.9375 10.5996 20.5488Q11.7598 19.1602 13.0342 17.7363Q14.3086 16.3125 15.6797 14.8711Q17.2793 13.2012 18.8525 11.6895Q20.4258 10.1777 21.9199 8.85938Q23.4141 7.54102 24.8203 6.43359Q26.2266 5.32617 27.4922 4.44727L31.5352 8.49023Q30.5684 9.89648 29.3027 11.4785Q28.0371 13.0605 26.5342 14.7305Q25.0313 16.4004 23.3174 18.1406Q21.6035 19.8809 19.7402 21.6035ZM33.9609 4.00781Q33.75 4.64063 33.3896 5.37891Q33.0293 6.11719 32.5371 6.94336L29.0391 3.44531Q30.3574 2.6543 31.4209 2.22363Q32.4844 1.79297 33.2227 1.79297Q33.5918 1.79297 33.75 1.88965Q33.9082 1.98633 33.9609 2.03906Q34.2773 2.33789 34.1807 2.96191Q34.084 3.58594 33.9609 4.00781Z" fill="#0277BD" />
</svg>