<?xml version="1.0" encoding="UTF-8"?>
<svg width="48px" height="48px" viewBox="0 0 48 48" version="1.1" xmlns="http://www.w3.org/2000/svg" xmlns:xlink="http://www.w3.org/1999/xlink">
    <!-- Generator: Sketch 55.1 (78136) - https://sketchapp.com -->
    <title>p</title>
    <desc>Created with Sketch.</desc>
    <g id="Page-1" stroke="none" stroke-width="1" fill="none" fill-rule="evenodd">
        <g id="Contest" transform="translate(-618.000000, -3102.000000)" fill="#0277BD" fill-rule="nonzero">
            <path d="M641.754883,3149.49023 C640.159823,3149.49023 638.601407,3149.33968 637.07959,3149.03857 C635.557772,3148.73747 634.084805,3148.29395 632.660645,3147.70801 C631.236484,3147.12207 629.877448,3146.39372 628.583496,3145.52295 C627.289544,3144.65218 626.08106,3143.65528 624.958008,3142.53223 C623.834955,3141.42545 622.842127,3140.22104 621.979492,3138.91895 C621.116858,3137.61686 620.388512,3136.25782 619.794434,3134.8418 C619.200355,3133.42577 618.752768,3131.95281 618.45166,3130.42285 C618.150552,3128.8929 618,3127.33855 618,3125.75977 C618,3124.16471 618.150552,3122.60629 618.45166,3121.08447 C618.752768,3119.56266 619.200355,3118.08969 619.794434,3116.66553 C620.388512,3115.24137 621.116858,3113.88233 621.979492,3112.58838 C622.842127,3111.29443 623.834955,3110.08594 624.958008,3108.96289 C626.08106,3107.83984 627.289544,3106.84701 628.583496,3105.98438 C629.877448,3105.12174 631.236484,3104.39339 632.660645,3103.79932 C634.084805,3103.20524 635.557772,3102.75765 637.07959,3102.45654 C638.601407,3102.15543 640.159823,3102.00488 641.754883,3102.00488 C643.333667,3102.00488 644.888013,3102.15543 646.417969,3102.45654 C647.947924,3102.75765 649.42496,3103.20524 650.849121,3103.79932 C652.273282,3104.39339 653.632318,3105.12174 654.92627,3105.98438 C656.220221,3106.84701 657.428705,3107.83984 658.551758,3108.96289 C659.67481,3110.08594 660.667639,3111.29443 661.530273,3112.58838 C662.392908,3113.88233 663.117185,3115.24137 663.703125,3116.66553 C664.289065,3118.08969 664.736652,3119.56266 665.045898,3121.08447 C665.355145,3122.60629 665.509766,3124.16471 665.509766,3125.75977 C665.509766,3127.33855 665.355145,3128.8929 665.045898,3130.42285 C664.736652,3131.95281 664.289065,3133.42577 663.703125,3134.8418 C663.117185,3136.25782 662.392908,3137.61686 661.530273,3138.91895 C660.667639,3140.22104 659.67481,3141.42545 658.551758,3142.53223 C657.428705,3143.65528 656.220221,3144.65218 654.92627,3145.52295 C653.632318,3146.39372 652.273282,3147.12207 650.849121,3147.70801 C649.42496,3148.29395 647.947924,3148.73747 646.417969,3149.03857 C644.888013,3149.33968 643.333667,3149.49023 641.754883,3149.49023 Z M641.754883,3104.49512 C638.825181,3104.49512 636.070488,3105.05257 633.490723,3106.16748 C630.910957,3107.28239 628.656748,3108.80419 626.728027,3110.73291 C624.799307,3112.66163 623.277512,3114.91584 622.162598,3117.49561 C621.047683,3120.07537 620.490234,3122.83006 620.490234,3125.75977 C620.490234,3128.68947 621.047683,3131.44416 622.162598,3134.02393 C623.277512,3136.60369 624.799307,3138.85383 626.728027,3140.77441 C628.656748,3142.695 630.910957,3144.21272 633.490723,3145.32764 C636.070488,3146.44255 638.825181,3147 641.754883,3147 C644.684585,3147 647.439277,3146.44255 650.019043,3145.32764 C652.598808,3144.21272 654.848949,3142.695 656.769531,3140.77441 C658.690114,3138.85383 660.207839,3136.60369 661.322754,3134.02393 C662.437668,3131.44416 662.995117,3128.68947 662.995117,3125.75977 C662.995117,3122.83006 662.437668,3120.07537 661.322754,3117.49561 C660.207839,3114.91584 658.690114,3112.66163 656.769531,3110.73291 C654.848949,3108.80419 652.598808,3107.28239 650.019043,3106.16748 C647.439277,3105.05257 644.684585,3104.49512 641.754883,3104.49512 Z M634.259766,3139.50488 C634.145833,3139.50488 634.04004,3139.49268 633.942383,3139.46826 C633.844726,3139.44385 633.747071,3139.39909 633.649414,3139.33398 C633.454101,3139.23633 633.295411,3139.08984 633.17334,3138.89453 C633.051269,3138.69922 632.990234,3138.48763 632.990234,3138.25977 L632.990234,3113.25977 C632.990234,3113.0319 633.051269,3112.82031 633.17334,3112.625 C633.295411,3112.42969 633.454101,3112.27507 633.649414,3112.16113 C633.844728,3112.0472 634.056314,3111.9943 634.28418,3112.00244 C634.512045,3112.01058 634.723632,3112.07161 634.918945,3112.18555 L654.914062,3124.68555 C655.0931,3124.79948 655.235514,3124.95003 655.341309,3125.13721 C655.447103,3125.32438 655.5,3125.5319 655.5,3125.75977 C655.5,3125.97136 655.447103,3126.17073 655.341309,3126.35791 C655.235514,3126.54509 655.0931,3126.69564 654.914062,3126.80957 L634.918945,3139.30957 C634.821289,3139.37467 634.715495,3139.4235 634.601562,3139.45605 C634.48763,3139.48861 634.373698,3139.50488 634.259766,3139.50488 Z M635.504883,3115.50586 L635.504883,3135.98926 L651.886719,3125.75977 L635.504883,3115.50586 Z" id="p"></path>
        </g>
    </g>
</svg>
