<svg width="861" height="296" viewBox="0 0 861 296" fill="none" xmlns="http://www.w3.org/2000/svg">
<g clip-path="url(#clip0_1_33)">
<path d="M256.856 249L261.848 237.8H264.408L269.416 249H266.696L262.6 239.112H263.624L259.512 249H256.856ZM259.352 246.6L260.04 244.632H265.8L266.504 246.6H259.352ZM274.484 249.128C273.556 249.128 272.729 248.941 272.004 248.568C271.279 248.184 270.708 247.656 270.292 246.984C269.887 246.312 269.684 245.549 269.684 244.696C269.684 243.832 269.887 243.069 270.292 242.408C270.708 241.736 271.279 241.213 272.004 240.84C272.729 240.456 273.556 240.264 274.484 240.264C275.391 240.264 276.18 240.456 276.852 240.84C277.524 241.213 278.02 241.752 278.34 242.456L276.404 243.496C276.18 243.091 275.897 242.792 275.556 242.6C275.225 242.408 274.863 242.312 274.468 242.312C274.041 242.312 273.657 242.408 273.316 242.6C272.975 242.792 272.703 243.064 272.5 243.416C272.308 243.768 272.212 244.195 272.212 244.696C272.212 245.197 272.308 245.624 272.5 245.976C272.703 246.328 272.975 246.6 273.316 246.792C273.657 246.984 274.041 247.08 274.468 247.08C274.863 247.08 275.225 246.989 275.556 246.808C275.897 246.616 276.18 246.312 276.404 245.896L278.34 246.952C278.02 247.645 277.524 248.184 276.852 248.568C276.18 248.941 275.391 249.128 274.484 249.128ZM283.764 249.128C282.846 249.128 282.03 248.936 281.316 248.552C280.612 248.168 280.052 247.645 279.636 246.984C279.23 246.312 279.028 245.549 279.028 244.696C279.028 243.832 279.23 243.069 279.636 242.408C280.052 241.736 280.612 241.213 281.316 240.84C282.03 240.456 282.846 240.264 283.764 240.264C284.67 240.264 285.481 240.456 286.196 240.84C286.91 241.213 287.47 241.731 287.876 242.392C288.281 243.053 288.484 243.821 288.484 244.696C288.484 245.549 288.281 246.312 287.876 246.984C287.47 247.645 286.91 248.168 286.196 248.552C285.481 248.936 284.67 249.128 283.764 249.128ZM283.764 247.08C284.18 247.08 284.553 246.984 284.884 246.792C285.214 246.6 285.476 246.328 285.668 245.976C285.86 245.613 285.956 245.187 285.956 244.696C285.956 244.195 285.86 243.768 285.668 243.416C285.476 243.064 285.214 242.792 284.884 242.6C284.553 242.408 284.18 242.312 283.764 242.312C283.348 242.312 282.974 242.408 282.644 242.6C282.313 242.792 282.046 243.064 281.844 243.416C281.652 243.768 281.556 244.195 281.556 244.696C281.556 245.187 281.652 245.613 281.844 245.976C282.046 246.328 282.313 246.6 282.644 246.792C282.974 246.984 283.348 247.08 283.764 247.08ZM293.784 249.128C293.069 249.128 292.429 248.989 291.864 248.712C291.309 248.435 290.877 248.013 290.568 247.448C290.259 246.872 290.104 246.141 290.104 245.256V240.392H292.6V244.888C292.6 245.603 292.749 246.131 293.048 246.472C293.357 246.803 293.789 246.968 294.344 246.968C294.728 246.968 295.069 246.888 295.368 246.728C295.667 246.557 295.901 246.301 296.072 245.96C296.243 245.608 296.328 245.171 296.328 244.648V240.392H298.824V249H296.456V246.632L296.888 247.32C296.6 247.917 296.173 248.371 295.608 248.68C295.053 248.979 294.445 249.128 293.784 249.128ZM304.032 249.128C303.296 249.128 302.587 249.043 301.904 248.872C301.232 248.691 300.699 248.467 300.304 248.2L301.136 246.408C301.531 246.653 301.995 246.856 302.528 247.016C303.072 247.165 303.606 247.24 304.128 247.24C304.704 247.24 305.11 247.171 305.344 247.032C305.59 246.893 305.712 246.701 305.712 246.456C305.712 246.253 305.616 246.104 305.424 246.008C305.243 245.901 304.998 245.821 304.688 245.768C304.379 245.715 304.038 245.661 303.664 245.608C303.302 245.555 302.934 245.485 302.56 245.4C302.187 245.304 301.846 245.165 301.536 244.984C301.227 244.803 300.976 244.557 300.784 244.248C300.603 243.939 300.512 243.539 300.512 243.048C300.512 242.504 300.667 242.024 300.976 241.608C301.296 241.192 301.755 240.867 302.352 240.632C302.95 240.387 303.664 240.264 304.496 240.264C305.083 240.264 305.68 240.328 306.288 240.456C306.896 240.584 307.403 240.771 307.808 241.016L306.976 242.792C306.56 242.547 306.139 242.381 305.712 242.296C305.296 242.2 304.891 242.152 304.496 242.152C303.942 242.152 303.536 242.227 303.28 242.376C303.024 242.525 302.896 242.717 302.896 242.952C302.896 243.165 302.987 243.325 303.168 243.432C303.36 243.539 303.611 243.624 303.92 243.688C304.23 243.752 304.566 243.811 304.928 243.864C305.302 243.907 305.675 243.976 306.048 244.072C306.422 244.168 306.758 244.307 307.056 244.488C307.366 244.659 307.616 244.899 307.808 245.208C308 245.507 308.096 245.901 308.096 246.392C308.096 246.925 307.936 247.4 307.616 247.816C307.296 248.221 306.832 248.541 306.224 248.776C305.627 249.011 304.896 249.128 304.032 249.128ZM313.156 249.128C312.143 249.128 311.354 248.872 310.788 248.36C310.223 247.837 309.94 247.064 309.94 246.04V238.488H312.436V246.008C312.436 246.371 312.532 246.653 312.724 246.856C312.916 247.048 313.178 247.144 313.508 247.144C313.903 247.144 314.239 247.037 314.516 246.824L315.188 248.584C314.932 248.765 314.623 248.904 314.26 249C313.908 249.085 313.54 249.128 313.156 249.128ZM308.612 242.504V240.584H314.58V242.504H308.612ZM316.59 249V240.392H319.086V249H316.59ZM317.838 239.192C317.379 239.192 317.006 239.059 316.718 238.792C316.43 238.525 316.286 238.195 316.286 237.8C316.286 237.405 316.43 237.075 316.718 236.808C317.006 236.541 317.379 236.408 317.838 236.408C318.296 236.408 318.67 236.536 318.958 236.792C319.246 237.037 319.39 237.357 319.39 237.752C319.39 238.168 319.246 238.515 318.958 238.792C318.68 239.059 318.307 239.192 317.838 239.192ZM325.562 249.128C324.634 249.128 323.807 248.941 323.082 248.568C322.357 248.184 321.786 247.656 321.37 246.984C320.965 246.312 320.762 245.549 320.762 244.696C320.762 243.832 320.965 243.069 321.37 242.408C321.786 241.736 322.357 241.213 323.082 240.84C323.807 240.456 324.634 240.264 325.562 240.264C326.469 240.264 327.258 240.456 327.93 240.84C328.602 241.213 329.098 241.752 329.418 242.456L327.482 243.496C327.258 243.091 326.975 242.792 326.634 242.6C326.303 242.408 325.941 242.312 325.546 242.312C325.119 242.312 324.735 242.408 324.394 242.6C324.053 242.792 323.781 243.064 323.578 243.416C323.386 243.768 323.29 244.195 323.29 244.696C323.29 245.197 323.386 245.624 323.578 245.976C323.781 246.328 324.053 246.6 324.394 246.792C324.735 246.984 325.119 247.08 325.546 247.08C325.941 247.08 326.303 246.989 326.634 246.808C326.975 246.616 327.258 246.312 327.482 245.896L329.418 246.952C329.098 247.645 328.602 248.184 327.93 248.568C327.258 248.941 326.469 249.128 325.562 249.128ZM263.688 271.192C262.824 271.192 262.019 271.053 261.272 270.776C260.536 270.488 259.896 270.083 259.352 269.56C258.808 269.037 258.381 268.424 258.072 267.72C257.773 267.016 257.624 266.243 257.624 265.4C257.624 264.557 257.773 263.784 258.072 263.08C258.381 262.376 258.808 261.763 259.352 261.24C259.907 260.717 260.552 260.317 261.288 260.04C262.024 259.752 262.829 259.608 263.704 259.608C264.675 259.608 265.549 259.779 266.328 260.12C267.117 260.451 267.779 260.941 268.312 261.592L266.648 263.128C266.264 262.691 265.837 262.365 265.368 262.152C264.899 261.928 264.387 261.816 263.832 261.816C263.309 261.816 262.829 261.901 262.392 262.072C261.955 262.243 261.576 262.488 261.256 262.808C260.936 263.128 260.685 263.507 260.504 263.944C260.333 264.381 260.248 264.867 260.248 265.4C260.248 265.933 260.333 266.419 260.504 266.856C260.685 267.293 260.936 267.672 261.256 267.992C261.576 268.312 261.955 268.557 262.392 268.728C262.829 268.899 263.309 268.984 263.832 268.984C264.387 268.984 264.899 268.877 265.368 268.664C265.837 268.44 266.264 268.104 266.648 267.656L268.312 269.192C267.779 269.843 267.117 270.339 266.328 270.68C265.549 271.021 264.669 271.192 263.688 271.192ZM275.12 271V269.32L274.96 268.952V265.944C274.96 265.411 274.794 264.995 274.464 264.696C274.144 264.397 273.648 264.248 272.976 264.248C272.517 264.248 272.064 264.323 271.616 264.472C271.178 264.611 270.805 264.803 270.496 265.048L269.6 263.304C270.069 262.973 270.634 262.717 271.296 262.536C271.957 262.355 272.629 262.264 273.312 262.264C274.624 262.264 275.642 262.573 276.368 263.192C277.093 263.811 277.456 264.776 277.456 266.088V271H275.12ZM272.496 271.128C271.824 271.128 271.248 271.016 270.768 270.792C270.288 270.557 269.92 270.243 269.664 269.848C269.408 269.453 269.28 269.011 269.28 268.52C269.28 268.008 269.402 267.56 269.648 267.176C269.904 266.792 270.304 266.493 270.848 266.28C271.392 266.056 272.101 265.944 272.976 265.944H275.264V267.4H273.248C272.661 267.4 272.256 267.496 272.032 267.688C271.818 267.88 271.712 268.12 271.712 268.408C271.712 268.728 271.834 268.984 272.08 269.176C272.336 269.357 272.682 269.448 273.12 269.448C273.536 269.448 273.909 269.352 274.24 269.16C274.57 268.957 274.81 268.664 274.96 268.28L275.344 269.432C275.162 269.987 274.832 270.408 274.352 270.696C273.872 270.984 273.253 271.128 272.496 271.128ZM283.347 271.128C282.632 271.128 281.992 270.989 281.427 270.712C280.872 270.435 280.44 270.013 280.131 269.448C279.821 268.872 279.667 268.141 279.667 267.256V262.392H282.163V266.888C282.163 267.603 282.312 268.131 282.611 268.472C282.92 268.803 283.352 268.968 283.907 268.968C284.291 268.968 284.632 268.888 284.931 268.728C285.229 268.557 285.464 268.301 285.635 267.96C285.805 267.608 285.891 267.171 285.891 266.648V262.392H288.387V271H286.019V268.632L286.451 269.32C286.163 269.917 285.736 270.371 285.171 270.68C284.616 270.979 284.008 271.128 283.347 271.128ZM290.699 271V259.128H293.195V271H290.699ZM297.575 269.24L297.639 266.2L301.655 262.392H304.631L300.775 266.312L299.479 267.368L297.575 269.24ZM295.511 271V259.128H298.007V271H295.511ZM301.927 271L299.015 267.384L300.583 265.448L304.951 271H301.927ZM315.501 262.984L317.869 266.584L315.501 270.216H313.341L315.517 266.584L313.341 262.984H315.501ZM315.981 265.72V267.464H310.253V265.72H315.981Z" fill="#28343A"/>
<path d="M257 251H329.706V251.8H257V251ZM257 273H319.053V273.8H257V273Z" fill="#28343A"/>
<path d="M581.728 242.84H587.104V244.92H581.728V242.84ZM581.92 249H579.328V237.8H587.792V239.88H581.92V249ZM594.401 249V247.32L594.241 246.952V243.944C594.241 243.411 594.075 242.995 593.745 242.696C593.425 242.397 592.929 242.248 592.257 242.248C591.798 242.248 591.345 242.323 590.897 242.472C590.459 242.611 590.086 242.803 589.777 243.048L588.881 241.304C589.35 240.973 589.915 240.717 590.577 240.536C591.238 240.355 591.91 240.264 592.593 240.264C593.905 240.264 594.923 240.573 595.649 241.192C596.374 241.811 596.737 242.776 596.737 244.088V249H594.401ZM591.777 249.128C591.105 249.128 590.529 249.016 590.049 248.792C589.569 248.557 589.201 248.243 588.945 247.848C588.689 247.453 588.561 247.011 588.561 246.52C588.561 246.008 588.683 245.56 588.929 245.176C589.185 244.792 589.585 244.493 590.129 244.28C590.673 244.056 591.382 243.944 592.257 243.944H594.545V245.4H592.529C591.942 245.4 591.537 245.496 591.313 245.688C591.099 245.88 590.993 246.12 590.993 246.408C590.993 246.728 591.115 246.984 591.361 247.176C591.617 247.357 591.963 247.448 592.401 247.448C592.817 247.448 593.19 247.352 593.521 247.16C593.851 246.957 594.091 246.664 594.241 246.28L594.625 247.432C594.443 247.987 594.113 248.408 593.633 248.696C593.153 248.984 592.534 249.128 591.777 249.128ZM604.228 240.264C604.91 240.264 605.518 240.403 606.052 240.68C606.596 240.947 607.022 241.363 607.332 241.928C607.641 242.483 607.796 243.197 607.796 244.072V249H605.3V244.456C605.3 243.763 605.145 243.251 604.836 242.92C604.537 242.589 604.11 242.424 603.556 242.424C603.161 242.424 602.804 242.509 602.484 242.68C602.174 242.84 601.929 243.091 601.748 243.432C601.577 243.773 601.492 244.211 601.492 244.744V249H598.996V240.392H601.38V242.776L600.932 242.056C601.241 241.48 601.684 241.037 602.26 240.728C602.836 240.419 603.492 240.264 604.228 240.264ZM613.578 249.128C612.565 249.128 611.776 248.872 611.21 248.36C610.645 247.837 610.362 247.064 610.362 246.04V238.488H612.858V246.008C612.858 246.371 612.954 246.653 613.146 246.856C613.338 247.048 613.6 247.144 613.93 247.144C614.325 247.144 614.661 247.037 614.938 246.824L615.61 248.584C615.354 248.765 615.045 248.904 614.682 249C614.33 249.085 613.962 249.128 613.578 249.128ZM609.034 242.504V240.584H615.002V242.504H609.034ZM622.291 249V247.32L622.131 246.952V243.944C622.131 243.411 621.966 242.995 621.635 242.696C621.315 242.397 620.819 242.248 620.147 242.248C619.689 242.248 619.235 242.323 618.787 242.472C618.35 242.611 617.977 242.803 617.667 243.048L616.771 241.304C617.241 240.973 617.806 240.717 618.467 240.536C619.129 240.355 619.801 240.264 620.483 240.264C621.795 240.264 622.814 240.573 623.539 241.192C624.265 241.811 624.627 242.776 624.627 244.088V249H622.291ZM619.667 249.128C618.995 249.128 618.419 249.016 617.939 248.792C617.459 248.557 617.091 248.243 616.835 247.848C616.579 247.453 616.451 247.011 616.451 246.52C616.451 246.008 616.574 245.56 616.819 245.176C617.075 244.792 617.475 244.493 618.019 244.28C618.563 244.056 619.273 243.944 620.147 243.944H622.435V245.4H620.419C619.833 245.4 619.427 245.496 619.203 245.688C618.99 245.88 618.883 246.12 618.883 246.408C618.883 246.728 619.006 246.984 619.251 247.176C619.507 247.357 619.854 247.448 620.291 247.448C620.707 247.448 621.081 247.352 621.411 247.16C621.742 246.957 621.982 246.664 622.131 246.28L622.515 247.432C622.334 247.987 622.003 248.408 621.523 248.696C621.043 248.984 620.425 249.128 619.667 249.128ZM629.782 249.128C629.046 249.128 628.337 249.043 627.654 248.872C626.982 248.691 626.449 248.467 626.054 248.2L626.886 246.408C627.281 246.653 627.745 246.856 628.278 247.016C628.822 247.165 629.356 247.24 629.878 247.24C630.454 247.24 630.86 247.171 631.094 247.032C631.34 246.893 631.462 246.701 631.462 246.456C631.462 246.253 631.366 246.104 631.174 246.008C630.993 245.901 630.748 245.821 630.438 245.768C630.129 245.715 629.788 245.661 629.414 245.608C629.052 245.555 628.684 245.485 628.31 245.4C627.937 245.304 627.596 245.165 627.286 244.984C626.977 244.803 626.726 244.557 626.534 244.248C626.353 243.939 626.262 243.539 626.262 243.048C626.262 242.504 626.417 242.024 626.726 241.608C627.046 241.192 627.505 240.867 628.102 240.632C628.7 240.387 629.414 240.264 630.246 240.264C630.833 240.264 631.43 240.328 632.038 240.456C632.646 240.584 633.153 240.771 633.558 241.016L632.726 242.792C632.31 242.547 631.889 242.381 631.462 242.296C631.046 242.2 630.641 242.152 630.246 242.152C629.692 242.152 629.286 242.227 629.03 242.376C628.774 242.525 628.646 242.717 628.646 242.952C628.646 243.165 628.737 243.325 628.918 243.432C629.11 243.539 629.361 243.624 629.67 243.688C629.98 243.752 630.316 243.811 630.678 243.864C631.052 243.907 631.425 243.976 631.798 244.072C632.172 244.168 632.508 244.307 632.806 244.488C633.116 244.659 633.366 244.899 633.558 245.208C633.75 245.507 633.846 245.901 633.846 246.392C633.846 246.925 633.686 247.4 633.366 247.816C633.046 248.221 632.582 248.541 631.974 248.776C631.377 249.011 630.646 249.128 629.782 249.128ZM638.906 249.128C637.893 249.128 637.104 248.872 636.538 248.36C635.973 247.837 635.69 247.064 635.69 246.04V238.488H638.186V246.008C638.186 246.371 638.282 246.653 638.474 246.856C638.666 247.048 638.928 247.144 639.258 247.144C639.653 247.144 639.989 247.037 640.266 246.824L640.938 248.584C640.682 248.765 640.373 248.904 640.01 249C639.658 249.085 639.29 249.128 638.906 249.128ZM634.362 242.504V240.584H640.33V242.504H634.362ZM642.34 249V240.392H644.836V249H642.34ZM643.588 239.192C643.129 239.192 642.756 239.059 642.468 238.792C642.18 238.525 642.036 238.195 642.036 237.8C642.036 237.405 642.18 237.075 642.468 236.808C642.756 236.541 643.129 236.408 643.588 236.408C644.046 236.408 644.42 236.536 644.708 236.792C644.996 237.037 645.14 237.357 645.14 237.752C645.14 238.168 644.996 238.515 644.708 238.792C644.43 239.059 644.057 239.192 643.588 239.192ZM651.312 249.128C650.384 249.128 649.557 248.941 648.832 248.568C648.107 248.184 647.536 247.656 647.12 246.984C646.715 246.312 646.512 245.549 646.512 244.696C646.512 243.832 646.715 243.069 647.12 242.408C647.536 241.736 648.107 241.213 648.832 240.84C649.557 240.456 650.384 240.264 651.312 240.264C652.219 240.264 653.008 240.456 653.68 240.84C654.352 241.213 654.848 241.752 655.168 242.456L653.232 243.496C653.008 243.091 652.725 242.792 652.384 242.6C652.053 242.408 651.691 242.312 651.296 242.312C650.869 242.312 650.485 242.408 650.144 242.6C649.803 242.792 649.531 243.064 649.328 243.416C649.136 243.768 649.04 244.195 649.04 244.696C649.04 245.197 649.136 245.624 649.328 245.976C649.531 246.328 649.803 246.6 650.144 246.792C650.485 246.984 650.869 247.08 651.296 247.08C651.691 247.08 652.053 246.989 652.384 246.808C652.725 246.616 653.008 246.312 653.232 245.896L655.168 246.952C654.848 247.645 654.352 248.184 653.68 248.568C653.008 248.941 652.219 249.128 651.312 249.128ZM581.728 264.84H587.104V266.92H581.728V264.84ZM581.92 271H579.328V259.8H587.792V261.88H581.92V271ZM589.215 271V262.392H591.599V264.824L591.263 264.12C591.519 263.512 591.929 263.053 592.495 262.744C593.06 262.424 593.748 262.264 594.559 262.264V264.568C594.452 264.557 594.356 264.552 594.271 264.552C594.185 264.541 594.095 264.536 593.999 264.536C593.316 264.536 592.761 264.733 592.335 265.128C591.919 265.512 591.711 266.115 591.711 266.936V271H589.215ZM600.76 271V269.32L600.6 268.952V265.944C600.6 265.411 600.435 264.995 600.104 264.696C599.784 264.397 599.288 264.248 598.616 264.248C598.157 264.248 597.704 264.323 597.256 264.472C596.819 264.611 596.445 264.803 596.136 265.048L595.24 263.304C595.709 262.973 596.275 262.717 596.936 262.536C597.597 262.355 598.269 262.264 598.952 262.264C600.264 262.264 601.283 262.573 602.008 263.192C602.733 263.811 603.096 264.776 603.096 266.088V271H600.76ZM598.136 271.128C597.464 271.128 596.888 271.016 596.408 270.792C595.928 270.557 595.56 270.243 595.304 269.848C595.048 269.453 594.92 269.011 594.92 268.52C594.92 268.008 595.043 267.56 595.288 267.176C595.544 266.792 595.944 266.493 596.488 266.28C597.032 266.056 597.741 265.944 598.616 265.944H600.904V267.4H598.888C598.301 267.4 597.896 267.496 597.672 267.688C597.459 267.88 597.352 268.12 597.352 268.408C597.352 268.728 597.475 268.984 597.72 269.176C597.976 269.357 598.323 269.448 598.76 269.448C599.176 269.448 599.549 269.352 599.88 269.16C600.211 268.957 600.451 268.664 600.6 268.28L600.984 269.432C600.803 269.987 600.472 270.408 599.992 270.696C599.512 270.984 598.893 271.128 598.136 271.128ZM616.379 262.264C617.062 262.264 617.664 262.403 618.187 262.68C618.72 262.947 619.136 263.363 619.435 263.928C619.744 264.483 619.899 265.197 619.899 266.072V271H617.403V266.456C617.403 265.763 617.259 265.251 616.971 264.92C616.683 264.589 616.278 264.424 615.755 264.424C615.392 264.424 615.067 264.509 614.779 264.68C614.491 264.84 614.267 265.085 614.107 265.416C613.947 265.747 613.867 266.168 613.867 266.68V271H611.371V266.456C611.371 265.763 611.227 265.251 610.939 264.92C610.662 264.589 610.262 264.424 609.739 264.424C609.376 264.424 609.051 264.509 608.763 264.68C608.475 264.84 608.251 265.085 608.091 265.416C607.931 265.747 607.851 266.168 607.851 266.68V271H605.355V262.392H607.739V264.744L607.291 264.056C607.59 263.469 608.011 263.027 608.555 262.728C609.11 262.419 609.739 262.264 610.443 262.264C611.232 262.264 611.92 262.467 612.507 262.872C613.104 263.267 613.499 263.875 613.691 264.696L612.811 264.456C613.099 263.784 613.558 263.251 614.187 262.856C614.827 262.461 615.558 262.264 616.379 262.264ZM626.471 271.128C625.49 271.128 624.626 270.936 623.879 270.552C623.143 270.168 622.572 269.645 622.167 268.984C621.762 268.312 621.559 267.549 621.559 266.696C621.559 265.832 621.756 265.069 622.151 264.408C622.556 263.736 623.106 263.213 623.799 262.84C624.492 262.456 625.276 262.264 626.151 262.264C626.994 262.264 627.751 262.445 628.423 262.808C629.106 263.16 629.644 263.672 630.039 264.344C630.434 265.005 630.631 265.8 630.631 266.728C630.631 266.824 630.626 266.936 630.615 267.064C630.604 267.181 630.594 267.293 630.583 267.4H623.591V265.944H629.271L628.311 266.376C628.311 265.928 628.22 265.539 628.039 265.208C627.858 264.877 627.607 264.621 627.287 264.44C626.967 264.248 626.594 264.152 626.167 264.152C625.74 264.152 625.362 264.248 625.031 264.44C624.711 264.621 624.46 264.883 624.279 265.224C624.098 265.555 624.007 265.949 624.007 266.408V266.792C624.007 267.261 624.108 267.677 624.311 268.04C624.524 268.392 624.818 268.664 625.191 268.856C625.575 269.037 626.023 269.128 626.535 269.128C626.994 269.128 627.394 269.059 627.735 268.92C628.087 268.781 628.407 268.573 628.695 268.296L630.023 269.736C629.628 270.184 629.132 270.531 628.535 270.776C627.938 271.011 627.25 271.128 626.471 271.128ZM639.688 271L636.024 259.8H638.712L641.896 269.72H640.552L643.88 259.8H646.28L649.48 269.72H648.184L651.448 259.8H653.928L650.264 271H647.48L644.648 262.296H645.384L642.472 271H639.688ZM655.34 271V262.392H657.836V271H655.34ZM656.588 261.192C656.129 261.192 655.756 261.059 655.468 260.792C655.18 260.525 655.036 260.195 655.036 259.8C655.036 259.405 655.18 259.075 655.468 258.808C655.756 258.541 656.129 258.408 656.588 258.408C657.046 258.408 657.42 258.536 657.708 258.792C657.996 259.037 658.14 259.357 658.14 259.752C658.14 260.168 657.996 260.515 657.708 260.792C657.43 261.059 657.057 261.192 656.588 261.192ZM665.384 262.264C666.067 262.264 666.675 262.403 667.208 262.68C667.752 262.947 668.179 263.363 668.488 263.928C668.797 264.483 668.952 265.197 668.952 266.072V271H666.456V266.456C666.456 265.763 666.301 265.251 665.992 264.92C665.693 264.589 665.267 264.424 664.712 264.424C664.317 264.424 663.96 264.509 663.64 264.68C663.331 264.84 663.085 265.091 662.904 265.432C662.733 265.773 662.648 266.211 662.648 266.744V271H660.152V262.392H662.536V264.776L662.088 264.056C662.397 263.48 662.84 263.037 663.416 262.728C663.992 262.419 664.648 262.264 665.384 262.264ZM674.973 271.128C674.162 271.128 673.432 270.947 672.781 270.584C672.13 270.211 671.613 269.693 671.229 269.032C670.856 268.371 670.669 267.592 670.669 266.696C670.669 265.789 670.856 265.005 671.229 264.344C671.613 263.683 672.13 263.171 672.781 262.808C673.432 262.445 674.162 262.264 674.973 262.264C675.698 262.264 676.333 262.424 676.877 262.744C677.421 263.064 677.842 263.549 678.141 264.2C678.44 264.851 678.589 265.683 678.589 266.696C678.589 267.699 678.445 268.531 678.157 269.192C677.869 269.843 677.453 270.328 676.909 270.648C676.376 270.968 675.73 271.128 674.973 271.128ZM675.405 269.08C675.81 269.08 676.178 268.984 676.509 268.792C676.84 268.6 677.101 268.328 677.293 267.976C677.496 267.613 677.597 267.187 677.597 266.696C677.597 266.195 677.496 265.768 677.293 265.416C677.101 265.064 676.84 264.792 676.509 264.6C676.178 264.408 675.81 264.312 675.405 264.312C674.989 264.312 674.616 264.408 674.285 264.6C673.954 264.792 673.688 265.064 673.485 265.416C673.293 265.768 673.197 266.195 673.197 266.696C673.197 267.187 673.293 267.613 673.485 267.976C673.688 268.328 673.954 268.6 674.285 268.792C674.616 268.984 674.989 269.08 675.405 269.08ZM677.661 271V269.24L677.709 266.68L677.549 264.136V259.128H680.045V271H677.661ZM686.451 271.128C685.534 271.128 684.718 270.936 684.003 270.552C683.299 270.168 682.739 269.645 682.323 268.984C681.918 268.312 681.715 267.549 681.715 266.696C681.715 265.832 681.918 265.069 682.323 264.408C682.739 263.736 683.299 263.213 684.003 262.84C684.718 262.456 685.534 262.264 686.451 262.264C687.358 262.264 688.168 262.456 688.883 262.84C689.598 263.213 690.158 263.731 690.563 264.392C690.968 265.053 691.171 265.821 691.171 266.696C691.171 267.549 690.968 268.312 690.563 268.984C690.158 269.645 689.598 270.168 688.883 270.552C688.168 270.936 687.358 271.128 686.451 271.128ZM686.451 269.08C686.867 269.08 687.24 268.984 687.571 268.792C687.902 268.6 688.163 268.328 688.355 267.976C688.547 267.613 688.643 267.187 688.643 266.696C688.643 266.195 688.547 265.768 688.355 265.416C688.163 265.064 687.902 264.792 687.571 264.6C687.24 264.408 686.867 264.312 686.451 264.312C686.035 264.312 685.662 264.408 685.331 264.6C685 264.792 684.734 265.064 684.531 265.416C684.339 265.768 684.243 266.195 684.243 266.696C684.243 267.187 684.339 267.613 684.531 267.976C684.734 268.328 685 268.6 685.331 268.792C685.662 268.984 686.035 269.08 686.451 269.08ZM694.573 271L691.469 262.392H693.821L696.397 269.8H695.277L697.965 262.392H700.077L702.685 269.8H701.565L704.221 262.392H706.429L703.309 271H700.893L698.605 264.648H699.341L696.973 271H694.573ZM579.328 293V281.8H581.92V293H579.328ZM589.634 284.264C590.317 284.264 590.925 284.403 591.458 284.68C592.002 284.947 592.429 285.363 592.738 285.928C593.047 286.483 593.202 287.197 593.202 288.072V293H590.706V288.456C590.706 287.763 590.551 287.251 590.242 286.92C589.943 286.589 589.517 286.424 588.962 286.424C588.567 286.424 588.21 286.509 587.89 286.68C587.581 286.84 587.335 287.091 587.154 287.432C586.983 287.773 586.898 288.211 586.898 288.744V293H584.402V284.392H586.786V286.776L586.338 286.056C586.647 285.48 587.09 285.037 587.666 284.728C588.242 284.419 588.898 284.264 589.634 284.264ZM598.361 293.128C597.625 293.128 596.915 293.043 596.233 292.872C595.561 292.691 595.027 292.467 594.633 292.2L595.465 290.408C595.859 290.653 596.323 290.856 596.857 291.016C597.401 291.165 597.934 291.24 598.457 291.24C599.033 291.24 599.438 291.171 599.673 291.032C599.918 290.893 600.041 290.701 600.041 290.456C600.041 290.253 599.945 290.104 599.753 290.008C599.571 289.901 599.326 289.821 599.016 289.768C598.707 289.715 598.366 289.661 597.993 289.608C597.63 289.555 597.262 289.485 596.889 289.4C596.515 289.304 596.174 289.165 595.865 288.984C595.555 288.803 595.305 288.557 595.113 288.248C594.931 287.939 594.84 287.539 594.84 287.048C594.84 286.504 594.995 286.024 595.305 285.608C595.625 285.192 596.083 284.867 596.681 284.632C597.278 284.387 597.993 284.264 598.825 284.264C599.411 284.264 600.009 284.328 600.617 284.456C601.225 284.584 601.731 284.771 602.137 285.016L601.305 286.792C600.889 286.547 600.467 286.381 600.041 286.296C599.625 286.2 599.219 286.152 598.825 286.152C598.27 286.152 597.865 286.227 597.609 286.376C597.353 286.525 597.225 286.717 597.225 286.952C597.225 287.165 597.315 287.325 597.497 287.432C597.689 287.539 597.939 287.624 598.249 287.688C598.558 287.752 598.894 287.811 599.257 287.864C599.63 287.907 600.003 287.976 600.377 288.072C600.75 288.168 601.086 288.307 601.385 288.488C601.694 288.659 601.945 288.899 602.137 289.208C602.329 289.507 602.425 289.901 602.425 290.392C602.425 290.925 602.265 291.4 601.945 291.816C601.625 292.221 601.161 292.541 600.553 292.776C599.955 293.011 599.225 293.128 598.361 293.128ZM608.237 293.128C607.255 293.128 606.391 292.936 605.645 292.552C604.909 292.168 604.338 291.645 603.933 290.984C603.527 290.312 603.325 289.549 603.325 288.696C603.325 287.832 603.522 287.069 603.917 286.408C604.322 285.736 604.871 285.213 605.565 284.84C606.258 284.456 607.042 284.264 607.917 284.264C608.759 284.264 609.517 284.445 610.189 284.808C610.871 285.16 611.41 285.672 611.805 286.344C612.199 287.005 612.397 287.8 612.397 288.728C612.397 288.824 612.391 288.936 612.381 289.064C612.37 289.181 612.359 289.293 612.349 289.4H605.357V287.944H611.036L610.077 288.376C610.077 287.928 609.986 287.539 609.805 287.208C609.623 286.877 609.373 286.621 609.053 286.44C608.733 286.248 608.359 286.152 607.933 286.152C607.506 286.152 607.127 286.248 606.797 286.44C606.477 286.621 606.226 286.883 606.045 287.224C605.863 287.555 605.773 287.949 605.773 288.408V288.792C605.773 289.261 605.874 289.677 606.077 290.04C606.29 290.392 606.583 290.664 606.957 290.856C607.341 291.037 607.789 291.128 608.301 291.128C608.759 291.128 609.159 291.059 609.501 290.92C609.853 290.781 610.173 290.573 610.461 290.296L611.789 291.736C611.394 292.184 610.898 292.531 610.301 292.776C609.703 293.011 609.015 293.128 608.237 293.128ZM614.058 293V284.392H616.442V286.824L616.106 286.12C616.362 285.512 616.773 285.053 617.338 284.744C617.904 284.424 618.592 284.264 619.402 284.264V286.568C619.296 286.557 619.2 286.552 619.114 286.552C619.029 286.541 618.938 286.536 618.842 286.536C618.16 286.536 617.605 286.733 617.178 287.128C616.762 287.512 616.554 288.115 616.554 288.936V293H614.058ZM624.703 293.128C623.69 293.128 622.901 292.872 622.335 292.36C621.77 291.837 621.487 291.064 621.487 290.04V282.488H623.983V290.008C623.983 290.371 624.079 290.653 624.271 290.856C624.463 291.048 624.725 291.144 625.055 291.144C625.45 291.144 625.786 291.037 626.063 290.824L626.735 292.584C626.479 292.765 626.17 292.904 625.807 293C625.455 293.085 625.087 293.128 624.703 293.128ZM620.159 286.504V284.584H626.127V286.504H620.159ZM631.032 293.128C630.296 293.128 629.587 293.043 628.904 292.872C628.232 292.691 627.699 292.467 627.304 292.2L628.136 290.408C628.531 290.653 628.995 290.856 629.528 291.016C630.072 291.165 630.606 291.24 631.128 291.24C631.704 291.24 632.11 291.171 632.344 291.032C632.59 290.893 632.712 290.701 632.712 290.456C632.712 290.253 632.616 290.104 632.424 290.008C632.243 289.901 631.998 289.821 631.688 289.768C631.379 289.715 631.038 289.661 630.664 289.608C630.302 289.555 629.934 289.485 629.56 289.4C629.187 289.304 628.846 289.165 628.536 288.984C628.227 288.803 627.976 288.557 627.784 288.248C627.603 287.939 627.512 287.539 627.512 287.048C627.512 286.504 627.667 286.024 627.976 285.608C628.296 285.192 628.755 284.867 629.352 284.632C629.95 284.387 630.664 284.264 631.496 284.264C632.083 284.264 632.68 284.328 633.288 284.456C633.896 284.584 634.403 284.771 634.808 285.016L633.976 286.792C633.56 286.547 633.139 286.381 632.712 286.296C632.296 286.2 631.891 286.152 631.496 286.152C630.942 286.152 630.536 286.227 630.28 286.376C630.024 286.525 629.896 286.717 629.896 286.952C629.896 287.165 629.987 287.325 630.168 287.432C630.36 287.539 630.611 287.624 630.92 287.688C631.23 287.752 631.566 287.811 631.928 287.864C632.302 287.907 632.675 287.976 633.048 288.072C633.422 288.168 633.758 288.307 634.056 288.488C634.366 288.659 634.616 288.899 634.808 289.208C635 289.507 635.096 289.901 635.096 290.392C635.096 290.925 634.936 291.4 634.616 291.816C634.296 292.221 633.832 292.541 633.224 292.776C632.627 293.011 631.896 293.128 631.032 293.128ZM646.064 284.984L648.432 288.584L646.064 292.216H643.904L646.08 288.584L643.904 284.984H646.064ZM646.544 287.72V289.464H640.816V287.72H646.544Z" fill="#28343A"/>
<path d="M578 251H655.456V251.8H578V251ZM578 273H706.445V273.8H578V273ZM578 295H649.616V295.8H578V295Z" fill="#28343A"/>
<path d="M746.008 249.192C745.112 249.192 744.253 249.075 743.432 248.84C742.611 248.595 741.949 248.28 741.448 247.896L742.328 245.944C742.808 246.285 743.373 246.568 744.024 246.792C744.685 247.005 745.352 247.112 746.024 247.112C746.536 247.112 746.947 247.064 747.256 246.968C747.576 246.861 747.811 246.717 747.96 246.536C748.109 246.355 748.184 246.147 748.184 245.912C748.184 245.613 748.067 245.379 747.832 245.208C747.597 245.027 747.288 244.883 746.904 244.776C746.52 244.659 746.093 244.552 745.624 244.456C745.165 244.349 744.701 244.221 744.232 244.072C743.773 243.923 743.352 243.731 742.968 243.496C742.584 243.261 742.269 242.952 742.024 242.568C741.789 242.184 741.672 241.693 741.672 241.096C741.672 240.456 741.843 239.875 742.184 239.352C742.536 238.819 743.059 238.397 743.752 238.088C744.456 237.768 745.336 237.608 746.392 237.608C747.096 237.608 747.789 237.693 748.472 237.864C749.155 238.024 749.757 238.269 750.28 238.6L749.48 240.568C748.957 240.269 748.435 240.051 747.912 239.912C747.389 239.763 746.877 239.688 746.376 239.688C745.875 239.688 745.464 239.747 745.144 239.864C744.824 239.981 744.595 240.136 744.456 240.328C744.317 240.509 744.248 240.723 744.248 240.968C744.248 241.256 744.365 241.491 744.6 241.672C744.835 241.843 745.144 241.981 745.528 242.088C745.912 242.195 746.333 242.301 746.792 242.408C747.261 242.515 747.725 242.637 748.184 242.776C748.653 242.915 749.08 243.101 749.464 243.336C749.848 243.571 750.157 243.88 750.392 244.264C750.637 244.648 750.76 245.133 750.76 245.72C750.76 246.349 750.584 246.925 750.232 247.448C749.88 247.971 749.352 248.392 748.648 248.712C747.955 249.032 747.075 249.192 746.008 249.192ZM756.451 249.128C755.534 249.128 754.718 248.936 754.003 248.552C753.299 248.168 752.739 247.645 752.323 246.984C751.918 246.312 751.715 245.549 751.715 244.696C751.715 243.832 751.918 243.069 752.323 242.408C752.739 241.736 753.299 241.213 754.003 240.84C754.718 240.456 755.534 240.264 756.451 240.264C757.358 240.264 758.168 240.456 758.883 240.84C759.598 241.213 760.158 241.731 760.563 242.392C760.968 243.053 761.171 243.821 761.171 244.696C761.171 245.549 760.968 246.312 760.563 246.984C760.158 247.645 759.598 248.168 758.883 248.552C758.168 248.936 757.358 249.128 756.451 249.128ZM756.451 247.08C756.867 247.08 757.24 246.984 757.571 246.792C757.902 246.6 758.163 246.328 758.355 245.976C758.547 245.613 758.643 245.187 758.643 244.696C758.643 244.195 758.547 243.768 758.355 243.416C758.163 243.064 757.902 242.792 757.571 242.6C757.24 242.408 756.867 242.312 756.451 242.312C756.035 242.312 755.662 242.408 755.331 242.6C755 242.792 754.734 243.064 754.531 243.416C754.339 243.768 754.243 244.195 754.243 244.696C754.243 245.187 754.339 245.613 754.531 245.976C754.734 246.328 755 246.6 755.331 246.792C755.662 246.984 756.035 247.08 756.451 247.08ZM766.472 249.128C765.757 249.128 765.117 248.989 764.552 248.712C763.997 248.435 763.565 248.013 763.256 247.448C762.946 246.872 762.792 246.141 762.792 245.256V240.392H765.288V244.888C765.288 245.603 765.437 246.131 765.736 246.472C766.045 246.803 766.477 246.968 767.032 246.968C767.416 246.968 767.757 246.888 768.056 246.728C768.354 246.557 768.589 246.301 768.76 245.96C768.93 245.608 769.016 245.171 769.016 244.648V240.392H771.512V249H769.144V246.632L769.576 247.32C769.288 247.917 768.861 248.371 768.296 248.68C767.741 248.979 767.133 249.128 766.472 249.128ZM779.056 240.264C779.739 240.264 780.347 240.403 780.88 240.68C781.424 240.947 781.851 241.363 782.16 241.928C782.469 242.483 782.624 243.197 782.624 244.072V249H780.128V244.456C780.128 243.763 779.973 243.251 779.664 242.92C779.365 242.589 778.939 242.424 778.384 242.424C777.989 242.424 777.632 242.509 777.312 242.68C777.003 242.84 776.757 243.091 776.576 243.432C776.405 243.773 776.32 244.211 776.32 244.744V249H773.824V240.392H776.208V242.776L775.76 242.056C776.069 241.48 776.512 241.037 777.088 240.728C777.664 240.419 778.32 240.264 779.056 240.264ZM788.645 249.128C787.834 249.128 787.104 248.947 786.453 248.584C785.802 248.211 785.285 247.693 784.901 247.032C784.528 246.371 784.341 245.592 784.341 244.696C784.341 243.789 784.528 243.005 784.901 242.344C785.285 241.683 785.802 241.171 786.453 240.808C787.104 240.445 787.834 240.264 788.645 240.264C789.37 240.264 790.005 240.424 790.549 240.744C791.093 241.064 791.514 241.549 791.813 242.2C792.112 242.851 792.261 243.683 792.261 244.696C792.261 245.699 792.117 246.531 791.829 247.192C791.541 247.843 791.125 248.328 790.581 248.648C790.048 248.968 789.402 249.128 788.645 249.128ZM789.077 247.08C789.482 247.08 789.85 246.984 790.181 246.792C790.512 246.6 790.773 246.328 790.965 245.976C791.168 245.613 791.269 245.187 791.269 244.696C791.269 244.195 791.168 243.768 790.965 243.416C790.773 243.064 790.512 242.792 790.181 242.6C789.85 242.408 789.482 242.312 789.077 242.312C788.661 242.312 788.288 242.408 787.957 242.6C787.626 242.792 787.36 243.064 787.157 243.416C786.965 243.768 786.869 244.195 786.869 244.696C786.869 245.187 786.965 245.613 787.157 245.976C787.36 246.328 787.626 246.6 787.957 246.792C788.288 246.984 788.661 247.08 789.077 247.08ZM791.333 249V247.24L791.381 244.68L791.221 242.136V237.128H793.717V249H791.333ZM801.115 249.128C800.39 249.128 799.755 248.968 799.211 248.648C798.667 248.328 798.24 247.843 797.931 247.192C797.632 246.531 797.483 245.699 797.483 244.696C797.483 243.683 797.627 242.851 797.915 242.2C798.203 241.549 798.619 241.064 799.163 240.744C799.707 240.424 800.358 240.264 801.115 240.264C801.926 240.264 802.651 240.451 803.291 240.824C803.942 241.187 804.454 241.699 804.827 242.36C805.211 243.021 805.403 243.8 805.403 244.696C805.403 245.603 805.211 246.387 804.827 247.048C804.454 247.709 803.942 248.221 803.291 248.584C802.651 248.947 801.926 249.128 801.115 249.128ZM796.027 252.104V240.392H798.411V242.152L798.363 244.712L798.523 247.256V252.104H796.027ZM800.683 247.08C801.099 247.08 801.467 246.984 801.787 246.792C802.118 246.6 802.379 246.328 802.571 245.976C802.774 245.613 802.875 245.187 802.875 244.696C802.875 244.195 802.774 243.768 802.571 243.416C802.379 243.064 802.118 242.792 801.787 242.6C801.467 242.408 801.099 242.312 800.683 242.312C800.267 242.312 799.894 242.408 799.563 242.6C799.232 242.792 798.971 243.064 798.779 243.416C798.587 243.768 798.491 244.195 798.491 244.696C798.491 245.187 798.587 245.613 798.779 245.976C798.971 246.328 799.232 246.6 799.563 246.792C799.894 246.984 800.267 247.08 800.683 247.08ZM807.074 249V240.392H809.458V242.824L809.122 242.12C809.378 241.512 809.789 241.053 810.354 240.744C810.919 240.424 811.607 240.264 812.418 240.264V242.568C812.311 242.557 812.215 242.552 812.13 242.552C812.045 242.541 811.954 242.536 811.858 242.536C811.175 242.536 810.621 242.733 810.194 243.128C809.778 243.512 809.57 244.115 809.57 244.936V249H807.074ZM817.936 249.128C817.018 249.128 816.202 248.936 815.488 248.552C814.784 248.168 814.224 247.645 813.808 246.984C813.402 246.312 813.2 245.549 813.2 244.696C813.2 243.832 813.402 243.069 813.808 242.408C814.224 241.736 814.784 241.213 815.488 240.84C816.202 240.456 817.018 240.264 817.936 240.264C818.842 240.264 819.653 240.456 820.368 240.84C821.082 241.213 821.642 241.731 822.048 242.392C822.453 243.053 822.656 243.821 822.656 244.696C822.656 245.549 822.453 246.312 822.048 246.984C821.642 247.645 821.082 248.168 820.368 248.552C819.653 248.936 818.842 249.128 817.936 249.128ZM817.936 247.08C818.352 247.08 818.725 246.984 819.056 246.792C819.386 246.6 819.648 246.328 819.84 245.976C820.032 245.613 820.128 245.187 820.128 244.696C820.128 244.195 820.032 243.768 819.84 243.416C819.648 243.064 819.386 242.792 819.056 242.6C818.725 242.408 818.352 242.312 817.936 242.312C817.52 242.312 817.146 242.408 816.816 242.6C816.485 242.792 816.218 243.064 816.016 243.416C815.824 243.768 815.728 244.195 815.728 244.696C815.728 245.187 815.824 245.613 816.016 245.976C816.218 246.328 816.485 246.6 816.816 246.792C817.146 246.984 817.52 247.08 817.936 247.08ZM828.42 249.128C827.503 249.128 826.687 248.936 825.972 248.552C825.268 248.168 824.708 247.645 824.292 246.984C823.887 246.312 823.684 245.549 823.684 244.696C823.684 243.832 823.887 243.069 824.292 242.408C824.708 241.736 825.268 241.213 825.972 240.84C826.687 240.456 827.503 240.264 828.42 240.264C829.327 240.264 830.137 240.456 830.852 240.84C831.567 241.213 832.127 241.731 832.532 242.392C832.937 243.053 833.14 243.821 833.14 244.696C833.14 245.549 832.937 246.312 832.532 246.984C832.127 247.645 831.567 248.168 830.852 248.552C830.137 248.936 829.327 249.128 828.42 249.128ZM828.42 247.08C828.836 247.08 829.209 246.984 829.54 246.792C829.871 246.6 830.132 246.328 830.324 245.976C830.516 245.613 830.612 245.187 830.612 244.696C830.612 244.195 830.516 243.768 830.324 243.416C830.132 243.064 829.871 242.792 829.54 242.6C829.209 242.408 828.836 242.312 828.42 242.312C828.004 242.312 827.631 242.408 827.3 242.6C826.969 242.792 826.703 243.064 826.5 243.416C826.308 243.768 826.212 244.195 826.212 244.696C826.212 245.187 826.308 245.613 826.5 245.976C826.703 246.328 826.969 246.6 827.3 246.792C827.631 246.984 828.004 247.08 828.42 247.08ZM835.112 249V240.2C835.112 239.229 835.4 238.456 835.976 237.88C836.552 237.293 837.374 237 838.44 237C838.803 237 839.15 237.037 839.48 237.112C839.822 237.187 840.11 237.304 840.344 237.464L839.688 239.272C839.55 239.176 839.395 239.101 839.224 239.048C839.054 238.995 838.872 238.968 838.68 238.968C838.318 238.968 838.035 239.075 837.832 239.288C837.64 239.491 837.544 239.8 837.544 240.216V241.016L837.608 242.088V249H835.112ZM833.784 242.504V240.584H839.752V242.504H833.784ZM745.016 271L741.352 259.8H744.04L747.224 269.72H745.88L749.208 259.8H751.608L754.808 269.72H753.512L756.776 259.8H759.256L755.592 271H752.808L749.976 262.296H750.712L747.8 271H745.016ZM760.668 271V262.392H763.164V271H760.668ZM761.916 261.192C761.457 261.192 761.084 261.059 760.796 260.792C760.508 260.525 760.364 260.195 760.364 259.8C760.364 259.405 760.508 259.075 760.796 258.808C761.084 258.541 761.457 258.408 761.916 258.408C762.374 258.408 762.748 258.536 763.036 258.792C763.324 259.037 763.468 259.357 763.468 259.752C763.468 260.168 763.324 260.515 763.036 260.792C762.758 261.059 762.385 261.192 761.916 261.192ZM770.712 262.264C771.395 262.264 772.003 262.403 772.536 262.68C773.08 262.947 773.507 263.363 773.816 263.928C774.125 264.483 774.28 265.197 774.28 266.072V271H771.784V266.456C771.784 265.763 771.629 265.251 771.32 264.92C771.021 264.589 770.595 264.424 770.04 264.424C769.645 264.424 769.288 264.509 768.968 264.68C768.659 264.84 768.413 265.091 768.232 265.432C768.061 265.773 767.976 266.211 767.976 266.744V271H765.48V262.392H767.864V264.776L767.416 264.056C767.725 263.48 768.168 263.037 768.744 262.728C769.32 262.419 769.976 262.264 770.712 262.264ZM780.301 271.128C779.49 271.128 778.76 270.947 778.109 270.584C777.458 270.211 776.941 269.693 776.557 269.032C776.184 268.371 775.997 267.592 775.997 266.696C775.997 265.789 776.184 265.005 776.557 264.344C776.941 263.683 777.458 263.171 778.109 262.808C778.76 262.445 779.49 262.264 780.301 262.264C781.026 262.264 781.661 262.424 782.205 262.744C782.749 263.064 783.17 263.549 783.469 264.2C783.768 264.851 783.917 265.683 783.917 266.696C783.917 267.699 783.773 268.531 783.485 269.192C783.197 269.843 782.781 270.328 782.237 270.648C781.704 270.968 781.058 271.128 780.301 271.128ZM780.733 269.08C781.138 269.08 781.506 268.984 781.837 268.792C782.168 268.6 782.429 268.328 782.621 267.976C782.824 267.613 782.925 267.187 782.925 266.696C782.925 266.195 782.824 265.768 782.621 265.416C782.429 265.064 782.168 264.792 781.837 264.6C781.506 264.408 781.138 264.312 780.733 264.312C780.317 264.312 779.944 264.408 779.613 264.6C779.282 264.792 779.016 265.064 778.813 265.416C778.621 265.768 778.525 266.195 778.525 266.696C778.525 267.187 778.621 267.613 778.813 267.976C779.016 268.328 779.282 268.6 779.613 268.792C779.944 268.984 780.317 269.08 780.733 269.08ZM782.989 271V269.24L783.037 266.68L782.877 264.136V259.128H785.373V271H782.989ZM791.779 271.128C790.862 271.128 790.046 270.936 789.331 270.552C788.627 270.168 788.067 269.645 787.651 268.984C787.246 268.312 787.043 267.549 787.043 266.696C787.043 265.832 787.246 265.069 787.651 264.408C788.067 263.736 788.627 263.213 789.331 262.84C790.046 262.456 790.862 262.264 791.779 262.264C792.686 262.264 793.497 262.456 794.211 262.84C794.926 263.213 795.486 263.731 795.891 264.392C796.297 265.053 796.499 265.821 796.499 266.696C796.499 267.549 796.297 268.312 795.891 268.984C795.486 269.645 794.926 270.168 794.211 270.552C793.497 270.936 792.686 271.128 791.779 271.128ZM791.779 269.08C792.195 269.08 792.569 268.984 792.899 268.792C793.23 268.6 793.491 268.328 793.683 267.976C793.875 267.613 793.971 267.187 793.971 266.696C793.971 266.195 793.875 265.768 793.683 265.416C793.491 265.064 793.23 264.792 792.899 264.6C792.569 264.408 792.195 264.312 791.779 264.312C791.363 264.312 790.99 264.408 790.659 264.6C790.329 264.792 790.062 265.064 789.859 265.416C789.667 265.768 789.571 266.195 789.571 266.696C789.571 267.187 789.667 267.613 789.859 267.976C790.062 268.328 790.329 268.6 790.659 268.792C790.99 268.984 791.363 269.08 791.779 269.08ZM799.901 271L796.797 262.392H799.149L801.725 269.8H800.605L803.293 262.392H805.405L808.013 269.8H806.893L809.549 262.392H811.757L808.637 271H806.221L803.933 264.648H804.669L802.301 271H799.901ZM822.345 262.984L824.713 266.584L822.345 270.216H820.185L822.361 266.584L820.185 262.984H822.345ZM822.825 265.72V267.464H817.097V265.72H822.825Z" fill="#28343A"/>
<path d="M741 251H839.848V251.8H741V251ZM741 273H825.897V273.8H741V273Z" fill="#28343A"/>
<path fill-rule="evenodd" clip-rule="evenodd" d="M88 97.1584L748 35V175L88 117.135V97.1584Z" fill="url(#paint0_linear_1_33)"/>
<path d="M127.049 39L131.529 29.2H132.551L137.031 39H135.939L131.823 29.802H132.243L128.127 39H127.049ZM128.813 36.382L129.121 35.542H134.819L135.127 36.382H128.813ZM138.739 39V29.2H142.407C143.238 29.2 143.952 29.3353 144.549 29.606C145.146 29.8673 145.604 30.25 145.921 30.754C146.248 31.2487 146.411 31.8507 146.411 32.56C146.411 33.2507 146.248 33.848 145.921 34.352C145.604 34.8467 145.146 35.2293 144.549 35.5C143.952 35.7707 143.238 35.906 142.407 35.906H139.313L139.775 35.416V39H138.739ZM139.775 35.5L139.313 34.996H142.379C143.359 34.996 144.101 34.786 144.605 34.366C145.118 33.9367 145.375 33.3347 145.375 32.56C145.375 31.776 145.118 31.1693 144.605 30.74C144.101 30.3107 143.359 30.096 142.379 30.096H139.313L139.775 29.606V35.5ZM148.739 39V29.2H152.407C153.237 29.2 153.951 29.3353 154.549 29.606C155.146 29.8673 155.603 30.25 155.921 30.754C156.247 31.2487 156.411 31.8507 156.411 32.56C156.411 33.2507 156.247 33.848 155.921 34.352C155.603 34.8467 155.146 35.2293 154.549 35.5C153.951 35.7707 153.237 35.906 152.407 35.906H149.313L149.775 35.416V39H148.739ZM149.775 35.5L149.313 34.996H152.379C153.359 34.996 154.101 34.786 154.605 34.366C155.118 33.9367 155.375 33.3347 155.375 32.56C155.375 31.776 155.118 31.1693 154.605 30.74C154.101 30.3107 153.359 30.096 152.379 30.096H149.313L149.775 29.606V35.5ZM158.738 39V29.2H159.774V38.104H165.262V39H158.738ZM167.07 39V29.2H168.106V39H167.07ZM175.638 39.084C174.901 39.084 174.219 38.9627 173.594 38.72C172.969 38.468 172.427 38.118 171.97 37.67C171.513 37.222 171.153 36.6947 170.892 36.088C170.64 35.4813 170.514 34.8187 170.514 34.1C170.514 33.3813 170.64 32.7187 170.892 32.112C171.153 31.5053 171.513 30.978 171.97 30.53C172.437 30.082 172.983 29.7367 173.608 29.494C174.233 29.242 174.915 29.116 175.652 29.116C176.361 29.116 177.029 29.2373 177.654 29.48C178.279 29.7133 178.807 30.068 179.236 30.544L178.578 31.202C178.177 30.7913 177.733 30.4973 177.248 30.32C176.763 30.1333 176.24 30.04 175.68 30.04C175.092 30.04 174.546 30.1427 174.042 30.348C173.538 30.544 173.099 30.8287 172.726 31.202C172.353 31.566 172.059 31.9953 171.844 32.49C171.639 32.9753 171.536 33.512 171.536 34.1C171.536 34.688 171.639 35.2293 171.844 35.724C172.059 36.2093 172.353 36.6387 172.726 37.012C173.099 37.376 173.538 37.6607 174.042 37.866C174.546 38.062 175.092 38.16 175.68 38.16C176.24 38.16 176.763 38.0667 177.248 37.88C177.733 37.6933 178.177 37.3947 178.578 36.984L179.236 37.642C178.807 38.118 178.279 38.4773 177.654 38.72C177.029 38.9627 176.357 39.084 175.638 39.084ZM179.718 39L184.198 29.2H185.22L189.7 39H188.608L184.492 29.802H184.912L180.796 39H179.718ZM181.482 36.382L181.79 35.542H187.488L187.796 36.382H181.482ZM192.821 39V30.096H189.377V29.2H197.301V30.096H193.857V39H192.821ZM199.043 39V29.2H200.079V39H199.043ZM207.639 39.084C206.902 39.084 206.216 38.9627 205.581 38.72C204.956 38.468 204.41 38.118 203.943 37.67C203.486 37.2127 203.127 36.6853 202.865 36.088C202.613 35.4813 202.487 34.8187 202.487 34.1C202.487 33.3813 202.613 32.7233 202.865 32.126C203.127 31.5193 203.486 30.992 203.943 30.544C204.41 30.0867 204.956 29.7367 205.581 29.494C206.207 29.242 206.893 29.116 207.639 29.116C208.377 29.116 209.058 29.242 209.683 29.494C210.309 29.7367 210.85 30.082 211.307 30.53C211.774 30.978 212.133 31.5053 212.385 32.112C212.647 32.7187 212.777 33.3813 212.777 34.1C212.777 34.8187 212.647 35.4813 212.385 36.088C212.133 36.6947 211.774 37.222 211.307 37.67C210.85 38.118 210.309 38.468 209.683 38.72C209.058 38.9627 208.377 39.084 207.639 39.084ZM207.639 38.16C208.227 38.16 208.769 38.062 209.263 37.866C209.767 37.6607 210.201 37.376 210.565 37.012C210.939 36.6387 211.228 36.2093 211.433 35.724C211.639 35.2293 211.741 34.688 211.741 34.1C211.741 33.512 211.639 32.9753 211.433 32.49C211.228 31.9953 210.939 31.566 210.565 31.202C210.201 30.8287 209.767 30.544 209.263 30.348C208.769 30.1427 208.227 30.04 207.639 30.04C207.051 30.04 206.505 30.1427 206.001 30.348C205.497 30.544 205.059 30.8287 204.685 31.202C204.321 31.566 204.032 31.9953 203.817 32.49C203.612 32.9753 203.509 33.512 203.509 34.1C203.509 34.6787 203.612 35.2153 203.817 35.71C204.032 36.2047 204.321 36.6387 204.685 37.012C205.059 37.376 205.497 37.6607 206.001 37.866C206.505 38.062 207.051 38.16 207.639 38.16ZM215.187 39V29.2H216.041L222.803 37.712H222.355V29.2H223.377V39H222.523L215.775 30.488H216.223V39H215.187ZM162.662 108.084C161.925 108.084 161.243 107.963 160.618 107.72C159.993 107.468 159.451 107.118 158.994 106.67C158.537 106.222 158.177 105.695 157.916 105.088C157.664 104.481 157.538 103.819 157.538 103.1C157.538 102.381 157.664 101.719 157.916 101.112C158.177 100.505 158.537 99.978 158.994 99.53C159.461 99.082 160.007 98.7367 160.632 98.494C161.257 98.242 161.939 98.116 162.676 98.116C163.385 98.116 164.053 98.2373 164.678 98.48C165.303 98.7133 165.831 99.068 166.26 99.544L165.602 100.202C165.201 99.7913 164.757 99.4973 164.272 99.32C163.787 99.1333 163.264 99.04 162.704 99.04C162.116 99.04 161.57 99.1427 161.066 99.348C160.562 99.544 160.123 99.8287 159.75 100.202C159.377 100.566 159.083 100.995 158.868 101.49C158.663 101.975 158.56 102.512 158.56 103.1C158.56 103.688 158.663 104.229 158.868 104.724C159.083 105.209 159.377 105.639 159.75 106.012C160.123 106.376 160.562 106.661 161.066 106.866C161.57 107.062 162.116 107.16 162.704 107.16C163.264 107.16 163.787 107.067 164.272 106.88C164.757 106.693 165.201 106.395 165.602 105.984L166.26 106.642C165.831 107.118 165.303 107.477 164.678 107.72C164.053 107.963 163.381 108.084 162.662 108.084ZM172.635 108.084C171.898 108.084 171.212 107.963 170.577 107.72C169.952 107.468 169.406 107.118 168.939 106.67C168.482 106.213 168.122 105.685 167.861 105.088C167.609 104.481 167.483 103.819 167.483 103.1C167.483 102.381 167.609 101.723 167.861 101.126C168.122 100.519 168.482 99.992 168.939 99.544C169.406 99.0867 169.952 98.7367 170.577 98.494C171.202 98.242 171.888 98.116 172.635 98.116C173.372 98.116 174.054 98.242 174.679 98.494C175.304 98.7367 175.846 99.082 176.303 99.53C176.77 99.978 177.129 100.505 177.381 101.112C177.642 101.719 177.773 102.381 177.773 103.1C177.773 103.819 177.642 104.481 177.381 105.088C177.129 105.695 176.77 106.222 176.303 106.67C175.846 107.118 175.304 107.468 174.679 107.72C174.054 107.963 173.372 108.084 172.635 108.084ZM172.635 107.16C173.223 107.16 173.764 107.062 174.259 106.866C174.763 106.661 175.197 106.376 175.561 106.012C175.934 105.639 176.224 105.209 176.429 104.724C176.634 104.229 176.737 103.688 176.737 103.1C176.737 102.512 176.634 101.975 176.429 101.49C176.224 100.995 175.934 100.566 175.561 100.202C175.197 99.8287 174.763 99.544 174.259 99.348C173.764 99.1427 173.223 99.04 172.635 99.04C172.047 99.04 171.501 99.1427 170.997 99.348C170.493 99.544 170.054 99.8287 169.681 100.202C169.317 100.566 169.028 100.995 168.813 101.49C168.608 101.975 168.505 102.512 168.505 103.1C168.505 103.679 168.608 104.215 168.813 104.71C169.028 105.205 169.317 105.639 169.681 106.012C170.054 106.376 170.493 106.661 170.997 106.866C171.501 107.062 172.047 107.16 172.635 107.16ZM182.885 108.084C182.157 108.084 181.457 107.967 180.785 107.734C180.122 107.491 179.609 107.183 179.245 106.81L179.651 106.012C179.996 106.348 180.458 106.633 181.037 106.866C181.625 107.09 182.241 107.202 182.885 107.202C183.501 107.202 184 107.127 184.383 106.978C184.775 106.819 185.059 106.609 185.237 106.348C185.423 106.087 185.517 105.797 185.517 105.48C185.517 105.097 185.405 104.789 185.181 104.556C184.966 104.323 184.681 104.141 184.327 104.01C183.972 103.87 183.58 103.749 183.151 103.646C182.721 103.543 182.292 103.436 181.863 103.324C181.433 103.203 181.037 103.044 180.673 102.848C180.318 102.652 180.029 102.395 179.805 102.078C179.59 101.751 179.483 101.327 179.483 100.804C179.483 100.319 179.609 99.8753 179.861 99.474C180.122 99.0633 180.519 98.7367 181.051 98.494C181.583 98.242 182.264 98.116 183.095 98.116C183.645 98.116 184.191 98.1953 184.733 98.354C185.274 98.5033 185.741 98.7133 186.133 98.984L185.783 99.81C185.363 99.53 184.915 99.3247 184.439 99.194C183.972 99.0633 183.519 98.998 183.081 98.998C182.493 98.998 182.007 99.0773 181.625 99.236C181.242 99.3947 180.957 99.6093 180.771 99.88C180.593 100.141 180.505 100.44 180.505 100.776C180.505 101.159 180.612 101.467 180.827 101.7C181.051 101.933 181.34 102.115 181.695 102.246C182.059 102.377 182.455 102.493 182.885 102.596C183.314 102.699 183.739 102.811 184.159 102.932C184.588 103.053 184.98 103.212 185.335 103.408C185.699 103.595 185.988 103.847 186.203 104.164C186.427 104.481 186.539 104.897 186.539 105.41C186.539 105.886 186.408 106.329 186.147 106.74C185.885 107.141 185.484 107.468 184.943 107.72C184.411 107.963 183.725 108.084 182.885 108.084ZM190.651 108V99.096H187.207V98.2H195.131V99.096H191.687V108H190.651ZM113.164 178.084C112.436 178.084 111.736 177.967 111.064 177.734C110.401 177.491 109.888 177.183 109.524 176.81L109.93 176.012C110.275 176.348 110.737 176.633 111.316 176.866C111.904 177.09 112.52 177.202 113.164 177.202C113.78 177.202 114.279 177.127 114.662 176.978C115.054 176.819 115.338 176.609 115.516 176.348C115.702 176.087 115.796 175.797 115.796 175.48C115.796 175.097 115.684 174.789 115.46 174.556C115.245 174.323 114.96 174.141 114.606 174.01C114.251 173.87 113.859 173.749 113.43 173.646C113 173.543 112.571 173.436 112.142 173.324C111.712 173.203 111.316 173.044 110.952 172.848C110.597 172.652 110.308 172.395 110.084 172.078C109.869 171.751 109.762 171.327 109.762 170.804C109.762 170.319 109.888 169.875 110.14 169.474C110.401 169.063 110.798 168.737 111.33 168.494C111.862 168.242 112.543 168.116 113.374 168.116C113.924 168.116 114.47 168.195 115.012 168.354C115.553 168.503 116.02 168.713 116.412 168.984L116.062 169.81C115.642 169.53 115.194 169.325 114.718 169.194C114.251 169.063 113.798 168.998 113.36 168.998C112.772 168.998 112.286 169.077 111.904 169.236C111.521 169.395 111.236 169.609 111.05 169.88C110.872 170.141 110.784 170.44 110.784 170.776C110.784 171.159 110.891 171.467 111.106 171.7C111.33 171.933 111.619 172.115 111.974 172.246C112.338 172.377 112.734 172.493 113.164 172.596C113.593 172.699 114.018 172.811 114.438 172.932C114.867 173.053 115.259 173.212 115.614 173.408C115.978 173.595 116.267 173.847 116.482 174.164C116.706 174.481 116.818 174.897 116.818 175.41C116.818 175.886 116.687 176.329 116.426 176.74C116.164 177.141 115.763 177.468 115.222 177.72C114.69 177.963 114.004 178.084 113.164 178.084ZM123.446 178.084C122.709 178.084 122.023 177.963 121.388 177.72C120.763 177.468 120.217 177.118 119.75 176.67C119.293 176.213 118.934 175.685 118.672 175.088C118.42 174.481 118.294 173.819 118.294 173.1C118.294 172.381 118.42 171.723 118.672 171.126C118.934 170.519 119.293 169.992 119.75 169.544C120.217 169.087 120.763 168.737 121.388 168.494C122.014 168.242 122.7 168.116 123.446 168.116C124.184 168.116 124.865 168.242 125.49 168.494C126.116 168.737 126.657 169.082 127.114 169.53C127.581 169.978 127.94 170.505 128.192 171.112C128.454 171.719 128.584 172.381 128.584 173.1C128.584 173.819 128.454 174.481 128.192 175.088C127.94 175.695 127.581 176.222 127.114 176.67C126.657 177.118 126.116 177.468 125.49 177.72C124.865 177.963 124.184 178.084 123.446 178.084ZM123.446 177.16C124.034 177.16 124.576 177.062 125.07 176.866C125.574 176.661 126.008 176.376 126.372 176.012C126.746 175.639 127.035 175.209 127.24 174.724C127.446 174.229 127.548 173.688 127.548 173.1C127.548 172.512 127.446 171.975 127.24 171.49C127.035 170.995 126.746 170.566 126.372 170.202C126.008 169.829 125.574 169.544 125.07 169.348C124.576 169.143 124.034 169.04 123.446 169.04C122.858 169.04 122.312 169.143 121.808 169.348C121.304 169.544 120.866 169.829 120.492 170.202C120.128 170.566 119.839 170.995 119.624 171.49C119.419 171.975 119.316 172.512 119.316 173.1C119.316 173.679 119.419 174.215 119.624 174.71C119.839 175.205 120.128 175.639 120.492 176.012C120.866 176.376 121.304 176.661 121.808 176.866C122.312 177.062 122.858 177.16 123.446 177.16ZM134.942 178.084C133.691 178.084 132.707 177.725 131.988 177.006C131.269 176.287 130.91 175.223 130.91 173.814V168.2H131.946V173.772C131.946 174.929 132.207 175.783 132.73 176.334C133.253 176.885 133.99 177.16 134.942 177.16C135.903 177.16 136.645 176.885 137.168 176.334C137.691 175.783 137.952 174.929 137.952 173.772V168.2H138.96V173.814C138.96 175.223 138.601 176.287 137.882 177.006C137.173 177.725 136.193 178.084 134.942 178.084ZM142.169 178V168.2H143.023L149.785 176.712H149.337V168.2H150.359V178H149.505L142.757 169.488H143.205V178H142.169ZM153.646 178V168.2H157.636C158.681 168.2 159.596 168.41 160.38 168.83C161.173 169.241 161.789 169.815 162.228 170.552C162.666 171.289 162.886 172.139 162.886 173.1C162.886 174.061 162.666 174.911 162.228 175.648C161.789 176.385 161.173 176.964 160.38 177.384C159.596 177.795 158.681 178 157.636 178H153.646ZM154.682 177.104H157.58C158.448 177.104 159.199 176.936 159.834 176.6C160.478 176.255 160.977 175.783 161.332 175.186C161.686 174.579 161.864 173.884 161.864 173.1C161.864 172.307 161.686 171.611 161.332 171.014C160.977 170.417 160.478 169.95 159.834 169.614C159.199 169.269 158.448 169.096 157.58 169.096H154.682V177.104ZM165.3 178V168.2H168.968C169.798 168.2 170.512 168.335 171.11 168.606C171.707 168.867 172.164 169.25 172.482 169.754C172.808 170.249 172.972 170.851 172.972 171.56C172.972 172.251 172.808 172.848 172.482 173.352C172.164 173.847 171.707 174.229 171.11 174.5C170.512 174.771 169.798 174.906 168.968 174.906H165.874L166.336 174.416V178H165.3ZM166.336 174.5L165.874 173.996H168.94C169.92 173.996 170.662 173.786 171.166 173.366C171.679 172.937 171.936 172.335 171.936 171.56C171.936 170.776 171.679 170.169 171.166 169.74C170.662 169.311 169.92 169.096 168.94 169.096H165.874L166.336 168.606V174.5ZM175.299 178V168.2H178.967C179.798 168.2 180.512 168.335 181.109 168.606C181.706 168.867 182.164 169.25 182.481 169.754C182.808 170.249 182.971 170.851 182.971 171.56C182.971 172.251 182.808 172.848 182.481 173.352C182.164 173.847 181.706 174.229 181.109 174.5C180.512 174.761 179.798 174.892 178.967 174.892H175.873L176.335 174.416V178H175.299ZM181.991 178L179.471 174.444H180.591L183.125 178H181.991ZM176.335 174.5L175.873 174.01H178.939C179.919 174.01 180.661 173.795 181.165 173.366C181.678 172.937 181.935 172.335 181.935 171.56C181.935 170.776 181.678 170.169 181.165 169.74C180.661 169.311 179.919 169.096 178.939 169.096H175.873L176.335 168.606V174.5ZM189.788 178.084C189.05 178.084 188.364 177.963 187.73 177.72C187.104 177.468 186.558 177.118 186.092 176.67C185.634 176.213 185.275 175.685 185.014 175.088C184.762 174.481 184.636 173.819 184.636 173.1C184.636 172.381 184.762 171.723 185.014 171.126C185.275 170.519 185.634 169.992 186.092 169.544C186.558 169.087 187.104 168.737 187.73 168.494C188.355 168.242 189.041 168.116 189.788 168.116C190.525 168.116 191.206 168.242 191.832 168.494C192.457 168.737 192.998 169.082 193.456 169.53C193.922 169.978 194.282 170.505 194.534 171.112C194.795 171.719 194.926 172.381 194.926 173.1C194.926 173.819 194.795 174.481 194.534 175.088C194.282 175.695 193.922 176.222 193.456 176.67C192.998 177.118 192.457 177.468 191.832 177.72C191.206 177.963 190.525 178.084 189.788 178.084ZM189.788 177.16C190.376 177.16 190.917 177.062 191.412 176.866C191.916 176.661 192.35 176.376 192.714 176.012C193.087 175.639 193.376 175.209 193.582 174.724C193.787 174.229 193.89 173.688 193.89 173.1C193.89 172.512 193.787 171.975 193.582 171.49C193.376 170.995 193.087 170.566 192.714 170.202C192.35 169.829 191.916 169.544 191.412 169.348C190.917 169.143 190.376 169.04 189.788 169.04C189.2 169.04 188.654 169.143 188.15 169.348C187.646 169.544 187.207 169.829 186.834 170.202C186.47 170.566 186.18 170.995 185.966 171.49C185.76 171.975 185.658 172.512 185.658 173.1C185.658 173.679 185.76 174.215 185.966 174.71C186.18 175.205 186.47 175.639 186.834 176.012C187.207 176.376 187.646 176.661 188.15 176.866C188.654 177.062 189.2 177.16 189.788 177.16ZM201.619 178.084C200.882 178.084 200.196 177.963 199.561 177.72C198.936 177.468 198.39 177.118 197.923 176.67C197.466 176.213 197.107 175.685 196.845 175.088C196.593 174.481 196.467 173.819 196.467 173.1C196.467 172.381 196.593 171.723 196.845 171.126C197.107 170.519 197.466 169.992 197.923 169.544C198.39 169.087 198.936 168.737 199.561 168.494C200.187 168.242 200.873 168.116 201.619 168.116C202.357 168.116 203.038 168.242 203.663 168.494C204.289 168.737 204.83 169.082 205.287 169.53C205.754 169.978 206.113 170.505 206.365 171.112C206.627 171.719 206.757 172.381 206.757 173.1C206.757 173.819 206.627 174.481 206.365 175.088C206.113 175.695 205.754 176.222 205.287 176.67C204.83 177.118 204.289 177.468 203.663 177.72C203.038 177.963 202.357 178.084 201.619 178.084ZM201.619 177.16C202.207 177.16 202.749 177.062 203.243 176.866C203.747 176.661 204.181 176.376 204.545 176.012C204.919 175.639 205.208 175.209 205.413 174.724C205.619 174.229 205.721 173.688 205.721 173.1C205.721 172.512 205.619 171.975 205.413 171.49C205.208 170.995 204.919 170.566 204.545 170.202C204.181 169.829 203.747 169.544 203.243 169.348C202.749 169.143 202.207 169.04 201.619 169.04C201.031 169.04 200.485 169.143 199.981 169.348C199.477 169.544 199.039 169.829 198.665 170.202C198.301 170.566 198.012 170.995 197.797 171.49C197.592 171.975 197.489 172.512 197.489 173.1C197.489 173.679 197.592 174.215 197.797 174.71C198.012 175.205 198.301 175.639 198.665 176.012C199.039 176.376 199.477 176.661 199.981 176.866C200.485 177.062 201.031 177.16 201.619 177.16ZM210.091 172.946H215.271V173.842H210.091V172.946ZM210.203 178H209.167V168.2H215.887V169.096H210.203V178ZM218.114 178V168.2H219.15V178H218.114ZM222.426 178V168.2H223.28L230.042 176.712H229.594V168.2H230.616V178H229.762L223.014 169.488H223.462V178H222.426ZM238.2 178.084C237.454 178.084 236.763 177.963 236.128 177.72C235.503 177.468 234.957 177.118 234.49 176.67C234.033 176.222 233.674 175.695 233.412 175.088C233.16 174.481 233.034 173.819 233.034 173.1C233.034 172.381 233.16 171.719 233.412 171.112C233.674 170.505 234.038 169.978 234.504 169.53C234.971 169.082 235.517 168.737 236.142 168.494C236.777 168.242 237.468 168.116 238.214 168.116C238.961 168.116 239.642 168.233 240.258 168.466C240.884 168.699 241.416 169.054 241.854 169.53L241.21 170.188C240.8 169.777 240.347 169.483 239.852 169.306C239.358 169.129 238.826 169.04 238.256 169.04C237.65 169.04 237.09 169.143 236.576 169.348C236.072 169.544 235.629 169.829 235.246 170.202C234.873 170.566 234.579 170.995 234.364 171.49C234.159 171.975 234.056 172.512 234.056 173.1C234.056 173.679 234.159 174.215 234.364 174.71C234.579 175.205 234.873 175.639 235.246 176.012C235.629 176.376 236.072 176.661 236.576 176.866C237.09 177.062 237.645 177.16 238.242 177.16C238.802 177.16 239.33 177.076 239.824 176.908C240.328 176.74 240.79 176.455 241.21 176.054L241.798 176.838C241.332 177.249 240.786 177.561 240.16 177.776C239.535 177.981 238.882 178.084 238.2 178.084ZM240.804 176.712V173.1H241.798V176.838L240.804 176.712Z" fill="#37474F"/>
<path d="M48.6063 39V28.5H53.3763C54.5163 28.5 55.5213 28.72 56.3913 29.16C57.2613 29.59 57.9413 30.195 58.4313 30.975C58.9213 31.755 59.1663 32.68 59.1663 33.75C59.1663 34.81 58.9213 35.735 58.4313 36.525C57.9413 37.305 57.2613 37.915 56.3913 38.355C55.5213 38.785 54.5163 39 53.3763 39H48.6063ZM51.0363 37.005H53.2563C53.9563 37.005 54.5613 36.875 55.0713 36.615C55.5913 36.345 55.9913 35.965 56.2713 35.475C56.5613 34.985 56.7063 34.41 56.7063 33.75C56.7063 33.08 56.5613 32.505 56.2713 32.025C55.9913 31.535 55.5913 31.16 55.0713 30.9C54.5613 30.63 53.9563 30.495 53.2563 30.495H51.0363V37.005ZM61.0927 39V28.5H63.5227V39H61.0927ZM68.7183 39V34.71L69.2733 36.18L64.6533 28.5H67.2333L70.7733 34.395H69.2883L72.8433 28.5H75.2283L70.6083 36.18L71.1483 34.71V39H68.7183Z" fill="#37474F"/>
<path d="M765.245 39V28.5H769.79C770.73 28.5 771.54 28.655 772.22 28.965C772.9 29.265 773.425 29.7 773.795 30.27C774.165 30.84 774.35 31.52 774.35 32.31C774.35 33.09 774.165 33.765 773.795 34.335C773.425 34.905 772.9 35.345 772.22 35.655C771.54 35.955 770.73 36.105 769.79 36.105H766.595L767.675 35.01V39H765.245ZM767.675 35.28L766.595 34.125H769.655C770.405 34.125 770.965 33.965 771.335 33.645C771.705 33.325 771.89 32.88 771.89 32.31C771.89 31.73 771.705 31.28 771.335 30.96C770.965 30.64 770.405 30.48 769.655 30.48H766.595L767.675 29.325V35.28ZM775.999 39V30.93H778.234V33.21L777.919 32.55C778.159 31.98 778.544 31.55 779.074 31.26C779.604 30.96 780.249 30.81 781.009 30.81V32.97C780.909 32.96 780.819 32.955 780.739 32.955C780.659 32.945 780.574 32.94 780.484 32.94C779.844 32.94 779.324 33.125 778.924 33.495C778.534 33.855 778.339 34.42 778.339 35.19V39H775.999ZM786.275 39.12C785.415 39.12 784.65 38.94 783.98 38.58C783.32 38.22 782.795 37.73 782.405 37.11C782.025 36.48 781.835 35.765 781.835 34.965C781.835 34.155 782.025 33.44 782.405 32.82C782.795 32.19 783.32 31.7 783.98 31.35C784.65 30.99 785.415 30.81 786.275 30.81C787.125 30.81 787.885 30.99 788.555 31.35C789.225 31.7 789.75 32.185 790.13 32.805C790.51 33.425 790.7 34.145 790.7 34.965C790.7 35.765 790.51 36.48 790.13 37.11C789.75 37.73 789.225 38.22 788.555 38.58C787.885 38.94 787.125 39.12 786.275 39.12ZM786.275 37.2C786.665 37.2 787.015 37.11 787.325 36.93C787.635 36.75 787.88 36.495 788.06 36.165C788.24 35.825 788.33 35.425 788.33 34.965C788.33 34.495 788.24 34.095 788.06 33.765C787.88 33.435 787.635 33.18 787.325 33C787.015 32.82 786.665 32.73 786.275 32.73C785.885 32.73 785.535 32.82 785.225 33C784.915 33.18 784.665 33.435 784.475 33.765C784.295 34.095 784.205 34.495 784.205 34.965C784.205 35.425 784.295 35.825 784.475 36.165C784.665 36.495 784.915 36.75 785.225 36.93C785.535 37.11 785.885 37.2 786.275 37.2ZM792.643 39V30.75C792.643 29.84 792.913 29.115 793.453 28.575C793.993 28.025 794.763 27.75 795.763 27.75C796.103 27.75 796.428 27.785 796.738 27.855C797.058 27.925 797.328 28.035 797.548 28.185L796.933 29.88C796.803 29.79 796.658 29.72 796.498 29.67C796.338 29.62 796.168 29.595 795.988 29.595C795.648 29.595 795.383 29.695 795.193 29.895C795.013 30.085 794.923 30.375 794.923 30.765V31.515L794.983 32.52V39H792.643ZM791.398 32.91V31.11H796.993V32.91H791.398ZM802.155 39.12C801.235 39.12 800.425 38.94 799.725 38.58C799.035 38.22 798.5 37.73 798.12 37.11C797.74 36.48 797.55 35.765 797.55 34.965C797.55 34.155 797.735 33.44 798.105 32.82C798.485 32.19 799 31.7 799.65 31.35C800.3 30.99 801.035 30.81 801.855 30.81C802.645 30.81 803.355 30.98 803.985 31.32C804.625 31.65 805.13 32.13 805.5 32.76C805.87 33.38 806.055 34.125 806.055 34.995C806.055 35.085 806.05 35.19 806.04 35.31C806.03 35.42 806.02 35.525 806.01 35.625H799.455V34.26H804.78L803.88 34.665C803.88 34.245 803.795 33.88 803.625 33.57C803.455 33.26 803.22 33.02 802.92 32.85C802.62 32.67 802.27 32.58 801.87 32.58C801.47 32.58 801.115 32.67 800.805 32.85C800.505 33.02 800.27 33.265 800.1 33.585C799.93 33.895 799.845 34.265 799.845 34.695V35.055C799.845 35.495 799.94 35.885 800.13 36.225C800.33 36.555 800.605 36.81 800.955 36.99C801.315 37.16 801.735 37.245 802.215 37.245C802.645 37.245 803.02 37.18 803.34 37.05C803.67 36.92 803.97 36.725 804.24 36.465L805.485 37.815C805.115 38.235 804.65 38.56 804.09 38.79C803.53 39.01 802.885 39.12 802.155 39.12ZM810.422 39.12C809.732 39.12 809.067 39.04 808.427 38.88C807.797 38.71 807.297 38.5 806.927 38.25L807.707 36.57C808.077 36.8 808.512 36.99 809.012 37.14C809.522 37.28 810.022 37.35 810.512 37.35C811.052 37.35 811.432 37.285 811.652 37.155C811.882 37.025 811.997 36.845 811.997 36.615C811.997 36.425 811.907 36.285 811.727 36.195C811.557 36.095 811.327 36.02 811.037 35.97C810.747 35.92 810.427 35.87 810.077 35.82C809.737 35.77 809.392 35.705 809.042 35.625C808.692 35.535 808.372 35.405 808.082 35.235C807.792 35.065 807.557 34.835 807.377 34.545C807.207 34.255 807.122 33.88 807.122 33.42C807.122 32.91 807.267 32.46 807.557 32.07C807.857 31.68 808.287 31.375 808.847 31.155C809.407 30.925 810.077 30.81 810.857 30.81C811.407 30.81 811.967 30.87 812.537 30.99C813.107 31.11 813.582 31.285 813.962 31.515L813.182 33.18C812.792 32.95 812.397 32.795 811.997 32.715C811.607 32.625 811.227 32.58 810.857 32.58C810.337 32.58 809.957 32.65 809.717 32.79C809.477 32.93 809.357 33.11 809.357 33.33C809.357 33.53 809.442 33.68 809.612 33.78C809.792 33.88 810.027 33.96 810.317 34.02C810.607 34.08 810.922 34.135 811.262 34.185C811.612 34.225 811.962 34.29 812.312 34.38C812.662 34.47 812.977 34.6 813.257 34.77C813.547 34.93 813.782 35.155 813.962 35.445C814.142 35.725 814.232 36.095 814.232 36.555C814.232 37.055 814.082 37.5 813.782 37.89C813.482 38.27 813.047 38.57 812.477 38.79C811.917 39.01 811.232 39.12 810.422 39.12ZM818.484 39.12C817.794 39.12 817.129 39.04 816.489 38.88C815.859 38.71 815.359 38.5 814.989 38.25L815.769 36.57C816.139 36.8 816.574 36.99 817.074 37.14C817.584 37.28 818.084 37.35 818.574 37.35C819.114 37.35 819.494 37.285 819.714 37.155C819.944 37.025 820.059 36.845 820.059 36.615C820.059 36.425 819.969 36.285 819.789 36.195C819.619 36.095 819.389 36.02 819.099 35.97C818.809 35.92 818.489 35.87 818.139 35.82C817.799 35.77 817.454 35.705 817.104 35.625C816.754 35.535 816.434 35.405 816.144 35.235C815.854 35.065 815.619 34.835 815.439 34.545C815.269 34.255 815.184 33.88 815.184 33.42C815.184 32.91 815.329 32.46 815.619 32.07C815.919 31.68 816.349 31.375 816.909 31.155C817.469 30.925 818.139 30.81 818.919 30.81C819.469 30.81 820.029 30.87 820.599 30.99C821.169 31.11 821.644 31.285 822.024 31.515L821.244 33.18C820.854 32.95 820.459 32.795 820.059 32.715C819.669 32.625 819.289 32.58 818.919 32.58C818.399 32.58 818.019 32.65 817.779 32.79C817.539 32.93 817.419 33.11 817.419 33.33C817.419 33.53 817.504 33.68 817.674 33.78C817.854 33.88 818.089 33.96 818.379 34.02C818.669 34.08 818.984 34.135 819.324 34.185C819.674 34.225 820.024 34.29 820.374 34.38C820.724 34.47 821.039 34.6 821.319 34.77C821.609 34.93 821.844 35.155 822.024 35.445C822.204 35.725 822.294 36.095 822.294 36.555C822.294 37.055 822.144 37.5 821.844 37.89C821.544 38.27 821.109 38.57 820.539 38.79C819.979 39.01 819.294 39.12 818.484 39.12ZM823.832 39V30.93H826.172V39H823.832ZM825.002 29.805C824.572 29.805 824.222 29.68 823.952 29.43C823.682 29.18 823.547 28.87 823.547 28.5C823.547 28.13 823.682 27.82 823.952 27.57C824.222 27.32 824.572 27.195 825.002 27.195C825.432 27.195 825.782 27.315 826.052 27.555C826.322 27.785 826.457 28.085 826.457 28.455C826.457 28.845 826.322 29.17 826.052 29.43C825.792 29.68 825.442 29.805 825.002 29.805ZM832.277 39.12C831.417 39.12 830.652 38.94 829.982 38.58C829.322 38.22 828.797 37.73 828.407 37.11C828.027 36.48 827.837 35.765 827.837 34.965C827.837 34.155 828.027 33.44 828.407 32.82C828.797 32.19 829.322 31.7 829.982 31.35C830.652 30.99 831.417 30.81 832.277 30.81C833.127 30.81 833.887 30.99 834.557 31.35C835.227 31.7 835.752 32.185 836.132 32.805C836.512 33.425 836.702 34.145 836.702 34.965C836.702 35.765 836.512 36.48 836.132 37.11C835.752 37.73 835.227 38.22 834.557 38.58C833.887 38.94 833.127 39.12 832.277 39.12ZM832.277 37.2C832.667 37.2 833.017 37.11 833.327 36.93C833.637 36.75 833.882 36.495 834.062 36.165C834.242 35.825 834.332 35.425 834.332 34.965C834.332 34.495 834.242 34.095 834.062 33.765C833.882 33.435 833.637 33.18 833.327 33C833.017 32.82 832.667 32.73 832.277 32.73C831.887 32.73 831.537 32.82 831.227 33C830.917 33.18 830.667 33.435 830.477 33.765C830.297 34.095 830.207 34.495 830.207 34.965C830.207 35.425 830.297 35.825 830.477 36.165C830.667 36.495 830.917 36.75 831.227 36.93C831.537 37.11 831.887 37.2 832.277 37.2ZM843.265 30.81C843.905 30.81 844.475 30.94 844.975 31.2C845.485 31.45 845.885 31.84 846.175 32.37C846.465 32.89 846.61 33.56 846.61 34.38V39H844.27V34.74C844.27 34.09 844.125 33.61 843.835 33.3C843.555 32.99 843.155 32.835 842.635 32.835C842.265 32.835 841.93 32.915 841.63 33.075C841.34 33.225 841.11 33.46 840.94 33.78C840.78 34.1 840.7 34.51 840.7 35.01V39H838.36V30.93H840.595V33.165L840.175 32.49C840.465 31.95 840.88 31.535 841.42 31.245C841.96 30.955 842.575 30.81 843.265 30.81ZM853.775 39V37.425L853.625 37.08V34.26C853.625 33.76 853.47 33.37 853.16 33.09C852.86 32.81 852.395 32.67 851.765 32.67C851.335 32.67 850.91 32.74 850.49 32.88C850.08 33.01 849.73 33.19 849.44 33.42L848.6 31.785C849.04 31.475 849.57 31.235 850.19 31.065C850.81 30.895 851.44 30.81 852.08 30.81C853.31 30.81 854.265 31.1 854.945 31.68C855.625 32.26 855.965 33.165 855.965 34.395V39H853.775ZM851.315 39.12C850.685 39.12 850.145 39.015 849.695 38.805C849.245 38.585 848.9 38.29 848.66 37.92C848.42 37.55 848.3 37.135 848.3 36.675C848.3 36.195 848.415 35.775 848.645 35.415C848.885 35.055 849.26 34.775 849.77 34.575C850.28 34.365 850.945 34.26 851.765 34.26H853.91V35.625H852.02C851.47 35.625 851.09 35.715 850.88 35.895C850.68 36.075 850.58 36.3 850.58 36.57C850.58 36.87 850.695 37.11 850.925 37.29C851.165 37.46 851.49 37.545 851.9 37.545C852.29 37.545 852.64 37.455 852.95 37.275C853.26 37.085 853.485 36.81 853.625 36.45L853.985 37.53C853.815 38.05 853.505 38.445 853.055 38.715C852.605 38.985 852.025 39.12 851.315 39.12ZM858.177 39V27.87H860.517V39H858.177Z" fill="#37474F"/>
<path d="M69.5896 110.8V96.7H71.0896V110.8H69.5896ZM70.1296 109.18C69.2896 109.18 68.4846 109.07 67.7146 108.85C66.9446 108.62 66.3246 108.325 65.8546 107.965L66.6796 106.135C67.1296 106.455 67.6596 106.72 68.2696 106.93C68.8896 107.13 69.5146 107.23 70.1446 107.23C70.6246 107.23 71.0096 107.185 71.2996 107.095C71.5996 106.995 71.8196 106.86 71.9596 106.69C72.0996 106.52 72.1696 106.325 72.1696 106.105C72.1696 105.825 72.0596 105.605 71.8396 105.445C71.6196 105.275 71.3296 105.14 70.9696 105.04C70.6096 104.93 70.2096 104.83 69.7696 104.74C69.3396 104.64 68.9046 104.52 68.4646 104.38C68.0346 104.24 67.6396 104.06 67.2796 103.84C66.9196 103.62 66.6246 103.33 66.3946 102.97C66.1746 102.61 66.0646 102.15 66.0646 101.59C66.0646 100.99 66.2246 100.445 66.5446 99.955C66.8746 99.455 67.3646 99.06 68.0146 98.77C68.6746 98.47 69.4996 98.32 70.4896 98.32C71.1496 98.32 71.7996 98.4 72.4396 98.56C73.0796 98.71 73.6446 98.94 74.1346 99.25L73.3846 101.095C72.8946 100.815 72.4046 100.61 71.9146 100.48C71.4246 100.34 70.9446 100.27 70.4746 100.27C70.0046 100.27 69.6196 100.325 69.3196 100.435C69.0196 100.545 68.8046 100.69 68.6746 100.87C68.5446 101.04 68.4796 101.24 68.4796 101.47C68.4796 101.74 68.5896 101.96 68.8096 102.13C69.0296 102.29 69.3196 102.42 69.6796 102.52C70.0396 102.62 70.4346 102.72 70.8646 102.82C71.3046 102.92 71.7396 103.035 72.1696 103.165C72.6096 103.295 73.0096 103.47 73.3696 103.69C73.7296 103.91 74.0196 104.2 74.2396 104.56C74.4696 104.92 74.5846 105.375 74.5846 105.925C74.5846 106.515 74.4196 107.055 74.0896 107.545C73.7596 108.035 73.2646 108.43 72.6046 108.73C71.9546 109.03 71.1296 109.18 70.1296 109.18Z" fill="#37474F"/>
<path d="M768.155 110.8V96.7H769.655V110.8H768.155ZM768.695 109.18C767.855 109.18 767.05 109.07 766.28 108.85C765.51 108.62 764.89 108.325 764.42 107.965L765.245 106.135C765.695 106.455 766.225 106.72 766.835 106.93C767.455 107.13 768.08 107.23 768.71 107.23C769.19 107.23 769.575 107.185 769.865 107.095C770.165 106.995 770.385 106.86 770.525 106.69C770.665 106.52 770.735 106.325 770.735 106.105C770.735 105.825 770.625 105.605 770.405 105.445C770.185 105.275 769.895 105.14 769.535 105.04C769.175 104.93 768.775 104.83 768.335 104.74C767.905 104.64 767.47 104.52 767.03 104.38C766.6 104.24 766.205 104.06 765.845 103.84C765.485 103.62 765.19 103.33 764.96 102.97C764.74 102.61 764.63 102.15 764.63 101.59C764.63 100.99 764.79 100.445 765.11 99.955C765.44 99.455 765.93 99.06 766.58 98.77C767.24 98.47 768.065 98.32 769.055 98.32C769.715 98.32 770.365 98.4 771.005 98.56C771.645 98.71 772.21 98.94 772.7 99.25L771.95 101.095C771.46 100.815 770.97 100.61 770.48 100.48C769.99 100.34 769.51 100.27 769.04 100.27C768.57 100.27 768.185 100.325 767.885 100.435C767.585 100.545 767.37 100.69 767.24 100.87C767.11 101.04 767.045 101.24 767.045 101.47C767.045 101.74 767.155 101.96 767.375 102.13C767.595 102.29 767.885 102.42 768.245 102.52C768.605 102.62 769 102.72 769.43 102.82C769.87 102.92 770.305 103.035 770.735 103.165C771.175 103.295 771.575 103.47 771.935 103.69C772.295 103.91 772.585 104.2 772.805 104.56C773.035 104.92 773.15 105.375 773.15 105.925C773.15 106.515 772.985 107.055 772.655 107.545C772.325 108.035 771.83 108.43 771.17 108.73C770.52 109.03 769.695 109.18 768.695 109.18ZM777.814 110.8V96.7H779.314V110.8H777.814ZM778.354 109.18C777.514 109.18 776.709 109.07 775.939 108.85C775.169 108.62 774.549 108.325 774.079 107.965L774.904 106.135C775.354 106.455 775.884 106.72 776.494 106.93C777.114 107.13 777.739 107.23 778.369 107.23C778.849 107.23 779.234 107.185 779.524 107.095C779.824 106.995 780.044 106.86 780.184 106.69C780.324 106.52 780.394 106.325 780.394 106.105C780.394 105.825 780.284 105.605 780.064 105.445C779.844 105.275 779.554 105.14 779.194 105.04C778.834 104.93 778.434 104.83 777.994 104.74C777.564 104.64 777.129 104.52 776.689 104.38C776.259 104.24 775.864 104.06 775.504 103.84C775.144 103.62 774.849 103.33 774.619 102.97C774.399 102.61 774.289 102.15 774.289 101.59C774.289 100.99 774.449 100.445 774.769 99.955C775.099 99.455 775.589 99.06 776.239 98.77C776.899 98.47 777.724 98.32 778.714 98.32C779.374 98.32 780.024 98.4 780.664 98.56C781.304 98.71 781.869 98.94 782.359 99.25L781.609 101.095C781.119 100.815 780.629 100.61 780.139 100.48C779.649 100.34 779.169 100.27 778.699 100.27C778.229 100.27 777.844 100.325 777.544 100.435C777.244 100.545 777.029 100.69 776.899 100.87C776.769 101.04 776.704 101.24 776.704 101.47C776.704 101.74 776.814 101.96 777.034 102.13C777.254 102.29 777.544 102.42 777.904 102.52C778.264 102.62 778.659 102.72 779.089 102.82C779.529 102.92 779.964 103.035 780.394 103.165C780.834 103.295 781.234 103.47 781.594 103.69C781.954 103.91 782.244 104.2 782.464 104.56C782.694 104.92 782.809 105.375 782.809 105.925C782.809 106.515 782.644 107.055 782.314 107.545C781.984 108.035 781.489 108.43 780.829 108.73C780.179 109.03 779.354 109.18 778.354 109.18ZM787.473 110.8V96.7H788.973V110.8H787.473ZM788.013 109.18C787.173 109.18 786.368 109.07 785.598 108.85C784.828 108.62 784.208 108.325 783.738 107.965L784.563 106.135C785.013 106.455 785.543 106.72 786.153 106.93C786.773 107.13 787.398 107.23 788.028 107.23C788.508 107.23 788.893 107.185 789.183 107.095C789.483 106.995 789.703 106.86 789.843 106.69C789.983 106.52 790.053 106.325 790.053 106.105C790.053 105.825 789.943 105.605 789.723 105.445C789.503 105.275 789.213 105.14 788.853 105.04C788.493 104.93 788.093 104.83 787.653 104.74C787.223 104.64 786.788 104.52 786.348 104.38C785.918 104.24 785.523 104.06 785.163 103.84C784.803 103.62 784.508 103.33 784.278 102.97C784.058 102.61 783.948 102.15 783.948 101.59C783.948 100.99 784.108 100.445 784.428 99.955C784.758 99.455 785.248 99.06 785.898 98.77C786.558 98.47 787.383 98.32 788.373 98.32C789.033 98.32 789.683 98.4 790.323 98.56C790.963 98.71 791.528 98.94 792.018 99.25L791.268 101.095C790.778 100.815 790.288 100.61 789.798 100.48C789.308 100.34 788.828 100.27 788.358 100.27C787.888 100.27 787.503 100.325 787.203 100.435C786.903 100.545 786.688 100.69 786.558 100.87C786.428 101.04 786.363 101.24 786.363 101.47C786.363 101.74 786.473 101.96 786.693 102.13C786.913 102.29 787.203 102.42 787.563 102.52C787.923 102.62 788.318 102.72 788.748 102.82C789.188 102.92 789.623 103.035 790.053 103.165C790.493 103.295 790.893 103.47 791.253 103.69C791.613 103.91 791.903 104.2 792.123 104.56C792.353 104.92 792.468 105.375 792.468 105.925C792.468 106.515 792.303 107.055 791.973 107.545C791.643 108.035 791.148 108.43 790.488 108.73C789.838 109.03 789.013 109.18 788.013 109.18ZM797.133 110.8V96.7H798.633V110.8H797.133ZM797.673 109.18C796.833 109.18 796.028 109.07 795.258 108.85C794.488 108.62 793.868 108.325 793.398 107.965L794.223 106.135C794.673 106.455 795.203 106.72 795.813 106.93C796.433 107.13 797.058 107.23 797.688 107.23C798.168 107.23 798.553 107.185 798.843 107.095C799.143 106.995 799.363 106.86 799.503 106.69C799.643 106.52 799.713 106.325 799.713 106.105C799.713 105.825 799.603 105.605 799.383 105.445C799.163 105.275 798.873 105.14 798.513 105.04C798.153 104.93 797.753 104.83 797.313 104.74C796.883 104.64 796.448 104.52 796.008 104.38C795.578 104.24 795.183 104.06 794.823 103.84C794.463 103.62 794.168 103.33 793.938 102.97C793.718 102.61 793.608 102.15 793.608 101.59C793.608 100.99 793.768 100.445 794.088 99.955C794.418 99.455 794.908 99.06 795.558 98.77C796.218 98.47 797.043 98.32 798.033 98.32C798.693 98.32 799.343 98.4 799.983 98.56C800.623 98.71 801.188 98.94 801.678 99.25L800.928 101.095C800.438 100.815 799.948 100.61 799.458 100.48C798.968 100.34 798.488 100.27 798.018 100.27C797.548 100.27 797.163 100.325 796.863 100.435C796.563 100.545 796.348 100.69 796.218 100.87C796.088 101.04 796.023 101.24 796.023 101.47C796.023 101.74 796.133 101.96 796.353 102.13C796.573 102.29 796.863 102.42 797.223 102.52C797.583 102.62 797.978 102.72 798.408 102.82C798.848 102.92 799.283 103.035 799.713 103.165C800.153 103.295 800.553 103.47 800.913 103.69C801.273 103.91 801.563 104.2 801.783 104.56C802.013 104.92 802.128 105.375 802.128 105.925C802.128 106.515 801.963 107.055 801.633 107.545C801.303 108.035 800.808 108.43 800.148 108.73C799.498 109.03 798.673 109.18 797.673 109.18ZM806.792 110.8V96.7H808.292V110.8H806.792ZM807.332 109.18C806.492 109.18 805.687 109.07 804.917 108.85C804.147 108.62 803.527 108.325 803.057 107.965L803.882 106.135C804.332 106.455 804.862 106.72 805.472 106.93C806.092 107.13 806.717 107.23 807.347 107.23C807.827 107.23 808.212 107.185 808.502 107.095C808.802 106.995 809.022 106.86 809.162 106.69C809.302 106.52 809.372 106.325 809.372 106.105C809.372 105.825 809.262 105.605 809.042 105.445C808.822 105.275 808.532 105.14 808.172 105.04C807.812 104.93 807.412 104.83 806.972 104.74C806.542 104.64 806.107 104.52 805.667 104.38C805.237 104.24 804.842 104.06 804.482 103.84C804.122 103.62 803.827 103.33 803.597 102.97C803.377 102.61 803.267 102.15 803.267 101.59C803.267 100.99 803.427 100.445 803.747 99.955C804.077 99.455 804.567 99.06 805.217 98.77C805.877 98.47 806.702 98.32 807.692 98.32C808.352 98.32 809.002 98.4 809.642 98.56C810.282 98.71 810.847 98.94 811.337 99.25L810.587 101.095C810.097 100.815 809.607 100.61 809.117 100.48C808.627 100.34 808.147 100.27 807.677 100.27C807.207 100.27 806.822 100.325 806.522 100.435C806.222 100.545 806.007 100.69 805.877 100.87C805.747 101.04 805.682 101.24 805.682 101.47C805.682 101.74 805.792 101.96 806.012 102.13C806.232 102.29 806.522 102.42 806.882 102.52C807.242 102.62 807.637 102.72 808.067 102.82C808.507 102.92 808.942 103.035 809.372 103.165C809.812 103.295 810.212 103.47 810.572 103.69C810.932 103.91 811.222 104.2 811.442 104.56C811.672 104.92 811.787 105.375 811.787 105.925C811.787 106.515 811.622 107.055 811.292 107.545C810.962 108.035 810.467 108.43 809.807 108.73C809.157 109.03 808.332 109.18 807.332 109.18Z" fill="#37474F"/>
<path d="M0.199097 180V169.5H2.20909L6.67909 176.91H5.61409L10.0091 169.5H12.0041L12.0341 180H9.75409L9.73909 172.995H10.1591L6.64909 178.89H5.55409L1.96909 172.995H2.47909V180H0.199097ZM14.454 180V171.93H16.794V180H14.454ZM15.624 170.805C15.194 170.805 14.844 170.68 14.574 170.43C14.304 170.18 14.169 169.87 14.169 169.5C14.169 169.13 14.304 168.82 14.574 168.57C14.844 168.32 15.194 168.195 15.624 168.195C16.054 168.195 16.404 168.315 16.674 168.555C16.944 168.785 17.079 169.085 17.079 169.455C17.079 169.845 16.944 170.17 16.674 170.43C16.414 170.68 16.064 170.805 15.624 170.805ZM23.9645 171.81C24.6045 171.81 25.1745 171.94 25.6745 172.2C26.1845 172.45 26.5845 172.84 26.8745 173.37C27.1645 173.89 27.3095 174.56 27.3095 175.38V180H24.9695V175.74C24.9695 175.09 24.8245 174.61 24.5345 174.3C24.2545 173.99 23.8545 173.835 23.3345 173.835C22.9645 173.835 22.6295 173.915 22.3295 174.075C22.0395 174.225 21.8095 174.46 21.6395 174.78C21.4795 175.1 21.3995 175.51 21.3995 176.01V180H19.0595V171.93H21.2945V174.165L20.8745 173.49C21.1645 172.95 21.5795 172.535 22.1195 172.245C22.6595 171.955 23.2745 171.81 23.9645 171.81ZM29.5243 180V171.93H31.8643V180H29.5243ZM30.6943 170.805C30.2643 170.805 29.9143 170.68 29.6443 170.43C29.3743 170.18 29.2393 169.87 29.2393 169.5C29.2393 169.13 29.3743 168.82 29.6443 168.57C29.9143 168.32 30.2643 168.195 30.6943 168.195C31.1243 168.195 31.4743 168.315 31.7443 168.555C32.0143 168.785 32.1493 169.085 32.1493 169.455C32.1493 169.845 32.0143 170.17 31.7443 170.43C31.4843 170.68 31.1343 170.805 30.6943 170.805ZM44.4648 171.81C45.1048 171.81 45.6698 171.94 46.1598 172.2C46.6598 172.45 47.0498 172.84 47.3298 173.37C47.6198 173.89 47.7648 174.56 47.7648 175.38V180H45.4248V175.74C45.4248 175.09 45.2898 174.61 45.0198 174.3C44.7498 173.99 44.3698 173.835 43.8798 173.835C43.5398 173.835 43.2348 173.915 42.9648 174.075C42.6948 174.225 42.4848 174.455 42.3348 174.765C42.1848 175.075 42.1098 175.47 42.1098 175.95V180H39.7698V175.74C39.7698 175.09 39.6348 174.61 39.3648 174.3C39.1048 173.99 38.7298 173.835 38.2398 173.835C37.8998 173.835 37.5948 173.915 37.3248 174.075C37.0548 174.225 36.8448 174.455 36.6948 174.765C36.5448 175.075 36.4698 175.47 36.4698 175.95V180H34.1298V171.93H36.3648V174.135L35.9448 173.49C36.2248 172.94 36.6198 172.525 37.1298 172.245C37.6498 171.955 38.2398 171.81 38.8998 171.81C39.6398 171.81 40.2848 172 40.8348 172.38C41.3948 172.75 41.7648 173.32 41.9448 174.09L41.1198 173.865C41.3898 173.235 41.8198 172.735 42.4098 172.365C43.0098 171.995 43.6948 171.81 44.4648 171.81ZM53.361 180.12C52.691 180.12 52.091 179.99 51.561 179.73C51.041 179.47 50.636 179.075 50.346 178.545C50.056 178.005 49.911 177.32 49.911 176.49V171.93H52.251V176.145C52.251 176.815 52.391 177.31 52.671 177.63C52.961 177.94 53.366 178.095 53.886 178.095C54.246 178.095 54.566 178.02 54.846 177.87C55.126 177.71 55.346 177.47 55.506 177.15C55.666 176.82 55.746 176.41 55.746 175.92V171.93H58.086V180H55.866V177.78L56.271 178.425C56.001 178.985 55.601 179.41 55.071 179.7C54.551 179.98 53.981 180.12 53.361 180.12ZM70.6826 171.81C71.3226 171.81 71.8876 171.94 72.3776 172.2C72.8776 172.45 73.2676 172.84 73.5476 173.37C73.8376 173.89 73.9826 174.56 73.9826 175.38V180H71.6426V175.74C71.6426 175.09 71.5076 174.61 71.2376 174.3C70.9676 173.99 70.5876 173.835 70.0976 173.835C69.7576 173.835 69.4526 173.915 69.1826 174.075C68.9126 174.225 68.7026 174.455 68.5526 174.765C68.4026 175.075 68.3276 175.47 68.3276 175.95V180H65.9876V175.74C65.9876 175.09 65.8526 174.61 65.5826 174.3C65.3226 173.99 64.9476 173.835 64.4576 173.835C64.1176 173.835 63.8126 173.915 63.5426 174.075C63.2726 174.225 63.0626 174.455 62.9126 174.765C62.7626 175.075 62.6876 175.47 62.6876 175.95V180H60.3476V171.93H62.5826V174.135L62.1626 173.49C62.4426 172.94 62.8376 172.525 63.3476 172.245C63.8676 171.955 64.4576 171.81 65.1176 171.81C65.8576 171.81 66.5026 172 67.0526 172.38C67.6126 172.75 67.9826 173.32 68.1626 174.09L67.3376 173.865C67.6076 173.235 68.0376 172.735 68.6276 172.365C69.2276 171.995 69.9126 171.81 70.6826 171.81Z" fill="#37474F"/>
<path d="M765.245 180V169.5H767.255L771.725 176.91H770.66L775.055 169.5H777.05L777.08 180H774.8L774.785 172.995H775.205L771.695 178.89H770.6L767.015 172.995H767.525V180H765.245ZM784.45 180V178.425L784.3 178.08V175.26C784.3 174.76 784.145 174.37 783.835 174.09C783.535 173.81 783.07 173.67 782.44 173.67C782.01 173.67 781.585 173.74 781.165 173.88C780.755 174.01 780.405 174.19 780.115 174.42L779.275 172.785C779.715 172.475 780.245 172.235 780.865 172.065C781.485 171.895 782.115 171.81 782.755 171.81C783.985 171.81 784.94 172.1 785.62 172.68C786.3 173.26 786.64 174.165 786.64 175.395V180H784.45ZM781.99 180.12C781.36 180.12 780.82 180.015 780.37 179.805C779.92 179.585 779.575 179.29 779.335 178.92C779.095 178.55 778.975 178.135 778.975 177.675C778.975 177.195 779.09 176.775 779.32 176.415C779.56 176.055 779.935 175.775 780.445 175.575C780.955 175.365 781.62 175.26 782.44 175.26H784.585V176.625H782.695C782.145 176.625 781.765 176.715 781.555 176.895C781.355 177.075 781.255 177.3 781.255 177.57C781.255 177.87 781.37 178.11 781.6 178.29C781.84 178.46 782.165 178.545 782.575 178.545C782.965 178.545 783.315 178.455 783.625 178.275C783.935 178.085 784.16 177.81 784.3 177.45L784.66 178.53C784.49 179.05 784.18 179.445 783.73 179.715C783.28 179.985 782.7 180.12 781.99 180.12ZM787.831 180L791.446 175.26L791.401 176.55L787.936 171.93H790.561L792.751 174.945L791.761 174.975L794.026 171.93H796.516L793.036 176.505V175.245L796.636 180H793.981L791.686 176.79L792.661 176.925L790.381 180H787.831ZM797.866 180V171.93H800.206V180H797.866ZM799.036 170.805C798.606 170.805 798.256 170.68 797.986 170.43C797.716 170.18 797.581 169.87 797.581 169.5C797.581 169.13 797.716 168.82 797.986 168.57C798.256 168.32 798.606 168.195 799.036 168.195C799.466 168.195 799.816 168.315 800.086 168.555C800.356 168.785 800.491 169.085 800.491 169.455C800.491 169.845 800.356 170.17 800.086 170.43C799.826 170.68 799.476 170.805 799.036 170.805ZM812.807 171.81C813.447 171.81 814.012 171.94 814.502 172.2C815.002 172.45 815.392 172.84 815.672 173.37C815.962 173.89 816.107 174.56 816.107 175.38V180H813.767V175.74C813.767 175.09 813.632 174.61 813.362 174.3C813.092 173.99 812.712 173.835 812.222 173.835C811.882 173.835 811.577 173.915 811.307 174.075C811.037 174.225 810.827 174.455 810.677 174.765C810.527 175.075 810.452 175.47 810.452 175.95V180H808.112V175.74C808.112 175.09 807.977 174.61 807.707 174.3C807.447 173.99 807.072 173.835 806.582 173.835C806.242 173.835 805.937 173.915 805.667 174.075C805.397 174.225 805.187 174.455 805.037 174.765C804.887 175.075 804.812 175.47 804.812 175.95V180H802.472V171.93H804.707V174.135L804.287 173.49C804.567 172.94 804.962 172.525 805.472 172.245C805.992 171.955 806.582 171.81 807.242 171.81C807.982 171.81 808.627 172 809.177 172.38C809.737 172.75 810.107 173.32 810.287 174.09L809.462 173.865C809.732 173.235 810.162 172.735 810.752 172.365C811.352 171.995 812.037 171.81 812.807 171.81ZM821.703 180.12C821.033 180.12 820.433 179.99 819.903 179.73C819.383 179.47 818.978 179.075 818.688 178.545C818.398 178.005 818.253 177.32 818.253 176.49V171.93H820.593V176.145C820.593 176.815 820.733 177.31 821.013 177.63C821.303 177.94 821.708 178.095 822.228 178.095C822.588 178.095 822.908 178.02 823.188 177.87C823.468 177.71 823.688 177.47 823.848 177.15C824.008 176.82 824.088 176.41 824.088 175.92V171.93H826.428V180H824.208V177.78L824.613 178.425C824.343 178.985 823.943 179.41 823.413 179.7C822.893 179.98 822.323 180.12 821.703 180.12ZM839.024 171.81C839.664 171.81 840.229 171.94 840.719 172.2C841.219 172.45 841.609 172.84 841.889 173.37C842.179 173.89 842.324 174.56 842.324 175.38V180H839.984V175.74C839.984 175.09 839.849 174.61 839.579 174.3C839.309 173.99 838.929 173.835 838.439 173.835C838.099 173.835 837.794 173.915 837.524 174.075C837.254 174.225 837.044 174.455 836.894 174.765C836.744 175.075 836.669 175.47 836.669 175.95V180H834.329V175.74C834.329 175.09 834.194 174.61 833.924 174.3C833.664 173.99 833.289 173.835 832.799 173.835C832.459 173.835 832.154 173.915 831.884 174.075C831.614 174.225 831.404 174.455 831.254 174.765C831.104 175.075 831.029 175.47 831.029 175.95V180H828.689V171.93H830.924V174.135L830.504 173.49C830.784 172.94 831.179 172.525 831.689 172.245C832.209 171.955 832.799 171.81 833.459 171.81C834.199 171.81 834.844 172 835.394 172.38C835.954 172.75 836.324 173.32 836.504 174.09L835.679 173.865C835.949 173.235 836.379 172.735 836.969 172.365C837.569 171.995 838.254 171.81 839.024 171.81Z" fill="#37474F"/>
<path d="M124.5 34.5H87.5" stroke="#37474F" stroke-linecap="square" stroke-dasharray="1 3"/>
<path d="M747.5 174.5H246.5" stroke="#37474F" stroke-linecap="square" stroke-dasharray="1 3"/>
<path d="M106.5 174.5H87.5" stroke="#37474F" stroke-linecap="square" stroke-dasharray="1 3"/>
<path d="M746.5 104.5H197.5" stroke="#37474F" stroke-linecap="square" stroke-dasharray="1 3"/>
<path d="M153.5 104.5H87.5" stroke="#37474F" stroke-linecap="square" stroke-dasharray="1 3"/>
<path d="M747.5 34.5H226.5" stroke="#37474F" stroke-linecap="square" stroke-dasharray="1 3"/>
<path d="M94.2104 0.796221C93.8217 0.403867 93.1886 0.400895 92.7962 0.789581L86.4025 7.12359C86.0101 7.51228 86.0071 8.14544 86.3958 8.53779C86.7845 8.93015 87.4177 8.93312 87.81 8.54443L93.4934 2.9142L99.1236 8.59755C99.5123 8.9899 100.145 8.99287 100.538 8.60419C100.93 8.2155 100.933 7.58234 100.544 7.18999L94.2104 0.796221ZM92 107.995L91.9953 108.995L93.9953 109.005L94 108.005L92 107.995ZM92.5 1.49531L92 107.995L94 108.005L94.5 1.50469L92.5 1.49531Z" fill="#37474F"/>
<path d="M259.217 0.802923C258.832 0.406937 258.199 0.39802 257.803 0.783006L251.35 7.05671C250.954 7.4417 250.945 8.0748 251.33 8.47078C251.715 8.86677 252.348 8.87569 252.744 8.4907L258.48 2.91407L264.057 8.65003C264.442 9.04602 265.075 9.05493 265.471 8.66995C265.867 8.28496 265.876 7.65186 265.491 7.25588L259.217 0.802923ZM257 36.9859L256.986 37.9858L258.986 38.014L259 37.0141L257 36.9859ZM257.5 1.48592L257 36.9859L259 37.0141L259.5 1.51408L257.5 1.48592Z" fill="#37474F"/>
<path d="M92.5 105.5L259.5 171.5" stroke="#37474F" stroke-width="2" stroke-linecap="square"/>
<path d="M258 37L584 172" stroke="#37474F" stroke-width="2" stroke-linecap="square"/>
<path d="M748.207 0.792893C747.817 0.402369 747.183 0.402369 746.793 0.792893L740.429 7.15685C740.038 7.54738 740.038 8.18054 740.429 8.57107C740.819 8.96159 741.453 8.96159 741.843 8.57107L747.5 2.91421L753.157 8.57107C753.547 8.96159 754.181 8.96159 754.571 8.57107C754.962 8.18054 754.962 7.54738 754.571 7.15685L748.207 0.792893ZM746.5 214.5V215.5H748.5V214.5H746.5ZM746.5 1.5V214.5H748.5V1.5H746.5Z" fill="#37474F"/>
<path d="M584 172L583.5 214.5" stroke="#37474F" stroke-width="2" stroke-linecap="square"/>
<path d="M259 172L258.5 214.5" stroke="#37474F" stroke-width="2" stroke-linecap="square"/>
<path d="M92.5 44C96.6421 44 100 40.6421 100 36.5C100 32.3579 96.6421 29 92.5 29C88.3579 29 85 32.3579 85 36.5C85 40.6421 88.3579 44 92.5 44Z" fill="white" stroke="#37474F" stroke-width="2"/>
<path d="M257.5 44C261.642 44 265 40.6421 265 36.5C265 32.3579 261.642 29 257.5 29C253.358 29 250 32.3579 250 36.5C250 40.6421 253.358 44 257.5 44Z" fill="white" stroke="#37474F" stroke-width="2"/>
<path d="M748.5 44C752.642 44 756 40.6421 756 36.5C756 32.3579 752.642 29 748.5 29C744.358 29 741 32.3579 741 36.5C741 40.6421 744.358 44 748.5 44Z" fill="white" stroke="#37474F" stroke-width="2"/>
<path d="M92.5 112C96.6421 112 100 108.642 100 104.5C100 100.358 96.6421 97 92.5 97C88.3579 97 85 100.358 85 104.5C85 108.642 88.3579 112 92.5 112Z" fill="white" stroke="#37474F" stroke-width="2"/>
<path d="M418.5 112C422.642 112 426 108.642 426 104.5C426 100.358 422.642 97 418.5 97C414.358 97 411 100.358 411 104.5C411 108.642 414.358 112 418.5 112Z" fill="white" stroke="#37474F" stroke-width="2"/>
<path d="M583.5 179C587.642 179 591 175.642 591 171.5C591 167.358 587.642 164 583.5 164C579.358 164 576 167.358 576 171.5C576 175.642 579.358 179 583.5 179Z" fill="white" stroke="#37474F" stroke-width="2"/>
<path d="M747.5 112C751.642 112 755 108.642 755 104.5C755 100.358 751.642 97 747.5 97C743.358 97 740 100.358 740 104.5C740 108.642 743.358 112 747.5 112Z" fill="white" stroke="#37474F" stroke-width="2"/>
<path d="M258.5 179C262.642 179 266 175.642 266 171.5C266 167.358 262.642 164 258.5 164C254.358 164 251 167.358 251 171.5C251 175.642 254.358 179 258.5 179Z" fill="white" stroke="#37474F" stroke-width="2"/>
<path d="M748.5 179C752.642 179 756 175.642 756 171.5C756 167.358 752.642 164 748.5 164C744.358 164 741 167.358 741 171.5C741 175.642 744.358 179 748.5 179Z" fill="white" stroke="#37474F" stroke-width="2"/>
</g>
<defs>
<linearGradient id="paint0_linear_1_33" x1="748" y1="35.5007" x2="92.7207" y2="35.5007" gradientUnits="userSpaceOnUse">
<stop stop-color="#0176BD"/>
<stop offset="1" stop-color="white"/>
</linearGradient>
<clipPath id="clip0_1_33">
<rect width="861" height="296" fill="white"/>
</clipPath>
</defs>
</svg>
