<svg width="861" height="274" viewBox="0 0 861 274" fill="none" xmlns="http://www.w3.org/2000/svg">
<g clip-path="url(#clip0_1_2)">
<path d="M588.008 249.192C587.112 249.192 586.253 249.075 585.432 248.84C584.611 248.595 583.949 248.28 583.448 247.896L584.328 245.944C584.808 246.285 585.373 246.568 586.024 246.792C586.685 247.005 587.352 247.112 588.024 247.112C588.536 247.112 588.947 247.064 589.256 246.968C589.576 246.861 589.811 246.717 589.96 246.536C590.109 246.355 590.184 246.147 590.184 245.912C590.184 245.613 590.067 245.379 589.832 245.208C589.597 245.027 589.288 244.883 588.904 244.776C588.52 244.659 588.093 244.552 587.624 244.456C587.165 244.349 586.701 244.221 586.232 244.072C585.773 243.923 585.352 243.731 584.968 243.496C584.584 243.261 584.269 242.952 584.024 242.568C583.789 242.184 583.672 241.693 583.672 241.096C583.672 240.456 583.843 239.875 584.184 239.352C584.536 238.819 585.059 238.397 585.752 238.088C586.456 237.768 587.336 237.608 588.392 237.608C589.096 237.608 589.789 237.693 590.472 237.864C591.155 238.024 591.757 238.269 592.28 238.6L591.48 240.568C590.957 240.269 590.435 240.051 589.912 239.912C589.389 239.763 588.877 239.688 588.376 239.688C587.875 239.688 587.464 239.747 587.144 239.864C586.824 239.981 586.595 240.136 586.456 240.328C586.317 240.509 586.248 240.723 586.248 240.968C586.248 241.256 586.365 241.491 586.6 241.672C586.835 241.843 587.144 241.981 587.528 242.088C587.912 242.195 588.333 242.301 588.792 242.408C589.261 242.515 589.725 242.637 590.184 242.776C590.653 242.915 591.08 243.101 591.464 243.336C591.848 243.571 592.157 243.88 592.392 244.264C592.637 244.648 592.76 245.133 592.76 245.72C592.76 246.349 592.584 246.925 592.232 247.448C591.88 247.971 591.352 248.392 590.648 248.712C589.955 249.032 589.075 249.192 588.008 249.192ZM598.451 249.128C597.534 249.128 596.718 248.936 596.003 248.552C595.299 248.168 594.739 247.645 594.323 246.984C593.918 246.312 593.715 245.549 593.715 244.696C593.715 243.832 593.918 243.069 594.323 242.408C594.739 241.736 595.299 241.213 596.003 240.84C596.718 240.456 597.534 240.264 598.451 240.264C599.358 240.264 600.168 240.456 600.883 240.84C601.598 241.213 602.158 241.731 602.563 242.392C602.968 243.053 603.171 243.821 603.171 244.696C603.171 245.549 602.968 246.312 602.563 246.984C602.158 247.645 601.598 248.168 600.883 248.552C600.168 248.936 599.358 249.128 598.451 249.128ZM598.451 247.08C598.867 247.08 599.24 246.984 599.571 246.792C599.902 246.6 600.163 246.328 600.355 245.976C600.547 245.613 600.643 245.187 600.643 244.696C600.643 244.195 600.547 243.768 600.355 243.416C600.163 243.064 599.902 242.792 599.571 242.6C599.24 242.408 598.867 242.312 598.451 242.312C598.035 242.312 597.662 242.408 597.331 242.6C597 242.792 596.734 243.064 596.531 243.416C596.339 243.768 596.243 244.195 596.243 244.696C596.243 245.187 596.339 245.613 596.531 245.976C596.734 246.328 597 246.6 597.331 246.792C597.662 246.984 598.035 247.08 598.451 247.08ZM608.472 249.128C607.757 249.128 607.117 248.989 606.552 248.712C605.997 248.435 605.565 248.013 605.256 247.448C604.946 246.872 604.792 246.141 604.792 245.256V240.392H607.288V244.888C607.288 245.603 607.437 246.131 607.736 246.472C608.045 246.803 608.477 246.968 609.032 246.968C609.416 246.968 609.757 246.888 610.056 246.728C610.354 246.557 610.589 246.301 610.76 245.96C610.93 245.608 611.016 245.171 611.016 244.648V240.392H613.512V249H611.144V246.632L611.576 247.32C611.288 247.917 610.861 248.371 610.296 248.68C609.741 248.979 609.133 249.128 608.472 249.128ZM621.056 240.264C621.739 240.264 622.347 240.403 622.88 240.68C623.424 240.947 623.851 241.363 624.16 241.928C624.469 242.483 624.624 243.197 624.624 244.072V249H622.128V244.456C622.128 243.763 621.973 243.251 621.664 242.92C621.365 242.589 620.939 242.424 620.384 242.424C619.989 242.424 619.632 242.509 619.312 242.68C619.003 242.84 618.757 243.091 618.576 243.432C618.405 243.773 618.32 244.211 618.32 244.744V249H615.824V240.392H618.208V242.776L617.76 242.056C618.069 241.48 618.512 241.037 619.088 240.728C619.664 240.419 620.32 240.264 621.056 240.264ZM630.645 249.128C629.834 249.128 629.104 248.947 628.453 248.584C627.802 248.211 627.285 247.693 626.901 247.032C626.528 246.371 626.341 245.592 626.341 244.696C626.341 243.789 626.528 243.005 626.901 242.344C627.285 241.683 627.802 241.171 628.453 240.808C629.104 240.445 629.834 240.264 630.645 240.264C631.37 240.264 632.005 240.424 632.549 240.744C633.093 241.064 633.514 241.549 633.813 242.2C634.112 242.851 634.261 243.683 634.261 244.696C634.261 245.699 634.117 246.531 633.829 247.192C633.541 247.843 633.125 248.328 632.581 248.648C632.048 248.968 631.402 249.128 630.645 249.128ZM631.077 247.08C631.482 247.08 631.85 246.984 632.181 246.792C632.512 246.6 632.773 246.328 632.965 245.976C633.168 245.613 633.269 245.187 633.269 244.696C633.269 244.195 633.168 243.768 632.965 243.416C632.773 243.064 632.512 242.792 632.181 242.6C631.85 242.408 631.482 242.312 631.077 242.312C630.661 242.312 630.288 242.408 629.957 242.6C629.626 242.792 629.36 243.064 629.157 243.416C628.965 243.768 628.869 244.195 628.869 244.696C628.869 245.187 628.965 245.613 629.157 245.976C629.36 246.328 629.626 246.6 629.957 246.792C630.288 246.984 630.661 247.08 631.077 247.08ZM633.333 249V247.24L633.381 244.68L633.221 242.136V237.128H635.717V249H633.333ZM642.734 249V237.8H645.326V246.888H650.942V249H642.734ZM656.264 249.128C655.346 249.128 654.53 248.936 653.816 248.552C653.112 248.168 652.552 247.645 652.136 246.984C651.73 246.312 651.528 245.549 651.528 244.696C651.528 243.832 651.73 243.069 652.136 242.408C652.552 241.736 653.112 241.213 653.816 240.84C654.53 240.456 655.346 240.264 656.264 240.264C657.17 240.264 657.981 240.456 658.696 240.84C659.41 241.213 659.97 241.731 660.376 242.392C660.781 243.053 660.984 243.821 660.984 244.696C660.984 245.549 660.781 246.312 660.376 246.984C659.97 247.645 659.41 248.168 658.696 248.552C657.981 248.936 657.17 249.128 656.264 249.128ZM656.264 247.08C656.68 247.08 657.053 246.984 657.384 246.792C657.714 246.6 657.976 246.328 658.168 245.976C658.36 245.613 658.456 245.187 658.456 244.696C658.456 244.195 658.36 243.768 658.168 243.416C657.976 243.064 657.714 242.792 657.384 242.6C657.053 242.408 656.68 242.312 656.264 242.312C655.848 242.312 655.474 242.408 655.144 242.6C654.813 242.792 654.546 243.064 654.344 243.416C654.152 243.768 654.056 244.195 654.056 244.696C654.056 245.187 654.152 245.613 654.344 245.976C654.546 246.328 654.813 246.6 655.144 246.792C655.474 246.984 655.848 247.08 656.264 247.08ZM666.812 249.128C665.884 249.128 665.057 248.941 664.332 248.568C663.607 248.184 663.036 247.656 662.62 246.984C662.215 246.312 662.012 245.549 662.012 244.696C662.012 243.832 662.215 243.069 662.62 242.408C663.036 241.736 663.607 241.213 664.332 240.84C665.057 240.456 665.884 240.264 666.812 240.264C667.719 240.264 668.508 240.456 669.18 240.84C669.852 241.213 670.348 241.752 670.668 242.456L668.732 243.496C668.508 243.091 668.225 242.792 667.884 242.6C667.553 242.408 667.191 242.312 666.796 242.312C666.369 242.312 665.985 242.408 665.644 242.6C665.303 242.792 665.031 243.064 664.828 243.416C664.636 243.768 664.54 244.195 664.54 244.696C664.54 245.197 664.636 245.624 664.828 245.976C665.031 246.328 665.303 246.6 665.644 246.792C665.985 246.984 666.369 247.08 666.796 247.08C667.191 247.08 667.553 246.989 667.884 246.808C668.225 246.616 668.508 246.312 668.732 245.896L670.668 246.952C670.348 247.645 669.852 248.184 669.18 248.568C668.508 248.941 667.719 249.128 666.812 249.128ZM674.122 247.24L674.186 244.2L678.202 240.392H681.178L677.322 244.312L676.026 245.368L674.122 247.24ZM672.058 249V237.128H674.554V249H672.058ZM678.474 249L675.562 245.384L677.13 243.448L681.498 249H678.474ZM584.328 271V259.8H589.416C590.632 259.8 591.704 260.035 592.632 260.504C593.56 260.963 594.285 261.608 594.808 262.44C595.331 263.272 595.592 264.259 595.592 265.4C595.592 266.531 595.331 267.517 594.808 268.36C594.285 269.192 593.56 269.843 592.632 270.312C591.704 270.771 590.632 271 589.416 271H584.328ZM586.92 268.872H589.288C590.035 268.872 590.68 268.733 591.224 268.456C591.779 268.168 592.205 267.763 592.504 267.24C592.813 266.717 592.968 266.104 592.968 265.4C592.968 264.685 592.813 264.072 592.504 263.56C592.205 263.037 591.779 262.637 591.224 262.36C590.68 262.072 590.035 261.928 589.288 261.928H586.92V268.872ZM601.467 271.128C600.549 271.128 599.733 270.936 599.019 270.552C598.315 270.168 597.755 269.645 597.339 268.984C596.933 268.312 596.731 267.549 596.731 266.696C596.731 265.832 596.933 265.069 597.339 264.408C597.755 263.736 598.315 263.213 599.019 262.84C599.733 262.456 600.549 262.264 601.467 262.264C602.373 262.264 603.184 262.456 603.899 262.84C604.613 263.213 605.173 263.731 605.579 264.392C605.984 265.053 606.187 265.821 606.187 266.696C606.187 267.549 605.984 268.312 605.579 268.984C605.173 269.645 604.613 270.168 603.899 270.552C603.184 270.936 602.373 271.128 601.467 271.128ZM601.467 269.08C601.883 269.08 602.256 268.984 602.587 268.792C602.917 268.6 603.179 268.328 603.371 267.976C603.563 267.613 603.659 267.187 603.659 266.696C603.659 266.195 603.563 265.768 603.371 265.416C603.179 265.064 602.917 264.792 602.587 264.6C602.256 264.408 601.883 264.312 601.467 264.312C601.051 264.312 600.677 264.408 600.347 264.6C600.016 264.792 599.749 265.064 599.547 265.416C599.355 265.768 599.259 266.195 599.259 266.696C599.259 267.187 599.355 267.613 599.547 267.976C599.749 268.328 600.016 268.6 600.347 268.792C600.677 268.984 601.051 269.08 601.467 269.08ZM611.951 271.128C611.034 271.128 610.218 270.936 609.503 270.552C608.799 270.168 608.239 269.645 607.823 268.984C607.418 268.312 607.215 267.549 607.215 266.696C607.215 265.832 607.418 265.069 607.823 264.408C608.239 263.736 608.799 263.213 609.503 262.84C610.218 262.456 611.034 262.264 611.951 262.264C612.858 262.264 613.668 262.456 614.383 262.84C615.098 263.213 615.658 263.731 616.063 264.392C616.468 265.053 616.671 265.821 616.671 266.696C616.671 267.549 616.468 268.312 616.063 268.984C615.658 269.645 615.098 270.168 614.383 270.552C613.668 270.936 612.858 271.128 611.951 271.128ZM611.951 269.08C612.367 269.08 612.74 268.984 613.071 268.792C613.402 268.6 613.663 268.328 613.855 267.976C614.047 267.613 614.143 267.187 614.143 266.696C614.143 266.195 614.047 265.768 613.855 265.416C613.663 265.064 613.402 264.792 613.071 264.6C612.74 264.408 612.367 264.312 611.951 264.312C611.535 264.312 611.162 264.408 610.831 264.6C610.5 264.792 610.234 265.064 610.031 265.416C609.839 265.768 609.743 266.195 609.743 266.696C609.743 267.187 609.839 267.613 610.031 267.976C610.234 268.328 610.5 268.6 610.831 268.792C611.162 268.984 611.535 269.08 611.951 269.08ZM618.34 271V262.392H620.724V264.824L620.388 264.12C620.644 263.512 621.054 263.053 621.62 262.744C622.185 262.424 622.873 262.264 623.684 262.264V264.568C623.577 264.557 623.481 264.552 623.396 264.552C623.31 264.541 623.22 264.536 623.124 264.536C622.441 264.536 621.886 264.733 621.46 265.128C621.044 265.512 620.836 266.115 620.836 266.936V271H618.34ZM633.617 271.192C632.721 271.192 631.863 271.075 631.041 270.84C630.22 270.595 629.559 270.28 629.057 269.896L629.937 267.944C630.417 268.285 630.983 268.568 631.633 268.792C632.295 269.005 632.961 269.112 633.633 269.112C634.145 269.112 634.556 269.064 634.865 268.968C635.185 268.861 635.42 268.717 635.569 268.536C635.719 268.355 635.793 268.147 635.793 267.912C635.793 267.613 635.676 267.379 635.441 267.208C635.207 267.027 634.897 266.883 634.513 266.776C634.129 266.659 633.703 266.552 633.233 266.456C632.775 266.349 632.311 266.221 631.841 266.072C631.383 265.923 630.961 265.731 630.577 265.496C630.193 265.261 629.879 264.952 629.633 264.568C629.399 264.184 629.281 263.693 629.281 263.096C629.281 262.456 629.452 261.875 629.793 261.352C630.145 260.819 630.668 260.397 631.361 260.088C632.065 259.768 632.945 259.608 634.001 259.608C634.705 259.608 635.399 259.693 636.081 259.864C636.764 260.024 637.367 260.269 637.889 260.6L637.089 262.568C636.567 262.269 636.044 262.051 635.521 261.912C634.999 261.763 634.487 261.688 633.985 261.688C633.484 261.688 633.073 261.747 632.753 261.864C632.433 261.981 632.204 262.136 632.065 262.328C631.927 262.509 631.857 262.723 631.857 262.968C631.857 263.256 631.975 263.491 632.209 263.672C632.444 263.843 632.753 263.981 633.137 264.088C633.521 264.195 633.943 264.301 634.401 264.408C634.871 264.515 635.335 264.637 635.793 264.776C636.263 264.915 636.689 265.101 637.073 265.336C637.457 265.571 637.767 265.88 638.001 266.264C638.247 266.648 638.369 267.133 638.369 267.72C638.369 268.349 638.193 268.925 637.841 269.448C637.489 269.971 636.961 270.392 636.257 270.712C635.564 271.032 634.684 271.192 633.617 271.192ZM644.237 271.128C643.255 271.128 642.391 270.936 641.645 270.552C640.909 270.168 640.338 269.645 639.933 268.984C639.527 268.312 639.325 267.549 639.325 266.696C639.325 265.832 639.522 265.069 639.917 264.408C640.322 263.736 640.871 263.213 641.565 262.84C642.258 262.456 643.042 262.264 643.917 262.264C644.759 262.264 645.517 262.445 646.189 262.808C646.871 263.16 647.41 263.672 647.805 264.344C648.199 265.005 648.397 265.8 648.397 266.728C648.397 266.824 648.391 266.936 648.381 267.064C648.37 267.181 648.359 267.293 648.349 267.4H641.357V265.944H647.036L646.077 266.376C646.077 265.928 645.986 265.539 645.805 265.208C645.623 264.877 645.373 264.621 645.053 264.44C644.733 264.248 644.359 264.152 643.933 264.152C643.506 264.152 643.127 264.248 642.797 264.44C642.477 264.621 642.226 264.883 642.045 265.224C641.863 265.555 641.773 265.949 641.773 266.408V266.792C641.773 267.261 641.874 267.677 642.077 268.04C642.29 268.392 642.583 268.664 642.957 268.856C643.341 269.037 643.789 269.128 644.301 269.128C644.759 269.128 645.159 269.059 645.501 268.92C645.853 268.781 646.173 268.573 646.461 268.296L647.789 269.736C647.394 270.184 646.898 270.531 646.301 270.776C645.703 271.011 645.015 271.128 644.237 271.128ZM655.104 271V269.32L654.944 268.952V265.944C654.944 265.411 654.779 264.995 654.448 264.696C654.128 264.397 653.632 264.248 652.96 264.248C652.501 264.248 652.048 264.323 651.6 264.472C651.163 264.611 650.789 264.803 650.48 265.048L649.584 263.304C650.053 262.973 650.619 262.717 651.28 262.536C651.941 262.355 652.613 262.264 653.296 262.264C654.608 262.264 655.627 262.573 656.352 263.192C657.077 263.811 657.44 264.776 657.44 266.088V271H655.104ZM652.48 271.128C651.808 271.128 651.232 271.016 650.752 270.792C650.272 270.557 649.904 270.243 649.648 269.848C649.392 269.453 649.264 269.011 649.264 268.52C649.264 268.008 649.387 267.56 649.632 267.176C649.888 266.792 650.288 266.493 650.832 266.28C651.376 266.056 652.085 265.944 652.96 265.944H655.248V267.4H653.232C652.645 267.4 652.24 267.496 652.016 267.688C651.803 267.88 651.696 268.12 651.696 268.408C651.696 268.728 651.819 268.984 652.064 269.176C652.32 269.357 652.667 269.448 653.104 269.448C653.52 269.448 653.893 269.352 654.224 269.16C654.555 268.957 654.795 268.664 654.944 268.28L655.328 269.432C655.147 269.987 654.816 270.408 654.336 270.696C653.856 270.984 653.237 271.128 652.48 271.128ZM659.699 271V259.128H662.195V271H659.699ZM671.539 268.44L671.395 265.448L676.755 259.8H679.635L674.803 265L673.363 266.536L671.539 268.44ZM669.219 271V259.8H671.795V271H669.219ZM676.883 271L672.899 266.12L674.595 264.28L679.907 271H676.883ZM680.886 271V262.392H683.382V271H680.886ZM682.134 261.192C681.676 261.192 681.302 261.059 681.014 260.792C680.726 260.525 680.582 260.195 680.582 259.8C680.582 259.405 680.726 259.075 681.014 258.808C681.302 258.541 681.676 258.408 682.134 258.408C682.593 258.408 682.966 258.536 683.254 258.792C683.542 259.037 683.686 259.357 683.686 259.752C683.686 260.168 683.542 260.515 683.254 260.792C682.977 261.059 682.604 261.192 682.134 261.192ZM689.219 271.128C688.206 271.128 687.416 270.872 686.851 270.36C686.286 269.837 686.003 269.064 686.003 268.04V260.488H688.499V268.008C688.499 268.371 688.595 268.653 688.787 268.856C688.979 269.048 689.24 269.144 689.571 269.144C689.966 269.144 690.302 269.037 690.579 268.824L691.251 270.584C690.995 270.765 690.686 270.904 690.323 271C689.971 271.085 689.603 271.128 689.219 271.128ZM684.675 264.504V262.584H690.643V264.504H684.675ZM702.079 262.984L704.447 266.584L702.079 270.216H699.919L702.095 266.584L699.919 262.984H702.079ZM702.559 265.72V267.464H696.831V265.72H702.559Z" fill="#28343A"/>
<path d="M583 251H681.466V251.8H583V251ZM583 273H705.631V273.8H583V273Z" fill="#28343A"/>
<path d="M746.008 249.192C745.112 249.192 744.253 249.075 743.432 248.84C742.611 248.595 741.949 248.28 741.448 247.896L742.328 245.944C742.808 246.285 743.373 246.568 744.024 246.792C744.685 247.005 745.352 247.112 746.024 247.112C746.536 247.112 746.947 247.064 747.256 246.968C747.576 246.861 747.811 246.717 747.96 246.536C748.109 246.355 748.184 246.147 748.184 245.912C748.184 245.613 748.067 245.379 747.832 245.208C747.597 245.027 747.288 244.883 746.904 244.776C746.52 244.659 746.093 244.552 745.624 244.456C745.165 244.349 744.701 244.221 744.232 244.072C743.773 243.923 743.352 243.731 742.968 243.496C742.584 243.261 742.269 242.952 742.024 242.568C741.789 242.184 741.672 241.693 741.672 241.096C741.672 240.456 741.843 239.875 742.184 239.352C742.536 238.819 743.059 238.397 743.752 238.088C744.456 237.768 745.336 237.608 746.392 237.608C747.096 237.608 747.789 237.693 748.472 237.864C749.155 238.024 749.757 238.269 750.28 238.6L749.48 240.568C748.957 240.269 748.435 240.051 747.912 239.912C747.389 239.763 746.877 239.688 746.376 239.688C745.875 239.688 745.464 239.747 745.144 239.864C744.824 239.981 744.595 240.136 744.456 240.328C744.317 240.509 744.248 240.723 744.248 240.968C744.248 241.256 744.365 241.491 744.6 241.672C744.835 241.843 745.144 241.981 745.528 242.088C745.912 242.195 746.333 242.301 746.792 242.408C747.261 242.515 747.725 242.637 748.184 242.776C748.653 242.915 749.08 243.101 749.464 243.336C749.848 243.571 750.157 243.88 750.392 244.264C750.637 244.648 750.76 245.133 750.76 245.72C750.76 246.349 750.584 246.925 750.232 247.448C749.88 247.971 749.352 248.392 748.648 248.712C747.955 249.032 747.075 249.192 746.008 249.192ZM756.451 249.128C755.534 249.128 754.718 248.936 754.003 248.552C753.299 248.168 752.739 247.645 752.323 246.984C751.918 246.312 751.715 245.549 751.715 244.696C751.715 243.832 751.918 243.069 752.323 242.408C752.739 241.736 753.299 241.213 754.003 240.84C754.718 240.456 755.534 240.264 756.451 240.264C757.358 240.264 758.168 240.456 758.883 240.84C759.598 241.213 760.158 241.731 760.563 242.392C760.968 243.053 761.171 243.821 761.171 244.696C761.171 245.549 760.968 246.312 760.563 246.984C760.158 247.645 759.598 248.168 758.883 248.552C758.168 248.936 757.358 249.128 756.451 249.128ZM756.451 247.08C756.867 247.08 757.24 246.984 757.571 246.792C757.902 246.6 758.163 246.328 758.355 245.976C758.547 245.613 758.643 245.187 758.643 244.696C758.643 244.195 758.547 243.768 758.355 243.416C758.163 243.064 757.902 242.792 757.571 242.6C757.24 242.408 756.867 242.312 756.451 242.312C756.035 242.312 755.662 242.408 755.331 242.6C755 242.792 754.734 243.064 754.531 243.416C754.339 243.768 754.243 244.195 754.243 244.696C754.243 245.187 754.339 245.613 754.531 245.976C754.734 246.328 755 246.6 755.331 246.792C755.662 246.984 756.035 247.08 756.451 247.08ZM766.472 249.128C765.757 249.128 765.117 248.989 764.552 248.712C763.997 248.435 763.565 248.013 763.256 247.448C762.946 246.872 762.792 246.141 762.792 245.256V240.392H765.288V244.888C765.288 245.603 765.437 246.131 765.736 246.472C766.045 246.803 766.477 246.968 767.032 246.968C767.416 246.968 767.757 246.888 768.056 246.728C768.354 246.557 768.589 246.301 768.76 245.96C768.93 245.608 769.016 245.171 769.016 244.648V240.392H771.512V249H769.144V246.632L769.576 247.32C769.288 247.917 768.861 248.371 768.296 248.68C767.741 248.979 767.133 249.128 766.472 249.128ZM779.056 240.264C779.739 240.264 780.347 240.403 780.88 240.68C781.424 240.947 781.851 241.363 782.16 241.928C782.469 242.483 782.624 243.197 782.624 244.072V249H780.128V244.456C780.128 243.763 779.973 243.251 779.664 242.92C779.365 242.589 778.939 242.424 778.384 242.424C777.989 242.424 777.632 242.509 777.312 242.68C777.003 242.84 776.757 243.091 776.576 243.432C776.405 243.773 776.32 244.211 776.32 244.744V249H773.824V240.392H776.208V242.776L775.76 242.056C776.069 241.48 776.512 241.037 777.088 240.728C777.664 240.419 778.32 240.264 779.056 240.264ZM788.645 249.128C787.834 249.128 787.104 248.947 786.453 248.584C785.802 248.211 785.285 247.693 784.901 247.032C784.528 246.371 784.341 245.592 784.341 244.696C784.341 243.789 784.528 243.005 784.901 242.344C785.285 241.683 785.802 241.171 786.453 240.808C787.104 240.445 787.834 240.264 788.645 240.264C789.37 240.264 790.005 240.424 790.549 240.744C791.093 241.064 791.514 241.549 791.813 242.2C792.112 242.851 792.261 243.683 792.261 244.696C792.261 245.699 792.117 246.531 791.829 247.192C791.541 247.843 791.125 248.328 790.581 248.648C790.048 248.968 789.402 249.128 788.645 249.128ZM789.077 247.08C789.482 247.08 789.85 246.984 790.181 246.792C790.512 246.6 790.773 246.328 790.965 245.976C791.168 245.613 791.269 245.187 791.269 244.696C791.269 244.195 791.168 243.768 790.965 243.416C790.773 243.064 790.512 242.792 790.181 242.6C789.85 242.408 789.482 242.312 789.077 242.312C788.661 242.312 788.288 242.408 787.957 242.6C787.626 242.792 787.36 243.064 787.157 243.416C786.965 243.768 786.869 244.195 786.869 244.696C786.869 245.187 786.965 245.613 787.157 245.976C787.36 246.328 787.626 246.6 787.957 246.792C788.288 246.984 788.661 247.08 789.077 247.08ZM791.333 249V247.24L791.381 244.68L791.221 242.136V237.128H793.717V249H791.333ZM801.115 249.128C800.39 249.128 799.755 248.968 799.211 248.648C798.667 248.328 798.24 247.843 797.931 247.192C797.632 246.531 797.483 245.699 797.483 244.696C797.483 243.683 797.627 242.851 797.915 242.2C798.203 241.549 798.619 241.064 799.163 240.744C799.707 240.424 800.358 240.264 801.115 240.264C801.926 240.264 802.651 240.451 803.291 240.824C803.942 241.187 804.454 241.699 804.827 242.36C805.211 243.021 805.403 243.8 805.403 244.696C805.403 245.603 805.211 246.387 804.827 247.048C804.454 247.709 803.942 248.221 803.291 248.584C802.651 248.947 801.926 249.128 801.115 249.128ZM796.027 252.104V240.392H798.411V242.152L798.363 244.712L798.523 247.256V252.104H796.027ZM800.683 247.08C801.099 247.08 801.467 246.984 801.787 246.792C802.118 246.6 802.379 246.328 802.571 245.976C802.774 245.613 802.875 245.187 802.875 244.696C802.875 244.195 802.774 243.768 802.571 243.416C802.379 243.064 802.118 242.792 801.787 242.6C801.467 242.408 801.099 242.312 800.683 242.312C800.267 242.312 799.894 242.408 799.563 242.6C799.232 242.792 798.971 243.064 798.779 243.416C798.587 243.768 798.491 244.195 798.491 244.696C798.491 245.187 798.587 245.613 798.779 245.976C798.971 246.328 799.232 246.6 799.563 246.792C799.894 246.984 800.267 247.08 800.683 247.08ZM807.074 249V240.392H809.458V242.824L809.122 242.12C809.378 241.512 809.789 241.053 810.354 240.744C810.919 240.424 811.607 240.264 812.418 240.264V242.568C812.311 242.557 812.215 242.552 812.13 242.552C812.045 242.541 811.954 242.536 811.858 242.536C811.175 242.536 810.621 242.733 810.194 243.128C809.778 243.512 809.57 244.115 809.57 244.936V249H807.074ZM817.936 249.128C817.018 249.128 816.202 248.936 815.488 248.552C814.784 248.168 814.224 247.645 813.808 246.984C813.402 246.312 813.2 245.549 813.2 244.696C813.2 243.832 813.402 243.069 813.808 242.408C814.224 241.736 814.784 241.213 815.488 240.84C816.202 240.456 817.018 240.264 817.936 240.264C818.842 240.264 819.653 240.456 820.368 240.84C821.082 241.213 821.642 241.731 822.048 242.392C822.453 243.053 822.656 243.821 822.656 244.696C822.656 245.549 822.453 246.312 822.048 246.984C821.642 247.645 821.082 248.168 820.368 248.552C819.653 248.936 818.842 249.128 817.936 249.128ZM817.936 247.08C818.352 247.08 818.725 246.984 819.056 246.792C819.386 246.6 819.648 246.328 819.84 245.976C820.032 245.613 820.128 245.187 820.128 244.696C820.128 244.195 820.032 243.768 819.84 243.416C819.648 243.064 819.386 242.792 819.056 242.6C818.725 242.408 818.352 242.312 817.936 242.312C817.52 242.312 817.146 242.408 816.816 242.6C816.485 242.792 816.218 243.064 816.016 243.416C815.824 243.768 815.728 244.195 815.728 244.696C815.728 245.187 815.824 245.613 816.016 245.976C816.218 246.328 816.485 246.6 816.816 246.792C817.146 246.984 817.52 247.08 817.936 247.08ZM828.42 249.128C827.503 249.128 826.687 248.936 825.972 248.552C825.268 248.168 824.708 247.645 824.292 246.984C823.887 246.312 823.684 245.549 823.684 244.696C823.684 243.832 823.887 243.069 824.292 242.408C824.708 241.736 825.268 241.213 825.972 240.84C826.687 240.456 827.503 240.264 828.42 240.264C829.327 240.264 830.137 240.456 830.852 240.84C831.567 241.213 832.127 241.731 832.532 242.392C832.937 243.053 833.14 243.821 833.14 244.696C833.14 245.549 832.937 246.312 832.532 246.984C832.127 247.645 831.567 248.168 830.852 248.552C830.137 248.936 829.327 249.128 828.42 249.128ZM828.42 247.08C828.836 247.08 829.209 246.984 829.54 246.792C829.871 246.6 830.132 246.328 830.324 245.976C830.516 245.613 830.612 245.187 830.612 244.696C830.612 244.195 830.516 243.768 830.324 243.416C830.132 243.064 829.871 242.792 829.54 242.6C829.209 242.408 828.836 242.312 828.42 242.312C828.004 242.312 827.631 242.408 827.3 242.6C826.969 242.792 826.703 243.064 826.5 243.416C826.308 243.768 826.212 244.195 826.212 244.696C826.212 245.187 826.308 245.613 826.5 245.976C826.703 246.328 826.969 246.6 827.3 246.792C827.631 246.984 828.004 247.08 828.42 247.08ZM835.112 249V240.2C835.112 239.229 835.4 238.456 835.976 237.88C836.552 237.293 837.374 237 838.44 237C838.803 237 839.15 237.037 839.48 237.112C839.822 237.187 840.11 237.304 840.344 237.464L839.688 239.272C839.55 239.176 839.395 239.101 839.224 239.048C839.054 238.995 838.872 238.968 838.68 238.968C838.318 238.968 838.035 239.075 837.832 239.288C837.64 239.491 837.544 239.8 837.544 240.216V241.016L837.608 242.088V249H835.112ZM833.784 242.504V240.584H839.752V242.504H833.784ZM742.328 271V259.8H747.416C748.632 259.8 749.704 260.035 750.632 260.504C751.56 260.963 752.285 261.608 752.808 262.44C753.331 263.272 753.592 264.259 753.592 265.4C753.592 266.531 753.331 267.517 752.808 268.36C752.285 269.192 751.56 269.843 750.632 270.312C749.704 270.771 748.632 271 747.416 271H742.328ZM744.92 268.872H747.288C748.035 268.872 748.68 268.733 749.224 268.456C749.779 268.168 750.205 267.763 750.504 267.24C750.813 266.717 750.968 266.104 750.968 265.4C750.968 264.685 750.813 264.072 750.504 263.56C750.205 263.037 749.779 262.637 749.224 262.36C748.68 262.072 748.035 261.928 747.288 261.928H744.92V268.872ZM759.467 271.128C758.549 271.128 757.733 270.936 757.019 270.552C756.315 270.168 755.755 269.645 755.339 268.984C754.933 268.312 754.731 267.549 754.731 266.696C754.731 265.832 754.933 265.069 755.339 264.408C755.755 263.736 756.315 263.213 757.019 262.84C757.733 262.456 758.549 262.264 759.467 262.264C760.373 262.264 761.184 262.456 761.899 262.84C762.613 263.213 763.173 263.731 763.579 264.392C763.984 265.053 764.187 265.821 764.187 266.696C764.187 267.549 763.984 268.312 763.579 268.984C763.173 269.645 762.613 270.168 761.899 270.552C761.184 270.936 760.373 271.128 759.467 271.128ZM759.467 269.08C759.883 269.08 760.256 268.984 760.587 268.792C760.917 268.6 761.179 268.328 761.371 267.976C761.563 267.613 761.659 267.187 761.659 266.696C761.659 266.195 761.563 265.768 761.371 265.416C761.179 265.064 760.917 264.792 760.587 264.6C760.256 264.408 759.883 264.312 759.467 264.312C759.051 264.312 758.677 264.408 758.347 264.6C758.016 264.792 757.749 265.064 757.547 265.416C757.355 265.768 757.259 266.195 757.259 266.696C757.259 267.187 757.355 267.613 757.547 267.976C757.749 268.328 758.016 268.6 758.347 268.792C758.677 268.984 759.051 269.08 759.467 269.08ZM769.951 271.128C769.034 271.128 768.218 270.936 767.503 270.552C766.799 270.168 766.239 269.645 765.823 268.984C765.418 268.312 765.215 267.549 765.215 266.696C765.215 265.832 765.418 265.069 765.823 264.408C766.239 263.736 766.799 263.213 767.503 262.84C768.218 262.456 769.034 262.264 769.951 262.264C770.858 262.264 771.668 262.456 772.383 262.84C773.098 263.213 773.658 263.731 774.063 264.392C774.468 265.053 774.671 265.821 774.671 266.696C774.671 267.549 774.468 268.312 774.063 268.984C773.658 269.645 773.098 270.168 772.383 270.552C771.668 270.936 770.858 271.128 769.951 271.128ZM769.951 269.08C770.367 269.08 770.74 268.984 771.071 268.792C771.402 268.6 771.663 268.328 771.855 267.976C772.047 267.613 772.143 267.187 772.143 266.696C772.143 266.195 772.047 265.768 771.855 265.416C771.663 265.064 771.402 264.792 771.071 264.6C770.74 264.408 770.367 264.312 769.951 264.312C769.535 264.312 769.162 264.408 768.831 264.6C768.5 264.792 768.234 265.064 768.031 265.416C767.839 265.768 767.743 266.195 767.743 266.696C767.743 267.187 767.839 267.613 768.031 267.976C768.234 268.328 768.5 268.6 768.831 268.792C769.162 268.984 769.535 269.08 769.951 269.08ZM776.34 271V262.392H778.724V264.824L778.388 264.12C778.644 263.512 779.054 263.053 779.62 262.744C780.185 262.424 780.873 262.264 781.684 262.264V264.568C781.577 264.557 781.481 264.552 781.396 264.552C781.31 264.541 781.22 264.536 781.124 264.536C780.441 264.536 779.886 264.733 779.46 265.128C779.044 265.512 778.836 266.115 778.836 266.936V271H776.34ZM792.657 262.984L795.025 266.584L792.657 270.216H790.497L792.673 266.584L790.497 262.984H792.657ZM793.137 265.72V267.464H787.409V265.72H793.137Z" fill="#28343A"/>
<path d="M741 251H839.848V251.8H741V251ZM741 273H796.209V273.8H741V273Z" fill="#28343A"/>
<path fill-rule="evenodd" clip-rule="evenodd" d="M88 97.1584L748 35V175L88 117.135V97.1584Z" fill="url(#paint0_linear_1_2)"/>
<path d="M127.049 40L131.529 30.2H132.551L137.031 40H135.939L131.823 30.802H132.243L128.127 40H127.049ZM128.813 37.382L129.121 36.542H134.819L135.127 37.382H128.813ZM138.739 40V30.2H142.407C143.238 30.2 143.952 30.3353 144.549 30.606C145.146 30.8673 145.604 31.25 145.921 31.754C146.248 32.2487 146.411 32.8507 146.411 33.56C146.411 34.2507 146.248 34.848 145.921 35.352C145.604 35.8467 145.146 36.2293 144.549 36.5C143.952 36.7707 143.238 36.906 142.407 36.906H139.313L139.775 36.416V40H138.739ZM139.775 36.5L139.313 35.996H142.379C143.359 35.996 144.101 35.786 144.605 35.366C145.118 34.9367 145.375 34.3347 145.375 33.56C145.375 32.776 145.118 32.1693 144.605 31.74C144.101 31.3107 143.359 31.096 142.379 31.096H139.313L139.775 30.606V36.5ZM148.739 40V30.2H152.407C153.237 30.2 153.951 30.3353 154.549 30.606C155.146 30.8673 155.603 31.25 155.921 31.754C156.247 32.2487 156.411 32.8507 156.411 33.56C156.411 34.2507 156.247 34.848 155.921 35.352C155.603 35.8467 155.146 36.2293 154.549 36.5C153.951 36.7707 153.237 36.906 152.407 36.906H149.313L149.775 36.416V40H148.739ZM149.775 36.5L149.313 35.996H152.379C153.359 35.996 154.101 35.786 154.605 35.366C155.118 34.9367 155.375 34.3347 155.375 33.56C155.375 32.776 155.118 32.1693 154.605 31.74C154.101 31.3107 153.359 31.096 152.379 31.096H149.313L149.775 30.606V36.5ZM158.738 40V30.2H159.774V39.104H165.262V40H158.738ZM167.07 40V30.2H168.106V40H167.07ZM175.638 40.084C174.901 40.084 174.219 39.9627 173.594 39.72C172.969 39.468 172.427 39.118 171.97 38.67C171.513 38.222 171.153 37.6947 170.892 37.088C170.64 36.4813 170.514 35.8187 170.514 35.1C170.514 34.3813 170.64 33.7187 170.892 33.112C171.153 32.5053 171.513 31.978 171.97 31.53C172.437 31.082 172.983 30.7367 173.608 30.494C174.233 30.242 174.915 30.116 175.652 30.116C176.361 30.116 177.029 30.2373 177.654 30.48C178.279 30.7133 178.807 31.068 179.236 31.544L178.578 32.202C178.177 31.7913 177.733 31.4973 177.248 31.32C176.763 31.1333 176.24 31.04 175.68 31.04C175.092 31.04 174.546 31.1427 174.042 31.348C173.538 31.544 173.099 31.8287 172.726 32.202C172.353 32.566 172.059 32.9953 171.844 33.49C171.639 33.9753 171.536 34.512 171.536 35.1C171.536 35.688 171.639 36.2293 171.844 36.724C172.059 37.2093 172.353 37.6387 172.726 38.012C173.099 38.376 173.538 38.6607 174.042 38.866C174.546 39.062 175.092 39.16 175.68 39.16C176.24 39.16 176.763 39.0667 177.248 38.88C177.733 38.6933 178.177 38.3947 178.578 37.984L179.236 38.642C178.807 39.118 178.279 39.4773 177.654 39.72C177.029 39.9627 176.357 40.084 175.638 40.084ZM179.718 40L184.198 30.2H185.22L189.7 40H188.608L184.492 30.802H184.912L180.796 40H179.718ZM181.482 37.382L181.79 36.542H187.488L187.796 37.382H181.482ZM192.821 40V31.096H189.377V30.2H197.301V31.096H193.857V40H192.821ZM199.043 40V30.2H200.079V40H199.043ZM207.639 40.084C206.902 40.084 206.216 39.9627 205.581 39.72C204.956 39.468 204.41 39.118 203.943 38.67C203.486 38.2127 203.127 37.6853 202.865 37.088C202.613 36.4813 202.487 35.8187 202.487 35.1C202.487 34.3813 202.613 33.7233 202.865 33.126C203.127 32.5193 203.486 31.992 203.943 31.544C204.41 31.0867 204.956 30.7367 205.581 30.494C206.207 30.242 206.893 30.116 207.639 30.116C208.377 30.116 209.058 30.242 209.683 30.494C210.309 30.7367 210.85 31.082 211.307 31.53C211.774 31.978 212.133 32.5053 212.385 33.112C212.647 33.7187 212.777 34.3813 212.777 35.1C212.777 35.8187 212.647 36.4813 212.385 37.088C212.133 37.6947 211.774 38.222 211.307 38.67C210.85 39.118 210.309 39.468 209.683 39.72C209.058 39.9627 208.377 40.084 207.639 40.084ZM207.639 39.16C208.227 39.16 208.769 39.062 209.263 38.866C209.767 38.6607 210.201 38.376 210.565 38.012C210.939 37.6387 211.228 37.2093 211.433 36.724C211.639 36.2293 211.741 35.688 211.741 35.1C211.741 34.512 211.639 33.9753 211.433 33.49C211.228 32.9953 210.939 32.566 210.565 32.202C210.201 31.8287 209.767 31.544 209.263 31.348C208.769 31.1427 208.227 31.04 207.639 31.04C207.051 31.04 206.505 31.1427 206.001 31.348C205.497 31.544 205.059 31.8287 204.685 32.202C204.321 32.566 204.032 32.9953 203.817 33.49C203.612 33.9753 203.509 34.512 203.509 35.1C203.509 35.6787 203.612 36.2153 203.817 36.71C204.032 37.2047 204.321 37.6387 204.685 38.012C205.059 38.376 205.497 38.6607 206.001 38.866C206.505 39.062 207.051 39.16 207.639 39.16ZM215.187 40V30.2H216.041L222.803 38.712H222.355V30.2H223.377V40H222.523L215.775 31.488H216.223V40H215.187ZM162.662 109.084C161.925 109.084 161.243 108.963 160.618 108.72C159.993 108.468 159.451 108.118 158.994 107.67C158.537 107.222 158.177 106.695 157.916 106.088C157.664 105.481 157.538 104.819 157.538 104.1C157.538 103.381 157.664 102.719 157.916 102.112C158.177 101.505 158.537 100.978 158.994 100.53C159.461 100.082 160.007 99.7367 160.632 99.494C161.257 99.242 161.939 99.116 162.676 99.116C163.385 99.116 164.053 99.2373 164.678 99.48C165.303 99.7133 165.831 100.068 166.26 100.544L165.602 101.202C165.201 100.791 164.757 100.497 164.272 100.32C163.787 100.133 163.264 100.04 162.704 100.04C162.116 100.04 161.57 100.143 161.066 100.348C160.562 100.544 160.123 100.829 159.75 101.202C159.377 101.566 159.083 101.995 158.868 102.49C158.663 102.975 158.56 103.512 158.56 104.1C158.56 104.688 158.663 105.229 158.868 105.724C159.083 106.209 159.377 106.639 159.75 107.012C160.123 107.376 160.562 107.661 161.066 107.866C161.57 108.062 162.116 108.16 162.704 108.16C163.264 108.16 163.787 108.067 164.272 107.88C164.757 107.693 165.201 107.395 165.602 106.984L166.26 107.642C165.831 108.118 165.303 108.477 164.678 108.72C164.053 108.963 163.381 109.084 162.662 109.084ZM172.635 109.084C171.898 109.084 171.212 108.963 170.577 108.72C169.952 108.468 169.406 108.118 168.939 107.67C168.482 107.213 168.122 106.685 167.861 106.088C167.609 105.481 167.483 104.819 167.483 104.1C167.483 103.381 167.609 102.723 167.861 102.126C168.122 101.519 168.482 100.992 168.939 100.544C169.406 100.087 169.952 99.7367 170.577 99.494C171.202 99.242 171.888 99.116 172.635 99.116C173.372 99.116 174.054 99.242 174.679 99.494C175.304 99.7367 175.846 100.082 176.303 100.53C176.77 100.978 177.129 101.505 177.381 102.112C177.642 102.719 177.773 103.381 177.773 104.1C177.773 104.819 177.642 105.481 177.381 106.088C177.129 106.695 176.77 107.222 176.303 107.67C175.846 108.118 175.304 108.468 174.679 108.72C174.054 108.963 173.372 109.084 172.635 109.084ZM172.635 108.16C173.223 108.16 173.764 108.062 174.259 107.866C174.763 107.661 175.197 107.376 175.561 107.012C175.934 106.639 176.224 106.209 176.429 105.724C176.634 105.229 176.737 104.688 176.737 104.1C176.737 103.512 176.634 102.975 176.429 102.49C176.224 101.995 175.934 101.566 175.561 101.202C175.197 100.829 174.763 100.544 174.259 100.348C173.764 100.143 173.223 100.04 172.635 100.04C172.047 100.04 171.501 100.143 170.997 100.348C170.493 100.544 170.054 100.829 169.681 101.202C169.317 101.566 169.028 101.995 168.813 102.49C168.608 102.975 168.505 103.512 168.505 104.1C168.505 104.679 168.608 105.215 168.813 105.71C169.028 106.205 169.317 106.639 169.681 107.012C170.054 107.376 170.493 107.661 170.997 107.866C171.501 108.062 172.047 108.16 172.635 108.16ZM182.885 109.084C182.157 109.084 181.457 108.967 180.785 108.734C180.122 108.491 179.609 108.183 179.245 107.81L179.651 107.012C179.996 107.348 180.458 107.633 181.037 107.866C181.625 108.09 182.241 108.202 182.885 108.202C183.501 108.202 184 108.127 184.383 107.978C184.775 107.819 185.059 107.609 185.237 107.348C185.423 107.087 185.517 106.797 185.517 106.48C185.517 106.097 185.405 105.789 185.181 105.556C184.966 105.323 184.681 105.141 184.327 105.01C183.972 104.87 183.58 104.749 183.151 104.646C182.721 104.543 182.292 104.436 181.863 104.324C181.433 104.203 181.037 104.044 180.673 103.848C180.318 103.652 180.029 103.395 179.805 103.078C179.59 102.751 179.483 102.327 179.483 101.804C179.483 101.319 179.609 100.875 179.861 100.474C180.122 100.063 180.519 99.7367 181.051 99.494C181.583 99.242 182.264 99.116 183.095 99.116C183.645 99.116 184.191 99.1953 184.733 99.354C185.274 99.5033 185.741 99.7133 186.133 99.984L185.783 100.81C185.363 100.53 184.915 100.325 184.439 100.194C183.972 100.063 183.519 99.998 183.081 99.998C182.493 99.998 182.007 100.077 181.625 100.236C181.242 100.395 180.957 100.609 180.771 100.88C180.593 101.141 180.505 101.44 180.505 101.776C180.505 102.159 180.612 102.467 180.827 102.7C181.051 102.933 181.34 103.115 181.695 103.246C182.059 103.377 182.455 103.493 182.885 103.596C183.314 103.699 183.739 103.811 184.159 103.932C184.588 104.053 184.98 104.212 185.335 104.408C185.699 104.595 185.988 104.847 186.203 105.164C186.427 105.481 186.539 105.897 186.539 106.41C186.539 106.886 186.408 107.329 186.147 107.74C185.885 108.141 185.484 108.468 184.943 108.72C184.411 108.963 183.725 109.084 182.885 109.084ZM190.651 109V100.096H187.207V99.2H195.131V100.096H191.687V109H190.651ZM113.164 179.084C112.436 179.084 111.736 178.967 111.064 178.734C110.401 178.491 109.888 178.183 109.524 177.81L109.93 177.012C110.275 177.348 110.737 177.633 111.316 177.866C111.904 178.09 112.52 178.202 113.164 178.202C113.78 178.202 114.279 178.127 114.662 177.978C115.054 177.819 115.338 177.609 115.516 177.348C115.702 177.087 115.796 176.797 115.796 176.48C115.796 176.097 115.684 175.789 115.46 175.556C115.245 175.323 114.96 175.141 114.606 175.01C114.251 174.87 113.859 174.749 113.43 174.646C113 174.543 112.571 174.436 112.142 174.324C111.712 174.203 111.316 174.044 110.952 173.848C110.597 173.652 110.308 173.395 110.084 173.078C109.869 172.751 109.762 172.327 109.762 171.804C109.762 171.319 109.888 170.875 110.14 170.474C110.401 170.063 110.798 169.737 111.33 169.494C111.862 169.242 112.543 169.116 113.374 169.116C113.924 169.116 114.47 169.195 115.012 169.354C115.553 169.503 116.02 169.713 116.412 169.984L116.062 170.81C115.642 170.53 115.194 170.325 114.718 170.194C114.251 170.063 113.798 169.998 113.36 169.998C112.772 169.998 112.286 170.077 111.904 170.236C111.521 170.395 111.236 170.609 111.05 170.88C110.872 171.141 110.784 171.44 110.784 171.776C110.784 172.159 110.891 172.467 111.106 172.7C111.33 172.933 111.619 173.115 111.974 173.246C112.338 173.377 112.734 173.493 113.164 173.596C113.593 173.699 114.018 173.811 114.438 173.932C114.867 174.053 115.259 174.212 115.614 174.408C115.978 174.595 116.267 174.847 116.482 175.164C116.706 175.481 116.818 175.897 116.818 176.41C116.818 176.886 116.687 177.329 116.426 177.74C116.164 178.141 115.763 178.468 115.222 178.72C114.69 178.963 114.004 179.084 113.164 179.084ZM123.446 179.084C122.709 179.084 122.023 178.963 121.388 178.72C120.763 178.468 120.217 178.118 119.75 177.67C119.293 177.213 118.934 176.685 118.672 176.088C118.42 175.481 118.294 174.819 118.294 174.1C118.294 173.381 118.42 172.723 118.672 172.126C118.934 171.519 119.293 170.992 119.75 170.544C120.217 170.087 120.763 169.737 121.388 169.494C122.014 169.242 122.7 169.116 123.446 169.116C124.184 169.116 124.865 169.242 125.49 169.494C126.116 169.737 126.657 170.082 127.114 170.53C127.581 170.978 127.94 171.505 128.192 172.112C128.454 172.719 128.584 173.381 128.584 174.1C128.584 174.819 128.454 175.481 128.192 176.088C127.94 176.695 127.581 177.222 127.114 177.67C126.657 178.118 126.116 178.468 125.49 178.72C124.865 178.963 124.184 179.084 123.446 179.084ZM123.446 178.16C124.034 178.16 124.576 178.062 125.07 177.866C125.574 177.661 126.008 177.376 126.372 177.012C126.746 176.639 127.035 176.209 127.24 175.724C127.446 175.229 127.548 174.688 127.548 174.1C127.548 173.512 127.446 172.975 127.24 172.49C127.035 171.995 126.746 171.566 126.372 171.202C126.008 170.829 125.574 170.544 125.07 170.348C124.576 170.143 124.034 170.04 123.446 170.04C122.858 170.04 122.312 170.143 121.808 170.348C121.304 170.544 120.866 170.829 120.492 171.202C120.128 171.566 119.839 171.995 119.624 172.49C119.419 172.975 119.316 173.512 119.316 174.1C119.316 174.679 119.419 175.215 119.624 175.71C119.839 176.205 120.128 176.639 120.492 177.012C120.866 177.376 121.304 177.661 121.808 177.866C122.312 178.062 122.858 178.16 123.446 178.16ZM134.942 179.084C133.691 179.084 132.707 178.725 131.988 178.006C131.269 177.287 130.91 176.223 130.91 174.814V169.2H131.946V174.772C131.946 175.929 132.207 176.783 132.73 177.334C133.253 177.885 133.99 178.16 134.942 178.16C135.903 178.16 136.645 177.885 137.168 177.334C137.691 176.783 137.952 175.929 137.952 174.772V169.2H138.96V174.814C138.96 176.223 138.601 177.287 137.882 178.006C137.173 178.725 136.193 179.084 134.942 179.084ZM142.169 179V169.2H143.023L149.785 177.712H149.337V169.2H150.359V179H149.505L142.757 170.488H143.205V179H142.169ZM153.646 179V169.2H157.636C158.681 169.2 159.596 169.41 160.38 169.83C161.173 170.241 161.789 170.815 162.228 171.552C162.666 172.289 162.886 173.139 162.886 174.1C162.886 175.061 162.666 175.911 162.228 176.648C161.789 177.385 161.173 177.964 160.38 178.384C159.596 178.795 158.681 179 157.636 179H153.646ZM154.682 178.104H157.58C158.448 178.104 159.199 177.936 159.834 177.6C160.478 177.255 160.977 176.783 161.332 176.186C161.686 175.579 161.864 174.884 161.864 174.1C161.864 173.307 161.686 172.611 161.332 172.014C160.977 171.417 160.478 170.95 159.834 170.614C159.199 170.269 158.448 170.096 157.58 170.096H154.682V178.104ZM165.3 179V169.2H168.968C169.798 169.2 170.512 169.335 171.11 169.606C171.707 169.867 172.164 170.25 172.482 170.754C172.808 171.249 172.972 171.851 172.972 172.56C172.972 173.251 172.808 173.848 172.482 174.352C172.164 174.847 171.707 175.229 171.11 175.5C170.512 175.771 169.798 175.906 168.968 175.906H165.874L166.336 175.416V179H165.3ZM166.336 175.5L165.874 174.996H168.94C169.92 174.996 170.662 174.786 171.166 174.366C171.679 173.937 171.936 173.335 171.936 172.56C171.936 171.776 171.679 171.169 171.166 170.74C170.662 170.311 169.92 170.096 168.94 170.096H165.874L166.336 169.606V175.5ZM175.299 179V169.2H178.967C179.798 169.2 180.512 169.335 181.109 169.606C181.706 169.867 182.164 170.25 182.481 170.754C182.808 171.249 182.971 171.851 182.971 172.56C182.971 173.251 182.808 173.848 182.481 174.352C182.164 174.847 181.706 175.229 181.109 175.5C180.512 175.761 179.798 175.892 178.967 175.892H175.873L176.335 175.416V179H175.299ZM181.991 179L179.471 175.444H180.591L183.125 179H181.991ZM176.335 175.5L175.873 175.01H178.939C179.919 175.01 180.661 174.795 181.165 174.366C181.678 173.937 181.935 173.335 181.935 172.56C181.935 171.776 181.678 171.169 181.165 170.74C180.661 170.311 179.919 170.096 178.939 170.096H175.873L176.335 169.606V175.5ZM189.788 179.084C189.05 179.084 188.364 178.963 187.73 178.72C187.104 178.468 186.558 178.118 186.092 177.67C185.634 177.213 185.275 176.685 185.014 176.088C184.762 175.481 184.636 174.819 184.636 174.1C184.636 173.381 184.762 172.723 185.014 172.126C185.275 171.519 185.634 170.992 186.092 170.544C186.558 170.087 187.104 169.737 187.73 169.494C188.355 169.242 189.041 169.116 189.788 169.116C190.525 169.116 191.206 169.242 191.832 169.494C192.457 169.737 192.998 170.082 193.456 170.53C193.922 170.978 194.282 171.505 194.534 172.112C194.795 172.719 194.926 173.381 194.926 174.1C194.926 174.819 194.795 175.481 194.534 176.088C194.282 176.695 193.922 177.222 193.456 177.67C192.998 178.118 192.457 178.468 191.832 178.72C191.206 178.963 190.525 179.084 189.788 179.084ZM189.788 178.16C190.376 178.16 190.917 178.062 191.412 177.866C191.916 177.661 192.35 177.376 192.714 177.012C193.087 176.639 193.376 176.209 193.582 175.724C193.787 175.229 193.89 174.688 193.89 174.1C193.89 173.512 193.787 172.975 193.582 172.49C193.376 171.995 193.087 171.566 192.714 171.202C192.35 170.829 191.916 170.544 191.412 170.348C190.917 170.143 190.376 170.04 189.788 170.04C189.2 170.04 188.654 170.143 188.15 170.348C187.646 170.544 187.207 170.829 186.834 171.202C186.47 171.566 186.18 171.995 185.966 172.49C185.76 172.975 185.658 173.512 185.658 174.1C185.658 174.679 185.76 175.215 185.966 175.71C186.18 176.205 186.47 176.639 186.834 177.012C187.207 177.376 187.646 177.661 188.15 177.866C188.654 178.062 189.2 178.16 189.788 178.16ZM201.619 179.084C200.882 179.084 200.196 178.963 199.561 178.72C198.936 178.468 198.39 178.118 197.923 177.67C197.466 177.213 197.107 176.685 196.845 176.088C196.593 175.481 196.467 174.819 196.467 174.1C196.467 173.381 196.593 172.723 196.845 172.126C197.107 171.519 197.466 170.992 197.923 170.544C198.39 170.087 198.936 169.737 199.561 169.494C200.187 169.242 200.873 169.116 201.619 169.116C202.357 169.116 203.038 169.242 203.663 169.494C204.289 169.737 204.83 170.082 205.287 170.53C205.754 170.978 206.113 171.505 206.365 172.112C206.627 172.719 206.757 173.381 206.757 174.1C206.757 174.819 206.627 175.481 206.365 176.088C206.113 176.695 205.754 177.222 205.287 177.67C204.83 178.118 204.289 178.468 203.663 178.72C203.038 178.963 202.357 179.084 201.619 179.084ZM201.619 178.16C202.207 178.16 202.749 178.062 203.243 177.866C203.747 177.661 204.181 177.376 204.545 177.012C204.919 176.639 205.208 176.209 205.413 175.724C205.619 175.229 205.721 174.688 205.721 174.1C205.721 173.512 205.619 172.975 205.413 172.49C205.208 171.995 204.919 171.566 204.545 171.202C204.181 170.829 203.747 170.544 203.243 170.348C202.749 170.143 202.207 170.04 201.619 170.04C201.031 170.04 200.485 170.143 199.981 170.348C199.477 170.544 199.039 170.829 198.665 171.202C198.301 171.566 198.012 171.995 197.797 172.49C197.592 172.975 197.489 173.512 197.489 174.1C197.489 174.679 197.592 175.215 197.797 175.71C198.012 176.205 198.301 176.639 198.665 177.012C199.039 177.376 199.477 177.661 199.981 177.866C200.485 178.062 201.031 178.16 201.619 178.16ZM210.091 173.946H215.271V174.842H210.091V173.946ZM210.203 179H209.167V169.2H215.887V170.096H210.203V179ZM218.114 179V169.2H219.15V179H218.114ZM222.426 179V169.2H223.28L230.042 177.712H229.594V169.2H230.616V179H229.762L223.014 170.488H223.462V179H222.426ZM238.2 179.084C237.454 179.084 236.763 178.963 236.128 178.72C235.503 178.468 234.957 178.118 234.49 177.67C234.033 177.222 233.674 176.695 233.412 176.088C233.16 175.481 233.034 174.819 233.034 174.1C233.034 173.381 233.16 172.719 233.412 172.112C233.674 171.505 234.038 170.978 234.504 170.53C234.971 170.082 235.517 169.737 236.142 169.494C236.777 169.242 237.468 169.116 238.214 169.116C238.961 169.116 239.642 169.233 240.258 169.466C240.884 169.699 241.416 170.054 241.854 170.53L241.21 171.188C240.8 170.777 240.347 170.483 239.852 170.306C239.358 170.129 238.826 170.04 238.256 170.04C237.65 170.04 237.09 170.143 236.576 170.348C236.072 170.544 235.629 170.829 235.246 171.202C234.873 171.566 234.579 171.995 234.364 172.49C234.159 172.975 234.056 173.512 234.056 174.1C234.056 174.679 234.159 175.215 234.364 175.71C234.579 176.205 234.873 176.639 235.246 177.012C235.629 177.376 236.072 177.661 236.576 177.866C237.09 178.062 237.645 178.16 238.242 178.16C238.802 178.16 239.33 178.076 239.824 177.908C240.328 177.74 240.79 177.455 241.21 177.054L241.798 177.838C241.332 178.249 240.786 178.561 240.16 178.776C239.535 178.981 238.882 179.084 238.2 179.084ZM240.804 177.712V174.1H241.798V177.838L240.804 177.712Z" fill="#37474F"/>
<path d="M48.6063 39V28.5H53.3763C54.5163 28.5 55.5213 28.72 56.3913 29.16C57.2613 29.59 57.9413 30.195 58.4313 30.975C58.9213 31.755 59.1663 32.68 59.1663 33.75C59.1663 34.81 58.9213 35.735 58.4313 36.525C57.9413 37.305 57.2613 37.915 56.3913 38.355C55.5213 38.785 54.5163 39 53.3763 39H48.6063ZM51.0363 37.005H53.2563C53.9563 37.005 54.5613 36.875 55.0713 36.615C55.5913 36.345 55.9913 35.965 56.2713 35.475C56.5613 34.985 56.7063 34.41 56.7063 33.75C56.7063 33.08 56.5613 32.505 56.2713 32.025C55.9913 31.535 55.5913 31.16 55.0713 30.9C54.5613 30.63 53.9563 30.495 53.2563 30.495H51.0363V37.005ZM61.0927 39V28.5H63.5227V39H61.0927ZM68.7183 39V34.71L69.2733 36.18L64.6533 28.5H67.2333L70.7733 34.395H69.2883L72.8433 28.5H75.2283L70.6083 36.18L71.1483 34.71V39H68.7183Z" fill="#37474F"/>
<path d="M765.245 39V28.5H769.79C770.73 28.5 771.54 28.655 772.22 28.965C772.9 29.265 773.425 29.7 773.795 30.27C774.165 30.84 774.35 31.52 774.35 32.31C774.35 33.09 774.165 33.765 773.795 34.335C773.425 34.905 772.9 35.345 772.22 35.655C771.54 35.955 770.73 36.105 769.79 36.105H766.595L767.675 35.01V39H765.245ZM767.675 35.28L766.595 34.125H769.655C770.405 34.125 770.965 33.965 771.335 33.645C771.705 33.325 771.89 32.88 771.89 32.31C771.89 31.73 771.705 31.28 771.335 30.96C770.965 30.64 770.405 30.48 769.655 30.48H766.595L767.675 29.325V35.28ZM775.999 39V30.93H778.234V33.21L777.919 32.55C778.159 31.98 778.544 31.55 779.074 31.26C779.604 30.96 780.249 30.81 781.009 30.81V32.97C780.909 32.96 780.819 32.955 780.739 32.955C780.659 32.945 780.574 32.94 780.484 32.94C779.844 32.94 779.324 33.125 778.924 33.495C778.534 33.855 778.339 34.42 778.339 35.19V39H775.999ZM786.275 39.12C785.415 39.12 784.65 38.94 783.98 38.58C783.32 38.22 782.795 37.73 782.405 37.11C782.025 36.48 781.835 35.765 781.835 34.965C781.835 34.155 782.025 33.44 782.405 32.82C782.795 32.19 783.32 31.7 783.98 31.35C784.65 30.99 785.415 30.81 786.275 30.81C787.125 30.81 787.885 30.99 788.555 31.35C789.225 31.7 789.75 32.185 790.13 32.805C790.51 33.425 790.7 34.145 790.7 34.965C790.7 35.765 790.51 36.48 790.13 37.11C789.75 37.73 789.225 38.22 788.555 38.58C787.885 38.94 787.125 39.12 786.275 39.12ZM786.275 37.2C786.665 37.2 787.015 37.11 787.325 36.93C787.635 36.75 787.88 36.495 788.06 36.165C788.24 35.825 788.33 35.425 788.33 34.965C788.33 34.495 788.24 34.095 788.06 33.765C787.88 33.435 787.635 33.18 787.325 33C787.015 32.82 786.665 32.73 786.275 32.73C785.885 32.73 785.535 32.82 785.225 33C784.915 33.18 784.665 33.435 784.475 33.765C784.295 34.095 784.205 34.495 784.205 34.965C784.205 35.425 784.295 35.825 784.475 36.165C784.665 36.495 784.915 36.75 785.225 36.93C785.535 37.11 785.885 37.2 786.275 37.2ZM792.643 39V30.75C792.643 29.84 792.913 29.115 793.453 28.575C793.993 28.025 794.763 27.75 795.763 27.75C796.103 27.75 796.428 27.785 796.738 27.855C797.058 27.925 797.328 28.035 797.548 28.185L796.933 29.88C796.803 29.79 796.658 29.72 796.498 29.67C796.338 29.62 796.168 29.595 795.988 29.595C795.648 29.595 795.383 29.695 795.193 29.895C795.013 30.085 794.923 30.375 794.923 30.765V31.515L794.983 32.52V39H792.643ZM791.398 32.91V31.11H796.993V32.91H791.398ZM802.155 39.12C801.235 39.12 800.425 38.94 799.725 38.58C799.035 38.22 798.5 37.73 798.12 37.11C797.74 36.48 797.55 35.765 797.55 34.965C797.55 34.155 797.735 33.44 798.105 32.82C798.485 32.19 799 31.7 799.65 31.35C800.3 30.99 801.035 30.81 801.855 30.81C802.645 30.81 803.355 30.98 803.985 31.32C804.625 31.65 805.13 32.13 805.5 32.76C805.87 33.38 806.055 34.125 806.055 34.995C806.055 35.085 806.05 35.19 806.04 35.31C806.03 35.42 806.02 35.525 806.01 35.625H799.455V34.26H804.78L803.88 34.665C803.88 34.245 803.795 33.88 803.625 33.57C803.455 33.26 803.22 33.02 802.92 32.85C802.62 32.67 802.27 32.58 801.87 32.58C801.47 32.58 801.115 32.67 800.805 32.85C800.505 33.02 800.27 33.265 800.1 33.585C799.93 33.895 799.845 34.265 799.845 34.695V35.055C799.845 35.495 799.94 35.885 800.13 36.225C800.33 36.555 800.605 36.81 800.955 36.99C801.315 37.16 801.735 37.245 802.215 37.245C802.645 37.245 803.02 37.18 803.34 37.05C803.67 36.92 803.97 36.725 804.24 36.465L805.485 37.815C805.115 38.235 804.65 38.56 804.09 38.79C803.53 39.01 802.885 39.12 802.155 39.12ZM810.422 39.12C809.732 39.12 809.067 39.04 808.427 38.88C807.797 38.71 807.297 38.5 806.927 38.25L807.707 36.57C808.077 36.8 808.512 36.99 809.012 37.14C809.522 37.28 810.022 37.35 810.512 37.35C811.052 37.35 811.432 37.285 811.652 37.155C811.882 37.025 811.997 36.845 811.997 36.615C811.997 36.425 811.907 36.285 811.727 36.195C811.557 36.095 811.327 36.02 811.037 35.97C810.747 35.92 810.427 35.87 810.077 35.82C809.737 35.77 809.392 35.705 809.042 35.625C808.692 35.535 808.372 35.405 808.082 35.235C807.792 35.065 807.557 34.835 807.377 34.545C807.207 34.255 807.122 33.88 807.122 33.42C807.122 32.91 807.267 32.46 807.557 32.07C807.857 31.68 808.287 31.375 808.847 31.155C809.407 30.925 810.077 30.81 810.857 30.81C811.407 30.81 811.967 30.87 812.537 30.99C813.107 31.11 813.582 31.285 813.962 31.515L813.182 33.18C812.792 32.95 812.397 32.795 811.997 32.715C811.607 32.625 811.227 32.58 810.857 32.58C810.337 32.58 809.957 32.65 809.717 32.79C809.477 32.93 809.357 33.11 809.357 33.33C809.357 33.53 809.442 33.68 809.612 33.78C809.792 33.88 810.027 33.96 810.317 34.02C810.607 34.08 810.922 34.135 811.262 34.185C811.612 34.225 811.962 34.29 812.312 34.38C812.662 34.47 812.977 34.6 813.257 34.77C813.547 34.93 813.782 35.155 813.962 35.445C814.142 35.725 814.232 36.095 814.232 36.555C814.232 37.055 814.082 37.5 813.782 37.89C813.482 38.27 813.047 38.57 812.477 38.79C811.917 39.01 811.232 39.12 810.422 39.12ZM818.484 39.12C817.794 39.12 817.129 39.04 816.489 38.88C815.859 38.71 815.359 38.5 814.989 38.25L815.769 36.57C816.139 36.8 816.574 36.99 817.074 37.14C817.584 37.28 818.084 37.35 818.574 37.35C819.114 37.35 819.494 37.285 819.714 37.155C819.944 37.025 820.059 36.845 820.059 36.615C820.059 36.425 819.969 36.285 819.789 36.195C819.619 36.095 819.389 36.02 819.099 35.97C818.809 35.92 818.489 35.87 818.139 35.82C817.799 35.77 817.454 35.705 817.104 35.625C816.754 35.535 816.434 35.405 816.144 35.235C815.854 35.065 815.619 34.835 815.439 34.545C815.269 34.255 815.184 33.88 815.184 33.42C815.184 32.91 815.329 32.46 815.619 32.07C815.919 31.68 816.349 31.375 816.909 31.155C817.469 30.925 818.139 30.81 818.919 30.81C819.469 30.81 820.029 30.87 820.599 30.99C821.169 31.11 821.644 31.285 822.024 31.515L821.244 33.18C820.854 32.95 820.459 32.795 820.059 32.715C819.669 32.625 819.289 32.58 818.919 32.58C818.399 32.58 818.019 32.65 817.779 32.79C817.539 32.93 817.419 33.11 817.419 33.33C817.419 33.53 817.504 33.68 817.674 33.78C817.854 33.88 818.089 33.96 818.379 34.02C818.669 34.08 818.984 34.135 819.324 34.185C819.674 34.225 820.024 34.29 820.374 34.38C820.724 34.47 821.039 34.6 821.319 34.77C821.609 34.93 821.844 35.155 822.024 35.445C822.204 35.725 822.294 36.095 822.294 36.555C822.294 37.055 822.144 37.5 821.844 37.89C821.544 38.27 821.109 38.57 820.539 38.79C819.979 39.01 819.294 39.12 818.484 39.12ZM823.832 39V30.93H826.172V39H823.832ZM825.002 29.805C824.572 29.805 824.222 29.68 823.952 29.43C823.682 29.18 823.547 28.87 823.547 28.5C823.547 28.13 823.682 27.82 823.952 27.57C824.222 27.32 824.572 27.195 825.002 27.195C825.432 27.195 825.782 27.315 826.052 27.555C826.322 27.785 826.457 28.085 826.457 28.455C826.457 28.845 826.322 29.17 826.052 29.43C825.792 29.68 825.442 29.805 825.002 29.805ZM832.277 39.12C831.417 39.12 830.652 38.94 829.982 38.58C829.322 38.22 828.797 37.73 828.407 37.11C828.027 36.48 827.837 35.765 827.837 34.965C827.837 34.155 828.027 33.44 828.407 32.82C828.797 32.19 829.322 31.7 829.982 31.35C830.652 30.99 831.417 30.81 832.277 30.81C833.127 30.81 833.887 30.99 834.557 31.35C835.227 31.7 835.752 32.185 836.132 32.805C836.512 33.425 836.702 34.145 836.702 34.965C836.702 35.765 836.512 36.48 836.132 37.11C835.752 37.73 835.227 38.22 834.557 38.58C833.887 38.94 833.127 39.12 832.277 39.12ZM832.277 37.2C832.667 37.2 833.017 37.11 833.327 36.93C833.637 36.75 833.882 36.495 834.062 36.165C834.242 35.825 834.332 35.425 834.332 34.965C834.332 34.495 834.242 34.095 834.062 33.765C833.882 33.435 833.637 33.18 833.327 33C833.017 32.82 832.667 32.73 832.277 32.73C831.887 32.73 831.537 32.82 831.227 33C830.917 33.18 830.667 33.435 830.477 33.765C830.297 34.095 830.207 34.495 830.207 34.965C830.207 35.425 830.297 35.825 830.477 36.165C830.667 36.495 830.917 36.75 831.227 36.93C831.537 37.11 831.887 37.2 832.277 37.2ZM843.265 30.81C843.905 30.81 844.475 30.94 844.975 31.2C845.485 31.45 845.885 31.84 846.175 32.37C846.465 32.89 846.61 33.56 846.61 34.38V39H844.27V34.74C844.27 34.09 844.125 33.61 843.835 33.3C843.555 32.99 843.155 32.835 842.635 32.835C842.265 32.835 841.93 32.915 841.63 33.075C841.34 33.225 841.11 33.46 840.94 33.78C840.78 34.1 840.7 34.51 840.7 35.01V39H838.36V30.93H840.595V33.165L840.175 32.49C840.465 31.95 840.88 31.535 841.42 31.245C841.96 30.955 842.575 30.81 843.265 30.81ZM853.775 39V37.425L853.625 37.08V34.26C853.625 33.76 853.47 33.37 853.16 33.09C852.86 32.81 852.395 32.67 851.765 32.67C851.335 32.67 850.91 32.74 850.49 32.88C850.08 33.01 849.73 33.19 849.44 33.42L848.6 31.785C849.04 31.475 849.57 31.235 850.19 31.065C850.81 30.895 851.44 30.81 852.08 30.81C853.31 30.81 854.265 31.1 854.945 31.68C855.625 32.26 855.965 33.165 855.965 34.395V39H853.775ZM851.315 39.12C850.685 39.12 850.145 39.015 849.695 38.805C849.245 38.585 848.9 38.29 848.66 37.92C848.42 37.55 848.3 37.135 848.3 36.675C848.3 36.195 848.415 35.775 848.645 35.415C848.885 35.055 849.26 34.775 849.77 34.575C850.28 34.365 850.945 34.26 851.765 34.26H853.91V35.625H852.02C851.47 35.625 851.09 35.715 850.88 35.895C850.68 36.075 850.58 36.3 850.58 36.57C850.58 36.87 850.695 37.11 850.925 37.29C851.165 37.46 851.49 37.545 851.9 37.545C852.29 37.545 852.64 37.455 852.95 37.275C853.26 37.085 853.485 36.81 853.625 36.45L853.985 37.53C853.815 38.05 853.505 38.445 853.055 38.715C852.605 38.985 852.025 39.12 851.315 39.12ZM858.177 39V27.87H860.517V39H858.177Z" fill="#37474F"/>
<path d="M69.5896 110.8V96.7H71.0896V110.8H69.5896ZM70.1296 109.18C69.2896 109.18 68.4846 109.07 67.7146 108.85C66.9446 108.62 66.3246 108.325 65.8546 107.965L66.6796 106.135C67.1296 106.455 67.6596 106.72 68.2696 106.93C68.8896 107.13 69.5146 107.23 70.1446 107.23C70.6246 107.23 71.0096 107.185 71.2996 107.095C71.5996 106.995 71.8196 106.86 71.9596 106.69C72.0996 106.52 72.1696 106.325 72.1696 106.105C72.1696 105.825 72.0596 105.605 71.8396 105.445C71.6196 105.275 71.3296 105.14 70.9696 105.04C70.6096 104.93 70.2096 104.83 69.7696 104.74C69.3396 104.64 68.9046 104.52 68.4646 104.38C68.0346 104.24 67.6396 104.06 67.2796 103.84C66.9196 103.62 66.6246 103.33 66.3946 102.97C66.1746 102.61 66.0646 102.15 66.0646 101.59C66.0646 100.99 66.2246 100.445 66.5446 99.955C66.8746 99.455 67.3646 99.06 68.0146 98.77C68.6746 98.47 69.4996 98.32 70.4896 98.32C71.1496 98.32 71.7996 98.4 72.4396 98.56C73.0796 98.71 73.6446 98.94 74.1346 99.25L73.3846 101.095C72.8946 100.815 72.4046 100.61 71.9146 100.48C71.4246 100.34 70.9446 100.27 70.4746 100.27C70.0046 100.27 69.6196 100.325 69.3196 100.435C69.0196 100.545 68.8046 100.69 68.6746 100.87C68.5446 101.04 68.4796 101.24 68.4796 101.47C68.4796 101.74 68.5896 101.96 68.8096 102.13C69.0296 102.29 69.3196 102.42 69.6796 102.52C70.0396 102.62 70.4346 102.72 70.8646 102.82C71.3046 102.92 71.7396 103.035 72.1696 103.165C72.6096 103.295 73.0096 103.47 73.3696 103.69C73.7296 103.91 74.0196 104.2 74.2396 104.56C74.4696 104.92 74.5846 105.375 74.5846 105.925C74.5846 106.515 74.4196 107.055 74.0896 107.545C73.7596 108.035 73.2646 108.43 72.6046 108.73C71.9546 109.03 71.1296 109.18 70.1296 109.18Z" fill="#37474F"/>
<path d="M768.155 110.8V96.7H769.655V110.8H768.155ZM768.695 109.18C767.855 109.18 767.05 109.07 766.28 108.85C765.51 108.62 764.89 108.325 764.42 107.965L765.245 106.135C765.695 106.455 766.225 106.72 766.835 106.93C767.455 107.13 768.08 107.23 768.71 107.23C769.19 107.23 769.575 107.185 769.865 107.095C770.165 106.995 770.385 106.86 770.525 106.69C770.665 106.52 770.735 106.325 770.735 106.105C770.735 105.825 770.625 105.605 770.405 105.445C770.185 105.275 769.895 105.14 769.535 105.04C769.175 104.93 768.775 104.83 768.335 104.74C767.905 104.64 767.47 104.52 767.03 104.38C766.6 104.24 766.205 104.06 765.845 103.84C765.485 103.62 765.19 103.33 764.96 102.97C764.74 102.61 764.63 102.15 764.63 101.59C764.63 100.99 764.79 100.445 765.11 99.955C765.44 99.455 765.93 99.06 766.58 98.77C767.24 98.47 768.065 98.32 769.055 98.32C769.715 98.32 770.365 98.4 771.005 98.56C771.645 98.71 772.21 98.94 772.7 99.25L771.95 101.095C771.46 100.815 770.97 100.61 770.48 100.48C769.99 100.34 769.51 100.27 769.04 100.27C768.57 100.27 768.185 100.325 767.885 100.435C767.585 100.545 767.37 100.69 767.24 100.87C767.11 101.04 767.045 101.24 767.045 101.47C767.045 101.74 767.155 101.96 767.375 102.13C767.595 102.29 767.885 102.42 768.245 102.52C768.605 102.62 769 102.72 769.43 102.82C769.87 102.92 770.305 103.035 770.735 103.165C771.175 103.295 771.575 103.47 771.935 103.69C772.295 103.91 772.585 104.2 772.805 104.56C773.035 104.92 773.15 105.375 773.15 105.925C773.15 106.515 772.985 107.055 772.655 107.545C772.325 108.035 771.83 108.43 771.17 108.73C770.52 109.03 769.695 109.18 768.695 109.18ZM777.814 110.8V96.7H779.314V110.8H777.814ZM778.354 109.18C777.514 109.18 776.709 109.07 775.939 108.85C775.169 108.62 774.549 108.325 774.079 107.965L774.904 106.135C775.354 106.455 775.884 106.72 776.494 106.93C777.114 107.13 777.739 107.23 778.369 107.23C778.849 107.23 779.234 107.185 779.524 107.095C779.824 106.995 780.044 106.86 780.184 106.69C780.324 106.52 780.394 106.325 780.394 106.105C780.394 105.825 780.284 105.605 780.064 105.445C779.844 105.275 779.554 105.14 779.194 105.04C778.834 104.93 778.434 104.83 777.994 104.74C777.564 104.64 777.129 104.52 776.689 104.38C776.259 104.24 775.864 104.06 775.504 103.84C775.144 103.62 774.849 103.33 774.619 102.97C774.399 102.61 774.289 102.15 774.289 101.59C774.289 100.99 774.449 100.445 774.769 99.955C775.099 99.455 775.589 99.06 776.239 98.77C776.899 98.47 777.724 98.32 778.714 98.32C779.374 98.32 780.024 98.4 780.664 98.56C781.304 98.71 781.869 98.94 782.359 99.25L781.609 101.095C781.119 100.815 780.629 100.61 780.139 100.48C779.649 100.34 779.169 100.27 778.699 100.27C778.229 100.27 777.844 100.325 777.544 100.435C777.244 100.545 777.029 100.69 776.899 100.87C776.769 101.04 776.704 101.24 776.704 101.47C776.704 101.74 776.814 101.96 777.034 102.13C777.254 102.29 777.544 102.42 777.904 102.52C778.264 102.62 778.659 102.72 779.089 102.82C779.529 102.92 779.964 103.035 780.394 103.165C780.834 103.295 781.234 103.47 781.594 103.69C781.954 103.91 782.244 104.2 782.464 104.56C782.694 104.92 782.809 105.375 782.809 105.925C782.809 106.515 782.644 107.055 782.314 107.545C781.984 108.035 781.489 108.43 780.829 108.73C780.179 109.03 779.354 109.18 778.354 109.18ZM787.473 110.8V96.7H788.973V110.8H787.473ZM788.013 109.18C787.173 109.18 786.368 109.07 785.598 108.85C784.828 108.62 784.208 108.325 783.738 107.965L784.563 106.135C785.013 106.455 785.543 106.72 786.153 106.93C786.773 107.13 787.398 107.23 788.028 107.23C788.508 107.23 788.893 107.185 789.183 107.095C789.483 106.995 789.703 106.86 789.843 106.69C789.983 106.52 790.053 106.325 790.053 106.105C790.053 105.825 789.943 105.605 789.723 105.445C789.503 105.275 789.213 105.14 788.853 105.04C788.493 104.93 788.093 104.83 787.653 104.74C787.223 104.64 786.788 104.52 786.348 104.38C785.918 104.24 785.523 104.06 785.163 103.84C784.803 103.62 784.508 103.33 784.278 102.97C784.058 102.61 783.948 102.15 783.948 101.59C783.948 100.99 784.108 100.445 784.428 99.955C784.758 99.455 785.248 99.06 785.898 98.77C786.558 98.47 787.383 98.32 788.373 98.32C789.033 98.32 789.683 98.4 790.323 98.56C790.963 98.71 791.528 98.94 792.018 99.25L791.268 101.095C790.778 100.815 790.288 100.61 789.798 100.48C789.308 100.34 788.828 100.27 788.358 100.27C787.888 100.27 787.503 100.325 787.203 100.435C786.903 100.545 786.688 100.69 786.558 100.87C786.428 101.04 786.363 101.24 786.363 101.47C786.363 101.74 786.473 101.96 786.693 102.13C786.913 102.29 787.203 102.42 787.563 102.52C787.923 102.62 788.318 102.72 788.748 102.82C789.188 102.92 789.623 103.035 790.053 103.165C790.493 103.295 790.893 103.47 791.253 103.69C791.613 103.91 791.903 104.2 792.123 104.56C792.353 104.92 792.468 105.375 792.468 105.925C792.468 106.515 792.303 107.055 791.973 107.545C791.643 108.035 791.148 108.43 790.488 108.73C789.838 109.03 789.013 109.18 788.013 109.18ZM797.133 110.8V96.7H798.633V110.8H797.133ZM797.673 109.18C796.833 109.18 796.028 109.07 795.258 108.85C794.488 108.62 793.868 108.325 793.398 107.965L794.223 106.135C794.673 106.455 795.203 106.72 795.813 106.93C796.433 107.13 797.058 107.23 797.688 107.23C798.168 107.23 798.553 107.185 798.843 107.095C799.143 106.995 799.363 106.86 799.503 106.69C799.643 106.52 799.713 106.325 799.713 106.105C799.713 105.825 799.603 105.605 799.383 105.445C799.163 105.275 798.873 105.14 798.513 105.04C798.153 104.93 797.753 104.83 797.313 104.74C796.883 104.64 796.448 104.52 796.008 104.38C795.578 104.24 795.183 104.06 794.823 103.84C794.463 103.62 794.168 103.33 793.938 102.97C793.718 102.61 793.608 102.15 793.608 101.59C793.608 100.99 793.768 100.445 794.088 99.955C794.418 99.455 794.908 99.06 795.558 98.77C796.218 98.47 797.043 98.32 798.033 98.32C798.693 98.32 799.343 98.4 799.983 98.56C800.623 98.71 801.188 98.94 801.678 99.25L800.928 101.095C800.438 100.815 799.948 100.61 799.458 100.48C798.968 100.34 798.488 100.27 798.018 100.27C797.548 100.27 797.163 100.325 796.863 100.435C796.563 100.545 796.348 100.69 796.218 100.87C796.088 101.04 796.023 101.24 796.023 101.47C796.023 101.74 796.133 101.96 796.353 102.13C796.573 102.29 796.863 102.42 797.223 102.52C797.583 102.62 797.978 102.72 798.408 102.82C798.848 102.92 799.283 103.035 799.713 103.165C800.153 103.295 800.553 103.47 800.913 103.69C801.273 103.91 801.563 104.2 801.783 104.56C802.013 104.92 802.128 105.375 802.128 105.925C802.128 106.515 801.963 107.055 801.633 107.545C801.303 108.035 800.808 108.43 800.148 108.73C799.498 109.03 798.673 109.18 797.673 109.18ZM806.792 110.8V96.7H808.292V110.8H806.792ZM807.332 109.18C806.492 109.18 805.687 109.07 804.917 108.85C804.147 108.62 803.527 108.325 803.057 107.965L803.882 106.135C804.332 106.455 804.862 106.72 805.472 106.93C806.092 107.13 806.717 107.23 807.347 107.23C807.827 107.23 808.212 107.185 808.502 107.095C808.802 106.995 809.022 106.86 809.162 106.69C809.302 106.52 809.372 106.325 809.372 106.105C809.372 105.825 809.262 105.605 809.042 105.445C808.822 105.275 808.532 105.14 808.172 105.04C807.812 104.93 807.412 104.83 806.972 104.74C806.542 104.64 806.107 104.52 805.667 104.38C805.237 104.24 804.842 104.06 804.482 103.84C804.122 103.62 803.827 103.33 803.597 102.97C803.377 102.61 803.267 102.15 803.267 101.59C803.267 100.99 803.427 100.445 803.747 99.955C804.077 99.455 804.567 99.06 805.217 98.77C805.877 98.47 806.702 98.32 807.692 98.32C808.352 98.32 809.002 98.4 809.642 98.56C810.282 98.71 810.847 98.94 811.337 99.25L810.587 101.095C810.097 100.815 809.607 100.61 809.117 100.48C808.627 100.34 808.147 100.27 807.677 100.27C807.207 100.27 806.822 100.325 806.522 100.435C806.222 100.545 806.007 100.69 805.877 100.87C805.747 101.04 805.682 101.24 805.682 101.47C805.682 101.74 805.792 101.96 806.012 102.13C806.232 102.29 806.522 102.42 806.882 102.52C807.242 102.62 807.637 102.72 808.067 102.82C808.507 102.92 808.942 103.035 809.372 103.165C809.812 103.295 810.212 103.47 810.572 103.69C810.932 103.91 811.222 104.2 811.442 104.56C811.672 104.92 811.787 105.375 811.787 105.925C811.787 106.515 811.622 107.055 811.292 107.545C810.962 108.035 810.467 108.43 809.807 108.73C809.157 109.03 808.332 109.18 807.332 109.18Z" fill="#37474F"/>
<path d="M0.199097 180V169.5H2.20909L6.67909 176.91H5.61409L10.0091 169.5H12.0041L12.0341 180H9.75409L9.73909 172.995H10.1591L6.64909 178.89H5.55409L1.96909 172.995H2.47909V180H0.199097ZM14.454 180V171.93H16.794V180H14.454ZM15.624 170.805C15.194 170.805 14.844 170.68 14.574 170.43C14.304 170.18 14.169 169.87 14.169 169.5C14.169 169.13 14.304 168.82 14.574 168.57C14.844 168.32 15.194 168.195 15.624 168.195C16.054 168.195 16.404 168.315 16.674 168.555C16.944 168.785 17.079 169.085 17.079 169.455C17.079 169.845 16.944 170.17 16.674 170.43C16.414 170.68 16.064 170.805 15.624 170.805ZM23.9645 171.81C24.6045 171.81 25.1745 171.94 25.6745 172.2C26.1845 172.45 26.5845 172.84 26.8745 173.37C27.1645 173.89 27.3095 174.56 27.3095 175.38V180H24.9695V175.74C24.9695 175.09 24.8245 174.61 24.5345 174.3C24.2545 173.99 23.8545 173.835 23.3345 173.835C22.9645 173.835 22.6295 173.915 22.3295 174.075C22.0395 174.225 21.8095 174.46 21.6395 174.78C21.4795 175.1 21.3995 175.51 21.3995 176.01V180H19.0595V171.93H21.2945V174.165L20.8745 173.49C21.1645 172.95 21.5795 172.535 22.1195 172.245C22.6595 171.955 23.2745 171.81 23.9645 171.81ZM29.5243 180V171.93H31.8643V180H29.5243ZM30.6943 170.805C30.2643 170.805 29.9143 170.68 29.6443 170.43C29.3743 170.18 29.2393 169.87 29.2393 169.5C29.2393 169.13 29.3743 168.82 29.6443 168.57C29.9143 168.32 30.2643 168.195 30.6943 168.195C31.1243 168.195 31.4743 168.315 31.7443 168.555C32.0143 168.785 32.1493 169.085 32.1493 169.455C32.1493 169.845 32.0143 170.17 31.7443 170.43C31.4843 170.68 31.1343 170.805 30.6943 170.805ZM44.4648 171.81C45.1048 171.81 45.6698 171.94 46.1598 172.2C46.6598 172.45 47.0498 172.84 47.3298 173.37C47.6198 173.89 47.7648 174.56 47.7648 175.38V180H45.4248V175.74C45.4248 175.09 45.2898 174.61 45.0198 174.3C44.7498 173.99 44.3698 173.835 43.8798 173.835C43.5398 173.835 43.2348 173.915 42.9648 174.075C42.6948 174.225 42.4848 174.455 42.3348 174.765C42.1848 175.075 42.1098 175.47 42.1098 175.95V180H39.7698V175.74C39.7698 175.09 39.6348 174.61 39.3648 174.3C39.1048 173.99 38.7298 173.835 38.2398 173.835C37.8998 173.835 37.5948 173.915 37.3248 174.075C37.0548 174.225 36.8448 174.455 36.6948 174.765C36.5448 175.075 36.4698 175.47 36.4698 175.95V180H34.1298V171.93H36.3648V174.135L35.9448 173.49C36.2248 172.94 36.6198 172.525 37.1298 172.245C37.6498 171.955 38.2398 171.81 38.8998 171.81C39.6398 171.81 40.2848 172 40.8348 172.38C41.3948 172.75 41.7648 173.32 41.9448 174.09L41.1198 173.865C41.3898 173.235 41.8198 172.735 42.4098 172.365C43.0098 171.995 43.6948 171.81 44.4648 171.81ZM53.361 180.12C52.691 180.12 52.091 179.99 51.561 179.73C51.041 179.47 50.636 179.075 50.346 178.545C50.056 178.005 49.911 177.32 49.911 176.49V171.93H52.251V176.145C52.251 176.815 52.391 177.31 52.671 177.63C52.961 177.94 53.366 178.095 53.886 178.095C54.246 178.095 54.566 178.02 54.846 177.87C55.126 177.71 55.346 177.47 55.506 177.15C55.666 176.82 55.746 176.41 55.746 175.92V171.93H58.086V180H55.866V177.78L56.271 178.425C56.001 178.985 55.601 179.41 55.071 179.7C54.551 179.98 53.981 180.12 53.361 180.12ZM70.6826 171.81C71.3226 171.81 71.8876 171.94 72.3776 172.2C72.8776 172.45 73.2676 172.84 73.5476 173.37C73.8376 173.89 73.9826 174.56 73.9826 175.38V180H71.6426V175.74C71.6426 175.09 71.5076 174.61 71.2376 174.3C70.9676 173.99 70.5876 173.835 70.0976 173.835C69.7576 173.835 69.4526 173.915 69.1826 174.075C68.9126 174.225 68.7026 174.455 68.5526 174.765C68.4026 175.075 68.3276 175.47 68.3276 175.95V180H65.9876V175.74C65.9876 175.09 65.8526 174.61 65.5826 174.3C65.3226 173.99 64.9476 173.835 64.4576 173.835C64.1176 173.835 63.8126 173.915 63.5426 174.075C63.2726 174.225 63.0626 174.455 62.9126 174.765C62.7626 175.075 62.6876 175.47 62.6876 175.95V180H60.3476V171.93H62.5826V174.135L62.1626 173.49C62.4426 172.94 62.8376 172.525 63.3476 172.245C63.8676 171.955 64.4576 171.81 65.1176 171.81C65.8576 171.81 66.5026 172 67.0526 172.38C67.6126 172.75 67.9826 173.32 68.1626 174.09L67.3376 173.865C67.6076 173.235 68.0376 172.735 68.6276 172.365C69.2276 171.995 69.9126 171.81 70.6826 171.81Z" fill="#37474F"/>
<path d="M765.245 180V169.5H767.255L771.725 176.91H770.66L775.055 169.5H777.05L777.08 180H774.8L774.785 172.995H775.205L771.695 178.89H770.6L767.015 172.995H767.525V180H765.245ZM784.45 180V178.425L784.3 178.08V175.26C784.3 174.76 784.145 174.37 783.835 174.09C783.535 173.81 783.07 173.67 782.44 173.67C782.01 173.67 781.585 173.74 781.165 173.88C780.755 174.01 780.405 174.19 780.115 174.42L779.275 172.785C779.715 172.475 780.245 172.235 780.865 172.065C781.485 171.895 782.115 171.81 782.755 171.81C783.985 171.81 784.94 172.1 785.62 172.68C786.3 173.26 786.64 174.165 786.64 175.395V180H784.45ZM781.99 180.12C781.36 180.12 780.82 180.015 780.37 179.805C779.92 179.585 779.575 179.29 779.335 178.92C779.095 178.55 778.975 178.135 778.975 177.675C778.975 177.195 779.09 176.775 779.32 176.415C779.56 176.055 779.935 175.775 780.445 175.575C780.955 175.365 781.62 175.26 782.44 175.26H784.585V176.625H782.695C782.145 176.625 781.765 176.715 781.555 176.895C781.355 177.075 781.255 177.3 781.255 177.57C781.255 177.87 781.37 178.11 781.6 178.29C781.84 178.46 782.165 178.545 782.575 178.545C782.965 178.545 783.315 178.455 783.625 178.275C783.935 178.085 784.16 177.81 784.3 177.45L784.66 178.53C784.49 179.05 784.18 179.445 783.73 179.715C783.28 179.985 782.7 180.12 781.99 180.12ZM787.831 180L791.446 175.26L791.401 176.55L787.936 171.93H790.561L792.751 174.945L791.761 174.975L794.026 171.93H796.516L793.036 176.505V175.245L796.636 180H793.981L791.686 176.79L792.661 176.925L790.381 180H787.831ZM797.866 180V171.93H800.206V180H797.866ZM799.036 170.805C798.606 170.805 798.256 170.68 797.986 170.43C797.716 170.18 797.581 169.87 797.581 169.5C797.581 169.13 797.716 168.82 797.986 168.57C798.256 168.32 798.606 168.195 799.036 168.195C799.466 168.195 799.816 168.315 800.086 168.555C800.356 168.785 800.491 169.085 800.491 169.455C800.491 169.845 800.356 170.17 800.086 170.43C799.826 170.68 799.476 170.805 799.036 170.805ZM812.807 171.81C813.447 171.81 814.012 171.94 814.502 172.2C815.002 172.45 815.392 172.84 815.672 173.37C815.962 173.89 816.107 174.56 816.107 175.38V180H813.767V175.74C813.767 175.09 813.632 174.61 813.362 174.3C813.092 173.99 812.712 173.835 812.222 173.835C811.882 173.835 811.577 173.915 811.307 174.075C811.037 174.225 810.827 174.455 810.677 174.765C810.527 175.075 810.452 175.47 810.452 175.95V180H808.112V175.74C808.112 175.09 807.977 174.61 807.707 174.3C807.447 173.99 807.072 173.835 806.582 173.835C806.242 173.835 805.937 173.915 805.667 174.075C805.397 174.225 805.187 174.455 805.037 174.765C804.887 175.075 804.812 175.47 804.812 175.95V180H802.472V171.93H804.707V174.135L804.287 173.49C804.567 172.94 804.962 172.525 805.472 172.245C805.992 171.955 806.582 171.81 807.242 171.81C807.982 171.81 808.627 172 809.177 172.38C809.737 172.75 810.107 173.32 810.287 174.09L809.462 173.865C809.732 173.235 810.162 172.735 810.752 172.365C811.352 171.995 812.037 171.81 812.807 171.81ZM821.703 180.12C821.033 180.12 820.433 179.99 819.903 179.73C819.383 179.47 818.978 179.075 818.688 178.545C818.398 178.005 818.253 177.32 818.253 176.49V171.93H820.593V176.145C820.593 176.815 820.733 177.31 821.013 177.63C821.303 177.94 821.708 178.095 822.228 178.095C822.588 178.095 822.908 178.02 823.188 177.87C823.468 177.71 823.688 177.47 823.848 177.15C824.008 176.82 824.088 176.41 824.088 175.92V171.93H826.428V180H824.208V177.78L824.613 178.425C824.343 178.985 823.943 179.41 823.413 179.7C822.893 179.98 822.323 180.12 821.703 180.12ZM839.024 171.81C839.664 171.81 840.229 171.94 840.719 172.2C841.219 172.45 841.609 172.84 841.889 173.37C842.179 173.89 842.324 174.56 842.324 175.38V180H839.984V175.74C839.984 175.09 839.849 174.61 839.579 174.3C839.309 173.99 838.929 173.835 838.439 173.835C838.099 173.835 837.794 173.915 837.524 174.075C837.254 174.225 837.044 174.455 836.894 174.765C836.744 175.075 836.669 175.47 836.669 175.95V180H834.329V175.74C834.329 175.09 834.194 174.61 833.924 174.3C833.664 173.99 833.289 173.835 832.799 173.835C832.459 173.835 832.154 173.915 831.884 174.075C831.614 174.225 831.404 174.455 831.254 174.765C831.104 175.075 831.029 175.47 831.029 175.95V180H828.689V171.93H830.924V174.135L830.504 173.49C830.784 172.94 831.179 172.525 831.689 172.245C832.209 171.955 832.799 171.81 833.459 171.81C834.199 171.81 834.844 172 835.394 172.38C835.954 172.75 836.324 173.32 836.504 174.09L835.679 173.865C835.949 173.235 836.379 172.735 836.969 172.365C837.569 171.995 838.254 171.81 839.024 171.81Z" fill="#37474F"/>
<path d="M122.5 34.5H87.5" stroke="#37474F" stroke-linecap="square" stroke-dasharray="1 3"/>
<path d="M747.5 174.5H247.5" stroke="#37474F" stroke-linecap="square" stroke-dasharray="1 3"/>
<path d="M104.5 174.5H87.5" stroke="#37474F" stroke-linecap="square" stroke-dasharray="1 3"/>
<path d="M747.5 104.5H198.5" stroke="#37474F" stroke-linecap="square" stroke-dasharray="1 3"/>
<path d="M153.5 104.5H87.5" stroke="#37474F" stroke-linecap="square" stroke-dasharray="1 3"/>
<path d="M747.5 34.5H229.5" stroke="#37474F" stroke-linecap="square" stroke-dasharray="1 3"/>
<path d="M420.21 0.796221C419.822 0.403867 419.189 0.400895 418.796 0.789581L412.402 7.12359C412.01 7.51228 412.007 8.14544 412.396 8.53779C412.784 8.93015 413.418 8.93312 413.81 8.54443L419.493 2.9142L425.124 8.59755C425.512 8.9899 426.145 8.99287 426.538 8.60419C426.93 8.2155 426.933 7.58234 426.544 7.18999L420.21 0.796221ZM418 107.995L417.995 108.995L419.995 109.005L420 108.005L418 107.995ZM418.5 1.49531L418 107.995L420 108.005L420.5 1.50469L418.5 1.49531Z" fill="#37474F"/>
<path d="M418.5 105.5L585.5 171.5" stroke="#37474F" stroke-width="2" stroke-linecap="square"/>
<path d="M748.207 0.792893C747.817 0.402369 747.183 0.402369 746.793 0.792893L740.429 7.15685C740.038 7.54738 740.038 8.18054 740.429 8.57107C740.819 8.96159 741.453 8.96159 741.843 8.57107L747.5 2.91421L753.157 8.57107C753.547 8.96159 754.181 8.96159 754.571 8.57107C754.962 8.18054 754.962 7.54738 754.571 7.15685L748.207 0.792893ZM746.5 214.5V215.5H748.5V214.5H746.5ZM746.5 1.5V214.5H748.5V1.5H746.5Z" fill="#37474F"/>
<path d="M585 172L584.5 214.5" stroke="#37474F" stroke-width="2" stroke-linecap="square"/>
<path d="M418.5 44C422.642 44 426 40.6421 426 36.5C426 32.3579 422.642 29 418.5 29C414.358 29 411 32.3579 411 36.5C411 40.6421 414.358 44 418.5 44Z" fill="white" stroke="#37474F" stroke-width="2"/>
<path d="M748.5 44C752.642 44 756 40.6421 756 36.5C756 32.3579 752.642 29 748.5 29C744.358 29 741 32.3579 741 36.5C741 40.6421 744.358 44 748.5 44Z" fill="white" stroke="#37474F" stroke-width="2"/>
<path d="M418.5 112C422.642 112 426 108.642 426 104.5C426 100.358 422.642 97 418.5 97C414.358 97 411 100.358 411 104.5C411 108.642 414.358 112 418.5 112Z" fill="white" stroke="#37474F" stroke-width="2"/>
<path d="M747.5 112C751.642 112 755 108.642 755 104.5C755 100.358 751.642 97 747.5 97C743.358 97 740 100.358 740 104.5C740 108.642 743.358 112 747.5 112Z" fill="white" stroke="#37474F" stroke-width="2"/>
<path d="M584.5 179C588.642 179 592 175.642 592 171.5C592 167.358 588.642 164 584.5 164C580.358 164 577 167.358 577 171.5C577 175.642 580.358 179 584.5 179Z" fill="white" stroke="#37474F" stroke-width="2"/>
<path d="M748.5 179C752.642 179 756 175.642 756 171.5C756 167.358 752.642 164 748.5 164C744.358 164 741 167.358 741 171.5C741 175.642 744.358 179 748.5 179Z" fill="white" stroke="#37474F" stroke-width="2"/>
</g>
<defs>
<linearGradient id="paint0_linear_1_2" x1="748" y1="35.5007" x2="92.7207" y2="35.5007" gradientUnits="userSpaceOnUse">
<stop stop-color="#0176BD"/>
<stop offset="1" stop-color="white"/>
</linearGradient>
<clipPath id="clip0_1_2">
<rect width="861" height="274" fill="white"/>
</clipPath>
</defs>
</svg>
