<svg width="15" height="28" fill="none" class="icon" xmlns="http://www.w3.org/2000/svg"><g clip-path="url(#a)"><mask id="b" fill="#fff"><path d="m6.5.5-6 3L7 14 .5 23.5l6 4 8-13.5L6.5.5Z"/></mask><path d="m.5 3.5-19.677-39.355-43.095 21.548 25.36 40.967L.5 3.5Zm6-3 37.853-22.431-20.886-35.246-36.644 18.322L6.5.5Zm8 13.5 37.853 22.431L65.645 14 52.353-8.431 14.5 14Zm-8 13.5-24.407 36.61L20.7 89.847l23.654-39.916L6.5 27.5Zm-6-4L-35.813-1.346l-25.148 36.754 37.054 24.702L.5 23.5ZM7 14l36.313 24.846 16.179-23.645-15.08-24.36L7 14Zm13.177 28.855 6-3-39.354-78.71-6 3 39.354 78.71Zm-51.53-19.924 8 13.5L52.353-8.43l-8-13.5-75.706 44.862Zm8-31.362-8 13.5L44.353 49.93l8-13.5L-23.353-8.43Zm54.26-.68-6-4-48.814 73.221 6 4L30.907-9.11Zm5.906 57.457 6.5-9.5-72.626-49.692-6.5 9.5 72.626 49.692ZM44.412-9.16l-6.5-10.5-74.824 46.32 6.5 10.5L44.412-9.16Z" fill="#5EB8FF" mask="url(#b)"/></g><defs><clipPath id="a"><path fill="#fff" d="M0 0h15v28H0z"/></clipPath></defs></svg>
