<?xml version="1.0" encoding="utf-8"?>
<svg width="36" height="36" viewBox="0 0 36 36" fill="none" xmlns="http://www.w3.org/2000/svg">
  <path d="M33.293 3.58594L28.793 3.58594L28.793 2.68945Q28.793 2.32031 28.5293 2.05664Q28.2656 1.79297 27.8965 1.79297Q27.5273 1.79297 27.2637 2.05664Q27 2.32031 27 2.68945L27 3.58594L9 3.58594L9 2.68945Q9 2.32031 8.73633 2.05664Q8.47266 1.79297 8.10352 1.79297Q7.73438 1.79297 7.4707 2.05664Q7.20703 2.32031 7.20703 2.68945L7.20703 3.58594L2.70703 3.58594Q1.58203 3.58594 0.791016 4.37695Q0 5.16797 0 6.29297L0 31.4824Q0 32.6074 0.791016 33.3984Q1.58203 34.1895 2.70703 34.1895L33.293 34.1895Q34.418 34.1895 35.209 33.3984Q36 32.6074 36 31.4824L36 6.29297Q36 5.16797 35.209 4.37695Q34.418 3.58594 33.293 3.58594ZM2.70703 5.39648L7.20703 5.39648L7.20703 8.08594Q7.20703 8.45508 7.4707 8.71875Q7.73438 8.98242 8.10352 8.98242Q8.47266 8.98242 8.73633 8.71875Q9 8.45508 9 8.08594L9 5.39648L27 5.39648L27 8.08594Q27 8.45508 27.2637 8.71875Q27.5273 8.98242 27.8965 8.98242Q28.2656 8.98242 28.5293 8.71875Q28.793 8.45508 28.793 8.08594L28.793 5.39648L33.293 5.39648Q33.6797 5.39649 33.9434 5.66016Q34.207 5.92383 34.207 6.29297L34.207 10.793L1.79297 10.793L1.79297 6.29297Q1.79297 5.92383 2.05664 5.66016Q2.32031 5.39649 2.70703 5.39648ZM33.293 32.3965L2.70703 32.3965Q2.32031 32.3965 2.05664 32.1328Q1.79297 31.8691 1.79297 31.4824L1.79297 12.5859L34.207 12.5859L34.207 31.4824Q34.207 31.8691 33.9434 32.1328Q33.6797 32.3965 33.293 32.3965ZM15.293 27.8965Q15.1348 27.8965 14.9678 27.8262Q14.8008 27.7559 14.6602 27.6328L11.0566 24.0293Q10.793 23.7656 10.793 23.3877Q10.793 23.0098 11.0566 22.7461Q11.3203 22.4824 11.6982 22.4824Q12.0762 22.4824 12.3398 22.7461L15.293 25.7168L23.6602 17.3496Q23.9238 17.0859 24.3018 17.0859Q24.6797 17.0859 24.9434 17.3496Q25.207 17.6133 25.207 17.9912Q25.207 18.3691 24.9434 18.6328L15.9434 27.6328Q15.8027 27.7559 15.6357 27.8262Q15.4687 27.8965 15.293 27.8965Z" fill="#0277BD" />
</svg>