<?xml version="1.0" encoding="utf-8"?>
<svg width="42" height="42" viewBox="0 0 42 42" fill="none" xmlns="http://www.w3.org/2000/svg">
  <path d="M4.2041 12.5918Q3.99902 12.5918 3.8042 12.5098Q3.60937 12.4277 3.46582 12.2842L0.307617 9.12598Q0 8.81836 0 8.3877Q0 7.95704 0.307617 7.64941Q0.615234 7.3418 1.0459 7.3418Q1.47656 7.3418 1.78418 7.64941L4.2041 10.0488L12.8994 1.35352Q13.207 1.0459 13.6479 1.0459Q14.0889 1.0459 14.3965 1.35352Q14.7041 1.66113 14.7041 2.0918Q14.7041 2.52246 14.3965 2.83008L4.94238 12.2842Q4.79883 12.4277 4.604 12.5098Q4.40918 12.5918 4.2041 12.5918ZM40.9541 10.4795L15.75 10.4795Q15.3193 10.4795 15.0117 10.1719Q14.7041 9.86426 14.7041 9.43359Q14.7041 9.00293 15.0117 8.69531Q15.3193 8.3877 15.75 8.3877L40.9541 8.3877Q41.3848 8.3877 41.6924 8.69531Q42 9.00293 42 9.43359Q42 9.86426 41.6924 10.1719Q41.3848 10.4795 40.9541 10.4795ZM4.2041 27.2959Q3.99902 27.2959 3.8042 27.2139Q3.60937 27.1318 3.46582 26.9883L0.307617 23.8301Q0 23.5225 0 23.0918Q0 22.6611 0.307617 22.3535Q0.615234 22.0459 1.0459 22.0459Q1.47656 22.0459 1.78418 22.3535L4.2041 24.7529L12.8994 16.0371Q13.207 15.7295 13.6479 15.7295Q14.0889 15.7295 14.3965 16.0371Q14.7041 16.3447 14.7041 16.7856Q14.7041 17.2266 14.3965 17.5342L4.94238 26.9883Q4.79883 27.1318 4.604 27.2139Q4.40918 27.2959 4.2041 27.2959ZM40.9541 25.1836L15.75 25.1836Q15.3193 25.1836 15.0117 24.876Q14.7041 24.5684 14.7041 24.1377Q14.7041 23.707 15.0117 23.3994Q15.3193 23.0918 15.75 23.0918L40.9541 23.0918Q41.3848 23.0918 41.6924 23.3994Q42 23.707 42 24.1377Q42 24.5684 41.6924 24.876Q41.3848 25.1836 40.9541 25.1836ZM4.2041 41.9795Q3.99902 41.9795 3.8042 41.9077Q3.60937 41.8359 3.46582 41.6719L0.307617 38.5342Q0 38.2266 0 37.7856Q0 37.3447 0.307617 37.0371Q0.615234 36.7295 1.0459 36.7295Q1.47656 36.7295 1.78418 37.0371L4.2041 39.457L12.8994 30.7412Q13.207 30.4336 13.6479 30.4336Q14.0889 30.4336 14.3965 30.7412Q14.7041 31.0488 14.7041 31.4897Q14.7041 31.9307 14.3965 32.2383L4.94238 41.6719Q4.79883 41.8359 4.604 41.9077Q4.40918 41.9795 4.2041 41.9795ZM40.9541 39.8877L15.75 39.8877Q15.3193 39.8877 15.0117 39.5801Q14.7041 39.2725 14.7041 38.8418Q14.7041 38.4111 15.0117 38.1035Q15.3193 37.7959 15.75 37.7959L40.9541 37.7959Q41.3848 37.7959 41.6924 38.1035Q42 38.4111 42 38.8418Q42 39.2725 41.6924 39.5801Q41.3848 39.8877 40.9541 39.8877Z" fill="#0277BD" />
</svg>