<?xml version="1.0" encoding="UTF-8"?>
<svg width="23px" height="25px" viewBox="0 0 23 25" version="1.1" xmlns="http://www.w3.org/2000/svg" xmlns:xlink="http://www.w3.org/1999/xlink">
    <!-- Generator: Sketch 55.2 (78181) - https://sketchapp.com -->
    <title>c</title>
    <desc>Created with Sketch.</desc>
    <g id="Page-1" stroke="none" stroke-width="1" fill="none" fill-rule="evenodd">
        <g id="Mobile-–-nav-new" transform="translate(-280.000000, -14.000000)" fill="#28363E" fill-rule="nonzero">
            <path d="M289.397461,38.2949219 C289.04199,38.2949219 288.705568,38.2272142 288.388184,38.0917969 C288.070799,37.9563795 287.795737,37.7722993 287.562988,37.5395508 C287.33024,37.3068022 287.144044,37.0317399 287.004395,36.7143555 C286.864745,36.3969711 286.794922,36.0605487 286.794922,35.7050781 C286.794922,35.341144 286.864745,35.0026057 287.004395,34.6894531 C287.144044,34.3763005 287.33024,34.1012382 287.562988,33.8642578 C287.795737,33.6272775 288.070799,33.4410814 288.388184,33.3056641 C288.705568,33.1702467 289.04199,33.1025391 289.397461,33.1025391 C289.761395,33.1025391 290.099933,33.1702467 290.413086,33.3056641 C290.726239,33.4410814 291.001301,33.6272775 291.238281,33.8642578 C291.475262,34.1012382 291.661458,34.3763005 291.796875,34.6894531 C291.932292,35.0026057 292,35.341144 292,35.7050781 C292,36.0605487 291.932292,36.3969711 291.796875,36.7143555 C291.661458,37.0317399 291.475262,37.3068022 291.238281,37.5395508 C291.001301,37.7722993 290.726239,37.9563795 290.413086,38.0917969 C290.099933,38.2272142 289.761395,38.2949219 289.397461,38.2949219 Z M289.397461,34.3974609 C289.04199,34.3974609 288.737306,34.5244128 288.483398,34.7783203 C288.229491,35.0322278 288.102539,35.341144 288.102539,35.7050781 C288.102539,36.0605487 288.229491,36.3652331 288.483398,36.6191406 C288.737306,36.8730481 289.04199,37 289.397461,37 C289.761395,37 290.070311,36.8730481 290.324219,36.6191406 C290.578126,36.3652331 290.705078,36.0605487 290.705078,35.7050781 C290.705078,35.341144 290.578126,35.0322278 290.324219,34.7783203 C290.070311,34.5244128 289.761395,34.3974609 289.397461,34.3974609 Z M298.5,38.2949219 C298.144529,38.2949219 297.808107,38.2272142 297.490723,38.0917969 C297.173338,37.9563795 296.89616,37.7722993 296.65918,37.5395508 C296.422199,37.3068022 296.236003,37.0317399 296.100586,36.7143555 C295.965169,36.3969711 295.897461,36.0605487 295.897461,35.7050781 C295.897461,35.341144 295.965169,35.0026057 296.100586,34.6894531 C296.236003,34.3763005 296.422199,34.1012382 296.65918,33.8642578 C296.89616,33.6272775 297.173338,33.4410814 297.490723,33.3056641 C297.808107,33.1702467 298.144529,33.1025391 298.5,33.1025391 C298.855471,33.1025391 299.191893,33.1702467 299.509277,33.3056641 C299.826662,33.4410814 300.10384,33.6272775 300.34082,33.8642578 C300.577801,34.1012382 300.763997,34.3763005 300.899414,34.6894531 C301.034831,35.0026057 301.102539,35.341144 301.102539,35.7050781 C301.102539,36.0605487 301.034831,36.3969711 300.899414,36.7143555 C300.763997,37.0317399 300.577801,37.3068022 300.34082,37.5395508 C300.10384,37.7722993 299.826662,37.9563795 299.509277,38.0917969 C299.191893,38.2272142 298.855471,38.2949219 298.5,38.2949219 Z M298.5,34.3974609 C298.144529,34.3974609 297.839845,34.5244128 297.585938,34.7783203 C297.33203,35.0322278 297.205078,35.341144 297.205078,35.7050781 C297.205078,36.0605487 297.33203,36.3652331 297.585938,36.6191406 C297.839845,36.8730481 298.144529,37 298.5,37 C298.855471,37 299.160155,36.8730481 299.414062,36.6191406 C299.66797,36.3652331 299.794922,36.0605487 299.794922,35.7050781 C299.794922,35.341144 299.66797,35.0322278 299.414062,34.7783203 C299.160155,34.5244128 298.855471,34.3974609 298.5,34.3974609 Z M301.800781,18.109375 C301.961589,18.3040374 302.075846,18.5262032 302.143555,18.7758789 C302.211263,19.0255546 302.223959,19.2815742 302.181641,19.5439453 L301.305664,24.7744141 C301.221028,25.2737655 300.977704,25.7096336 300.575684,26.0820312 C300.173663,26.4544289 299.718753,26.6617836 299.210938,26.7041016 L286.261719,27.8339844 L286.579102,29.7636719 C286.612956,29.9583343 286.716633,30.1297193 286.890137,30.277832 C287.06364,30.4259448 287.251952,30.5 287.455078,30.5 L300.455078,30.5 C300.632813,30.5 300.785156,30.5634759 300.912109,30.6904297 C301.039063,30.8173834 301.102539,30.9697257 301.102539,31.1474609 C301.102539,31.3251962 301.039063,31.4775384 300.912109,31.6044922 C300.785156,31.7314459 300.632813,31.7949219 300.455078,31.7949219 L287.455078,31.7949219 C286.930336,31.7949219 286.460614,31.6193051 286.045898,31.2680664 C285.631183,30.9168277 285.381511,30.4873072 285.296875,29.9794922 L283.125977,16.9414062 C283.092122,16.7467438 282.988445,16.5753588 282.814941,16.4272461 C282.641438,16.2791334 282.453126,16.2050781 282.25,16.2050781 L280.955078,16.2050781 C280.768879,16.2050781 280.612305,16.1416022 280.485352,16.0146484 C280.358398,15.8876947 280.294922,15.7311207 280.294922,15.5449219 C280.294922,15.3671866 280.358398,15.2148444 280.485352,15.0878906 C280.612305,14.9609369 280.768879,14.8974609 280.955078,14.8974609 L282.25,14.8974609 C282.766279,14.8974609 283.233885,15.0751935 283.652832,15.4306641 C284.071779,15.7861346 284.323567,16.2177709 284.408203,16.7255859 L284.535156,17.5 L300.455078,17.5 C300.717449,17.5 300.967121,17.5528966 301.204102,17.6586914 C301.441082,17.7644862 301.639973,17.9147126 301.800781,18.109375 Z M300.899414,19.328125 C300.907878,19.2519527 300.905762,19.1821292 300.893066,19.1186523 C300.880371,19.0551755 300.852865,18.9980471 300.810547,18.9472656 C300.768229,18.8964841 300.717448,18.8583986 300.658203,18.8330078 C300.598958,18.8076171 300.53125,18.7949219 300.455078,18.7949219 L284.750977,18.7949219 L286.045898,26.5517578 L299.09668,25.4091797 C299.308269,25.3922525 299.507161,25.2970386 299.693359,25.1235352 C299.879558,24.9500317 299.989583,24.7617198 300.023438,24.5585938 L300.899414,19.328125 Z" id="c"></path>
        </g>
    </g>
</svg>
