<svg xmlns="http://www.w3.org/2000/svg"><defs> <path id="stumbleupon-path-1" d="M0,0.0749333333 L31.9250667,0.0749333333 L31.9250667,31.984 L0,31.984"/>  <clipPath id="thickness-2-clip0_1_4"> <rect width="55" height="22" fill="white"/> </clipPath> </defs><symbol viewBox="0 0 24 24" id="icon-add"><path d="M19 13h-6v6h-2v-6H5v-2h6V5h2v6h6v2z"/></symbol><symbol viewBox="0 0 36 36" id="icon-arrow-down"> <path d="M16.5 6v18.26l-8.38-8.38-2.12 2.12 12 12 12-12-2.12-2.12-8.38 8.38v-18.26h-3z"/> </symbol><symbol viewBox="0.00 0.00 84.00 91.00" id="icon-call-us"> <path fill="#72b8f9" d="
  M 38.61 0.00
  L 45.50 0.00
  Q 78.88 5.24 84.00 38.61
  L 84.00 45.46
  Q 81.93 64.14 67.38 75.54
  Q 66.75 76.04 66.75 75.24
  L 66.75 66.56
  Q 66.75 66.08 67.06 65.71
  Q 80.83 49.10 74.32 30.84
  C 66.93 10.14 43.41 1.33 24.34 12.63
  C 5.35 23.87 2.32 49.35 16.96 65.56
  Q 17.25 65.87 17.25 66.30
  L 17.25 75.23
  Q 17.25 76.02 16.62 75.53
  Q 2.00 64.11 0.00 45.33
  L 0.00 38.50
  Q 5.24 5.13 38.61 0.00
  Z"/> <path fill="#ffffff" d="
  M 54.62 91.00
  L 29.29 91.00
  C 24.22 89.64 22.91 86.35 22.90 81.17
  Q 22.85 57.45 22.87 33.75
  Q 22.88 25.38 31.76 25.36
  Q 41.37 25.33 50.99 25.40
  C 56.84 25.45 61.12 27.27 61.12 33.62
  Q 61.14 57.94 61.12 82.25
  Q 61.12 89.23 54.62 91.00
  Z
  M 34.04 33.54
  L 33.95 31.96
  Q 33.93 31.55 33.54 31.41
  Q 30.53 30.31 29.31 32.03
  Q 28.64 32.98 28.65 35.53
  Q 28.69 59.61 28.67 83.43
  A 1.82 1.82 0.0 0 0 30.49 85.25
  L 53.47 85.25
  A 1.85 1.85 0.0 0 0 55.32 83.41
  Q 55.34 58.91 55.31 34.25
  C 55.31 30.78 53.44 30.82 50.41 31.28
  Q 49.86 31.36 49.99 31.90
  C 50.50 34.02 49.43 34.64 47.46 34.66
  Q 41.18 34.72 35.19 34.64
  A 1.16 1.16 0.0 0 1 34.04 33.54
  Z"/> </symbol><symbol viewBox="0 0 12 8" id="icon-chevron-down"><path d="M6 6.174l5.313-4.96.23-.214.457.427-.23.214-5.51 5.146L6.03 7 6 6.972 5.97 7l-.23-.214L.23 1.64 0 1.428.458 1l.23.214L6 6.174z" stroke-linecap="square" fill-rule="evenodd"/></symbol><symbol viewBox="0 0 24 24" id="icon-chevron-left"><path d="M15.41 7.41L14 6l-6 6 6 6 1.41-1.41L10.83 12z"/></symbol><symbol viewBox="0 0 24 24" id="icon-chevron-right"><path d="M10 6L8.59 7.41 13.17 12l-4.58 4.59L10 18l6-6z"/></symbol><symbol viewBox="0 0 512 512" id="icon-circle-check-regular"><!--! Font Awesome Pro 6.4.0 by @fontawesome - https://fontawesome.com License - https://fontawesome.com/license (Commercial License) Copyright 2023 Fonticons, Inc. --><path d="M256 48a208 208 0 1 1 0 416 208 208 0 1 1 0-416zm0 464A256 256 0 1 0 256 0a256 256 0 1 0 0 512zM369 209c9.4-9.4 9.4-24.6 0-33.9s-24.6-9.4-33.9 0l-111 111-47-47c-9.4-9.4-24.6-9.4-33.9 0s-9.4 24.6 0 33.9l64 64c9.4 9.4 24.6 9.4 33.9 0L369 209z"/></symbol><symbol viewBox="0 0 24 24" id="icon-close"><path d="M19 6.41L17.59 5 12 10.59 6.41 5 5 6.41 10.59 12 5 17.59 6.41 19 12 13.41 17.59 19 19 17.59 13.41 12z"/></symbol><symbol viewBox="0.00 0.00 84.00 98.00" id="icon-contact-us"> <path fill="#72b8f9" d="
  M 38.57 0.00
  L 45.52 0.00
  Q 78.88 5.31 84.00 38.90
  L 84.00 45.96
  Q 82.23 61.99 70.91 73.18
  A 0.29 0.28 67.2 0 1 70.43 72.98
  Q 70.28 68.45 70.44 63.87
  Q 70.50 61.90 71.57 59.97
  C 88.10 29.96 57.77 -4.00 26.39 11.52
  C 8.29 20.47 2.24 43.96 13.35 61.32
  Q 13.63 61.76 13.63 62.29
  L 13.59 72.98
  A 0.28 0.28 0.0 0 1 13.11 73.18
  Q 1.71 61.95 0.00 45.84
  L 0.00 38.79
  Q 5.26 5.18 38.57 0.00
  Z"/> <path fill="#ffffff" d="
  M 55.13 43.31
  C 54.55 47.53 51.76 50.76 47.26 48.93
  C 45.13 48.07 43.53 45.76 41.88 43.98
  Q 41.52 43.60 41.00 43.62
  C 34.92 43.79 27.80 44.76 25.49 39.55
  C 24.35 36.96 24.72 33.12 24.73 30.06
  C 24.74 23.77 26.63 20.29 33.19 20.26
  Q 42.22 20.22 51.25 20.29
  C 57.60 20.34 59.24 24.19 59.26 30.01
  C 59.28 34.58 60.31 39.59 55.63 42.53
  Q 55.20 42.80 55.13 43.31
  Z
  M 49.90 37.77
  Q 51.65 38.19 53.04 37.31
  Q 53.50 37.01 53.50 36.47
  L 53.50 27.51
  A 1.49 1.49 0.0 0 0 52.01 26.02
  L 32.12 26.02
  A 1.62 1.61 0.0 0 0 30.50 27.63
  L 30.50 36.28
  A 1.54 1.53 -90.0 0 0 32.03 37.82
  L 43.66 37.83
  A 1.02 1.01 -20.9 0 1 44.41 38.16
  L 48.79 42.97
  Q 49.32 43.56 49.32 42.77
  L 49.33 38.22
  Q 49.33 37.64 49.90 37.77
  Z"/> <circle fill="#ffffff" cx="42.00" cy="31.94" r="2.30"/> <circle fill="#ffffff" cx="48.52" cy="31.94" r="2.30"/> <circle fill="#ffffff" cx="35.48" cy="31.94" r="2.30"/> <path fill="#ffffff" d="
  M 30.68 98.00
  L 28.07 98.00
  Q 23.63 96.37 23.62 91.81
  Q 23.62 91.31 23.22 91.00
  Q 19.28 88.02 19.27 84.25
  Q 19.24 72.03 19.24 59.81
  C 19.24 45.43 27.35 46.97 38.72 47.01
  Q 39.20 47.01 39.56 47.34
  L 45.23 52.64
  Q 45.36 52.77 45.18 52.77
  L 28.96 52.77
  A 3.93 3.92 0.1 0 0 25.03 56.67
  Q 24.98 67.84 25.03 79.54
  C 25.04 83.54 24.49 86.41 28.84 87.14
  Q 29.34 87.23 29.34 87.74
  L 29.35 91.44
  A 0.37 0.36 70.5 0 0 29.94 91.73
  L 35.16 87.45
  Q 35.62 87.08 36.22 87.08
  L 55.22 87.07
  A 3.76 3.76 0.0 0 0 58.98 83.32
  Q 59.00 70.97 58.98 58.16
  C 58.98 53.34 57.56 53.17 53.29 52.71
  Q 52.79 52.65 53.25 52.43
  Q 56.32 50.96 57.87 47.93
  Q 58.11 47.47 58.58 47.67
  Q 64.72 50.28 64.74 56.50
  Q 64.77 68.18 64.74 79.86
  Q 64.73 85.87 63.32 88.40
  Q 60.81 92.91 54.76 92.90
  Q 46.46 92.89 38.19 92.85
  Q 37.69 92.85 37.30 93.14
  L 30.68 98.00
  Z"/> <rect fill="#ffffff" x="28.85" y="58.23" width="26.30" height="5.78" rx="2.81"/> <rect fill="#ffffff" x="28.85" y="66.99" width="26.30" height="5.78" rx="2.81"/> <rect fill="#ffffff" x="-8.83" y="-2.88" transform="translate(37.69,78.64) rotate(0.1)" width="17.66" height="5.76" rx="2.77"/> </symbol><symbol viewBox="0.00 0.00 84.00 91.00" id="icon-email-us"> <path fill="#72b8f9" d="
  M 38.61 0.00
  L 45.50 0.00
  Q 78.88 5.24 84.00 38.61
  L 84.00 45.43
  Q 82.58 58.91 74.15 69.08
  Q 73.74 69.56 73.72 68.93
  Q 73.53 63.61 73.64 58.29
  Q 73.69 55.72 74.73 52.36
  C 83.29 24.58 56.36 -0.36 29.08 10.21
  C 12.60 16.60 3.77 35.69 9.39 52.85
  Q 10.38 55.84 10.39 58.30
  Q 10.43 63.58 10.27 68.93
  Q 10.25 69.55 9.85 69.08
  Q 1.38 58.85 0.00 45.32
  L 0.00 38.50
  Q 5.24 5.13 38.61 0.00
  Z"/> <path fill="#ffffff" d="
  M 65.60 91.00
  L 18.30 91.00
  Q 15.14 89.59 15.13 86.63
  Q 15.08 71.69 15.15 57.65
  Q 15.16 55.57 16.68 54.17
  Q 25.84 45.77 35.39 37.15
  C 40.06 32.95 43.78 32.75 48.34 36.89
  Q 57.65 45.34 66.98 53.77
  Q 68.88 55.50 68.89 58.12
  Q 68.91 72.82 68.84 87.51
  Q 68.83 89.70 65.60 91.00
  Z
  M 60.87 56.09
  L 43.35 40.14
  A 2.00 2.00 0.0 0 0 40.65 40.14
  L 22.98 56.22
  A 0.29 0.29 0.0 0 0 23.02 56.68
  L 41.52 68.74
  Q 42.00 69.05 42.49 68.74
  L 60.81 56.78
  Q 61.29 56.47 60.87 56.09
  Z
  M 21.37 62.49
  A 0.32 0.32 0.0 0 0 20.88 62.76
  L 20.88 82.22
  A 0.32 0.32 0.0 0 0 21.37 82.49
  L 36.32 72.76
  A 0.32 0.32 0.0 0 0 36.32 72.22
  L 21.37 62.49
  Z
  M 62.63 82.49
  A 0.32 0.32 0.0 0 0 63.12 82.22
  L 63.12 62.76
  A 0.32 0.32 0.0 0 0 62.63 62.49
  L 47.68 72.22
  A 0.32 0.32 0.0 0 0 47.68 72.76
  L 62.63 82.49
  Z
  M 28.35 84.83
  A 0.23 0.23 0.0 0 0 28.48 85.25
  L 55.42 85.25
  Q 56.28 85.25 55.56 84.78
  L 42.49 76.25
  Q 42.00 75.93 41.52 76.25
  L 28.35 84.83
  Z"/> </symbol><symbol viewBox="0 0 28 28" id="icon-envelope"> <path d="M0 23.5v-12.406q0.688 0.766 1.578 1.359 5.656 3.844 7.766 5.391 0.891 0.656 1.445 1.023t1.477 0.75 1.719 0.383h0.031q0.797 0 1.719-0.383t1.477-0.75 1.445-1.023q2.656-1.922 7.781-5.391 0.891-0.609 1.563-1.359v12.406q0 1.031-0.734 1.766t-1.766 0.734h-23q-1.031 0-1.766-0.734t-0.734-1.766zM0 6.844q0-1.219 0.648-2.031t1.852-0.812h23q1.016 0 1.758 0.734t0.742 1.766q0 1.234-0.766 2.359t-1.906 1.922q-5.875 4.078-7.313 5.078-0.156 0.109-0.664 0.477t-0.844 0.594-0.812 0.508-0.898 0.422-0.781 0.141h-0.031q-0.359 0-0.781-0.141t-0.898-0.422-0.812-0.508-0.844-0.594-0.664-0.477q-1.422-1-4.094-2.852t-3.203-2.227q-0.969-0.656-1.828-1.805t-0.859-2.133z"/> </symbol><symbol viewBox="0 0 32 32" id="icon-facebook"> <path d="M2.428 0.41c-0.936 0-1.695 0.753-1.695 1.682v27.112c0 0.929 0.759 1.682 1.695 1.682h14.709v-11.802h-4.002v-4.599h4.002v-3.392c0-3.936 2.423-6.080 5.961-6.080 1.695 0 3.152 0.125 3.576 0.181v4.114l-2.454 0.001c-1.924 0-2.297 0.907-2.297 2.239v2.937h4.59l-0.598 4.599h-3.992v11.802h7.826c0.936 0 1.695-0.753 1.695-1.682v-27.112c0-0.929-0.759-1.682-1.695-1.682h-27.321z"/> </symbol><symbol viewBox="0 0 24 24" id="icon-google-plus"><path d="M7.635 10.909v2.619h4.335c-.173 1.125-1.31 3.295-4.331 3.295-2.604 0-4.731-2.16-4.731-4.823 0-2.662 2.122-4.822 4.728-4.822 1.485 0 2.479.633 3.045 1.178l2.073-1.994c-1.33-1.245-3.056-1.995-5.115-1.995C3.412 4.365 0 7.785 0 12s3.414 7.635 7.635 7.635c4.41 0 7.332-3.098 7.332-7.461 0-.501-.054-.885-.12-1.265H7.635zm16.365 0h-2.183V8.726h-2.183v2.183h-2.182v2.181h2.184v2.184h2.189V13.09H24"/></symbol><symbol viewBox="0 0 20 28" id="icon-google"> <path d="M1.734 21.156q0-1.266 0.695-2.344t1.852-1.797q2.047-1.281 6.312-1.563-0.5-0.641-0.742-1.148t-0.242-1.148q0-0.625 0.328-1.328-0.719 0.063-1.062 0.063-2.312 0-3.898-1.508t-1.586-3.82q0-1.281 0.562-2.484t1.547-2.047q1.188-1.031 2.844-1.531t3.406-0.5h6.516l-2.141 1.375h-2.063q1.172 0.984 1.766 2.078t0.594 2.5q0 1.125-0.383 2.023t-0.93 1.453-1.086 1.016-0.922 0.961-0.383 1.031q0 0.562 0.5 1.102t1.203 1.062 1.414 1.148 1.211 1.625 0.5 2.219q0 1.422-0.766 2.703-1.109 1.906-3.273 2.805t-4.664 0.898q-2.063 0-3.852-0.648t-2.695-2.148q-0.562-0.922-0.562-2.047zM4.641 20.438q0 0.875 0.367 1.594t0.953 1.18 1.359 0.781 1.563 0.453 1.586 0.133q0.906 0 1.742-0.203t1.547-0.609 1.141-1.141 0.43-1.703q0-0.391-0.109-0.766t-0.227-0.656-0.422-0.648-0.461-0.547-0.602-0.539-0.57-0.453-0.648-0.469-0.57-0.406q-0.25-0.031-0.766-0.031-0.828 0-1.633 0.109t-1.672 0.391-1.516 0.719-1.070 1.164-0.422 1.648zM6.297 4.906q0 0.719 0.156 1.523t0.492 1.609 0.812 1.445 1.172 1.047 1.508 0.406q0.578 0 1.211-0.258t1.023-0.68q0.828-0.875 0.828-2.484 0-0.922-0.266-1.961t-0.75-2.016-1.313-1.617-1.828-0.641q-0.656 0-1.289 0.305t-1.039 0.82q-0.719 0.922-0.719 2.5z"/> </symbol><symbol viewBox="0 0 32 32" id="icon-instagram"> <path d="M25.522709,13.5369502 C25.7256898,14.3248434 25.8455558,15.1480745 25.8455558,15.9992932 C25.8455558,21.4379334 21.4376507,25.8455558 15.9998586,25.8455558 C10.5623493,25.8455558 6.15416148,21.4379334 6.15416148,15.9992932 C6.15416148,15.1480745 6.27459295,14.3248434 6.4775737,13.5369502 L3.6915357,13.5369502 L3.6915357,27.0764447 C3.6915357,27.7552145 4.24280653,28.3062027 4.92355534,28.3062027 L27.0764447,28.3062027 C27.7571935,28.3062027 28.3084643,27.7552145 28.3084643,27.0764447 L28.3084643,13.5369502 L25.522709,13.5369502 Z M27.0764447,3.6915357 L23.384909,3.6915357 C22.7050083,3.6915357 22.1543028,4.24280653 22.1543028,4.92214183 L22.1543028,8.61509104 C22.1543028,9.29442633 22.7050083,9.84569717 23.384909,9.84569717 L27.0764447,9.84569717 C27.7571935,9.84569717 28.3084643,9.29442633 28.3084643,8.61509104 L28.3084643,4.92214183 C28.3084643,4.24280653 27.7571935,3.6915357 27.0764447,3.6915357 Z M9.84597988,15.9992932 C9.84597988,19.3976659 12.6009206,22.1537374 15.9998586,22.1537374 C19.3987967,22.1537374 22.1543028,19.3976659 22.1543028,15.9992932 C22.1543028,12.6003551 19.3987967,9.84569717 15.9998586,9.84569717 C12.6009206,9.84569717 9.84597988,12.6003551 9.84597988,15.9992932 Z M3.6915357,31.9997173 C1.65296441,31.9997173 0,30.3461875 0,28.3062027 L0,3.6915357 C0,1.6526817 1.65296441,0 3.6915357,0 L28.3084643,0 C30.3473183,0 32,1.6526817 32,3.6915357 L32,28.3062027 C32,30.3461875 30.3473183,31.9997173 28.3084643,31.9997173 L3.6915357,31.9997173 Z" id="instagram-Imported-Layers"/> </symbol><symbol viewBox="0 0 24 24" id="icon-keyboard-arrow-down"><path d="M7.41 7.84L12 12.42l4.59-4.58L18 9.25l-6 6-6-6z"/></symbol><symbol viewBox="0 0 24 24" id="icon-keyboard-arrow-up"><path d="M7.41 15.41L12 10.83l4.59 4.58L18 14l-6-6-6 6z"/></symbol><symbol viewBox="0 0 32 32" id="icon-linkedin"> <path d="M27.2684444,27.2675556 L22.5226667,27.2675556 L22.5226667,19.8408889 C22.5226667,18.0702222 22.4924444,15.792 20.0568889,15.792 C17.5866667,15.792 17.2097778,17.7217778 17.2097778,19.7146667 L17.2097778,27.2675556 L12.4693333,27.2675556 L12.4693333,11.9964444 L17.0186667,11.9964444 L17.0186667,14.0844444 L17.0844444,14.0844444 C17.7173333,12.8835556 19.2657778,11.6177778 21.5742222,11.6177778 C26.3804444,11.6177778 27.2684444,14.7795556 27.2684444,18.8924444 L27.2684444,27.2675556 L27.2684444,27.2675556 Z M7.11822222,9.91022222 C5.59377778,9.91022222 4.36444444,8.67733333 4.36444444,7.15733333 C4.36444444,5.63822222 5.59377778,4.40533333 7.11822222,4.40533333 C8.63644444,4.40533333 9.86844444,5.63822222 9.86844444,7.15733333 C9.86844444,8.67733333 8.63644444,9.91022222 7.11822222,9.91022222 L7.11822222,9.91022222 Z M4.74133333,11.9964444 L9.49244444,11.9964444 L9.49244444,27.2675556 L4.74133333,27.2675556 L4.74133333,11.9964444 Z M29.632,0 L2.36,0 C1.05777778,0 0,1.03288889 0,2.30755556 L0,29.6906667 C0,30.9653333 1.05777778,32 2.36,32 L29.632,32 C30.9368889,32 31.9991111,30.9653333 31.9991111,29.6906667 L31.9991111,2.30755556 C31.9991111,1.03288889 30.9368889,0 29.632,0 L29.632,0 Z" id="linkedin-Fill-4"/> </symbol><symbol viewBox="0 0 70 32" id="icon-logo-american-express"> <path d="M69.102 17.219l0.399 9.094c-0.688 0.313-3.285 1.688-4.26 1.688h-4.788v-0.656c-0.546 0.438-1.549 0.656-2.467 0.656h-15.053v-2.466c0-0.344-0.057-0.344-0.345-0.344h-0.257v2.81h-4.961v-2.924c-0.832 0.402-1.749 0.402-2.581 0.402h-0.544v2.523h-6.050l-1.434-1.656-1.577 1.656h-9.72v-10.781h9.892l1.405 1.663 1.548-1.663h6.652c0.775 0 2.037 0.115 2.581 0.66v-0.66h5.936c0.602 0 1.749 0.115 2.523 0.66v-0.66h8.946v0.66c0.516-0.43 1.433-0.66 2.265-0.66h4.988v0.66c0.546-0.372 1.32-0.66 2.323-0.66h4.578zM34.905 23.871c1.577 0 3.183-0.43 3.183-2.581 0-2.093-1.635-2.523-3.069-2.523h-5.878l-2.38 2.523-2.236-2.523h-7.427v7.67h7.312l2.351-2.509 2.266 2.509h3.556v-2.566h2.322zM46.001 23.556c-0.172-0.23-0.487-0.516-0.946-0.66 0.516-0.172 1.318-0.832 1.318-2.036 0-0.889-0.315-1.377-0.917-1.721-0.602-0.315-1.319-0.372-2.266-0.372h-4.215v7.67h1.864v-2.796h1.978c0.66 0 1.032 0.058 1.319 0.344 0.316 0.373 0.316 1.032 0.316 1.548v0.903h1.836v-1.477c0-0.688-0.058-1.032-0.288-1.405zM53.571 20.373v-1.605h-6.136v7.67h6.136v-1.563h-4.33v-1.549h4.244v-1.548h-4.244v-1.405h4.33zM58.245 26.438c1.864 0 2.926-0.759 2.926-2.393 0-0.774-0.23-1.262-0.545-1.664-0.459-0.372-1.119-0.602-2.151-0.602h-1.004c-0.258 0-0.487-0.057-0.717-0.115-0.201-0.086-0.373-0.258-0.373-0.545 0-0.258 0.058-0.43 0.287-0.602 0.143-0.115 0.373-0.115 0.717-0.115h3.383v-1.634h-3.671c-1.978 0-2.638 1.204-2.638 2.294 0 2.438 2.151 2.322 3.842 2.38 0.344 0 0.544 0.058 0.66 0.173 0.115 0.086 0.23 0.315 0.23 0.544 0 0.201-0.115 0.373-0.23 0.488-0.173 0.115-0.373 0.172-0.717 0.172h-3.555v1.62h3.555zM65.442 26.439c1.864 0 2.924-0.76 2.924-2.394 0-0.774-0.229-1.262-0.544-1.664-0.459-0.372-1.119-0.602-2.151-0.602h-1.003c-0.258 0-0.488-0.057-0.718-0.115-0.201-0.086-0.373-0.258-0.373-0.545 0-0.258 0.115-0.43 0.287-0.602 0.144-0.115 0.373-0.115 0.717-0.115h3.383v-1.634h-3.671c-1.921 0-2.638 1.204-2.638 2.294 0 2.438 2.151 2.322 3.842 2.38 0.344 0 0.544 0.058 0.66 0.174 0.115 0.086 0.229 0.315 0.229 0.544 0 0.201-0.114 0.373-0.229 0.488s-0.373 0.172-0.717 0.172h-3.556v1.62h3.556zM43.966 20.518c0.23 0.115 0.373 0.344 0.373 0.659 0 0.344-0.143 0.602-0.373 0.774-0.287 0.115-0.545 0.115-0.889 0.115l-2.237 0.058v-1.749h2.237c0.344 0 0.659 0 0.889 0.143zM36.108 8.646c-0.287 0.172-0.544 0.172-0.918 0.172h-2.265v-1.692h2.265c0.316 0 0.688 0 0.918 0.114 0.23 0.144 0.344 0.374 0.344 0.718 0 0.315-0.114 0.602-0.344 0.689zM50.789 6.839l1.262 3.039h-2.523zM30.775 25.792l-2.838-3.183 2.838-3.011v6.193zM35.019 20.373c0.66 0 1.090 0.258 1.090 0.918s-0.43 1.032-1.090 1.032h-2.437v-1.95h2.437zM5.773 9.878l1.291-3.039 1.262 3.039h-2.552zM18.905 20.372l4.616 0 2.036 2.237-2.093 2.265h-4.559v-1.549h4.071v-1.548h-4.071v-1.405zM19.077 13.376l-0.545 1.377h-3.24l-0.546-1.319v1.319h-6.222l-0.66-1.749h-1.577l-0.717 1.749h-5.572l2.389-5.649 2.237-5.104h4.789l0.659 1.262v-1.262h5.591l1.262 2.724 1.233-2.724h17.835c0.832 0 1.548 0.143 2.093 0.602v-0.602h4.903v0.602c0.803-0.459 1.864-0.602 3.068-0.602h7.082l0.66 1.262v-1.262h5.218l0.775 1.262v-1.262h5.103v10.753h-5.161l-1.003-1.635v1.635h-6.423l-0.717-1.749h-1.577l-0.717 1.749h-3.355c-1.318 0-2.294-0.316-2.954-0.659v0.659h-7.971v-2.466c0-0.344-0.057-0.402-0.286-0.402h-0.258v2.867h-15.398v-1.377zM43.363 6.409c-0.832 0.831-0.975 1.864-1.004 3.011 0 1.377 0.344 2.266 0.947 2.925 0.659 0.66 1.806 0.86 2.695 0.86h2.151l0.716-1.692h3.843l0.717 1.692h3.727v-5.763l3.47 5.763h2.638v-7.684h-1.892v5.333l-3.24-5.333h-2.839v7.254l-3.096-7.254h-2.724l-2.638 6.050h-0.832c-0.487 0-1.003-0.115-1.262-0.373-0.344-0.402-0.488-1.004-0.488-1.836 0-0.803 0.144-1.405 0.488-1.748 0.373-0.316 0.774-0.431 1.434-0.431h1.749v-1.663h-1.749c-1.262 0-2.265 0.286-2.81 0.889zM39.579 5.52v7.684h1.863v-7.684h-1.863zM31.12 5.52l-0 7.685h1.806v-2.781h1.979c0.66 0 1.090 0.057 1.376 0.315 0.316 0.401 0.258 1.061 0.258 1.491v0.975h1.892v-1.519c0-0.66-0.057-1.004-0.344-1.377-0.172-0.229-0.487-0.488-0.889-0.659 0.516-0.23 1.319-0.832 1.319-2.036 0-0.889-0.373-1.377-0.976-1.75-0.602-0.344-1.262-0.344-2.208-0.344h-4.215zM23.636 5.521v7.685h6.165v-1.577h-4.301v-1.549h4.244v-1.577h-4.244v-1.377h4.301v-1.606h-6.165zM16.124 13.205h1.577l2.695-6.021v6.021h1.864v-7.684h-3.011l-2.265 5.219-2.409-5.219h-2.953v7.254l-3.154-7.254h-2.724l-3.297 7.684h1.978l0.688-1.692h3.871l0.688 1.692h3.756v-6.021z"/> </symbol><symbol viewBox="0 0 512 210.2" id="icon-logo-apple-pay"> <path id="logo-apple-pay-XMLID_34_" d="M93.6,27.1C87.6,34.2,78,39.8,68.4,39c-1.2-9.6,3.5-19.8,9-26.1c6-7.3,16.5-12.5,25-12.9
	C103.4,10,99.5,19.8,93.6,27.1 M102.3,40.9c-13.9-0.8-25.8,7.9-32.4,7.9c-6.7,0-16.8-7.5-27.8-7.3c-14.3,0.2-27.6,8.3-34.9,21.2
	c-15,25.8-3.9,64,10.6,85c7.1,10.4,15.6,21.8,26.8,21.4c10.6-0.4,14.8-6.9,27.6-6.9c12.9,0,16.6,6.9,27.8,6.7
	c11.6-0.2,18.9-10.4,26-20.8c8.1-11.8,11.4-23.3,11.6-23.9c-0.2-0.2-22.4-8.7-22.6-34.3c-0.2-21.4,17.5-31.6,18.3-32.2
	C123.3,42.9,107.7,41.3,102.3,40.9 M182.6,11.9v155.9h24.2v-53.3h33.5c30.6,0,52.1-21,52.1-51.4c0-30.4-21.1-51.2-51.3-51.2H182.6z
	 M206.8,32.3h27.9c21,0,33,11.2,33,30.9c0,19.7-12,31-33.1,31h-27.8V32.3z M336.6,169c15.2,0,29.3-7.7,35.7-19.9h0.5v18.7h22.4V90.2
	c0-22.5-18-37-45.7-37c-25.7,0-44.7,14.7-45.4,34.9h21.8c1.8-9.6,10.7-15.9,22.9-15.9c14.8,0,23.1,6.9,23.1,19.6v8.6l-30.2,1.8
	c-28.1,1.7-43.3,13.2-43.3,33.2C298.4,155.6,314.1,169,336.6,169z M343.1,150.5c-12.9,0-21.1-6.2-21.1-15.7c0-9.8,7.9-15.5,23-16.4
	l26.9-1.7v8.8C371.9,140.1,359.5,150.5,343.1,150.5z M425.1,210.2c23.6,0,34.7-9,44.4-36.3L512,54.7h-24.6l-28.5,92.1h-0.5
	l-28.5-92.1h-25.3l41,113.5l-2.2,6.9c-3.7,11.7-9.7,16.2-20.4,16.2c-1.9,0-5.6-0.2-7.1-0.4v18.7C417.3,210,423.3,210.2,425.1,210.2z
	"/>       </symbol><symbol viewBox="0 0 95 32" id="icon-logo-discover"> <path d="M50.431 8.059c4.546 0 8.092 3.49 8.092 7.936 0 4.471-3.571 7.961-8.093 7.961-4.638 0-8.115-3.444-8.115-8.051 0-4.334 3.635-7.845 8.115-7.845zM4.362 8.345c4.811 0 8.168 3.133 8.168 7.64 0 2.247-1.028 4.422-2.761 5.864-1.461 1.214-3.126 1.761-5.429 1.761h-4.339v-15.265h4.362zM7.832 19.81c1.027-0.912 1.639-2.379 1.639-3.847 0-1.464-0.612-2.882-1.639-3.798-0.984-0.892-2.146-1.235-4.065-1.235h-0.797v10.096h0.797c1.919 0 3.127-0.367 4.065-1.216zM13.9 23.611v-15.265h2.965v15.265h-2.965zM24.123 14.201c3.378 1.238 4.379 2.338 4.379 4.764 0 2.952-2.166 5.015-5.247 5.015-2.261 0-3.904-0.896-5.271-2.907l1.914-1.856c0.685 1.328 1.825 2.036 3.24 2.036 1.325 0 2.308-0.915 2.308-2.152 0-0.641-0.298-1.189-0.891-1.578-0.297-0.187-0.889-0.46-2.054-0.87-2.784-1.010-3.742-2.085-3.742-4.192 0-2.493 2.055-4.371 4.745-4.371 1.667 0 3.196 0.571 4.473 1.696l-1.549 2.033c-0.778-0.867-1.508-1.233-2.398-1.233-1.28 0-2.213 0.732-2.213 1.694 0 0.821 0.525 1.258 2.307 1.921zM29.438 15.986c0-4.436 3.605-7.985 8.101-7.985 1.278 0 2.352 0.273 3.653 0.935v3.504c-1.233-1.213-2.308-1.717-3.72-1.717-2.787 0-4.976 2.313-4.976 5.241 0 3.092 2.123 5.267 5.112 5.267 1.347 0 2.397-0.48 3.585-1.671v3.504c-1.347 0.638-2.443 0.892-3.72 0.892-4.519 0-8.034-3.478-8.034-7.97zM65.239 18.601l4.11-10.254h3.216l-6.573 15.655h-1.596l-6.46-15.655h3.24zM73.914 23.612v-15.265h8.418v2.585h-5.453v3.388h5.244v2.585h-5.244v4.123h5.453v2.584h-8.418zM94.081 12.852c0 2.336-1.23 3.87-3.469 4.329l4.794 6.43h-3.651l-4.105-6.135h-0.388v6.135h-2.969v-15.265h4.404c3.425 0 5.384 1.645 5.384 4.506zM88.125 15.372c1.9 0 2.903-0.827 2.903-2.359 0-1.486-1.004-2.266-2.856-2.266h-0.911v4.626h0.863z"/> </symbol><symbol viewBox="0 0 54 32" id="icon-logo-mastercard"> <path d="M48.366 15.193c0.6 0 0.9 0.437 0.9 1.282 0 1.281-0.546 2.209-1.337 2.209-0.6 0-0.9-0.436-0.9-1.31 0-1.281 0.573-2.182 1.337-2.182zM38.276 18.275c0-0.655 0.491-1.009 1.472-1.009 0.109 0 0.191 0.027 0.382 0.027-0.027 0.982-0.545 1.636-1.227 1.636-0.382 0-0.628-0.245-0.628-0.655zM26.278 15.848c0 0.082-0 0.192-0 0.327h-1.909c0.164-0.763 0.545-1.173 1.091-1.173 0.518 0 0.818 0.3 0.818 0.845zM38.060 0.002c8.838 0 16.003 7.165 16.003 16.002s-7.165 15.999-16.003 15.999c-3.834 0-7.324-1.344-10.080-3.594 2.102-2.031 3.707-4.567 4.568-7.44h-1.33c-0.833 2.553-2.297 4.807-4.199 6.627-1.892-1.816-3.342-4.078-4.172-6.62h-1.33c0.858 2.856 2.435 5.401 4.521 7.432-2.749 2.219-6.223 3.594-10.036 3.594-8.837 0-16.002-7.163-16.002-15.999s7.164-16.001 16.002-16.001c3.814 0 7.287 1.377 10.036 3.603-2.087 2.023-3.664 4.568-4.521 7.424h1.33c0.83-2.542 2.28-4.804 4.172-6.607 1.903 1.808 3.367 4.060 4.199 6.614h1.33c-0.861-2.872-2.466-5.413-4.568-7.443 2.757-2.249 6.246-3.592 10.080-3.592zM7.217 20.213h1.691l1.336-8.044h-2.672l-1.637 4.99-0.082-4.99h-2.454l-1.336 8.044h1.582l1.037-6.135 0.136 6.135h1.173l2.209-6.189zM14.47 19.477l0.054-0.408 0.382-2.318c0.109-0.736 0.136-0.982 0.136-1.309 0-1.254-0.791-1.909-2.263-1.909-0.627 0-1.2 0.082-2.045 0.327l-0.246 1.473 0.163-0.028 0.246-0.081c0.382-0.109 0.928-0.164 1.418-0.164 0.79 0 1.091 0.164 1.091 0.6 0 0.109 0 0.191-0.055 0.409-0.273-0.027-0.518-0.054-0.709-0.054-1.909 0-2.999 0.927-2.999 2.536 0 1.064 0.627 1.773 1.554 1.773 0.791 0 1.364-0.246 1.8-0.791l-0.027 0.682h1.418l0.027-0.164 0.027-0.246zM17.988 16.314c-0.736-0.327-0.819-0.409-0.819-0.709 0-0.355 0.3-0.519 0.845-0.519 0.328 0 0.791 0.028 1.227 0.082l0.246-1.5c-0.436-0.082-1.118-0.137-1.5-0.137-1.909 0-2.59 1.009-2.563 2.208 0 0.818 0.382 1.391 1.282 1.828 0.709 0.327 0.818 0.436 0.818 0.709 0 0.409-0.3 0.6-0.982 0.6-0.518 0-0.982-0.082-1.527-0.245l-0.246 1.5 0.082 0.027 0.3 0.054c0.109 0.027 0.246 0.055 0.464 0.055 0.382 0.054 0.709 0.054 0.928 0.054 1.8 0 2.645-0.682 2.645-2.181 0-0.9-0.354-1.418-1.2-1.828zM21.75 18.741c-0.409 0-0.573-0.136-0.573-0.464 0-0.082 0-0.164 0.027-0.273l0.463-2.726h0.873l0.218-1.609h-0.873l0.191-0.982h-1.691l-0.737 4.472-0.082 0.518-0.109 0.654c-0.027 0.191-0.055 0.409-0.055 0.573 0 0.954 0.491 1.445 1.364 1.445 0.382 0 0.764-0.055 1.227-0.218l0.218-1.445c-0.109 0.054-0.273 0.054-0.464 0.054zM25.732 18.851c-0.982 0-1.5-0.381-1.5-1.145 0-0.055 0-0.109 0.027-0.191h3.382c0.163-0.682 0.218-1.145 0.218-1.636 0-1.446-0.9-2.373-2.318-2.373-1.718 0-2.973 1.663-2.973 3.899 0 1.936 0.982 2.945 2.89 2.945 0.628 0 1.173-0.082 1.773-0.273l0.273-1.636c-0.6 0.3-1.145 0.409-1.773 0.409zM31.158 15.524h0.109c0.164-0.79 0.382-1.363 0.655-1.881l-0.055-0.027h-0.164c-0.573 0-0.9 0.273-1.418 1.064l0.164-1.009h-1.554l-1.064 6.544h1.718c0.627-4.008 0.791-4.69 1.609-4.69zM36.122 20.133l0.3-1.827c-0.545 0.273-1.036 0.409-1.445 0.409-1.009 0-1.609-0.737-1.609-1.963 0-1.773 0.9-3.027 2.182-3.027 0.491 0 0.928 0.136 1.528 0.436l0.3-1.745c-0.163-0.054-0.218-0.082-0.436-0.163l-0.682-0.164c-0.218-0.054-0.491-0.082-0.791-0.082-2.263 0-3.845 2.018-3.845 4.88 0 2.155 1.146 3.491 3 3.491 0.463 0 0.872-0.082 1.5-0.246zM41.521 19.069l0.355-2.318c0.136-0.736 0.136-0.982 0.136-1.309 0-1.254-0.763-1.909-2.236-1.909-0.627 0-1.2 0.082-2.045 0.327l-0.246 1.473 0.164-0.028 0.218-0.081c0.382-0.109 0.955-0.164 1.446-0.164 0.791 0 1.091 0.164 1.091 0.6 0 0.109-0.027 0.191-0.082 0.409-0.246-0.027-0.491-0.054-0.682-0.054-1.909 0-3 0.927-3 2.536 0 1.064 0.627 1.773 1.555 1.773 0.791 0 1.363-0.246 1.8-0.791l-0.028 0.682h1.418v-0.164l0.027-0.246 0.054-0.327zM43.648 20.214c0.627-4.008 0.791-4.69 1.608-4.69h0.109c0.164-0.79 0.382-1.363 0.655-1.881l-0.055-0.027h-0.164c-0.572 0-0.9 0.273-1.418 1.064l0.164-1.009h-1.554l-1.037 6.544h1.691zM48.829 20.214l1.608 0 1.309-8.044h-1.691l-0.382 2.291c-0.464-0.6-0.955-0.9-1.637-0.9-1.5 0-2.782 1.854-2.782 4.035 0 1.636 0.818 2.7 2.073 2.7 0.627 0 1.118-0.218 1.582-0.709zM11.306 18.279c0-0.655 0.492-1.009 1.447-1.009 0.136 0 0.218 0.027 0.382 0.027-0.027 0.982-0.518 1.636-1.228 1.636-0.382 0-0.6-0.245-0.6-0.655z"/> </symbol><symbol viewBox="0 0 57 32" id="icon-logo-paypal"> <path d="M47.11 10.477c2.211-0.037 4.633 0.618 4.072 3.276l-1.369 6.263h-3.159l0.211-0.947c-1.72 1.712-6.038 1.821-5.335-2.111 0.491-2.294 2.878-3.023 6.423-3.023 0.246-1.020-0.457-1.274-1.65-1.238s-2.633 0.437-3.089 0.655l0.281-2.293c0.913-0.182 2.106-0.583 3.615-0.583zM47.32 16.885c0.069-0.291 0.106-0.547 0.176-0.838h-0.773c-0.596 0-1.579 0.146-1.931 0.765-0.456 0.728 0.177 1.348 0.878 1.311 0.807-0.037 1.474-0.401 1.65-1.238zM53.883 8h3.242l-2.646 12.016h-3.209zM39.142 8.037c1.689 0 3.729 1.274 3.131 4.077-0.528 2.476-2.498 3.933-4.89 3.933h-2.428l-0.879 3.969h-3.412l2.603-11.979h5.874zM39.037 12.114c0.211-0.911-0.317-1.638-1.197-1.638h-1.689l-0.704 3.277h1.583c0.88 0 1.795-0.728 2.006-1.638zM16.346 10.476c2.184-0.037 4.611 0.618 4.056 3.276l-1.352 6.262h-3.155l0.208-0.947c-1.664 1.712-5.929 1.821-5.235-2.111 0.486-2.294 2.844-3.023 6.345-3.023 0.208-1.020-0.485-1.274-1.664-1.238s-2.601 0.437-3.017 0.655l0.277-2.293c0.867-0.182 2.046-0.583 3.537-0.583zM16.589 16.885c0.035-0.291 0.104-0.547 0.173-0.838h-0.797c-0.555 0-1.525 0.146-1.872 0.765-0.451 0.728 0.138 1.348 0.832 1.311 0.797-0.037 1.491-0.401 1.664-1.238zM28.528 10.648l3.255-0-7.496 13.351h-3.528l2.306-3.925-1.289-9.426h3.156l0.508 5.579zM8.499 8.036c1.728 0 3.738 1.274 3.139 4.077-0.529 2.476-2.504 3.933-4.867 3.933h-2.468l-0.847 3.969h-3.456l2.609-11.979h5.89zM8.393 12.114c0.247-0.911-0.317-1.638-1.164-1.638h-1.693l-0.741 3.277h1.623c0.882 0 1.763-0.728 1.975-1.638z"/> </symbol><symbol viewBox="0 0 26 26" id="icon-logo-small"><path d="M17.647 12.125h-3.323c-.11 0-.197.087-.197.194v2.327c0 .107.087.193.197.193h3.323c.95 0 1.542-.524 1.542-1.357 0-.795-.594-1.358-1.543-1.358zm-2.62-2.423h3.233c2.51 0 3.988 1.57 3.988 3.296 0 1.35-.915 2.345-1.885 2.78-.155.07-.15.283.01.346 1.128.443 1.94 1.623 1.94 3 0 1.96-1.305 3.512-3.837 3.512h-6.96c-.11 0-.197-.087-.197-.194v-9.03L.237 24.49c-.51.508-.148 1.378.57 1.378h24.254c.446 0 .808-.362.808-.808V.81c0-.72-.87-1.08-1.38-.572L15.03 9.702zm-.703 7.562c-.11 0-.197.087-.197.194v2.56c0 .106.087.193.197.193h3.44c1.05 0 1.682-.542 1.682-1.472 0-.815-.593-1.474-1.68-1.474h-3.442z" fill="#FFF" fill-rule="evenodd"/></symbol><symbol viewBox="0 0 49 32" id="icon-logo-visa"> <path d="M14.059 10.283l4.24-0-6.302 15.472-4.236 0.003-3.259-12.329c2.318 0.952 4.379 3.022 5.219 5.275l0.42 2.148zM17.416 25.771l2.503-15.501h4.001l-2.503 15.501h-4.002zM31.992 16.494c2.31 1.106 3.375 2.444 3.362 4.211-0.032 3.217-2.765 5.295-6.97 5.295-1.796-0.020-3.526-0.394-4.459-0.826l0.56-3.469 0.515 0.246c1.316 0.579 2.167 0.814 3.769 0.814 1.151 0 2.385-0.476 2.396-1.514 0.007-0.679-0.517-1.165-2.077-1.924-1.518-0.74-3.53-1.983-3.505-4.211 0.024-3.012 2.809-5.116 6.765-5.116 1.55 0 2.795 0.339 3.586 0.651l-0.542 3.36-0.359-0.178c-0.74-0.314-1.687-0.617-2.995-0.595-1.568 0-2.293 0.689-2.293 1.333-0.010 0.728 0.848 1.204 2.246 1.923zM46.199 10.285l3.239 15.49h-3.714s-0.368-1.782-0.488-2.322c-0.583 0-4.667-0.008-5.125-0.008-0.156 0.42-0.841 2.331-0.841 2.331h-4.205l5.944-14.205c0.419-1.011 1.138-1.285 2.097-1.285h3.093zM41.263 20.274c0.781 0 2.698 0 3.322 0-0.159-0.775-0.927-4.474-0.927-4.474l-0.27-1.337c-0.202 0.581-0.554 1.52-0.531 1.479 0 0-1.262 3.441-1.594 4.332zM9.723 18.702c-1.648-4.573-5.284-6.991-9.723-8.109l0.053-0.322h6.453c0.87 0.034 1.573 0.326 1.815 1.308z"/> </symbol><symbol viewBox="0 0 448 512" id="icon-minus-sharp-solid"><!--! Font Awesome Pro 6.4.2 by @fontawesome - https://fontawesome.com License - https://fontawesome.com/license (Commercial License) Copyright 2023 Fonticons, Inc. --><path d="M432 288H400L48 288H16l0-64 32 0 352 0 32 0v64z"/></symbol><symbol viewBox="0 0 34 32" id="icon-pinterest"> <path d="M1.356 15.647c0 6.24 3.781 11.6 9.192 13.957-0.043-1.064-0.008-2.341 0.267-3.499 0.295-1.237 1.976-8.303 1.976-8.303s-0.491-0.973-0.491-2.411c0-2.258 1.319-3.945 2.962-3.945 1.397 0 2.071 1.041 2.071 2.288 0 1.393-0.895 3.477-1.356 5.408-0.385 1.616 0.817 2.935 2.424 2.935 2.909 0 4.869-3.708 4.869-8.101 0-3.34-2.267-5.839-6.39-5.839-4.658 0-7.56 3.447-7.56 7.297 0 1.328 0.394 2.264 1.012 2.989 0.284 0.333 0.324 0.467 0.221 0.849-0.074 0.28-0.243 0.955-0.313 1.223-0.102 0.386-0.417 0.524-0.769 0.381-2.145-0.869-3.145-3.201-3.145-5.822 0-4.329 3.679-9.519 10.975-9.519 5.863 0 9.721 4.21 9.721 8.729 0 5.978-3.349 10.443-8.285 10.443-1.658 0-3.217-0.889-3.751-1.899 0 0-0.892 3.511-1.080 4.189-0.325 1.175-0.963 2.349-1.546 3.264 1.381 0.405 2.84 0.625 4.352 0.625 8.48 0 15.355-6.822 15.355-15.238s-6.876-15.238-15.355-15.238c-8.48 0-15.356 6.822-15.356 15.238z"/> </symbol><symbol viewBox="0 0 48 48" id="icon-play"><desc>Created with Sketch.</desc> <!-- Generator: Sketch 55.1 (78136) - https://sketchapp.com -->   <g id="play-Page-1" stroke="none" stroke-width="1" fill="none" fill-rule="evenodd"> <g id="play-Contest" transform="translate(-618.000000, -3102.000000)" fill="#0277BD" fill-rule="nonzero"> <path d="M641.754883,3149.49023 C640.159823,3149.49023 638.601407,3149.33968 637.07959,3149.03857 C635.557772,3148.73747 634.084805,3148.29395 632.660645,3147.70801 C631.236484,3147.12207 629.877448,3146.39372 628.583496,3145.52295 C627.289544,3144.65218 626.08106,3143.65528 624.958008,3142.53223 C623.834955,3141.42545 622.842127,3140.22104 621.979492,3138.91895 C621.116858,3137.61686 620.388512,3136.25782 619.794434,3134.8418 C619.200355,3133.42577 618.752768,3131.95281 618.45166,3130.42285 C618.150552,3128.8929 618,3127.33855 618,3125.75977 C618,3124.16471 618.150552,3122.60629 618.45166,3121.08447 C618.752768,3119.56266 619.200355,3118.08969 619.794434,3116.66553 C620.388512,3115.24137 621.116858,3113.88233 621.979492,3112.58838 C622.842127,3111.29443 623.834955,3110.08594 624.958008,3108.96289 C626.08106,3107.83984 627.289544,3106.84701 628.583496,3105.98438 C629.877448,3105.12174 631.236484,3104.39339 632.660645,3103.79932 C634.084805,3103.20524 635.557772,3102.75765 637.07959,3102.45654 C638.601407,3102.15543 640.159823,3102.00488 641.754883,3102.00488 C643.333667,3102.00488 644.888013,3102.15543 646.417969,3102.45654 C647.947924,3102.75765 649.42496,3103.20524 650.849121,3103.79932 C652.273282,3104.39339 653.632318,3105.12174 654.92627,3105.98438 C656.220221,3106.84701 657.428705,3107.83984 658.551758,3108.96289 C659.67481,3110.08594 660.667639,3111.29443 661.530273,3112.58838 C662.392908,3113.88233 663.117185,3115.24137 663.703125,3116.66553 C664.289065,3118.08969 664.736652,3119.56266 665.045898,3121.08447 C665.355145,3122.60629 665.509766,3124.16471 665.509766,3125.75977 C665.509766,3127.33855 665.355145,3128.8929 665.045898,3130.42285 C664.736652,3131.95281 664.289065,3133.42577 663.703125,3134.8418 C663.117185,3136.25782 662.392908,3137.61686 661.530273,3138.91895 C660.667639,3140.22104 659.67481,3141.42545 658.551758,3142.53223 C657.428705,3143.65528 656.220221,3144.65218 654.92627,3145.52295 C653.632318,3146.39372 652.273282,3147.12207 650.849121,3147.70801 C649.42496,3148.29395 647.947924,3148.73747 646.417969,3149.03857 C644.888013,3149.33968 643.333667,3149.49023 641.754883,3149.49023 Z M641.754883,3104.49512 C638.825181,3104.49512 636.070488,3105.05257 633.490723,3106.16748 C630.910957,3107.28239 628.656748,3108.80419 626.728027,3110.73291 C624.799307,3112.66163 623.277512,3114.91584 622.162598,3117.49561 C621.047683,3120.07537 620.490234,3122.83006 620.490234,3125.75977 C620.490234,3128.68947 621.047683,3131.44416 622.162598,3134.02393 C623.277512,3136.60369 624.799307,3138.85383 626.728027,3140.77441 C628.656748,3142.695 630.910957,3144.21272 633.490723,3145.32764 C636.070488,3146.44255 638.825181,3147 641.754883,3147 C644.684585,3147 647.439277,3146.44255 650.019043,3145.32764 C652.598808,3144.21272 654.848949,3142.695 656.769531,3140.77441 C658.690114,3138.85383 660.207839,3136.60369 661.322754,3134.02393 C662.437668,3131.44416 662.995117,3128.68947 662.995117,3125.75977 C662.995117,3122.83006 662.437668,3120.07537 661.322754,3117.49561 C660.207839,3114.91584 658.690114,3112.66163 656.769531,3110.73291 C654.848949,3108.80419 652.598808,3107.28239 650.019043,3106.16748 C647.439277,3105.05257 644.684585,3104.49512 641.754883,3104.49512 Z M634.259766,3139.50488 C634.145833,3139.50488 634.04004,3139.49268 633.942383,3139.46826 C633.844726,3139.44385 633.747071,3139.39909 633.649414,3139.33398 C633.454101,3139.23633 633.295411,3139.08984 633.17334,3138.89453 C633.051269,3138.69922 632.990234,3138.48763 632.990234,3138.25977 L632.990234,3113.25977 C632.990234,3113.0319 633.051269,3112.82031 633.17334,3112.625 C633.295411,3112.42969 633.454101,3112.27507 633.649414,3112.16113 C633.844728,3112.0472 634.056314,3111.9943 634.28418,3112.00244 C634.512045,3112.01058 634.723632,3112.07161 634.918945,3112.18555 L654.914062,3124.68555 C655.0931,3124.79948 655.235514,3124.95003 655.341309,3125.13721 C655.447103,3125.32438 655.5,3125.5319 655.5,3125.75977 C655.5,3125.97136 655.447103,3126.17073 655.341309,3126.35791 C655.235514,3126.54509 655.0931,3126.69564 654.914062,3126.80957 L634.918945,3139.30957 C634.821289,3139.37467 634.715495,3139.4235 634.601562,3139.45605 C634.48763,3139.48861 634.373698,3139.50488 634.259766,3139.50488 Z M635.504883,3115.50586 L635.504883,3135.98926 L651.886719,3125.75977 L635.504883,3115.50586 Z" id="play-p"/> </g> </g> </symbol><symbol viewBox="0 0 448 512" id="icon-plus-sharp-solid"><!--! Font Awesome Pro 6.4.2 by @fontawesome - https://fontawesome.com License - https://fontawesome.com/license (Commercial License) Copyright 2023 Fonticons, Inc. --><path d="M256 80V48H192V80 224H48 16v64H48 192V432v32h64V432 288H400h32V224H400 256V80z"/></symbol><symbol viewBox="0 0 26 28" id="icon-print"> <path d="M0 21.5v-6.5q0-1.234 0.883-2.117t2.117-0.883h1v-8.5q0-0.625 0.438-1.062t1.062-0.438h10.5q0.625 0 1.375 0.313t1.188 0.75l2.375 2.375q0.438 0.438 0.75 1.188t0.313 1.375v4h1q1.234 0 2.117 0.883t0.883 2.117v6.5q0 0.203-0.148 0.352t-0.352 0.148h-3.5v2.5q0 0.625-0.438 1.062t-1.062 0.438h-15q-0.625 0-1.062-0.438t-0.438-1.062v-2.5h-3.5q-0.203 0-0.352-0.148t-0.148-0.352zM6 24h14v-4h-14v4zM6 14h14v-6h-2.5q-0.625 0-1.062-0.438t-0.438-1.062v-2.5h-10v10zM22 15q0 0.406 0.297 0.703t0.703 0.297 0.703-0.297 0.297-0.703-0.297-0.703-0.703-0.297-0.703 0.297-0.297 0.703z"/> </symbol><symbol viewBox="0 0 24 24" id="icon-remove"><path d="M19 13H5v-2h14v2z"/></symbol><symbol viewBox="0 0 32 32" id="icon-rss"> <path d="M-0.465347858,2.01048219 C-0.465347858,2.01048219 28.7009958,0.574406533 31,31.3201126 L25.1092027,31.3201126 C25.1092027,31.3201126 26.2597741,8.90749482 -0.465347858,6.89506416 L-0.465347858,2.01048219 L-0.465347858,2.01048219 Z M-0.465347858,12.2127144 C-0.465347858,12.2127144 16.6328276,11.6363594 19.9369779,31.3201126 L14.0472499,31.3201126 C14.0472499,31.3201126 13.3297467,19.6839434 -0.465347858,17.0940884 L-0.465347858,12.2127144 L-0.465347858,12.2127144 Z M2.73614917,25.0304648 C4.79776783,25.0304648 6.47229834,26.7007181 6.47229834,28.766614 C6.47229834,30.8282326 4.79776783,32.5016938 2.73614917,32.5016938 C0.6723919,32.5016938 -1,30.8293019 -1,28.766614 C-1,26.7017874 0.6723919,25.0304648 2.73614917,25.0304648 Z" id="rss-Shape"/> </symbol><symbol viewBox="0.00 0.00 84.00 91.00" id="icon-secure-payment"> <path fill="#72b8f9" d="
  M 38.60 0.00
  L 45.50 0.00
  Q 78.88 5.24 84.00 38.61
  L 84.00 45.46
  Q 83.02 54.70 78.60 62.66
  Q 78.25 63.29 78.17 62.57
  C 77.73 58.53 78.28 56.24 75.32 52.33
  Q 75.01 51.92 75.13 51.42
  Q 78.63 36.34 71.50 24.52
  C 58.73 3.35 28.36 1.80 14.07 22.06
  Q 4.84 35.13 8.92 51.24
  Q 9.05 51.73 8.76 52.15
  C 5.64 56.61 6.42 58.37 5.81 62.67
  Q 5.72 63.29 5.41 62.74
  Q 0.98 54.64 0.00 45.35
  L 0.00 38.51
  Q 5.26 5.10 38.60 0.00
  Z"/> <path fill="#ffffff" d="
  M 42.50 20.79
  L 57.96 27.60
  Q 58.47 27.82 58.46 28.38
  Q 58.42 34.00 58.19 39.48
  Q 57.58 54.03 44.54 60.60
  Q 42.26 61.75 40.32 60.90
  Q 29.05 55.94 26.31 44.66
  C 25.17 39.95 25.55 33.67 25.58 28.28
  Q 25.59 27.80 26.02 27.61
  L 41.50 20.79
  Q 42.00 20.57 42.50 20.79
  Z
  M 42.77 55.09
  C 52.26 50.15 53.10 41.81 52.63 32.06
  Q 52.61 31.55 52.13 31.34
  L 42.38 27.04
  Q 42.00 26.87 41.63 27.04
  L 31.98 31.28
  Q 31.47 31.51 31.44 32.07
  C 31.01 41.95 31.70 50.35 41.34 55.11
  A 1.59 1.59 0.0 0 0 42.77 55.09
  Z"/> <path fill="#ffffff" d="
  M 66.11 91.00
  L 17.78 91.00
  Q 11.48 89.13 11.52 82.50
  Q 11.58 71.75 11.58 61.00
  C 11.57 53.59 17.27 52.29 23.71 52.86
  Q 24.17 52.90 24.44 53.28
  L 27.91 58.12
  Q 28.17 58.49 27.72 58.49
  L 18.43 58.56
  A 1.03 1.02 -89.4 0 0 17.42 59.56
  L 17.30 64.39
  Q 17.29 65.00 17.89 65.00
  L 66.06 65.00
  Q 66.63 65.00 66.64 64.44
  L 66.70 60.75
  Q 66.73 58.51 64.50 58.51
  L 56.29 58.51
  Q 55.81 58.51 56.09 58.12
  L 59.57 53.28
  Q 59.87 52.87 60.37 52.83
  C 66.35 52.41 72.42 53.50 72.42 60.50
  Q 72.42 71.88 72.42 83.25
  Q 72.42 89.29 66.11 91.00
  Z
  M 66.67 71.75
  A 0.99 0.99 0.0 0 0 65.68 70.76
  L 18.36 70.76
  A 0.99 0.99 0.0 0 0 17.37 71.75
  L 17.37 84.25
  A 0.99 0.99 0.0 0 0 18.36 85.24
  L 65.68 85.24
  A 0.99 0.99 0.0 0 0 66.67 84.25
  L 66.67 71.75
  Z"/> </symbol><symbol viewBox="0 0 26 28" id="icon-star"> <path d="M0 10.109q0-0.578 0.875-0.719l7.844-1.141 3.516-7.109q0.297-0.641 0.766-0.641t0.766 0.641l3.516 7.109 7.844 1.141q0.875 0.141 0.875 0.719 0 0.344-0.406 0.75l-5.672 5.531 1.344 7.812q0.016 0.109 0.016 0.313 0 0.328-0.164 0.555t-0.477 0.227q-0.297 0-0.625-0.187l-7.016-3.687-7.016 3.687q-0.344 0.187-0.625 0.187-0.328 0-0.492-0.227t-0.164-0.555q0-0.094 0.031-0.313l1.344-7.812-5.688-5.531q-0.391-0.422-0.391-0.75z"/> </symbol><symbol viewBox="0 0 32 32" id="icon-stumbleupon">  <mask id="stumbleupon-mask-2"> <use href="#path-1"/> </mask> <path d="M31.9250667,16.0373333 C31.9250667,24.8533333 24.7784,32 15.9624,32 C7.14666667,32 0,24.8533333 0,16.0373333 C0,7.2216 7.14666667,0.0749333333 15.9624,0.0749333333 C24.7784,0.0749333333 31.9250667,7.2216 31.9250667,16.0373333 Z M21.9205547,16.3600826 L21.9205547,18.9857015 C21.9205547,19.5214765 21.494073,19.9558236 20.968,19.9558236 C20.441927,19.9558236 20.0154453,19.5214765 20.0154453,18.9857015 L20.0154453,16.4101275 L18.1823358,16.9675798 L16.9525547,16.3839008 L16.9525547,18.9383327 C16.9717372,21.1844666 18.7659562,23 20.976146,23 C23.1984234,23 25,21.1651979 25,18.9019364 L25,16.3600826 L21.9205547,16.3600826 Z M16.9525547,14.2429415 L18.1823358,14.8266205 L20.0154453,14.2691683 L20.0154453,12.9736203 C19.9505401,10.7684323 18.1810219,9 16,9 C13.8268613,9 12.0618102,10.7555866 11.9845547,12.9492669 L11.9845547,18.8684839 C11.9845547,19.404259 11.558073,19.8386061 11.032,19.8386061 C10.505927,19.8386061 10.0794453,19.404259 10.0794453,18.8684839 L10.0794453,16.3600826 L7,16.3600826 L7,18.9019364 C7,21.1651979 8.80131387,23 11.0235912,23 C13.2264234,23 15.0119708,21.1965095 15.0429781,18.9608128 L15.0474453,13.114656 C15.0474453,12.578881 15.473927,12.1445339 16,12.1445339 C16.526073,12.1445339 16.9525547,12.578881 16.9525547,13.114656 L16.9525547,14.2429415 Z" id="stumbleupon-Fill-1" mask="url(#stumbleupon-mask-2)"/> </symbol><symbol viewBox="0 0 32 32" id="icon-tumblr"> <path d="M23.852762,25.5589268 C23.2579209,25.8427189 22.1195458,26.089634 21.2697728,26.1120809 C18.7092304,26.1810247 18.2121934,24.3131275 18.1897466,22.9566974 L18.1897466,12.9951133 L24.6159544,12.9951133 L24.6159544,8.15140729 L18.2137967,8.15140729 L18.2137967,0 L13.5256152,0 C13.4486546,0 13.3139736,0.0673405008 13.2963368,0.238898443 C13.0221648,2.73370367 11.8533261,7.11243957 7,8.86168924 L7,12.9951133 L10.2387574,12.9951133 L10.2387574,23.4521311 C10.2387574,27.0307977 12.8794671,32.1166089 19.8508122,31.9979613 C22.2013164,31.9578777 24.8131658,30.9718204 25.3919735,30.1236507 L23.852762,25.5589268"/> </symbol><symbol viewBox="0 0 43 32" id="icon-twitter"> <path d="M36.575 5.229c1.756-0.952 3.105-2.46 3.74-4.257-1.644 0.882-3.464 1.522-5.402 1.867-1.551-1.495-3.762-2.429-6.209-2.429-4.697 0-8.506 3.445-8.506 7.694 0 0.603 0.075 1.19 0.22 1.753-7.069-0.321-13.337-3.384-17.532-8.039-0.732 1.136-1.152 2.458-1.152 3.868 0 2.669 1.502 5.024 3.784 6.404-1.394-0.040-2.706-0.386-3.853-0.962-0.001 0.032-0.001 0.064-0.001 0.097 0 3.728 2.932 6.837 6.823 7.544-0.714 0.176-1.465 0.27-2.241 0.27-0.548 0-1.081-0.048-1.6-0.138 1.083 3.057 4.224 5.281 7.946 5.343-2.911 2.064-6.579 3.294-10.564 3.294-0.687 0-1.364-0.036-2.029-0.108 3.764 2.183 8.235 3.457 13.039 3.457 15.646 0 24.202-11.724 24.202-21.891 0-0.334-0.008-0.665-0.025-0.995 1.662-1.085 3.104-2.439 4.244-3.982-1.525 0.612-3.165 1.025-4.885 1.211z"/> </symbol><symbol viewBox="0 0 32 32" id="icon-youtube"> <path d="M31.6634051,8.8527593 C31.6634051,8.8527593 31.3509198,6.64879843 30.3919217,5.67824658 C29.1757339,4.40441487 27.8125088,4.39809002 27.1873503,4.32353816 C22.7118278,4 15.9983092,4 15.9983092,4 L15.984407,4 C15.984407,4 9.27104501,4 4.79536595,4.32353816 C4.17017613,4.39809002 2.80745205,4.40441487 1.59082583,5.67824658 C0.631890411,6.64879843 0.319843444,8.8527593 0.319843444,8.8527593 C0.319843444,8.8527593 0,11.4409393 0,14.0290881 L0,16.4554834 C0,19.0436008 0.319843444,21.6317495 0.319843444,21.6317495 C0.319843444,21.6317495 0.631890411,23.8357417 1.59082583,24.8062935 C2.80745205,26.0801566 4.40557339,26.0398591 5.11736986,26.1733699 C7.67602348,26.4187241 15.9913894,26.4946536 15.9913894,26.4946536 C15.9913894,26.4946536 22.7118278,26.4845401 27.1873503,26.1610333 C27.8125088,26.0864501 29.1757339,26.0801566 30.3919217,24.8062935 C31.3509198,23.8357417 31.6634051,21.6317495 31.6634051,21.6317495 C31.6634051,21.6317495 31.9827789,19.0436008 31.9827789,16.4554834 L31.9827789,14.0290881 C31.9827789,11.4409393 31.6634051,8.8527593 31.6634051,8.8527593 Z M12.6895342,19.39582 L12.6880626,10.4095186 L21.3299413,14.9183249 L12.6895342,19.39582 Z" id="youtube-Imported-Layers"/> </symbol><symbol viewBox="0 0 17 24" id="icon-arrow-right"><g><g><path fill="none" stroke="#fff" stroke-miterlimit="20" stroke-width="5" d="M2.524 1.71v0l10.182 10.18v0L2.524 22.073v0"/></g></g></symbol><symbol viewBox="0 0 448 512" id="icon-check"><!--! Font Awesome Pro 6.4.0 by @fontawesome - https://fontawesome.com License - https://fontawesome.com/license (Commercial License) Copyright 2023 Fonticons, Inc. --><path d="M447.9 142.5l-23.2 22L181 395.3l-22 20.8-22-20.8L23.2 287.6 0 265.6l44-46.5 23.2 22L159 328 380.7 118l23.2-22 44 46.5z"/></symbol><symbol viewBox="0 0 40 41" id="icon-edge-bevel"> <path fill="#758791" d="M 0.00 0.00 L 14.31 0.00 L 40.10 25.96 L 40.00 41.00 L 0.00 41.00 L 0.00 0.00 Z"/> </symbol><symbol viewBox="0 0 40 41" id="icon-edge-square"> <path d="M0 0H40L40.1 25.96L40 41H0V0Z" fill="#758791"/> </symbol><symbol viewBox="0 0 55 11" id="icon-thickness-1"> <path fill="#758791" d="M 0.00 0.00 L 55.00 0.00 L 55.00 11.00 L 0.00 11.00 L 0.00 0.00 Z"/> </symbol><symbol viewBox="0 0 55 22" id="icon-thickness-2"> <g clip-path="url(#thickness-2-clip0_1_4)"> <path d="M0 0H55V22H0V0Z" fill="#758791"/> </g>  </symbol><symbol viewBox="0 0 384 512" id="icon-xmark"><!--! Font Awesome Pro 6.4.0 by @fontawesome - https://fontawesome.com License - https://fontawesome.com/license (Commercial License) Copyright 2023 Fonticons, Inc. --><path d="M326.6 166.6L349.3 144 304 98.7l-22.6 22.6L192 210.7l-89.4-89.4L80 98.7 34.7 144l22.6 22.6L146.7 256 57.4 345.4 34.7 368 80 413.3l22.6-22.6L192 301.3l89.4 89.4L304 413.3 349.3 368l-22.6-22.6L237.3 256l89.4-89.4z"/></symbol><symbol viewBox="0 0 13 8" id="icon-chevron-down-thick">
      <g id="Vector-(2)" transform="translate(6.363992, 3.681892) scale(1, -1) translate(-6.363992, -3.681892) translate(0.000000, -0.000000)" fill="#000A12">
          <path d="M7.071005,0.292787 L12.727985,5.949784 L11.313985,7.363784 L6.363995,2.413784 L1.413995,7.363784 L0,5.949784 L5.656995,0.292787 C5.844525,0.105316 6.098835,0 6.363995,0 C6.629165,0 6.883475,0.105316 7.071005,0.292787 Z" id="Path"></path>
      </g>
</symbol><symbol viewBox="0 0 13 8" id="icon-chevron-up-thick">
  <path fill-rule="evenodd" clip-rule="evenodd" d="M7.71102 0.843063L13.368 6.50006L11.954 7.91406L7.00401 2.96406L2.05401 7.91406L0.640015 6.50006L6.29701 0.843063C6.48454 0.655592 6.73885 0.550276 7.00401 0.550276C7.26918 0.550276 7.52349 0.655592 7.71102 0.843063Z" fill="#000A12"/>
</symbol>
<symbol viewBox="0 0 24 24" id="icon-filters">
<path d="M21.25 11.9999H8.895M4.534 11.9999H2.75M4.534 11.9999C4.534 11.4217 4.76368 10.8672 5.17251 10.4584C5.58134 10.0496 6.13583 9.81989 6.714 9.81989C7.29217 9.81989 7.84666 10.0496 8.25549 10.4584C8.66432 10.8672 8.894 11.4217 8.894 11.9999C8.894 12.5781 8.66432 13.1326 8.25549 13.5414C7.84666 13.9502 7.29217 14.1799 6.714 14.1799C6.13583 14.1799 5.58134 13.9502 5.17251 13.5414C4.76368 13.1326 4.534 12.5781 4.534 11.9999ZM21.25 18.6069H15.502M15.502 18.6069C15.502 19.1852 15.2718 19.7403 14.8628 20.1492C14.4539 20.5582 13.8993 20.7879 13.321 20.7879C12.7428 20.7879 12.1883 20.5572 11.7795 20.1484C11.3707 19.7396 11.141 19.1851 11.141 18.6069M15.502 18.6069C15.502 18.0286 15.2718 17.4745 14.8628 17.0655C14.4539 16.6566 13.8993 16.4269 13.321 16.4269C12.7428 16.4269 12.1883 16.6566 11.7795 17.0654C11.3707 17.4742 11.141 18.0287 11.141 18.6069M11.141 18.6069H2.75M21.25 5.39289H18.145M13.784 5.39289H2.75M13.784 5.39289C13.784 4.81472 14.0137 4.26023 14.4225 3.8514C14.8313 3.44257 15.3858 3.21289 15.964 3.21289C16.2503 3.21289 16.5338 3.26928 16.7983 3.37883C17.0627 3.48839 17.3031 3.64897 17.5055 3.8514C17.7079 4.05383 17.8685 4.29415 17.9781 4.55864C18.0876 4.82313 18.144 5.10661 18.144 5.39289C18.144 5.67917 18.0876 5.96265 17.9781 6.22714C17.8685 6.49163 17.7079 6.73195 17.5055 6.93438C17.3031 7.13681 17.0627 7.29739 16.7983 7.40695C16.5338 7.5165 16.2503 7.57289 15.964 7.57289C15.3858 7.57289 14.8313 7.34321 14.4225 6.93438C14.0137 6.52555 13.784 5.97106 13.784 5.39289Z" stroke="black" stroke-width="1.5" fill="none" stroke-miterlimit="10" stroke-linecap="round"/>
</symbol>
</svg>
