<?xml version="1.0" encoding="UTF-8"?>
<svg width="765px" height="258px" viewBox="0 0 765 258" version="1.1" xmlns="http://www.w3.org/2000/svg" xmlns:xlink="http://www.w3.org/1999/xlink">
    <!-- Generator: Sketch 54.1 (76490) - https://sketchapp.com -->
    <title>Group 4</title>
    <desc>Created with Sketch.</desc>
    <defs>
        <polygon id="path-1" points="7.83686585e-05 0.782848332 727.979432 0.782848332 727.979432 213.282571 7.83686585e-05 213.282571"></polygon>
        <polygon id="path-3" points="0 0 30 0 30 11 0 11"></polygon>
        <polygon id="path-5" points="0 0 45 0 45 11 0 11"></polygon>
    </defs>
    <g id="Page-1" stroke="none" stroke-width="1" fill="none" fill-rule="evenodd">
        <g id="Hub-Page-–-Sound-Deadening" transform="translate(-237.000000, -3745.000000)">
            <g id="The-two-types-of-unwanted" transform="translate(0.000000, 2920.000000)">
                <g id="Group-4" transform="translate(238.000000, 825.000000)">
                    <g id="Group-14" transform="translate(36.000000, 0.000000)">
                        <g id="Group-3">
                            <mask id="mask-2" fill="white">
                                <use xlink:href="#path-1"></use>
                            </mask>
                            <g id="Clip-2"></g>
                            <path d="M405.122479,103.988572 C404.620184,100.898985 403.185523,98.6578257 399.114633,99.0611361 C397.242515,99.2472163 395.316229,98.8848927 393.414565,98.7693099 C386.260139,98.3340298 379.105713,97.8971103 371.950466,97.4610105 C371.66813,97.8036603 371.386615,98.1463102 371.105099,98.4881403 C372.547968,100.321071 373.916148,103.667235 375.444373,103.742651 C385.293302,104.223017 395.176703,103.988572 405.122479,103.988572 M212.168008,94.386179 L211.168342,95.4354417 C212.663738,97.2421408 214.085266,100.533383 215.66684,100.612077 C225.425487,101.094902 235.218606,100.854719 246.29783,100.854719 C244.288648,98.9980164 242.824441,96.4437175 241.12468,96.2764913 C231.503918,95.3296957 221.826524,94.9550761 212.168008,94.386179 M220.466552,32.9395527 C207.07447,38.6604935 194.373456,44.087149 181.137316,49.7416912 C184.487593,56.1233396 186.893194,61.8287055 190.326367,66.8323769 C192.443066,69.9170452 195.743278,72.9262978 199.175629,74.2419749 C210.365654,78.5283769 222.218019,76.4946107 234.459417,77.4315695 C229.706488,62.3189079 225.227688,48.0800853 220.466552,32.9395527 M329.831521,16.6136811 C334.150276,38.0014254 337.7279,59.2973592 342.850984,80.2162143 C350.024288,109.508677 358.198078,138.5544 363.133212,168.357559 C364.440657,176.250801 365.849875,184.127649 367.232008,192.120899 C366.149447,192.315997 365.62417,192.496339 365.100536,192.49224 C329.133068,192.230744 293.166421,191.974167 257.199774,191.663487 C249.476572,191.597088 243.560648,188.272237 239.660473,181.495475 C234.825469,173.092357 229.988824,164.689238 225.049586,156.34678 C207.580049,126.846104 190.40762,97.1921369 177.329884,65.3937394 C175.837771,61.764766 174.353045,58.1325137 172.762443,54.2510615 C171.238322,55.0535835 170.073686,55.6667464 168.540536,56.4733671 C171.080739,62.5951591 173.463359,68.5234932 175.988788,74.3919867 C192.562894,112.901567 214.992189,148.235488 235.906389,184.387506 C241.315093,193.73742 250.023187,196.512228 260.254583,196.575347 C344.362795,197.09752 428.470186,197.702485 512.578398,198.281219 C514.178849,198.292695 515.7793,198.282039 517.596428,198.282039 C517.6982,196.924555 517.799151,196.003171 517.83034,195.080148 C518.280107,181.702869 518.625641,168.320671 519.182105,154.94831 C520.401731,125.626336 518.130732,96.8355516 507.136044,69.2046943 C505.773609,65.780655 503.869483,63.9059177 499.923345,62.962401 C501.26362,66.8782821 502.369983,70.3506858 503.632288,73.765708 C509.398015,89.3579154 513.600225,105.368189 513.886664,122.020315 C514.197726,140.164362 513.548518,158.324804 513.351539,176.478688 C513.291625,182.017647 513.34169,187.557427 513.34169,193.161965 C511.564779,193.280007 510.763733,193.384933 509.961866,193.379195 C465.104919,193.106223 420.247972,192.80456 375.390204,192.594707 C372.772031,192.581591 371.978371,191.671684 371.535169,189.166569 C368.53617,172.234912 365.971345,155.192591 362.086763,138.458491 C352.895251,98.8545625 342.341302,59.5604946 335.458543,19.4434114 C334.883201,16.0890497 333.153072,15.5652381 329.831521,16.6136811 M230.848964,29.1974557 C235.747165,45.2642906 240.29737,60.4162995 245.104468,75.4855151 C245.445898,76.5544515 247.664369,77.6348641 249.043219,77.6774904 C275.420292,78.5160809 301.801469,79.2038398 328.183467,79.8973368 C329.072333,79.9219289 329.968585,79.6948619 331.059354,79.5604251 C330.854168,77.9430851 330.735981,76.5946186 330.506993,75.2666455 C327.345487,56.977505 324.067435,38.7072185 321.089776,20.3885675 C320.555471,17.0997848 319.452391,16.1824997 316.187471,16.2857865 C295.640964,16.9366572 275.286511,19.1466668 255.178281,23.404378 C247.205573,25.0930352 239.31576,27.1686079 230.848964,29.1974557 M358.018335,80.9539771 C405.500022,82.550004 452.458074,84.1279967 499.934015,85.7240237 C497.630186,77.7020825 495.651372,70.2031333 493.246592,62.844359 C492.609695,60.8942059 491.023196,58.6866556 489.260238,57.7537955 C451.533916,37.7866544 412.156256,22.7182586 369.287151,18.3998869 C360.791629,17.5432622 352.247683,17.1711019 343.189131,16.5374456 C348.220292,38.39162 353.081559,59.5055723 358.018335,80.9539771 M53.3761885,97.6282367 C52.4249461,94.2951882 50.4461321,93.3680663 47.4463125,93.4065939 C37.4750927,93.5328333 27.5005899,93.4541386 17.2289777,92.7696586 C20.7130363,85.0518398 22.9019608,77.0274394 30.5398052,72.6434888 C31.5304433,72.0745916 32.8936992,72.0745916 34.0977308,71.9688456 C47.3108897,70.8146567 60.5191242,69.5998072 73.7429529,68.5857932 C86.4784388,67.6086673 98.2265696,63.4099771 109.88606,58.5153306 C140.493248,45.6667812 170.91659,32.3001582 201.961235,20.5910424 C245.279287,4.25369453 290.527729,-0.377816541 336.641235,1.0165552 C365.36974,1.88465613 393.487611,6.18663314 421.30509,13.0224156 C423.008955,13.4413009 424.684915,13.9749494 426.67604,14.5413873 C426.143377,16.4423562 425.685402,18.0818291 425.152739,19.9819782 C430.693582,21.8706511 436.108851,23.690466 441.505244,25.5627442 C471.935972,36.1225894 500.807287,50.1245081 529.172202,65.2371697 C536.993072,69.4038902 545.102024,72.4713441 554.15401,72.1614837 C555.381844,72.1196772 556.758231,72.313135 557.807963,71.8344089 C562.542836,69.6744033 567.141465,70.9769645 571.791801,72.0229482 C608.865632,80.3645866 645.713758,89.5456351 681.812545,101.504771 C691.301988,104.64846 700.787327,107.969212 708.481803,114.63203 C710.769217,116.612514 712.143963,119.645539 713.937289,122.195739 C713.619661,122.544127 713.301212,122.892515 712.983584,123.240083 C705.721641,122.241644 698.458055,121.255501 691.199395,120.237388 C681.047611,118.814326 670.875309,117.516683 660.765384,115.844421 C657.291174,115.270605 657.019508,117.55849 655.900013,119.877524 C657.224694,120.60545 658.479611,121.343213 659.774745,122.001461 C675.244951,129.864374 690.777532,137.610883 706.154173,145.652498 C709.641514,147.477231 712.699607,148.005961 716.114723,146.04925 C718.655747,144.592579 720.108464,145.399199 722.184125,147.616587 C728.231368,154.080209 728.391413,161.316842 727.696243,169.583885 C726.800811,180.23554 722.830872,189.322319 717.180049,198.009067 C714.79907,201.66755 711.623611,203.87756 707.172716,204.301364 C692.747318,205.675242 678.335052,207.17454 663.908833,208.530384 C660.33121,208.866476 654.668076,203.97183 654.012301,200.396139 C653.125898,195.564612 652.327314,190.703575 651.147904,185.940086 C644.446529,158.884684 618.121983,139.826631 589.92532,141.298878 C568.258497,142.430934 550.994966,151.119321 539.280486,169.818329 C533.827462,178.520652 531.864243,188.206658 530.876887,198.207443 C530.413167,202.889778 530.862935,207.936895 526.450615,211.224038 C525.2433,212.123289 523.736414,212.875807 522.272207,213.111891 C520.272053,213.434048 518.181618,213.201243 516.130579,213.201243 C419.154741,213.201243 322.178083,213.202062 225.203066,213.201243 C218.704414,213.200423 217.350186,211.413397 216.248748,204.902231 C214.731192,195.934314 213.418001,186.736051 210.293429,178.271452 C201.648531,154.845843 178.382899,140.04714 153.388779,141.402984 C147.294754,141.733338 141.125221,142.694069 135.228996,144.261405 C119.21792,148.515838 107.376225,158.253487 101.012996,173.571083 C97.5313993,181.950429 95.4532753,190.931462 93.0025335,199.712479 C91.7172483,204.318578 88.5286575,207.011413 83.9078683,206.278568 C63.3917285,203.025034 42.8870791,199.704282 22.3824298,196.383529 C17.1378751,195.534282 14.684671,191.254438 12.500671,187.314785 C8.80075671,180.64213 5.14187959,173.805527 2.71576009,166.615619 C1.02010282,161.591454 1.3418345,155.869693 0.887142277,150.449596 C0.532580834,146.231232 0.535863811,141.979259 0.0622944758,137.778109 C-0.252050507,134.989366 0.610551522,133.335138 2.97429448,131.758785 C18.8942674,121.144017 34.7100059,110.37268 50.5561118,99.6472477 C51.4548266,99.0398229 52.3223531,98.3848535 53.3761885,97.6282367" id="Fill-1" fill="#28343A" mask="url(#mask-2)"></path>
                        </g>
                        <path d="M154.122893,171.427698 C135.75928,171.523033 121.13011,186.32139 121.212186,204.718659 C121.295082,223.074835 136.148319,237.746626 154.511932,237.613485 C172.928074,237.479522 187.545753,222.728833 187.495687,204.328277 C187.447262,186.106885 172.460242,171.333184 154.122893,171.427698 M207.867692,204.809063 C207.506559,234.986008 183.448535,258.404001 153.22991,257.994716 C123.811523,257.596938 100.401897,233.230522 100.790935,203.416016 C101.174229,174.134895 125.65248,150.672521 155.445953,151.028385 C184.437547,151.373565 208.214872,175.768746 207.867692,204.809063" id="Fill-4" fill="#28343A"></path>
                        <path d="M591.231548,237.596128 C609.607256,237.850908 624.582156,223.372014 624.945413,204.999097 C625.304561,186.878494 610.395409,171.597455 592.189824,171.426506 C573.87411,171.254735 558.88524,185.616923 558.57869,203.631504 C558.258991,222.420288 572.600245,237.338882 591.231548,237.596128 M645.211372,204.568437 C645.208085,234.252758 621.340786,258.059883 591.64576,257.999887 C561.880877,257.940712 538.072751,234.1303 538.126171,204.475565 C538.179591,174.80275 562.027988,151.027678 591.741094,151.02439 C621.415574,151.021103 645.214659,174.853706 645.211372,204.568437" id="Fill-6" fill="#28343A"></path>
                        <path d="M462.536465,54.1145028 C472.811726,52.9590179 480.382489,57.666943 488.035535,62.0473033 C488.766098,62.4641295 489.383628,63.4394537 489.616344,64.273925 C491.114872,69.6410743 492.491223,75.0417989 494.032138,80.9052088 C484.353629,80.9428788 475.522041,79.4991369 467.568126,74.6519968 C466.185957,73.8093364 464.825397,72.0175569 464.557773,70.4780023 C463.630232,65.1526176 463.190564,59.7445228 462.536465,54.1145028" id="Fill-8" fill="#28343A"></path>
                        <path d="M154.327124,212.172227 C158.61735,212.161654 162.145196,208.732814 162.165602,204.550866 C162.185192,200.403889 158.636124,196.884774 154.380996,196.833537 C150.082608,196.781486 146.675567,200.159902 146.659242,204.492309 C146.642917,208.832849 149.987106,212.1828 154.327124,212.172227 M182.674777,204.591531 C182.62825,220.326295 169.82777,232.961602 154.070004,232.828222 C138.509771,232.696469 125.956615,220.02131 125.982735,204.47035 C126.010488,189.010479 138.72363,176.267004 154.192442,176.195434 C169.876745,176.122238 182.72212,188.928337 182.674777,204.591531" id="Fill-10" fill="#28343A"></path>
                        <path d="M599.418897,204.609395 C599.467052,200.417272 595.958274,196.871905 591.72146,196.831228 C587.456896,196.791365 583.927713,200.217143 583.89425,204.429605 C583.860786,208.725046 587.203062,212.103639 591.54598,212.163027 C595.823604,212.221601 599.370742,208.818602 599.418897,204.609395 M563.323134,204.310016 C563.414546,188.787851 576.062959,176.23426 591.650452,176.19521 C607.228967,176.156161 620.090404,189.099433 620.014499,204.737119 C619.93941,220.188507 607.121231,232.874704 591.630047,232.829146 C575.805044,232.783588 563.230088,220.114476 563.323134,204.310016" id="Fill-12" fill="#28343A"></path>
                    </g>
                    <polyline id="Stroke-4" stroke="#58A5F0" stroke-width="1.485" stroke-linecap="round" stroke-linejoin="round" points="18 120 0 138.85876 14.884742 154.56647 0 170.638634 15.053787 186"></polyline>
                    <polyline id="Stroke-4-Copy" stroke="#58A5F0" stroke-width="1.485" stroke-linecap="round" stroke-linejoin="round" transform="translate(163.000000, 25.000000) rotate(66.000000) translate(-163.000000, -25.000000) " points="172 -8 154 10.8587598 168.884742 26.56647 154 42.6386336 169.053787 58"></polyline>
                    <g id="Group-3" transform="translate(422.000000, 65.000000)">
                        <mask id="mask-4" fill="white">
                            <use xlink:href="#path-3"></use>
                        </mask>
                        <g id="Clip-2"></g>
                        <path d="M30,9.15244604 C23.3262612,9.76845507 16.6525223,10.3844641 9.97862597,11 C9.95893245,10.8254168 9.93923894,10.6508336 9.91938787,10.4762504 C10.7985064,8.88986155 11.6774675,7.3034727 12.5562709,5.71708386 C12.546503,5.45639187 12.536735,5.19475362 12.526967,4.93358851 C8.35588022,5.55243629 4.184951,6.17081094 0.0138642355,6.78965872 C0.00929533973,6.65812991 0.0045688958,6.5266011 0,6.39554542 C1.70183491,5.6409107 3.40256698,4.8640391 5.10581983,4.13684564 C8.27143442,2.78654628 11.4422481,1.53938822 14.6018759,0.0727000556 C15.2793328,-0.241928212 15.6903759,0.482899616 16.1387579,1.893759 C15.0472644,3.94144493 13.9842872,5.93519458 12.92131,7.92941736 C12.9287147,8.09169931 12.9361195,8.25398126 12.9435242,8.41531696 C18.6289636,8.18821685 24.3145606,7.9601705 30,7.7330704 L30,9.15244604 Z" id="Fill-1" fill="#58A5F0" mask="url(#mask-4)"></path>
                    </g>
                    <g id="Group-3-Copy" transform="translate(421.500000, 52.500000) rotate(-36.000000) translate(-421.500000, -52.500000) translate(399.000000, 47.000000)">
                        <mask id="mask-6" fill="white">
                            <use xlink:href="#path-5"></use>
                        </mask>
                        <g id="Clip-2"></g>
                        <path d="M45,9.15244604 C34.9893918,9.76845507 24.9787835,10.3844641 14.967939,11 C14.9383987,10.8254168 14.9088584,10.6508336 14.8790818,10.4762504 C16.1977597,8.88986155 17.5162012,7.3034727 18.8344064,5.71708386 C18.8197544,5.45639187 18.8051025,5.19475362 18.7904505,4.93358851 C12.5338203,5.55243629 6.2774265,6.17081094 0.0207963533,6.78965872 C0.0139430096,6.65812991 0.0068533437,6.5266011 0,6.39554542 C2.55275237,5.6409107 5.10385048,4.8640391 7.65872974,4.13684564 C12.4071516,2.78654628 17.1633722,1.53938822 21.9028138,0.0727000556 C22.9189993,-0.241928212 23.5355639,0.482899616 24.2081368,1.893759 C22.5708967,3.94144493 20.9764308,5.93519458 19.3819649,7.92941736 C19.3930721,8.09169931 19.4041792,8.25398126 19.4152864,8.41531696 C27.9434455,8.18821685 36.4718409,7.9601705 45,7.7330704 L45,9.15244604 Z" id="Fill-1" fill="#58A5F0" mask="url(#mask-6)"></path>
                    </g>
                </g>
            </g>
        </g>
    </g>
</svg>
