<?xml version="1.0" encoding="utf-8"?>
<svg width="42" height="42" viewBox="0 0 42 42" fill="none" xmlns="http://www.w3.org/2000/svg">
  <path d="M35.1709 42.0205Q34.2275 42.0205 33.356 41.6616Q32.4844 41.3027 31.8281 40.6465Q31.8281 40.6465 31.8179 40.6465Q31.8076 40.6465 31.8076 40.6465L15.627 24.4453Q14.6426 24.8145 13.6274 24.999Q12.6123 25.1836 11.5459 25.1836Q9.16699 25.1836 7.06494 24.2813Q4.96289 23.3789 3.39404 21.8101Q1.8252 20.2412 0.912598 18.1289Q0 16.0166 0 13.6377Q0 12.3867 0.256348 11.1973Q0.512695 10.0078 1.02539 8.87988Q1.12793 8.6543 1.33301 8.49023Q1.53809 8.32617 1.78418 8.28516Q2.05078 8.24414 2.29688 8.31592Q2.54297 8.3877 2.72754 8.57227L8.83887 14.6836L12.5918 14.6836L12.5918 10.9307L6.45996 4.79883Q6.2959 4.61426 6.21387 4.36816Q6.13184 4.12207 6.17285 3.85547Q6.23438 3.60938 6.38818 3.4043Q6.54199 3.19922 6.78809 3.09668Q7.875 2.6045 9.08496 2.34814Q10.2949 2.0918 11.5459 2.0918Q13.9453 2.0918 16.0474 2.99414Q18.1494 3.89649 19.7183 5.46533Q21.2871 7.03418 22.1895 9.14648Q23.0918 11.2588 23.0918 13.6377Q23.0918 14.6836 22.9072 15.6987Q22.7227 16.7139 22.3535 17.6982L38.5342 33.8789Q39.2109 34.5557 39.5698 35.417Q39.9287 36.2783 39.9287 37.2422Q39.9492 38.1855 39.5903 39.0571Q39.2314 39.9287 38.5547 40.6055Q37.8779 41.2822 37.0063 41.6514Q36.1348 42.0205 35.1709 42.0205ZM33.3047 39.1494Q33.6738 39.5186 34.1558 39.7134Q34.6377 39.9082 35.1709 39.9082Q35.7041 39.9082 36.1963 39.7134Q36.6885 39.5186 37.0576 39.1289Q37.4473 38.7393 37.6421 38.2573Q37.8369 37.7754 37.8369 37.2422Q37.8369 36.709 37.6318 36.2271Q37.4268 35.7451 37.0576 35.376Q37.0576 35.376 37.0371 35.376L20.3643 18.6826Q20.1387 18.457 20.0771 18.1392Q20.0156 17.8213 20.1592 17.5137Q20.5693 16.5908 20.7847 15.6167Q21 14.6426 21 13.6377Q21 11.6895 20.2515 9.9668Q19.5029 8.24414 18.2212 6.9624Q16.9395 5.68067 15.2168 4.93213Q13.4941 4.1836 11.5459 4.18359Q10.9307 4.18359 10.3257 4.26563Q9.7207 4.34766 9.12598 4.49121L14.3965 9.74121Q14.54 9.88477 14.6221 10.0796Q14.7041 10.2744 14.7041 10.4795L14.7041 15.7295Q14.7041 16.1807 14.3965 16.4883Q14.0889 16.7959 13.6582 16.7959L8.4082 16.7959Q8.18262 16.7959 7.99805 16.7139Q7.81348 16.6318 7.64941 16.4883L2.39941 11.2383Q2.25586 11.8125 2.17383 12.4175Q2.0918 13.0225 2.0918 13.6377Q2.0918 15.5859 2.84033 17.3086Q3.58887 19.0313 4.87061 20.313Q6.15234 21.5947 7.875 22.3433Q9.59766 23.0918 11.5459 23.0918Q12.5713 23.0918 13.5454 22.8765Q14.5195 22.6611 15.4424 22.251Q15.7295 22.1279 16.0576 22.1792Q16.3857 22.2305 16.6113 22.4766L33.3047 39.1494Z" fill="#0277BD" />
</svg>