<?xml version="1.0" encoding="utf-8"?>
<svg width="42" height="42" viewBox="0 0 42 42" fill="none" xmlns="http://www.w3.org/2000/svg">
  <path d="M33.5918 41.9795Q32.1973 41.9795 30.7617 41.7847Q29.3262 41.5898 27.8496 41.2002Q26.373 40.8105 24.876 40.2261Q23.3789 39.6416 21.8408 38.8623Q20.4258 38.1445 19.0313 37.2729Q17.6367 36.4014 16.2832 35.3965Q14.9297 34.3916 13.6172 33.2637Q12.3047 32.1357 11.0742 30.9258Q9.86426 29.6953 8.73633 28.3828Q7.6084 27.0703 6.61377 25.7168Q5.61914 24.3633 4.74756 22.9585Q3.87598 21.5537 3.1582 20.1592Q2.37891 18.6211 1.79443 17.1138Q1.20996 15.6064 0.820313 14.1299Q0.430664 12.6533 0.225586 11.2178Q0.0205078 9.78223 0.0205078 8.3877Q0.0205078 7.48536 0.389648 6.61377Q0.758789 5.74219 1.27148 5.00391Q1.78418 4.26563 2.32764 3.68115Q2.87109 3.09668 3.24023 2.76855Q3.75293 2.27637 4.40918 1.78418Q5.06543 1.29199 5.75244 0.89209Q6.43945 0.492188 7.12646 0.23584Q7.81348 -0.020504 8.4082 -0.0205078Q8.98242 -0.0205078 9.7002 0.379395Q10.418 0.779297 11.3203 1.62012Q11.9766 2.23536 12.7148 3.05566Q13.4531 3.87598 14.2119 4.86035Q14.4375 5.14746 15.0322 5.95752Q15.627 6.76758 16.2524 7.77246Q16.8779 8.77735 17.3599 9.80273Q17.8418 10.8281 17.8418 11.5459Q17.8418 12.7148 16.7241 13.5967Q15.6064 14.4785 14.1914 15.3604Q13.6582 15.6885 13.125 16.0269Q12.5918 16.3652 12.1816 16.6934Q11.751 17.042 11.6177 17.2266Q11.4844 17.4111 11.4844 17.4521Q12.2227 19.3184 13.6582 21.3076Q15.0937 23.2969 16.8882 25.0913Q18.6826 26.8857 20.6719 28.3213Q22.6611 29.7568 24.5273 30.5156Q24.5684 30.4951 24.7529 30.3721Q24.9375 30.249 25.2861 29.8184Q25.6143 29.4082 25.9526 28.875Q26.291 28.3418 26.6396 27.7881Q27.501 26.373 28.3828 25.2554Q29.2646 24.1377 30.4541 24.1377Q31.1719 24.1377 32.1973 24.6196Q33.2227 25.1016 34.2173 25.7271Q35.2119 26.3525 36.022 26.9473Q36.832 27.542 37.1396 27.7676Q38.1035 28.5264 38.9341 29.2646Q39.7646 30.0029 40.3799 30.6797Q41.2002 31.582 41.6001 32.2896Q42 32.9971 42 33.5918Q42 34.1865 41.7437 34.8735Q41.4873 35.5605 41.0874 36.2476Q40.6875 36.9346 40.1953 37.5908Q39.7031 38.2471 39.2314 38.7598Q38.9033 39.1289 38.3188 39.6724Q37.7344 40.2158 36.9858 40.7388Q36.2373 41.2617 35.3657 41.6206Q34.4941 41.9795 33.5918 41.9795ZM8.3877 2.0918Q7.95703 2.0918 6.93164 2.625Q5.90625 3.15821 4.65527 4.30664Q3.48633 5.39355 2.80957 6.49072Q2.13281 7.58789 2.13281 8.3877Q2.13281 13.6787 5.06543 19.2671Q7.99805 24.8555 12.5713 29.439Q17.1445 34.0225 22.7227 36.9551Q28.3008 39.8877 33.5918 39.8877Q34.4121 39.8877 35.5093 39.2007Q36.6064 38.5137 37.6729 37.3447Q38.8213 36.0938 39.3545 35.0581Q39.8877 34.0225 39.9082 33.5918Q39.8467 33.3047 38.9136 32.187Q37.9805 31.0693 35.7041 29.3262Q34.7402 28.5674 33.8687 27.9932Q32.9971 27.4189 32.3101 27.0293Q31.623 26.6396 31.1411 26.4448Q30.6592 26.25 30.4541 26.2295Q30.4336 26.25 30.249 26.373Q30.0645 26.4961 29.7158 26.9473Q29.4082 27.3369 29.0801 27.8496Q28.752 28.3623 28.4238 28.8955Q27.542 30.3311 26.6396 31.4692Q25.7373 32.6074 24.5273 32.6074Q24.3223 32.6074 24.1377 32.5767Q23.9531 32.5459 23.7686 32.4639Q21.6973 31.6436 19.5234 30.085Q17.3496 28.5264 15.4014 26.5781Q13.4531 24.6299 11.9048 22.4663Q10.3564 20.3027 9.51563 18.2314Q9.33105 17.7393 9.43359 16.9907Q9.53613 16.2422 10.5205 15.3398Q11.0332 14.8887 11.7202 14.4375Q12.4072 13.9863 13.1045 13.5557Q13.6172 13.248 14.1299 12.9199Q14.6426 12.5918 15.0527 12.2842Q15.5039 11.915 15.627 11.7305Q15.75 11.5459 15.75 11.5254Q15.75 11.3203 15.5449 10.8384Q15.3398 10.3564 14.9502 9.66943Q14.5605 8.98242 13.9863 8.12109Q13.4121 7.25977 12.6738 6.27539Q10.9102 4.01954 9.80273 3.07617Q8.69531 2.13281 8.3877 2.0918Z" fill="#0277BD" />
</svg>