<?xml version="1.0" encoding="utf-8"?>
<svg width="36" height="36" viewBox="0 0 36 36" fill="none" xmlns="http://www.w3.org/2000/svg">
  <path d="M28.793 35.9824Q27.5977 35.9824 26.3672 35.8154Q25.1367 35.6484 23.8711 35.3145Q22.6055 34.9805 21.3223 34.4795Q20.0391 33.9785 18.7207 33.3105Q17.5078 32.6953 16.3125 31.9482Q15.1172 31.2012 13.957 30.3398Q12.7969 29.4785 11.6719 28.5117Q10.5469 27.5449 9.49219 26.5078Q8.45508 25.4531 7.48828 24.3281Q6.52148 23.2031 5.66895 22.043Q4.81641 20.8828 4.06934 19.6787Q3.32227 18.4746 2.70703 17.2793Q2.03906 15.9609 1.53809 14.6689Q1.03711 13.377 0.703125 12.1113Q0.369141 10.8457 0.193359 9.61523Q0.0175781 8.38477 0.0175781 7.18945Q0.0175781 6.41602 0.333984 5.66895Q0.650391 4.92188 1.08984 4.28906Q1.5293 3.65625 1.99512 3.15527Q2.46094 2.6543 2.77734 2.37305Q3.2168 1.95117 3.7793 1.5293Q4.3418 1.10742 4.93066 0.764648Q5.51953 0.421875 6.1084 0.202148Q6.69727 -0.0175743 7.20703 -0.0175781Q7.69922 -0.0175781 8.31445 0.325195Q8.92969 0.667969 9.70313 1.38867Q10.2656 1.91602 10.8984 2.61914Q11.5313 3.32227 12.1816 4.16602Q12.375 4.41211 12.8848 5.10645Q13.3945 5.80078 13.9307 6.66211Q14.4668 7.52344 14.8799 8.40234Q15.293 9.28125 15.293 9.89648Q15.293 10.8984 14.335 11.6543Q13.377 12.4102 12.1641 13.166Q11.707 13.4473 11.25 13.7373Q10.793 14.0273 10.4414 14.3086Q10.0723 14.6074 9.95801 14.7656Q9.84375 14.9238 9.84375 14.959Q10.4766 16.5586 11.707 18.2637Q12.9375 19.9688 14.4756 21.5068Q16.0137 23.0449 17.7188 24.2754Q19.4238 25.5059 21.0234 26.1563Q21.0586 26.1387 21.2168 26.0332Q21.375 25.9277 21.6738 25.5586Q21.9551 25.207 22.2451 24.75Q22.5352 24.293 22.834 23.8184Q23.5723 22.6055 24.3281 21.6475Q25.084 20.6895 26.1035 20.6895Q26.7187 20.6895 27.5977 21.1025Q28.4766 21.5156 29.3291 22.0518Q30.1816 22.5879 30.876 23.0977Q31.5703 23.6074 31.834 23.8008Q32.6602 24.4512 33.3721 25.084Q34.084 25.7168 34.6113 26.2969Q35.3145 27.0703 35.6572 27.6768Q36 28.2832 36 28.793Q36 29.3027 35.7803 29.8916Q35.5605 30.4805 35.2178 31.0693Q34.875 31.6582 34.4531 32.2207Q34.0313 32.7832 33.627 33.2227Q33.3457 33.5391 32.8447 34.0049Q32.3438 34.4707 31.7021 34.9189Q31.0605 35.3672 30.3135 35.6748Q29.5664 35.9824 28.793 35.9824ZM7.18945 1.79297Q6.82031 1.79297 5.94141 2.25Q5.0625 2.70704 3.99023 3.69141Q2.98828 4.62305 2.4082 5.56348Q1.82813 6.50391 1.82813 7.18945Q1.82813 11.7246 4.3418 16.5146Q6.85547 21.3047 10.7754 25.2334Q14.6953 29.1621 19.4766 31.6758Q24.2578 34.1895 28.793 34.1895Q29.4961 34.1895 30.4365 33.6006Q31.3769 33.0117 32.291 32.0098Q33.2754 30.9375 33.7324 30.0498Q34.1894 29.1621 34.207 28.793Q34.1543 28.5469 33.3545 27.5889Q32.5547 26.6309 30.6035 25.1367Q29.7773 24.4863 29.0303 23.9941Q28.2832 23.502 27.6943 23.168Q27.1055 22.834 26.6924 22.667Q26.2793 22.5 26.1035 22.4824Q26.0859 22.5 25.9277 22.6055Q25.7695 22.7109 25.4707 23.0977Q25.207 23.4316 24.9258 23.8711Q24.6445 24.3105 24.3633 24.7676Q23.6074 25.998 22.834 26.9736Q22.0605 27.9492 21.0234 27.9492Q20.8477 27.9492 20.6895 27.9229Q20.5313 27.8965 20.373 27.8262Q18.5977 27.123 16.7344 25.7871Q14.8711 24.4512 13.2012 22.7813Q11.5312 21.1113 10.2041 19.2568Q8.87695 17.4023 8.15625 15.627Q7.99805 15.2051 8.08594 14.5635Q8.17383 13.9219 9.01758 13.1484Q9.45703 12.7617 10.0459 12.375Q10.6348 11.9883 11.2324 11.6191Q11.6719 11.3555 12.1113 11.0742Q12.5508 10.793 12.9023 10.5293Q13.2891 10.2129 13.3945 10.0547Q13.5 9.89648 13.5 9.87891Q13.5 9.70313 13.3242 9.29004Q13.1484 8.87695 12.8145 8.28809Q12.4805 7.69922 11.9883 6.96094Q11.4961 6.22266 10.8633 5.37891Q9.35156 3.44531 8.40234 2.63672Q7.45313 1.82813 7.18945 1.79297Z" fill="#0277BD" />
</svg>