<?xml version="1.0" encoding="utf-8"?>
<svg width="36" height="36" viewBox="0 0 36 36" fill="none" xmlns="http://www.w3.org/2000/svg">
  <path d="M9.89648 31.4824Q9.7207 31.4824 9.55371 31.4209Q9.38672 31.3594 9.26367 31.2188L0.263672 22.2188Q0 21.9551 0 21.5859Q0 21.2168 0.263672 20.9531Q0.527344 20.6895 0.896484 20.6895Q1.26563 20.6895 1.5293 20.9531L9.89648 29.3203L34.4707 4.74609Q34.7344 4.48242 35.1035 4.48242Q35.4727 4.48242 35.7363 4.74609Q36 5.00977 36 5.3877Q36 5.76563 35.7363 6.0293L10.5293 31.2188Q10.4063 31.3594 10.2393 31.4209Q10.0723 31.4824 9.89648 31.4824Z" fill="#0277BD" />
</svg>