<?xml version="1.0" encoding="utf-8"?>
<svg width="36" height="36" viewBox="0 0 36 36" fill="none" xmlns="http://www.w3.org/2000/svg">
  <path d="M2.70703 35.9824Q2.32031 35.9824 2.05664 35.7188Q1.79297 35.4551 1.79297 35.0859L1.79297 4.48242Q1.79297 4.11328 2.05664 3.84961Q2.32031 3.58594 2.70703 3.58594Q3.07617 3.58594 3.33984 3.84961Q3.60352 4.11328 3.60352 4.48242L3.60352 35.0859Q3.60352 35.4551 3.33984 35.7188Q3.07617 35.9824 2.70703 35.9824ZM27.8965 21.5859Q26.4023 21.5859 25.251 21.2344Q24.0996 20.8828 23.168 20.3291Q22.2363 19.7754 21.4893 19.0898Q20.7422 18.4043 20.0566 17.7188Q19.3887 17.0508 18.7383 16.4443Q18.0879 15.8379 17.3232 15.3809Q16.5586 14.9238 15.6357 14.6602Q14.7129 14.3965 13.5 14.3965Q12.2871 14.3965 11.3643 14.6602Q10.4414 14.9238 9.67676 15.3809Q8.91211 15.8379 8.26172 16.4443Q7.61133 17.0508 6.94336 17.7188Q6.67969 17.9824 6.30176 17.9824Q5.92383 17.9824 5.66016 17.7188Q5.39648 17.4551 5.39648 17.0859Q5.39648 16.7168 5.66016 16.4531Q6.3457 15.7676 7.09277 15.082Q7.83984 14.3965 8.77148 13.8428Q9.70313 13.2891 10.8545 12.9375Q12.0059 12.5859 13.5 12.5859Q14.9941 12.5859 16.1455 12.9375Q17.2969 13.2891 18.2285 13.8428Q19.1602 14.3965 19.9072 15.082Q20.6543 15.7676 21.3398 16.4531Q22.0078 17.1211 22.667 17.7275Q23.3262 18.334 24.082 18.791Q24.8379 19.248 25.7607 19.5205Q26.6836 19.793 27.8965 19.793Q29.0566 19.793 29.9443 19.5469Q30.832 19.3008 31.5703 18.8789Q32.3086 18.457 32.9414 17.9033Q33.5742 17.3496 34.207 16.7168L34.207 6.5918Q33.627 7.06641 32.9854 7.50586Q32.3438 7.94531 31.5791 8.27051Q30.8145 8.5957 29.9004 8.78906Q28.9863 8.98242 27.8965 8.98242Q26.4023 8.98242 25.251 8.63965Q24.0996 8.29688 23.168 7.74316Q22.2363 7.18945 21.4893 6.49512Q20.7422 5.80078 20.0566 5.13281Q19.3887 4.44727 18.7383 3.84961Q18.0879 3.25195 17.3232 2.78613Q16.5586 2.32031 15.6357 2.05664Q14.7129 1.79297 13.5 1.79297Q12.2871 1.79297 11.3643 2.05664Q10.4414 2.32031 9.67676 2.78613Q8.91211 3.25196 8.26172 3.84961Q7.61133 4.44727 6.94336 5.13281Q6.67969 5.39649 6.30176 5.39648Q5.92383 5.39649 5.66016 5.13281Q5.39648 4.86914 5.39648 4.49121Q5.39648 4.11328 5.66016 3.84961Q6.3457 3.18164 7.09277 2.4873Q7.83984 1.79297 8.77148 1.23926Q9.70313 0.685547 10.8545 0.333984Q12.0059 -0.0175743 13.5 -0.0175781Q14.9941 -0.0175781 16.1455 0.333984Q17.2969 0.685547 18.2285 1.23926Q19.1602 1.79297 19.9072 2.4873Q20.6543 3.18164 21.3398 3.84961Q22.0078 4.51758 22.667 5.12402Q23.3262 5.73047 24.082 6.1875Q24.8379 6.64453 25.7607 6.91699Q26.6836 7.18945 27.8965 7.18945Q29.1094 7.18945 30.0322 6.91699Q30.9551 6.64453 31.7197 6.1875Q32.4844 5.73047 33.1348 5.12402Q33.7852 4.51758 34.4707 3.84961Q34.6641 3.65625 34.9277 3.60352Q35.1914 3.55079 35.4375 3.65625Q35.7012 3.76172 35.8506 3.99023Q36 4.21875 36 4.48242L36 17.0859Q36 17.2617 35.9297 17.4287Q35.8594 17.5957 35.7363 17.7188Q35.0508 18.4043 34.3037 19.0898Q33.5566 19.7754 32.625 20.3291Q31.6934 20.8828 30.542 21.2344Q29.3906 21.5859 27.8965 21.5859Z" fill="#0277BD" />
</svg>