<svg width="890" height="328" viewBox="0 0 890 328" fill="none" xmlns="http://www.w3.org/2000/svg">
<path d="M749.304 249.192C747.715 249.192 746.472 248.749 745.576 247.864C744.68 246.979 744.232 245.715 744.232 244.072V237.8H746.824V243.976C746.824 245.043 747.043 245.811 747.48 246.28C747.917 246.749 748.531 246.984 749.32 246.984C750.109 246.984 750.723 246.749 751.16 246.28C751.597 245.811 751.816 245.043 751.816 243.976V237.8H754.376V244.072C754.376 245.715 753.928 246.979 753.032 247.864C752.136 248.749 750.893 249.192 749.304 249.192ZM761.993 240.264C762.676 240.264 763.284 240.403 763.817 240.68C764.361 240.947 764.788 241.363 765.097 241.928C765.407 242.483 765.561 243.197 765.561 244.072V249H763.065V244.456C763.065 243.763 762.911 243.251 762.601 242.92C762.303 242.589 761.876 242.424 761.321 242.424C760.927 242.424 760.569 242.509 760.249 242.68C759.94 242.84 759.695 243.091 759.513 243.432C759.343 243.773 759.257 244.211 759.257 244.744V249H756.761V240.392H759.145V242.776L758.697 242.056C759.007 241.48 759.449 241.037 760.025 240.728C760.601 240.419 761.257 240.264 761.993 240.264ZM771.582 249.128C770.772 249.128 770.041 248.947 769.39 248.584C768.74 248.211 768.222 247.693 767.838 247.032C767.465 246.371 767.278 245.592 767.278 244.696C767.278 243.789 767.465 243.005 767.838 242.344C768.222 241.683 768.74 241.171 769.39 240.808C770.041 240.445 770.772 240.264 771.582 240.264C772.308 240.264 772.942 240.424 773.486 240.744C774.03 241.064 774.452 241.549 774.75 242.2C775.049 242.851 775.198 243.683 775.198 244.696C775.198 245.699 775.054 246.531 774.766 247.192C774.478 247.843 774.062 248.328 773.518 248.648C772.985 248.968 772.34 249.128 771.582 249.128ZM772.014 247.08C772.42 247.08 772.788 246.984 773.118 246.792C773.449 246.6 773.71 246.328 773.902 245.976C774.105 245.613 774.206 245.187 774.206 244.696C774.206 244.195 774.105 243.768 773.902 243.416C773.71 243.064 773.449 242.792 773.118 242.6C772.788 242.408 772.42 242.312 772.014 242.312C771.598 242.312 771.225 242.408 770.894 242.6C770.564 242.792 770.297 243.064 770.094 243.416C769.902 243.768 769.806 244.195 769.806 244.696C769.806 245.187 769.902 245.613 770.094 245.976C770.297 246.328 770.564 246.6 770.894 246.792C771.225 246.984 771.598 247.08 772.014 247.08ZM774.27 249V247.24L774.318 244.68L774.158 242.136V237.128H776.654V249H774.27ZM783.237 249.128C782.255 249.128 781.391 248.936 780.645 248.552C779.909 248.168 779.338 247.645 778.933 246.984C778.527 246.312 778.325 245.549 778.325 244.696C778.325 243.832 778.522 243.069 778.917 242.408C779.322 241.736 779.871 241.213 780.565 240.84C781.258 240.456 782.042 240.264 782.917 240.264C783.759 240.264 784.517 240.445 785.189 240.808C785.871 241.16 786.41 241.672 786.805 242.344C787.199 243.005 787.397 243.8 787.397 244.728C787.397 244.824 787.391 244.936 787.381 245.064C787.37 245.181 787.359 245.293 787.349 245.4H780.357V243.944H786.036L785.077 244.376C785.077 243.928 784.986 243.539 784.805 243.208C784.623 242.877 784.373 242.621 784.053 242.44C783.733 242.248 783.359 242.152 782.933 242.152C782.506 242.152 782.127 242.248 781.797 242.44C781.477 242.621 781.226 242.883 781.045 243.224C780.863 243.555 780.773 243.949 780.773 244.408V244.792C780.773 245.261 780.874 245.677 781.077 246.04C781.29 246.392 781.583 246.664 781.957 246.856C782.341 247.037 782.789 247.128 783.301 247.128C783.759 247.128 784.159 247.059 784.501 246.92C784.853 246.781 785.173 246.573 785.461 246.296L786.789 247.736C786.394 248.184 785.898 248.531 785.301 248.776C784.703 249.011 784.015 249.128 783.237 249.128ZM789.058 249V240.392H791.442V242.824L791.106 242.12C791.362 241.512 791.773 241.053 792.338 240.744C792.904 240.424 793.592 240.264 794.402 240.264V242.568C794.296 242.557 794.2 242.552 794.114 242.552C794.029 242.541 793.938 242.536 793.842 242.536C793.16 242.536 792.605 242.733 792.178 243.128C791.762 243.512 791.554 244.115 791.554 244.936V249H789.058ZM796.031 249V237.8H801.503C802.911 237.8 803.967 238.067 804.671 238.6C805.386 239.133 805.743 239.837 805.743 240.712C805.743 241.299 805.599 241.811 805.311 242.248C805.023 242.675 804.628 243.005 804.127 243.24C803.626 243.475 803.05 243.592 802.399 243.592L802.703 242.936C803.407 242.936 804.031 243.053 804.575 243.288C805.119 243.512 805.54 243.848 805.839 244.296C806.148 244.744 806.303 245.293 806.303 245.944C806.303 246.904 805.924 247.656 805.167 248.2C804.41 248.733 803.295 249 801.823 249H796.031ZM798.607 247.048H801.631C802.303 247.048 802.81 246.941 803.151 246.728C803.503 246.504 803.679 246.152 803.679 245.672C803.679 245.203 803.503 244.856 803.151 244.632C802.81 244.397 802.303 244.28 801.631 244.28H798.415V242.392H801.183C801.812 242.392 802.292 242.285 802.623 242.072C802.964 241.848 803.135 241.512 803.135 241.064C803.135 240.627 802.964 240.301 802.623 240.088C802.292 239.864 801.812 239.752 801.183 239.752H798.607V247.048ZM808.09 249V237.128H810.586V249H808.09ZM816.998 249.128C816.081 249.128 815.265 248.936 814.55 248.552C813.846 248.168 813.286 247.645 812.87 246.984C812.465 246.312 812.262 245.549 812.262 244.696C812.262 243.832 812.465 243.069 812.87 242.408C813.286 241.736 813.846 241.213 814.55 240.84C815.265 240.456 816.081 240.264 816.998 240.264C817.905 240.264 818.715 240.456 819.43 240.84C820.145 241.213 820.705 241.731 821.11 242.392C821.515 243.053 821.718 243.821 821.718 244.696C821.718 245.549 821.515 246.312 821.11 246.984C820.705 247.645 820.145 248.168 819.43 248.552C818.715 248.936 817.905 249.128 816.998 249.128ZM816.998 247.08C817.414 247.08 817.787 246.984 818.118 246.792C818.449 246.6 818.71 246.328 818.902 245.976C819.094 245.613 819.19 245.187 819.19 244.696C819.19 244.195 819.094 243.768 818.902 243.416C818.71 243.064 818.449 242.792 818.118 242.6C817.787 242.408 817.414 242.312 816.998 242.312C816.582 242.312 816.209 242.408 815.878 242.6C815.547 242.792 815.281 243.064 815.078 243.416C814.886 243.768 814.79 244.195 814.79 244.696C814.79 245.187 814.886 245.613 815.078 245.976C815.281 246.328 815.547 246.6 815.878 246.792C816.209 246.984 816.582 247.08 816.998 247.08ZM827.546 249.128C826.618 249.128 825.792 248.941 825.066 248.568C824.341 248.184 823.77 247.656 823.354 246.984C822.949 246.312 822.746 245.549 822.746 244.696C822.746 243.832 822.949 243.069 823.354 242.408C823.77 241.736 824.341 241.213 825.066 240.84C825.792 240.456 826.618 240.264 827.546 240.264C828.453 240.264 829.242 240.456 829.914 240.84C830.586 241.213 831.082 241.752 831.402 242.456L829.466 243.496C829.242 243.091 828.96 242.792 828.618 242.6C828.288 242.408 827.925 242.312 827.53 242.312C827.104 242.312 826.72 242.408 826.378 242.6C826.037 242.792 825.765 243.064 825.562 243.416C825.37 243.768 825.274 244.195 825.274 244.696C825.274 245.197 825.37 245.624 825.562 245.976C825.765 246.328 826.037 246.6 826.378 246.792C826.72 246.984 827.104 247.08 827.53 247.08C827.925 247.08 828.288 246.989 828.618 246.808C828.96 246.616 829.242 246.312 829.466 245.896L831.402 246.952C831.082 247.645 830.586 248.184 829.914 248.568C829.242 248.941 828.453 249.128 827.546 249.128ZM834.857 247.24L834.921 244.2L838.937 240.392H841.913L838.057 244.312L836.761 245.368L834.857 247.24ZM832.793 249V237.128H835.289V249H832.793ZM839.209 249L836.297 245.384L837.865 243.448L842.233 249H839.209ZM747.256 271.192C746.477 271.192 745.704 271.091 744.936 270.888C744.168 270.675 743.517 270.376 742.984 269.992L743.992 268.008C744.419 268.317 744.915 268.563 745.48 268.744C746.045 268.925 746.616 269.016 747.192 269.016C747.843 269.016 748.355 268.888 748.728 268.632C749.101 268.376 749.288 268.024 749.288 267.576C749.288 267.149 749.123 266.813 748.792 266.568C748.461 266.323 747.928 266.2 747.192 266.2H746.008V264.488L749.128 260.952L749.416 261.88H743.544V259.8H751.384V261.48L748.28 265.016L746.968 264.264H747.72C749.096 264.264 750.136 264.573 750.84 265.192C751.544 265.811 751.896 266.605 751.896 267.576C751.896 268.205 751.731 268.797 751.4 269.352C751.069 269.896 750.563 270.339 749.88 270.68C749.197 271.021 748.323 271.192 747.256 271.192ZM751.941 272.6L757.221 257.528H759.445L754.165 272.6H751.941ZM763.577 271.192C762.638 271.192 761.817 271.053 761.113 270.776C760.409 270.488 759.859 270.088 759.465 269.576C759.07 269.053 758.873 268.445 758.873 267.752C758.873 267.059 759.065 266.472 759.449 265.992C759.843 265.501 760.393 265.133 761.097 264.888C761.801 264.632 762.627 264.504 763.577 264.504C764.537 264.504 765.369 264.632 766.073 264.888C766.787 265.133 767.337 265.501 767.72 265.992C768.115 266.472 768.312 267.059 768.312 267.752C768.312 268.445 768.115 269.053 767.72 269.576C767.326 270.088 766.771 270.488 766.057 270.776C765.353 271.053 764.526 271.192 763.577 271.192ZM763.577 269.288C764.227 269.288 764.739 269.144 765.113 268.856C765.497 268.568 765.689 268.173 765.689 267.672C765.689 267.171 765.497 266.781 765.113 266.504C764.739 266.216 764.227 266.072 763.577 266.072C762.937 266.072 762.43 266.216 762.057 266.504C761.683 266.781 761.497 267.171 761.497 267.672C761.497 268.173 761.683 268.568 762.057 268.856C762.43 269.144 762.937 269.288 763.577 269.288ZM763.577 265.816C762.713 265.816 761.955 265.699 761.305 265.464C760.665 265.229 760.163 264.888 759.801 264.44C759.449 263.981 759.273 263.437 759.273 262.808C759.273 262.147 759.454 261.581 759.817 261.112C760.179 260.632 760.686 260.264 761.337 260.008C761.987 259.741 762.734 259.608 763.577 259.608C764.441 259.608 765.193 259.741 765.833 260.008C766.483 260.264 766.99 260.632 767.352 261.112C767.726 261.581 767.913 262.147 767.913 262.808C767.913 263.437 767.731 263.981 767.369 264.44C767.017 264.888 766.515 265.229 765.865 265.464C765.214 265.699 764.451 265.816 763.577 265.816ZM763.577 264.296C764.121 264.296 764.547 264.173 764.857 263.928C765.177 263.683 765.337 263.347 765.337 262.92C765.337 262.472 765.171 262.125 764.841 261.88C764.521 261.635 764.099 261.512 763.577 261.512C763.065 261.512 762.649 261.635 762.329 261.88C762.009 262.125 761.849 262.472 761.849 262.92C761.849 263.347 762.003 263.683 762.312 263.928C762.622 264.173 763.043 264.296 763.577 264.296ZM769.819 264.344L769.659 259.8H771.787L771.611 264.344H769.819ZM773.115 264.344L772.955 259.8H775.083L774.907 264.344H773.115ZM781.719 271V259.8H786.567C787.569 259.8 788.433 259.965 789.159 260.296C789.884 260.616 790.444 261.08 790.839 261.688C791.233 262.296 791.431 263.021 791.431 263.864C791.431 264.696 791.233 265.416 790.839 266.024C790.444 266.621 789.884 267.08 789.159 267.4C788.433 267.72 787.569 267.88 786.567 267.88H783.159L784.311 266.744V271H781.719ZM788.839 271L786.039 266.936H788.807L791.639 271H788.839ZM784.311 267.032L783.159 265.816H786.423C787.223 265.816 787.82 265.645 788.215 265.304C788.609 264.952 788.807 264.472 788.807 263.864C788.807 263.245 788.609 262.765 788.215 262.424C787.82 262.083 787.223 261.912 786.423 261.912H783.159L784.311 260.68V267.032ZM796.94 271.128C796.226 271.128 795.586 270.989 795.02 270.712C794.466 270.435 794.034 270.013 793.724 269.448C793.415 268.872 793.26 268.141 793.26 267.256V262.392H795.756V266.888C795.756 267.603 795.906 268.131 796.204 268.472C796.514 268.803 796.946 268.968 797.5 268.968C797.884 268.968 798.226 268.888 798.524 268.728C798.823 268.557 799.058 268.301 799.228 267.96C799.399 267.608 799.484 267.171 799.484 266.648V262.392H801.98V271H799.612V268.632L800.044 269.32C799.756 269.917 799.33 270.371 798.764 270.68C798.21 270.979 797.602 271.128 796.94 271.128ZM809.381 271.128C808.623 271.128 807.973 270.968 807.429 270.648C806.885 270.328 806.469 269.843 806.181 269.192C805.893 268.531 805.749 267.699 805.749 266.696C805.749 265.683 805.898 264.851 806.197 264.2C806.506 263.549 806.933 263.064 807.477 262.744C808.021 262.424 808.655 262.264 809.381 262.264C810.191 262.264 810.917 262.445 811.557 262.808C812.207 263.171 812.719 263.683 813.093 264.344C813.477 265.005 813.669 265.789 813.669 266.696C813.669 267.592 813.477 268.371 813.093 269.032C812.719 269.693 812.207 270.211 811.557 270.584C810.917 270.947 810.191 271.128 809.381 271.128ZM804.293 271V259.128H806.789V264.136L806.629 266.68L806.677 269.24V271H804.293ZM808.949 269.08C809.365 269.08 809.733 268.984 810.053 268.792C810.383 268.6 810.645 268.328 810.837 267.976C811.039 267.613 811.141 267.187 811.141 266.696C811.141 266.195 811.039 265.768 810.837 265.416C810.645 265.064 810.383 264.792 810.053 264.6C809.733 264.408 809.365 264.312 808.949 264.312C808.533 264.312 808.159 264.408 807.829 264.6C807.498 264.792 807.237 265.064 807.045 265.416C806.853 265.768 806.757 266.195 806.757 266.696C806.757 267.187 806.853 267.613 807.045 267.976C807.237 268.328 807.498 268.6 807.829 268.792C808.159 268.984 808.533 269.08 808.949 269.08ZM820.428 271.128C819.67 271.128 819.02 270.968 818.476 270.648C817.932 270.328 817.516 269.843 817.228 269.192C816.94 268.531 816.796 267.699 816.796 266.696C816.796 265.683 816.945 264.851 817.244 264.2C817.553 263.549 817.98 263.064 818.524 262.744C819.068 262.424 819.702 262.264 820.428 262.264C821.238 262.264 821.964 262.445 822.604 262.808C823.254 263.171 823.766 263.683 824.14 264.344C824.524 265.005 824.716 265.789 824.716 266.696C824.716 267.592 824.524 268.371 824.14 269.032C823.766 269.693 823.254 270.211 822.604 270.584C821.964 270.947 821.238 271.128 820.428 271.128ZM815.34 271V259.128H817.836V264.136L817.676 266.68L817.724 269.24V271H815.34ZM819.996 269.08C820.412 269.08 820.78 268.984 821.1 268.792C821.43 268.6 821.692 268.328 821.884 267.976C822.086 267.613 822.188 267.187 822.188 266.696C822.188 266.195 822.086 265.768 821.884 265.416C821.692 265.064 821.43 264.792 821.1 264.6C820.78 264.408 820.412 264.312 819.996 264.312C819.58 264.312 819.206 264.408 818.876 264.6C818.545 264.792 818.284 265.064 818.092 265.416C817.9 265.768 817.804 266.195 817.804 266.696C817.804 267.187 817.9 267.613 818.092 267.976C818.284 268.328 818.545 268.6 818.876 268.792C819.206 268.984 819.58 269.08 819.996 269.08ZM830.658 271.128C829.677 271.128 828.813 270.936 828.066 270.552C827.33 270.168 826.76 269.645 826.354 268.984C825.949 268.312 825.746 267.549 825.746 266.696C825.746 265.832 825.944 265.069 826.338 264.408C826.744 263.736 827.293 263.213 827.986 262.84C828.68 262.456 829.464 262.264 830.338 262.264C831.181 262.264 831.938 262.445 832.61 262.808C833.293 263.16 833.832 263.672 834.226 264.344C834.621 265.005 834.818 265.8 834.818 266.728C834.818 266.824 834.813 266.936 834.802 267.064C834.792 267.181 834.781 267.293 834.77 267.4H827.778V265.944H833.458L832.498 266.376C832.498 265.928 832.408 265.539 832.226 265.208C832.045 264.877 831.794 264.621 831.474 264.44C831.154 264.248 830.781 264.152 830.354 264.152C829.928 264.152 829.549 264.248 829.218 264.44C828.898 264.621 828.648 264.883 828.466 265.224C828.285 265.555 828.194 265.949 828.194 266.408V266.792C828.194 267.261 828.296 267.677 828.498 268.04C828.712 268.392 829.005 268.664 829.378 268.856C829.762 269.037 830.21 269.128 830.722 269.128C831.181 269.128 831.581 269.059 831.922 268.92C832.274 268.781 832.594 268.573 832.882 268.296L834.21 269.736C833.816 270.184 833.32 270.531 832.722 270.776C832.125 271.011 831.437 271.128 830.658 271.128ZM836.48 271V262.392H838.864V264.824L838.528 264.12C838.784 263.512 839.195 263.053 839.76 262.744C840.325 262.424 841.013 262.264 841.824 262.264V264.568C841.717 264.557 841.621 264.552 841.536 264.552C841.451 264.541 841.36 264.536 841.264 264.536C840.581 264.536 840.027 264.733 839.6 265.128C839.184 265.512 838.976 266.115 838.976 266.936V271H836.48ZM749.304 293.192C747.715 293.192 746.472 292.749 745.576 291.864C744.68 290.979 744.232 289.715 744.232 288.072V281.8H746.824V287.976C746.824 289.043 747.043 289.811 747.48 290.28C747.917 290.749 748.531 290.984 749.32 290.984C750.109 290.984 750.723 290.749 751.16 290.28C751.597 289.811 751.816 289.043 751.816 287.976V281.8H754.376V288.072C754.376 289.715 753.928 290.979 753.032 291.864C752.136 292.749 750.893 293.192 749.304 293.192ZM761.993 284.264C762.676 284.264 763.284 284.403 763.817 284.68C764.361 284.947 764.788 285.363 765.097 285.928C765.407 286.483 765.561 287.197 765.561 288.072V293H763.065V288.456C763.065 287.763 762.911 287.251 762.601 286.92C762.303 286.589 761.876 286.424 761.321 286.424C760.927 286.424 760.569 286.509 760.249 286.68C759.94 286.84 759.695 287.091 759.513 287.432C759.343 287.773 759.257 288.211 759.257 288.744V293H756.761V284.392H759.145V286.776L758.697 286.056C759.007 285.48 759.449 285.037 760.025 284.728C760.601 284.419 761.257 284.264 761.993 284.264ZM771.582 293.128C770.772 293.128 770.041 292.947 769.39 292.584C768.74 292.211 768.222 291.693 767.838 291.032C767.465 290.371 767.278 289.592 767.278 288.696C767.278 287.789 767.465 287.005 767.838 286.344C768.222 285.683 768.74 285.171 769.39 284.808C770.041 284.445 770.772 284.264 771.582 284.264C772.308 284.264 772.942 284.424 773.486 284.744C774.03 285.064 774.452 285.549 774.75 286.2C775.049 286.851 775.198 287.683 775.198 288.696C775.198 289.699 775.054 290.531 774.766 291.192C774.478 291.843 774.062 292.328 773.518 292.648C772.985 292.968 772.34 293.128 771.582 293.128ZM772.014 291.08C772.42 291.08 772.788 290.984 773.118 290.792C773.449 290.6 773.71 290.328 773.902 289.976C774.105 289.613 774.206 289.187 774.206 288.696C774.206 288.195 774.105 287.768 773.902 287.416C773.71 287.064 773.449 286.792 773.118 286.6C772.788 286.408 772.42 286.312 772.014 286.312C771.598 286.312 771.225 286.408 770.894 286.6C770.564 286.792 770.297 287.064 770.094 287.416C769.902 287.768 769.806 288.195 769.806 288.696C769.806 289.187 769.902 289.613 770.094 289.976C770.297 290.328 770.564 290.6 770.894 290.792C771.225 290.984 771.598 291.08 772.014 291.08ZM774.27 293V291.24L774.318 288.68L774.158 286.136V281.128H776.654V293H774.27ZM783.237 293.128C782.255 293.128 781.391 292.936 780.645 292.552C779.909 292.168 779.338 291.645 778.933 290.984C778.527 290.312 778.325 289.549 778.325 288.696C778.325 287.832 778.522 287.069 778.917 286.408C779.322 285.736 779.871 285.213 780.565 284.84C781.258 284.456 782.042 284.264 782.917 284.264C783.759 284.264 784.517 284.445 785.189 284.808C785.871 285.16 786.41 285.672 786.805 286.344C787.199 287.005 787.397 287.8 787.397 288.728C787.397 288.824 787.391 288.936 787.381 289.064C787.37 289.181 787.359 289.293 787.349 289.4H780.357V287.944H786.036L785.077 288.376C785.077 287.928 784.986 287.539 784.805 287.208C784.623 286.877 784.373 286.621 784.053 286.44C783.733 286.248 783.359 286.152 782.933 286.152C782.506 286.152 782.127 286.248 781.797 286.44C781.477 286.621 781.226 286.883 781.045 287.224C780.863 287.555 780.773 287.949 780.773 288.408V288.792C780.773 289.261 780.874 289.677 781.077 290.04C781.29 290.392 781.583 290.664 781.957 290.856C782.341 291.037 782.789 291.128 783.301 291.128C783.759 291.128 784.159 291.059 784.501 290.92C784.853 290.781 785.173 290.573 785.461 290.296L786.789 291.736C786.394 292.184 785.898 292.531 785.301 292.776C784.703 293.011 784.015 293.128 783.237 293.128ZM789.058 293V284.392H791.442V286.824L791.106 286.12C791.362 285.512 791.773 285.053 792.338 284.744C792.904 284.424 793.592 284.264 794.402 284.264V286.568C794.296 286.557 794.2 286.552 794.114 286.552C794.029 286.541 793.938 286.536 793.842 286.536C793.16 286.536 792.605 286.733 792.178 287.128C791.762 287.512 791.554 288.115 791.554 288.936V293H789.058ZM795.902 293V281.128H798.398V293H795.902ZM805.995 293V291.32L805.835 290.952V287.944C805.835 287.411 805.669 286.995 805.339 286.696C805.019 286.397 804.523 286.248 803.851 286.248C803.392 286.248 802.939 286.323 802.491 286.472C802.053 286.611 801.68 286.803 801.371 287.048L800.475 285.304C800.944 284.973 801.509 284.717 802.171 284.536C802.832 284.355 803.504 284.264 804.187 284.264C805.499 284.264 806.517 284.573 807.243 285.192C807.968 285.811 808.331 286.776 808.331 288.088V293H805.995ZM803.371 293.128C802.699 293.128 802.123 293.016 801.643 292.792C801.163 292.557 800.795 292.243 800.539 291.848C800.283 291.453 800.155 291.011 800.155 290.52C800.155 290.008 800.277 289.56 800.523 289.176C800.779 288.792 801.179 288.493 801.723 288.28C802.267 288.056 802.976 287.944 803.851 287.944H806.139V289.4H804.123C803.536 289.4 803.131 289.496 802.907 289.688C802.693 289.88 802.587 290.12 802.587 290.408C802.587 290.728 802.709 290.984 802.955 291.176C803.211 291.357 803.557 291.448 803.995 291.448C804.411 291.448 804.784 291.352 805.115 291.16C805.445 290.957 805.685 290.664 805.835 290.28L806.219 291.432C806.037 291.987 805.707 292.408 805.227 292.696C804.747 292.984 804.128 293.128 803.371 293.128ZM811.521 296.232C811.073 296.232 810.631 296.163 810.193 296.024C809.756 295.885 809.399 295.693 809.121 295.448L810.033 293.672C810.225 293.843 810.444 293.976 810.689 294.072C810.945 294.168 811.196 294.216 811.441 294.216C811.793 294.216 812.071 294.131 812.273 293.96C812.487 293.8 812.679 293.528 812.849 293.144L813.297 292.088L813.489 291.816L816.577 284.392H818.977L815.089 293.528C814.812 294.221 814.492 294.765 814.129 295.16C813.777 295.555 813.383 295.832 812.945 295.992C812.519 296.152 812.044 296.232 811.521 296.232ZM812.993 293.336L809.153 284.392H811.729L814.705 291.592L812.993 293.336ZM831.02 284.264C831.702 284.264 832.305 284.403 832.828 284.68C833.361 284.947 833.777 285.363 834.076 285.928C834.385 286.483 834.54 287.197 834.54 288.072V293H832.044V288.456C832.044 287.763 831.9 287.251 831.612 286.92C831.324 286.589 830.918 286.424 830.396 286.424C830.033 286.424 829.708 286.509 829.42 286.68C829.132 286.84 828.908 287.085 828.748 287.416C828.588 287.747 828.508 288.168 828.508 288.68V293H826.012V288.456C826.012 287.763 825.868 287.251 825.58 286.92C825.302 286.589 824.902 286.424 824.38 286.424C824.017 286.424 823.692 286.509 823.404 286.68C823.116 286.84 822.892 287.085 822.732 287.416C822.572 287.747 822.492 288.168 822.492 288.68V293H819.996V284.392H822.38V286.744L821.932 286.056C822.23 285.469 822.652 285.027 823.196 284.728C823.75 284.419 824.38 284.264 825.084 284.264C825.873 284.264 826.561 284.467 827.148 284.872C827.745 285.267 828.14 285.875 828.332 286.696L827.452 286.456C827.74 285.784 828.198 285.251 828.828 284.856C829.468 284.461 830.198 284.264 831.02 284.264ZM841.112 293.128C840.13 293.128 839.266 292.936 838.52 292.552C837.784 292.168 837.213 291.645 836.808 290.984C836.402 290.312 836.2 289.549 836.2 288.696C836.2 287.832 836.397 287.069 836.792 286.408C837.197 285.736 837.746 285.213 838.44 284.84C839.133 284.456 839.917 284.264 840.792 284.264C841.634 284.264 842.392 284.445 843.064 284.808C843.746 285.16 844.285 285.672 844.68 286.344C845.074 287.005 845.272 287.8 845.272 288.728C845.272 288.824 845.266 288.936 845.256 289.064C845.245 289.181 845.234 289.293 845.224 289.4H838.232V287.944H843.911L842.952 288.376C842.952 287.928 842.861 287.539 842.68 287.208C842.498 286.877 842.248 286.621 841.928 286.44C841.608 286.248 841.234 286.152 840.808 286.152C840.381 286.152 840.002 286.248 839.672 286.44C839.352 286.621 839.101 286.883 838.92 287.224C838.738 287.555 838.648 287.949 838.648 288.408V288.792C838.648 289.261 838.749 289.677 838.952 290.04C839.165 290.392 839.458 290.664 839.832 290.856C840.216 291.037 840.664 291.128 841.176 291.128C841.634 291.128 842.034 291.059 842.376 290.92C842.728 290.781 843.048 290.573 843.336 290.296L844.664 291.736C844.269 292.184 843.773 292.531 843.176 292.776C842.578 293.011 841.89 293.128 841.112 293.128ZM852.165 284.264C852.848 284.264 853.456 284.403 853.989 284.68C854.533 284.947 854.96 285.363 855.269 285.928C855.579 286.483 855.733 287.197 855.733 288.072V293H853.237V288.456C853.237 287.763 853.083 287.251 852.773 286.92C852.475 286.589 852.048 286.424 851.493 286.424C851.099 286.424 850.741 286.509 850.421 286.68C850.112 286.84 849.867 287.091 849.685 287.432C849.515 287.773 849.429 288.211 849.429 288.744V293H846.933V284.392H849.317V286.776L848.869 286.056C849.179 285.48 849.621 285.037 850.197 284.728C850.773 284.419 851.429 284.264 852.165 284.264ZM861.516 293.128C860.502 293.128 859.713 292.872 859.148 292.36C858.582 291.837 858.3 291.064 858.3 290.04V282.488H860.796V290.008C860.796 290.371 860.892 290.653 861.084 290.856C861.276 291.048 861.537 291.144 861.868 291.144C862.262 291.144 862.598 291.037 862.876 290.824L863.548 292.584C863.292 292.765 862.982 292.904 862.62 293C862.268 293.085 861.9 293.128 861.516 293.128ZM856.972 286.504V284.584H862.94V286.504H856.972ZM874.376 284.984L876.744 288.584L874.376 292.216H872.216L874.392 288.584L872.216 284.984H874.376ZM874.856 287.72V289.464H869.128V287.72H874.856Z" fill="#28343A"/>
<path d="M743 251H846.731V251.8H743V251ZM743 273H842.224V273.8H743V273ZM743 295H877.928V295.8H743V295Z" fill="#28343A"/>
<path fill-rule="evenodd" clip-rule="evenodd" d="M90 97.1584L750 35V175L90 117.135V97.1584Z" fill="url(#paint0_linear_9_2)"/>
<path d="M129.049 40L133.529 30.2H134.551L139.031 40H137.939L133.823 30.802H134.243L130.127 40H129.049ZM130.813 37.382L131.121 36.542H136.819L137.127 37.382H130.813ZM140.739 40V30.2H144.407C145.238 30.2 145.952 30.3353 146.549 30.606C147.146 30.8673 147.604 31.25 147.921 31.754C148.248 32.2487 148.411 32.8507 148.411 33.56C148.411 34.2507 148.248 34.848 147.921 35.352C147.604 35.8467 147.146 36.2293 146.549 36.5C145.952 36.7707 145.238 36.906 144.407 36.906H141.313L141.775 36.416V40H140.739ZM141.775 36.5L141.313 35.996H144.379C145.359 35.996 146.101 35.786 146.605 35.366C147.118 34.9367 147.375 34.3347 147.375 33.56C147.375 32.776 147.118 32.1693 146.605 31.74C146.101 31.3107 145.359 31.096 144.379 31.096H141.313L141.775 30.606V36.5ZM150.739 40V30.2H154.407C155.237 30.2 155.951 30.3353 156.549 30.606C157.146 30.8673 157.603 31.25 157.921 31.754C158.247 32.2487 158.411 32.8507 158.411 33.56C158.411 34.2507 158.247 34.848 157.921 35.352C157.603 35.8467 157.146 36.2293 156.549 36.5C155.951 36.7707 155.237 36.906 154.407 36.906H151.313L151.775 36.416V40H150.739ZM151.775 36.5L151.313 35.996H154.379C155.359 35.996 156.101 35.786 156.605 35.366C157.118 34.9367 157.375 34.3347 157.375 33.56C157.375 32.776 157.118 32.1693 156.605 31.74C156.101 31.3107 155.359 31.096 154.379 31.096H151.313L151.775 30.606V36.5ZM160.738 40V30.2H161.774V39.104H167.262V40H160.738ZM169.07 40V30.2H170.106V40H169.07ZM177.638 40.084C176.901 40.084 176.219 39.9627 175.594 39.72C174.969 39.468 174.427 39.118 173.97 38.67C173.513 38.222 173.153 37.6947 172.892 37.088C172.64 36.4813 172.514 35.8187 172.514 35.1C172.514 34.3813 172.64 33.7187 172.892 33.112C173.153 32.5053 173.513 31.978 173.97 31.53C174.437 31.082 174.983 30.7367 175.608 30.494C176.233 30.242 176.915 30.116 177.652 30.116C178.361 30.116 179.029 30.2373 179.654 30.48C180.279 30.7133 180.807 31.068 181.236 31.544L180.578 32.202C180.177 31.7913 179.733 31.4973 179.248 31.32C178.763 31.1333 178.24 31.04 177.68 31.04C177.092 31.04 176.546 31.1427 176.042 31.348C175.538 31.544 175.099 31.8287 174.726 32.202C174.353 32.566 174.059 32.9953 173.844 33.49C173.639 33.9753 173.536 34.512 173.536 35.1C173.536 35.688 173.639 36.2293 173.844 36.724C174.059 37.2093 174.353 37.6387 174.726 38.012C175.099 38.376 175.538 38.6607 176.042 38.866C176.546 39.062 177.092 39.16 177.68 39.16C178.24 39.16 178.763 39.0667 179.248 38.88C179.733 38.6933 180.177 38.3947 180.578 37.984L181.236 38.642C180.807 39.118 180.279 39.4773 179.654 39.72C179.029 39.9627 178.357 40.084 177.638 40.084ZM181.718 40L186.198 30.2H187.22L191.7 40H190.608L186.492 30.802H186.912L182.796 40H181.718ZM183.482 37.382L183.79 36.542H189.488L189.796 37.382H183.482ZM194.821 40V31.096H191.377V30.2H199.301V31.096H195.857V40H194.821ZM201.043 40V30.2H202.079V40H201.043ZM209.639 40.084C208.902 40.084 208.216 39.9627 207.581 39.72C206.956 39.468 206.41 39.118 205.943 38.67C205.486 38.2127 205.127 37.6853 204.865 37.088C204.613 36.4813 204.487 35.8187 204.487 35.1C204.487 34.3813 204.613 33.7233 204.865 33.126C205.127 32.5193 205.486 31.992 205.943 31.544C206.41 31.0867 206.956 30.7367 207.581 30.494C208.207 30.242 208.893 30.116 209.639 30.116C210.377 30.116 211.058 30.242 211.683 30.494C212.309 30.7367 212.85 31.082 213.307 31.53C213.774 31.978 214.133 32.5053 214.385 33.112C214.647 33.7187 214.777 34.3813 214.777 35.1C214.777 35.8187 214.647 36.4813 214.385 37.088C214.133 37.6947 213.774 38.222 213.307 38.67C212.85 39.118 212.309 39.468 211.683 39.72C211.058 39.9627 210.377 40.084 209.639 40.084ZM209.639 39.16C210.227 39.16 210.769 39.062 211.263 38.866C211.767 38.6607 212.201 38.376 212.565 38.012C212.939 37.6387 213.228 37.2093 213.433 36.724C213.639 36.2293 213.741 35.688 213.741 35.1C213.741 34.512 213.639 33.9753 213.433 33.49C213.228 32.9953 212.939 32.566 212.565 32.202C212.201 31.8287 211.767 31.544 211.263 31.348C210.769 31.1427 210.227 31.04 209.639 31.04C209.051 31.04 208.505 31.1427 208.001 31.348C207.497 31.544 207.059 31.8287 206.685 32.202C206.321 32.566 206.032 32.9953 205.817 33.49C205.612 33.9753 205.509 34.512 205.509 35.1C205.509 35.6787 205.612 36.2153 205.817 36.71C206.032 37.2047 206.321 37.6387 206.685 38.012C207.059 38.376 207.497 38.6607 208.001 38.866C208.505 39.062 209.051 39.16 209.639 39.16ZM217.187 40V30.2H218.041L224.803 38.712H224.355V30.2H225.377V40H224.523L217.775 31.488H218.223V40H217.187ZM164.662 109.084C163.925 109.084 163.243 108.963 162.618 108.72C161.993 108.468 161.451 108.118 160.994 107.67C160.537 107.222 160.177 106.695 159.916 106.088C159.664 105.481 159.538 104.819 159.538 104.1C159.538 103.381 159.664 102.719 159.916 102.112C160.177 101.505 160.537 100.978 160.994 100.53C161.461 100.082 162.007 99.7367 162.632 99.494C163.257 99.242 163.939 99.116 164.676 99.116C165.385 99.116 166.053 99.2373 166.678 99.48C167.303 99.7133 167.831 100.068 168.26 100.544L167.602 101.202C167.201 100.791 166.757 100.497 166.272 100.32C165.787 100.133 165.264 100.04 164.704 100.04C164.116 100.04 163.57 100.143 163.066 100.348C162.562 100.544 162.123 100.829 161.75 101.202C161.377 101.566 161.083 101.995 160.868 102.49C160.663 102.975 160.56 103.512 160.56 104.1C160.56 104.688 160.663 105.229 160.868 105.724C161.083 106.209 161.377 106.639 161.75 107.012C162.123 107.376 162.562 107.661 163.066 107.866C163.57 108.062 164.116 108.16 164.704 108.16C165.264 108.16 165.787 108.067 166.272 107.88C166.757 107.693 167.201 107.395 167.602 106.984L168.26 107.642C167.831 108.118 167.303 108.477 166.678 108.72C166.053 108.963 165.381 109.084 164.662 109.084ZM174.635 109.084C173.898 109.084 173.212 108.963 172.577 108.72C171.952 108.468 171.406 108.118 170.939 107.67C170.482 107.213 170.122 106.685 169.861 106.088C169.609 105.481 169.483 104.819 169.483 104.1C169.483 103.381 169.609 102.723 169.861 102.126C170.122 101.519 170.482 100.992 170.939 100.544C171.406 100.087 171.952 99.7367 172.577 99.494C173.202 99.242 173.888 99.116 174.635 99.116C175.372 99.116 176.054 99.242 176.679 99.494C177.304 99.7367 177.846 100.082 178.303 100.53C178.77 100.978 179.129 101.505 179.381 102.112C179.642 102.719 179.773 103.381 179.773 104.1C179.773 104.819 179.642 105.481 179.381 106.088C179.129 106.695 178.77 107.222 178.303 107.67C177.846 108.118 177.304 108.468 176.679 108.72C176.054 108.963 175.372 109.084 174.635 109.084ZM174.635 108.16C175.223 108.16 175.764 108.062 176.259 107.866C176.763 107.661 177.197 107.376 177.561 107.012C177.934 106.639 178.224 106.209 178.429 105.724C178.634 105.229 178.737 104.688 178.737 104.1C178.737 103.512 178.634 102.975 178.429 102.49C178.224 101.995 177.934 101.566 177.561 101.202C177.197 100.829 176.763 100.544 176.259 100.348C175.764 100.143 175.223 100.04 174.635 100.04C174.047 100.04 173.501 100.143 172.997 100.348C172.493 100.544 172.054 100.829 171.681 101.202C171.317 101.566 171.028 101.995 170.813 102.49C170.608 102.975 170.505 103.512 170.505 104.1C170.505 104.679 170.608 105.215 170.813 105.71C171.028 106.205 171.317 106.639 171.681 107.012C172.054 107.376 172.493 107.661 172.997 107.866C173.501 108.062 174.047 108.16 174.635 108.16ZM184.885 109.084C184.157 109.084 183.457 108.967 182.785 108.734C182.122 108.491 181.609 108.183 181.245 107.81L181.651 107.012C181.996 107.348 182.458 107.633 183.037 107.866C183.625 108.09 184.241 108.202 184.885 108.202C185.501 108.202 186 108.127 186.383 107.978C186.775 107.819 187.059 107.609 187.237 107.348C187.423 107.087 187.517 106.797 187.517 106.48C187.517 106.097 187.405 105.789 187.181 105.556C186.966 105.323 186.681 105.141 186.327 105.01C185.972 104.87 185.58 104.749 185.151 104.646C184.721 104.543 184.292 104.436 183.863 104.324C183.433 104.203 183.037 104.044 182.673 103.848C182.318 103.652 182.029 103.395 181.805 103.078C181.59 102.751 181.483 102.327 181.483 101.804C181.483 101.319 181.609 100.875 181.861 100.474C182.122 100.063 182.519 99.7367 183.051 99.494C183.583 99.242 184.264 99.116 185.095 99.116C185.645 99.116 186.191 99.1953 186.733 99.354C187.274 99.5033 187.741 99.7133 188.133 99.984L187.783 100.81C187.363 100.53 186.915 100.325 186.439 100.194C185.972 100.063 185.519 99.998 185.081 99.998C184.493 99.998 184.007 100.077 183.625 100.236C183.242 100.395 182.957 100.609 182.771 100.88C182.593 101.141 182.505 101.44 182.505 101.776C182.505 102.159 182.612 102.467 182.827 102.7C183.051 102.933 183.34 103.115 183.695 103.246C184.059 103.377 184.455 103.493 184.885 103.596C185.314 103.699 185.739 103.811 186.159 103.932C186.588 104.053 186.98 104.212 187.335 104.408C187.699 104.595 187.988 104.847 188.203 105.164C188.427 105.481 188.539 105.897 188.539 106.41C188.539 106.886 188.408 107.329 188.147 107.74C187.885 108.141 187.484 108.468 186.943 108.72C186.411 108.963 185.725 109.084 184.885 109.084ZM192.651 109V100.096H189.207V99.2H197.131V100.096H193.687V109H192.651ZM115.164 179.084C114.436 179.084 113.736 178.967 113.064 178.734C112.401 178.491 111.888 178.183 111.524 177.81L111.93 177.012C112.275 177.348 112.737 177.633 113.316 177.866C113.904 178.09 114.52 178.202 115.164 178.202C115.78 178.202 116.279 178.127 116.662 177.978C117.054 177.819 117.338 177.609 117.516 177.348C117.702 177.087 117.796 176.797 117.796 176.48C117.796 176.097 117.684 175.789 117.46 175.556C117.245 175.323 116.96 175.141 116.606 175.01C116.251 174.87 115.859 174.749 115.43 174.646C115 174.543 114.571 174.436 114.142 174.324C113.712 174.203 113.316 174.044 112.952 173.848C112.597 173.652 112.308 173.395 112.084 173.078C111.869 172.751 111.762 172.327 111.762 171.804C111.762 171.319 111.888 170.875 112.14 170.474C112.401 170.063 112.798 169.737 113.33 169.494C113.862 169.242 114.543 169.116 115.374 169.116C115.924 169.116 116.47 169.195 117.012 169.354C117.553 169.503 118.02 169.713 118.412 169.984L118.062 170.81C117.642 170.53 117.194 170.325 116.718 170.194C116.251 170.063 115.798 169.998 115.36 169.998C114.772 169.998 114.286 170.077 113.904 170.236C113.521 170.395 113.236 170.609 113.05 170.88C112.872 171.141 112.784 171.44 112.784 171.776C112.784 172.159 112.891 172.467 113.106 172.7C113.33 172.933 113.619 173.115 113.974 173.246C114.338 173.377 114.734 173.493 115.164 173.596C115.593 173.699 116.018 173.811 116.438 173.932C116.867 174.053 117.259 174.212 117.614 174.408C117.978 174.595 118.267 174.847 118.482 175.164C118.706 175.481 118.818 175.897 118.818 176.41C118.818 176.886 118.687 177.329 118.426 177.74C118.164 178.141 117.763 178.468 117.222 178.72C116.69 178.963 116.004 179.084 115.164 179.084ZM125.446 179.084C124.709 179.084 124.023 178.963 123.388 178.72C122.763 178.468 122.217 178.118 121.75 177.67C121.293 177.213 120.934 176.685 120.672 176.088C120.42 175.481 120.294 174.819 120.294 174.1C120.294 173.381 120.42 172.723 120.672 172.126C120.934 171.519 121.293 170.992 121.75 170.544C122.217 170.087 122.763 169.737 123.388 169.494C124.014 169.242 124.7 169.116 125.446 169.116C126.184 169.116 126.865 169.242 127.49 169.494C128.116 169.737 128.657 170.082 129.114 170.53C129.581 170.978 129.94 171.505 130.192 172.112C130.454 172.719 130.584 173.381 130.584 174.1C130.584 174.819 130.454 175.481 130.192 176.088C129.94 176.695 129.581 177.222 129.114 177.67C128.657 178.118 128.116 178.468 127.49 178.72C126.865 178.963 126.184 179.084 125.446 179.084ZM125.446 178.16C126.034 178.16 126.576 178.062 127.07 177.866C127.574 177.661 128.008 177.376 128.372 177.012C128.746 176.639 129.035 176.209 129.24 175.724C129.446 175.229 129.548 174.688 129.548 174.1C129.548 173.512 129.446 172.975 129.24 172.49C129.035 171.995 128.746 171.566 128.372 171.202C128.008 170.829 127.574 170.544 127.07 170.348C126.576 170.143 126.034 170.04 125.446 170.04C124.858 170.04 124.312 170.143 123.808 170.348C123.304 170.544 122.866 170.829 122.492 171.202C122.128 171.566 121.839 171.995 121.624 172.49C121.419 172.975 121.316 173.512 121.316 174.1C121.316 174.679 121.419 175.215 121.624 175.71C121.839 176.205 122.128 176.639 122.492 177.012C122.866 177.376 123.304 177.661 123.808 177.866C124.312 178.062 124.858 178.16 125.446 178.16ZM136.942 179.084C135.691 179.084 134.707 178.725 133.988 178.006C133.269 177.287 132.91 176.223 132.91 174.814V169.2H133.946V174.772C133.946 175.929 134.207 176.783 134.73 177.334C135.253 177.885 135.99 178.16 136.942 178.16C137.903 178.16 138.645 177.885 139.168 177.334C139.691 176.783 139.952 175.929 139.952 174.772V169.2H140.96V174.814C140.96 176.223 140.601 177.287 139.882 178.006C139.173 178.725 138.193 179.084 136.942 179.084ZM144.169 179V169.2H145.023L151.785 177.712H151.337V169.2H152.359V179H151.505L144.757 170.488H145.205V179H144.169ZM155.646 179V169.2H159.636C160.681 169.2 161.596 169.41 162.38 169.83C163.173 170.241 163.789 170.815 164.228 171.552C164.666 172.289 164.886 173.139 164.886 174.1C164.886 175.061 164.666 175.911 164.228 176.648C163.789 177.385 163.173 177.964 162.38 178.384C161.596 178.795 160.681 179 159.636 179H155.646ZM156.682 178.104H159.58C160.448 178.104 161.199 177.936 161.834 177.6C162.478 177.255 162.977 176.783 163.332 176.186C163.686 175.579 163.864 174.884 163.864 174.1C163.864 173.307 163.686 172.611 163.332 172.014C162.977 171.417 162.478 170.95 161.834 170.614C161.199 170.269 160.448 170.096 159.58 170.096H156.682V178.104ZM167.3 179V169.2H170.968C171.798 169.2 172.512 169.335 173.11 169.606C173.707 169.867 174.164 170.25 174.482 170.754C174.808 171.249 174.972 171.851 174.972 172.56C174.972 173.251 174.808 173.848 174.482 174.352C174.164 174.847 173.707 175.229 173.11 175.5C172.512 175.771 171.798 175.906 170.968 175.906H167.874L168.336 175.416V179H167.3ZM168.336 175.5L167.874 174.996H170.94C171.92 174.996 172.662 174.786 173.166 174.366C173.679 173.937 173.936 173.335 173.936 172.56C173.936 171.776 173.679 171.169 173.166 170.74C172.662 170.311 171.92 170.096 170.94 170.096H167.874L168.336 169.606V175.5ZM177.299 179V169.2H180.967C181.798 169.2 182.512 169.335 183.109 169.606C183.706 169.867 184.164 170.25 184.481 170.754C184.808 171.249 184.971 171.851 184.971 172.56C184.971 173.251 184.808 173.848 184.481 174.352C184.164 174.847 183.706 175.229 183.109 175.5C182.512 175.761 181.798 175.892 180.967 175.892H177.873L178.335 175.416V179H177.299ZM183.991 179L181.471 175.444H182.591L185.125 179H183.991ZM178.335 175.5L177.873 175.01H180.939C181.919 175.01 182.661 174.795 183.165 174.366C183.678 173.937 183.935 173.335 183.935 172.56C183.935 171.776 183.678 171.169 183.165 170.74C182.661 170.311 181.919 170.096 180.939 170.096H177.873L178.335 169.606V175.5ZM191.788 179.084C191.05 179.084 190.364 178.963 189.73 178.72C189.104 178.468 188.558 178.118 188.092 177.67C187.634 177.213 187.275 176.685 187.014 176.088C186.762 175.481 186.636 174.819 186.636 174.1C186.636 173.381 186.762 172.723 187.014 172.126C187.275 171.519 187.634 170.992 188.092 170.544C188.558 170.087 189.104 169.737 189.73 169.494C190.355 169.242 191.041 169.116 191.788 169.116C192.525 169.116 193.206 169.242 193.832 169.494C194.457 169.737 194.998 170.082 195.456 170.53C195.922 170.978 196.282 171.505 196.534 172.112C196.795 172.719 196.926 173.381 196.926 174.1C196.926 174.819 196.795 175.481 196.534 176.088C196.282 176.695 195.922 177.222 195.456 177.67C194.998 178.118 194.457 178.468 193.832 178.72C193.206 178.963 192.525 179.084 191.788 179.084ZM191.788 178.16C192.376 178.16 192.917 178.062 193.412 177.866C193.916 177.661 194.35 177.376 194.714 177.012C195.087 176.639 195.376 176.209 195.582 175.724C195.787 175.229 195.89 174.688 195.89 174.1C195.89 173.512 195.787 172.975 195.582 172.49C195.376 171.995 195.087 171.566 194.714 171.202C194.35 170.829 193.916 170.544 193.412 170.348C192.917 170.143 192.376 170.04 191.788 170.04C191.2 170.04 190.654 170.143 190.15 170.348C189.646 170.544 189.207 170.829 188.834 171.202C188.47 171.566 188.18 171.995 187.966 172.49C187.76 172.975 187.658 173.512 187.658 174.1C187.658 174.679 187.76 175.215 187.966 175.71C188.18 176.205 188.47 176.639 188.834 177.012C189.207 177.376 189.646 177.661 190.15 177.866C190.654 178.062 191.2 178.16 191.788 178.16ZM203.619 179.084C202.882 179.084 202.196 178.963 201.561 178.72C200.936 178.468 200.39 178.118 199.923 177.67C199.466 177.213 199.107 176.685 198.845 176.088C198.593 175.481 198.467 174.819 198.467 174.1C198.467 173.381 198.593 172.723 198.845 172.126C199.107 171.519 199.466 170.992 199.923 170.544C200.39 170.087 200.936 169.737 201.561 169.494C202.187 169.242 202.873 169.116 203.619 169.116C204.357 169.116 205.038 169.242 205.663 169.494C206.289 169.737 206.83 170.082 207.287 170.53C207.754 170.978 208.113 171.505 208.365 172.112C208.627 172.719 208.757 173.381 208.757 174.1C208.757 174.819 208.627 175.481 208.365 176.088C208.113 176.695 207.754 177.222 207.287 177.67C206.83 178.118 206.289 178.468 205.663 178.72C205.038 178.963 204.357 179.084 203.619 179.084ZM203.619 178.16C204.207 178.16 204.749 178.062 205.243 177.866C205.747 177.661 206.181 177.376 206.545 177.012C206.919 176.639 207.208 176.209 207.413 175.724C207.619 175.229 207.721 174.688 207.721 174.1C207.721 173.512 207.619 172.975 207.413 172.49C207.208 171.995 206.919 171.566 206.545 171.202C206.181 170.829 205.747 170.544 205.243 170.348C204.749 170.143 204.207 170.04 203.619 170.04C203.031 170.04 202.485 170.143 201.981 170.348C201.477 170.544 201.039 170.829 200.665 171.202C200.301 171.566 200.012 171.995 199.797 172.49C199.592 172.975 199.489 173.512 199.489 174.1C199.489 174.679 199.592 175.215 199.797 175.71C200.012 176.205 200.301 176.639 200.665 177.012C201.039 177.376 201.477 177.661 201.981 177.866C202.485 178.062 203.031 178.16 203.619 178.16ZM212.091 173.946H217.271V174.842H212.091V173.946ZM212.203 179H211.167V169.2H217.887V170.096H212.203V179ZM220.114 179V169.2H221.15V179H220.114ZM224.426 179V169.2H225.28L232.042 177.712H231.594V169.2H232.616V179H231.762L225.014 170.488H225.462V179H224.426ZM240.2 179.084C239.454 179.084 238.763 178.963 238.128 178.72C237.503 178.468 236.957 178.118 236.49 177.67C236.033 177.222 235.674 176.695 235.412 176.088C235.16 175.481 235.034 174.819 235.034 174.1C235.034 173.381 235.16 172.719 235.412 172.112C235.674 171.505 236.038 170.978 236.504 170.53C236.971 170.082 237.517 169.737 238.142 169.494C238.777 169.242 239.468 169.116 240.214 169.116C240.961 169.116 241.642 169.233 242.258 169.466C242.884 169.699 243.416 170.054 243.854 170.53L243.21 171.188C242.8 170.777 242.347 170.483 241.852 170.306C241.358 170.129 240.826 170.04 240.256 170.04C239.65 170.04 239.09 170.143 238.576 170.348C238.072 170.544 237.629 170.829 237.246 171.202C236.873 171.566 236.579 171.995 236.364 172.49C236.159 172.975 236.056 173.512 236.056 174.1C236.056 174.679 236.159 175.215 236.364 175.71C236.579 176.205 236.873 176.639 237.246 177.012C237.629 177.376 238.072 177.661 238.576 177.866C239.09 178.062 239.645 178.16 240.242 178.16C240.802 178.16 241.33 178.076 241.824 177.908C242.328 177.74 242.79 177.455 243.21 177.054L243.798 177.838C243.332 178.249 242.786 178.561 242.16 178.776C241.535 178.981 240.882 179.084 240.2 179.084ZM242.804 177.712V174.1H243.798V177.838L242.804 177.712Z" fill="#37474F"/>
<path d="M50.6063 39V28.5H55.3763C56.5163 28.5 57.5213 28.72 58.3913 29.16C59.2613 29.59 59.9413 30.195 60.4313 30.975C60.9213 31.755 61.1663 32.68 61.1663 33.75C61.1663 34.81 60.9213 35.735 60.4313 36.525C59.9413 37.305 59.2613 37.915 58.3913 38.355C57.5213 38.785 56.5163 39 55.3763 39H50.6063ZM53.0363 37.005H55.2563C55.9563 37.005 56.5613 36.875 57.0713 36.615C57.5913 36.345 57.9913 35.965 58.2713 35.475C58.5613 34.985 58.7063 34.41 58.7063 33.75C58.7063 33.08 58.5613 32.505 58.2713 32.025C57.9913 31.535 57.5913 31.16 57.0713 30.9C56.5613 30.63 55.9563 30.495 55.2563 30.495H53.0363V37.005ZM63.0927 39V28.5H65.5227V39H63.0927ZM70.7183 39V34.71L71.2733 36.18L66.6533 28.5H69.2333L72.7733 34.395H71.2883L74.8433 28.5H77.2283L72.6083 36.18L73.1483 34.71V39H70.7183Z" fill="#37474F"/>
<path d="M767.245 39V28.5H771.79C772.73 28.5 773.54 28.655 774.22 28.965C774.9 29.265 775.425 29.7 775.795 30.27C776.165 30.84 776.35 31.52 776.35 32.31C776.35 33.09 776.165 33.765 775.795 34.335C775.425 34.905 774.9 35.345 774.22 35.655C773.54 35.955 772.73 36.105 771.79 36.105H768.595L769.675 35.01V39H767.245ZM769.675 35.28L768.595 34.125H771.655C772.405 34.125 772.965 33.965 773.335 33.645C773.705 33.325 773.89 32.88 773.89 32.31C773.89 31.73 773.705 31.28 773.335 30.96C772.965 30.64 772.405 30.48 771.655 30.48H768.595L769.675 29.325V35.28ZM777.999 39V30.93H780.234V33.21L779.919 32.55C780.159 31.98 780.544 31.55 781.074 31.26C781.604 30.96 782.249 30.81 783.009 30.81V32.97C782.909 32.96 782.819 32.955 782.739 32.955C782.659 32.945 782.574 32.94 782.484 32.94C781.844 32.94 781.324 33.125 780.924 33.495C780.534 33.855 780.339 34.42 780.339 35.19V39H777.999ZM788.275 39.12C787.415 39.12 786.65 38.94 785.98 38.58C785.32 38.22 784.795 37.73 784.405 37.11C784.025 36.48 783.835 35.765 783.835 34.965C783.835 34.155 784.025 33.44 784.405 32.82C784.795 32.19 785.32 31.7 785.98 31.35C786.65 30.99 787.415 30.81 788.275 30.81C789.125 30.81 789.885 30.99 790.555 31.35C791.225 31.7 791.75 32.185 792.13 32.805C792.51 33.425 792.7 34.145 792.7 34.965C792.7 35.765 792.51 36.48 792.13 37.11C791.75 37.73 791.225 38.22 790.555 38.58C789.885 38.94 789.125 39.12 788.275 39.12ZM788.275 37.2C788.665 37.2 789.015 37.11 789.325 36.93C789.635 36.75 789.88 36.495 790.06 36.165C790.24 35.825 790.33 35.425 790.33 34.965C790.33 34.495 790.24 34.095 790.06 33.765C789.88 33.435 789.635 33.18 789.325 33C789.015 32.82 788.665 32.73 788.275 32.73C787.885 32.73 787.535 32.82 787.225 33C786.915 33.18 786.665 33.435 786.475 33.765C786.295 34.095 786.205 34.495 786.205 34.965C786.205 35.425 786.295 35.825 786.475 36.165C786.665 36.495 786.915 36.75 787.225 36.93C787.535 37.11 787.885 37.2 788.275 37.2ZM794.643 39V30.75C794.643 29.84 794.913 29.115 795.453 28.575C795.993 28.025 796.763 27.75 797.763 27.75C798.103 27.75 798.428 27.785 798.738 27.855C799.058 27.925 799.328 28.035 799.548 28.185L798.933 29.88C798.803 29.79 798.658 29.72 798.498 29.67C798.338 29.62 798.168 29.595 797.988 29.595C797.648 29.595 797.383 29.695 797.193 29.895C797.013 30.085 796.923 30.375 796.923 30.765V31.515L796.983 32.52V39H794.643ZM793.398 32.91V31.11H798.993V32.91H793.398ZM804.155 39.12C803.235 39.12 802.425 38.94 801.725 38.58C801.035 38.22 800.5 37.73 800.12 37.11C799.74 36.48 799.55 35.765 799.55 34.965C799.55 34.155 799.735 33.44 800.105 32.82C800.485 32.19 801 31.7 801.65 31.35C802.3 30.99 803.035 30.81 803.855 30.81C804.645 30.81 805.355 30.98 805.985 31.32C806.625 31.65 807.13 32.13 807.5 32.76C807.87 33.38 808.055 34.125 808.055 34.995C808.055 35.085 808.05 35.19 808.04 35.31C808.03 35.42 808.02 35.525 808.01 35.625H801.455V34.26H806.78L805.88 34.665C805.88 34.245 805.795 33.88 805.625 33.57C805.455 33.26 805.22 33.02 804.92 32.85C804.62 32.67 804.27 32.58 803.87 32.58C803.47 32.58 803.115 32.67 802.805 32.85C802.505 33.02 802.27 33.265 802.1 33.585C801.93 33.895 801.845 34.265 801.845 34.695V35.055C801.845 35.495 801.94 35.885 802.13 36.225C802.33 36.555 802.605 36.81 802.955 36.99C803.315 37.16 803.735 37.245 804.215 37.245C804.645 37.245 805.02 37.18 805.34 37.05C805.67 36.92 805.97 36.725 806.24 36.465L807.485 37.815C807.115 38.235 806.65 38.56 806.09 38.79C805.53 39.01 804.885 39.12 804.155 39.12ZM812.422 39.12C811.732 39.12 811.067 39.04 810.427 38.88C809.797 38.71 809.297 38.5 808.927 38.25L809.707 36.57C810.077 36.8 810.512 36.99 811.012 37.14C811.522 37.28 812.022 37.35 812.512 37.35C813.052 37.35 813.432 37.285 813.652 37.155C813.882 37.025 813.997 36.845 813.997 36.615C813.997 36.425 813.907 36.285 813.727 36.195C813.557 36.095 813.327 36.02 813.037 35.97C812.747 35.92 812.427 35.87 812.077 35.82C811.737 35.77 811.392 35.705 811.042 35.625C810.692 35.535 810.372 35.405 810.082 35.235C809.792 35.065 809.557 34.835 809.377 34.545C809.207 34.255 809.122 33.88 809.122 33.42C809.122 32.91 809.267 32.46 809.557 32.07C809.857 31.68 810.287 31.375 810.847 31.155C811.407 30.925 812.077 30.81 812.857 30.81C813.407 30.81 813.967 30.87 814.537 30.99C815.107 31.11 815.582 31.285 815.962 31.515L815.182 33.18C814.792 32.95 814.397 32.795 813.997 32.715C813.607 32.625 813.227 32.58 812.857 32.58C812.337 32.58 811.957 32.65 811.717 32.79C811.477 32.93 811.357 33.11 811.357 33.33C811.357 33.53 811.442 33.68 811.612 33.78C811.792 33.88 812.027 33.96 812.317 34.02C812.607 34.08 812.922 34.135 813.262 34.185C813.612 34.225 813.962 34.29 814.312 34.38C814.662 34.47 814.977 34.6 815.257 34.77C815.547 34.93 815.782 35.155 815.962 35.445C816.142 35.725 816.232 36.095 816.232 36.555C816.232 37.055 816.082 37.5 815.782 37.89C815.482 38.27 815.047 38.57 814.477 38.79C813.917 39.01 813.232 39.12 812.422 39.12ZM820.484 39.12C819.794 39.12 819.129 39.04 818.489 38.88C817.859 38.71 817.359 38.5 816.989 38.25L817.769 36.57C818.139 36.8 818.574 36.99 819.074 37.14C819.584 37.28 820.084 37.35 820.574 37.35C821.114 37.35 821.494 37.285 821.714 37.155C821.944 37.025 822.059 36.845 822.059 36.615C822.059 36.425 821.969 36.285 821.789 36.195C821.619 36.095 821.389 36.02 821.099 35.97C820.809 35.92 820.489 35.87 820.139 35.82C819.799 35.77 819.454 35.705 819.104 35.625C818.754 35.535 818.434 35.405 818.144 35.235C817.854 35.065 817.619 34.835 817.439 34.545C817.269 34.255 817.184 33.88 817.184 33.42C817.184 32.91 817.329 32.46 817.619 32.07C817.919 31.68 818.349 31.375 818.909 31.155C819.469 30.925 820.139 30.81 820.919 30.81C821.469 30.81 822.029 30.87 822.599 30.99C823.169 31.11 823.644 31.285 824.024 31.515L823.244 33.18C822.854 32.95 822.459 32.795 822.059 32.715C821.669 32.625 821.289 32.58 820.919 32.58C820.399 32.58 820.019 32.65 819.779 32.79C819.539 32.93 819.419 33.11 819.419 33.33C819.419 33.53 819.504 33.68 819.674 33.78C819.854 33.88 820.089 33.96 820.379 34.02C820.669 34.08 820.984 34.135 821.324 34.185C821.674 34.225 822.024 34.29 822.374 34.38C822.724 34.47 823.039 34.6 823.319 34.77C823.609 34.93 823.844 35.155 824.024 35.445C824.204 35.725 824.294 36.095 824.294 36.555C824.294 37.055 824.144 37.5 823.844 37.89C823.544 38.27 823.109 38.57 822.539 38.79C821.979 39.01 821.294 39.12 820.484 39.12ZM825.832 39V30.93H828.172V39H825.832ZM827.002 29.805C826.572 29.805 826.222 29.68 825.952 29.43C825.682 29.18 825.547 28.87 825.547 28.5C825.547 28.13 825.682 27.82 825.952 27.57C826.222 27.32 826.572 27.195 827.002 27.195C827.432 27.195 827.782 27.315 828.052 27.555C828.322 27.785 828.457 28.085 828.457 28.455C828.457 28.845 828.322 29.17 828.052 29.43C827.792 29.68 827.442 29.805 827.002 29.805ZM834.277 39.12C833.417 39.12 832.652 38.94 831.982 38.58C831.322 38.22 830.797 37.73 830.407 37.11C830.027 36.48 829.837 35.765 829.837 34.965C829.837 34.155 830.027 33.44 830.407 32.82C830.797 32.19 831.322 31.7 831.982 31.35C832.652 30.99 833.417 30.81 834.277 30.81C835.127 30.81 835.887 30.99 836.557 31.35C837.227 31.7 837.752 32.185 838.132 32.805C838.512 33.425 838.702 34.145 838.702 34.965C838.702 35.765 838.512 36.48 838.132 37.11C837.752 37.73 837.227 38.22 836.557 38.58C835.887 38.94 835.127 39.12 834.277 39.12ZM834.277 37.2C834.667 37.2 835.017 37.11 835.327 36.93C835.637 36.75 835.882 36.495 836.062 36.165C836.242 35.825 836.332 35.425 836.332 34.965C836.332 34.495 836.242 34.095 836.062 33.765C835.882 33.435 835.637 33.18 835.327 33C835.017 32.82 834.667 32.73 834.277 32.73C833.887 32.73 833.537 32.82 833.227 33C832.917 33.18 832.667 33.435 832.477 33.765C832.297 34.095 832.207 34.495 832.207 34.965C832.207 35.425 832.297 35.825 832.477 36.165C832.667 36.495 832.917 36.75 833.227 36.93C833.537 37.11 833.887 37.2 834.277 37.2ZM845.265 30.81C845.905 30.81 846.475 30.94 846.975 31.2C847.485 31.45 847.885 31.84 848.175 32.37C848.465 32.89 848.61 33.56 848.61 34.38V39H846.27V34.74C846.27 34.09 846.125 33.61 845.835 33.3C845.555 32.99 845.155 32.835 844.635 32.835C844.265 32.835 843.93 32.915 843.63 33.075C843.34 33.225 843.11 33.46 842.94 33.78C842.78 34.1 842.7 34.51 842.7 35.01V39H840.36V30.93H842.595V33.165L842.175 32.49C842.465 31.95 842.88 31.535 843.42 31.245C843.96 30.955 844.575 30.81 845.265 30.81ZM855.775 39V37.425L855.625 37.08V34.26C855.625 33.76 855.47 33.37 855.16 33.09C854.86 32.81 854.395 32.67 853.765 32.67C853.335 32.67 852.91 32.74 852.49 32.88C852.08 33.01 851.73 33.19 851.44 33.42L850.6 31.785C851.04 31.475 851.57 31.235 852.19 31.065C852.81 30.895 853.44 30.81 854.08 30.81C855.31 30.81 856.265 31.1 856.945 31.68C857.625 32.26 857.965 33.165 857.965 34.395V39H855.775ZM853.315 39.12C852.685 39.12 852.145 39.015 851.695 38.805C851.245 38.585 850.9 38.29 850.66 37.92C850.42 37.55 850.3 37.135 850.3 36.675C850.3 36.195 850.415 35.775 850.645 35.415C850.885 35.055 851.26 34.775 851.77 34.575C852.28 34.365 852.945 34.26 853.765 34.26H855.91V35.625H854.02C853.47 35.625 853.09 35.715 852.88 35.895C852.68 36.075 852.58 36.3 852.58 36.57C852.58 36.87 852.695 37.11 852.925 37.29C853.165 37.46 853.49 37.545 853.9 37.545C854.29 37.545 854.64 37.455 854.95 37.275C855.26 37.085 855.485 36.81 855.625 36.45L855.985 37.53C855.815 38.05 855.505 38.445 855.055 38.715C854.605 38.985 854.025 39.12 853.315 39.12ZM860.177 39V27.87H862.517V39H860.177Z" fill="#37474F"/>
<path d="M71.5896 110.8V96.7H73.0896V110.8H71.5896ZM72.1296 109.18C71.2896 109.18 70.4846 109.07 69.7146 108.85C68.9446 108.62 68.3246 108.325 67.8546 107.965L68.6796 106.135C69.1296 106.455 69.6596 106.72 70.2696 106.93C70.8896 107.13 71.5146 107.23 72.1446 107.23C72.6246 107.23 73.0096 107.185 73.2996 107.095C73.5996 106.995 73.8196 106.86 73.9596 106.69C74.0996 106.52 74.1696 106.325 74.1696 106.105C74.1696 105.825 74.0596 105.605 73.8396 105.445C73.6196 105.275 73.3296 105.14 72.9696 105.04C72.6096 104.93 72.2096 104.83 71.7696 104.74C71.3396 104.64 70.9046 104.52 70.4646 104.38C70.0346 104.24 69.6396 104.06 69.2796 103.84C68.9196 103.62 68.6246 103.33 68.3946 102.97C68.1746 102.61 68.0646 102.15 68.0646 101.59C68.0646 100.99 68.2246 100.445 68.5446 99.955C68.8746 99.455 69.3646 99.06 70.0146 98.77C70.6746 98.47 71.4996 98.32 72.4896 98.32C73.1496 98.32 73.7996 98.4 74.4396 98.56C75.0796 98.71 75.6446 98.94 76.1346 99.25L75.3846 101.095C74.8946 100.815 74.4046 100.61 73.9146 100.48C73.4246 100.34 72.9446 100.27 72.4746 100.27C72.0046 100.27 71.6196 100.325 71.3196 100.435C71.0196 100.545 70.8046 100.69 70.6746 100.87C70.5446 101.04 70.4796 101.24 70.4796 101.47C70.4796 101.74 70.5896 101.96 70.8096 102.13C71.0296 102.29 71.3196 102.42 71.6796 102.52C72.0396 102.62 72.4346 102.72 72.8646 102.82C73.3046 102.92 73.7396 103.035 74.1696 103.165C74.6096 103.295 75.0096 103.47 75.3696 103.69C75.7296 103.91 76.0196 104.2 76.2396 104.56C76.4696 104.92 76.5846 105.375 76.5846 105.925C76.5846 106.515 76.4196 107.055 76.0896 107.545C75.7596 108.035 75.2646 108.43 74.6046 108.73C73.9546 109.03 73.1296 109.18 72.1296 109.18Z" fill="#37474F"/>
<path d="M770.155 110.8V96.7H771.655V110.8H770.155ZM770.695 109.18C769.855 109.18 769.05 109.07 768.28 108.85C767.51 108.62 766.89 108.325 766.42 107.965L767.245 106.135C767.695 106.455 768.225 106.72 768.835 106.93C769.455 107.13 770.08 107.23 770.71 107.23C771.19 107.23 771.575 107.185 771.865 107.095C772.165 106.995 772.385 106.86 772.525 106.69C772.665 106.52 772.735 106.325 772.735 106.105C772.735 105.825 772.625 105.605 772.405 105.445C772.185 105.275 771.895 105.14 771.535 105.04C771.175 104.93 770.775 104.83 770.335 104.74C769.905 104.64 769.47 104.52 769.03 104.38C768.6 104.24 768.205 104.06 767.845 103.84C767.485 103.62 767.19 103.33 766.96 102.97C766.74 102.61 766.63 102.15 766.63 101.59C766.63 100.99 766.79 100.445 767.11 99.955C767.44 99.455 767.93 99.06 768.58 98.77C769.24 98.47 770.065 98.32 771.055 98.32C771.715 98.32 772.365 98.4 773.005 98.56C773.645 98.71 774.21 98.94 774.7 99.25L773.95 101.095C773.46 100.815 772.97 100.61 772.48 100.48C771.99 100.34 771.51 100.27 771.04 100.27C770.57 100.27 770.185 100.325 769.885 100.435C769.585 100.545 769.37 100.69 769.24 100.87C769.11 101.04 769.045 101.24 769.045 101.47C769.045 101.74 769.155 101.96 769.375 102.13C769.595 102.29 769.885 102.42 770.245 102.52C770.605 102.62 771 102.72 771.43 102.82C771.87 102.92 772.305 103.035 772.735 103.165C773.175 103.295 773.575 103.47 773.935 103.69C774.295 103.91 774.585 104.2 774.805 104.56C775.035 104.92 775.15 105.375 775.15 105.925C775.15 106.515 774.985 107.055 774.655 107.545C774.325 108.035 773.83 108.43 773.17 108.73C772.52 109.03 771.695 109.18 770.695 109.18ZM779.814 110.8V96.7H781.314V110.8H779.814ZM780.354 109.18C779.514 109.18 778.709 109.07 777.939 108.85C777.169 108.62 776.549 108.325 776.079 107.965L776.904 106.135C777.354 106.455 777.884 106.72 778.494 106.93C779.114 107.13 779.739 107.23 780.369 107.23C780.849 107.23 781.234 107.185 781.524 107.095C781.824 106.995 782.044 106.86 782.184 106.69C782.324 106.52 782.394 106.325 782.394 106.105C782.394 105.825 782.284 105.605 782.064 105.445C781.844 105.275 781.554 105.14 781.194 105.04C780.834 104.93 780.434 104.83 779.994 104.74C779.564 104.64 779.129 104.52 778.689 104.38C778.259 104.24 777.864 104.06 777.504 103.84C777.144 103.62 776.849 103.33 776.619 102.97C776.399 102.61 776.289 102.15 776.289 101.59C776.289 100.99 776.449 100.445 776.769 99.955C777.099 99.455 777.589 99.06 778.239 98.77C778.899 98.47 779.724 98.32 780.714 98.32C781.374 98.32 782.024 98.4 782.664 98.56C783.304 98.71 783.869 98.94 784.359 99.25L783.609 101.095C783.119 100.815 782.629 100.61 782.139 100.48C781.649 100.34 781.169 100.27 780.699 100.27C780.229 100.27 779.844 100.325 779.544 100.435C779.244 100.545 779.029 100.69 778.899 100.87C778.769 101.04 778.704 101.24 778.704 101.47C778.704 101.74 778.814 101.96 779.034 102.13C779.254 102.29 779.544 102.42 779.904 102.52C780.264 102.62 780.659 102.72 781.089 102.82C781.529 102.92 781.964 103.035 782.394 103.165C782.834 103.295 783.234 103.47 783.594 103.69C783.954 103.91 784.244 104.2 784.464 104.56C784.694 104.92 784.809 105.375 784.809 105.925C784.809 106.515 784.644 107.055 784.314 107.545C783.984 108.035 783.489 108.43 782.829 108.73C782.179 109.03 781.354 109.18 780.354 109.18ZM789.473 110.8V96.7H790.973V110.8H789.473ZM790.013 109.18C789.173 109.18 788.368 109.07 787.598 108.85C786.828 108.62 786.208 108.325 785.738 107.965L786.563 106.135C787.013 106.455 787.543 106.72 788.153 106.93C788.773 107.13 789.398 107.23 790.028 107.23C790.508 107.23 790.893 107.185 791.183 107.095C791.483 106.995 791.703 106.86 791.843 106.69C791.983 106.52 792.053 106.325 792.053 106.105C792.053 105.825 791.943 105.605 791.723 105.445C791.503 105.275 791.213 105.14 790.853 105.04C790.493 104.93 790.093 104.83 789.653 104.74C789.223 104.64 788.788 104.52 788.348 104.38C787.918 104.24 787.523 104.06 787.163 103.84C786.803 103.62 786.508 103.33 786.278 102.97C786.058 102.61 785.948 102.15 785.948 101.59C785.948 100.99 786.108 100.445 786.428 99.955C786.758 99.455 787.248 99.06 787.898 98.77C788.558 98.47 789.383 98.32 790.373 98.32C791.033 98.32 791.683 98.4 792.323 98.56C792.963 98.71 793.528 98.94 794.018 99.25L793.268 101.095C792.778 100.815 792.288 100.61 791.798 100.48C791.308 100.34 790.828 100.27 790.358 100.27C789.888 100.27 789.503 100.325 789.203 100.435C788.903 100.545 788.688 100.69 788.558 100.87C788.428 101.04 788.363 101.24 788.363 101.47C788.363 101.74 788.473 101.96 788.693 102.13C788.913 102.29 789.203 102.42 789.563 102.52C789.923 102.62 790.318 102.72 790.748 102.82C791.188 102.92 791.623 103.035 792.053 103.165C792.493 103.295 792.893 103.47 793.253 103.69C793.613 103.91 793.903 104.2 794.123 104.56C794.353 104.92 794.468 105.375 794.468 105.925C794.468 106.515 794.303 107.055 793.973 107.545C793.643 108.035 793.148 108.43 792.488 108.73C791.838 109.03 791.013 109.18 790.013 109.18ZM799.133 110.8V96.7H800.633V110.8H799.133ZM799.673 109.18C798.833 109.18 798.028 109.07 797.258 108.85C796.488 108.62 795.868 108.325 795.398 107.965L796.223 106.135C796.673 106.455 797.203 106.72 797.813 106.93C798.433 107.13 799.058 107.23 799.688 107.23C800.168 107.23 800.553 107.185 800.843 107.095C801.143 106.995 801.363 106.86 801.503 106.69C801.643 106.52 801.713 106.325 801.713 106.105C801.713 105.825 801.603 105.605 801.383 105.445C801.163 105.275 800.873 105.14 800.513 105.04C800.153 104.93 799.753 104.83 799.313 104.74C798.883 104.64 798.448 104.52 798.008 104.38C797.578 104.24 797.183 104.06 796.823 103.84C796.463 103.62 796.168 103.33 795.938 102.97C795.718 102.61 795.608 102.15 795.608 101.59C795.608 100.99 795.768 100.445 796.088 99.955C796.418 99.455 796.908 99.06 797.558 98.77C798.218 98.47 799.043 98.32 800.033 98.32C800.693 98.32 801.343 98.4 801.983 98.56C802.623 98.71 803.188 98.94 803.678 99.25L802.928 101.095C802.438 100.815 801.948 100.61 801.458 100.48C800.968 100.34 800.488 100.27 800.018 100.27C799.548 100.27 799.163 100.325 798.863 100.435C798.563 100.545 798.348 100.69 798.218 100.87C798.088 101.04 798.023 101.24 798.023 101.47C798.023 101.74 798.133 101.96 798.353 102.13C798.573 102.29 798.863 102.42 799.223 102.52C799.583 102.62 799.978 102.72 800.408 102.82C800.848 102.92 801.283 103.035 801.713 103.165C802.153 103.295 802.553 103.47 802.913 103.69C803.273 103.91 803.563 104.2 803.783 104.56C804.013 104.92 804.128 105.375 804.128 105.925C804.128 106.515 803.963 107.055 803.633 107.545C803.303 108.035 802.808 108.43 802.148 108.73C801.498 109.03 800.673 109.18 799.673 109.18ZM808.792 110.8V96.7H810.292V110.8H808.792ZM809.332 109.18C808.492 109.18 807.687 109.07 806.917 108.85C806.147 108.62 805.527 108.325 805.057 107.965L805.882 106.135C806.332 106.455 806.862 106.72 807.472 106.93C808.092 107.13 808.717 107.23 809.347 107.23C809.827 107.23 810.212 107.185 810.502 107.095C810.802 106.995 811.022 106.86 811.162 106.69C811.302 106.52 811.372 106.325 811.372 106.105C811.372 105.825 811.262 105.605 811.042 105.445C810.822 105.275 810.532 105.14 810.172 105.04C809.812 104.93 809.412 104.83 808.972 104.74C808.542 104.64 808.107 104.52 807.667 104.38C807.237 104.24 806.842 104.06 806.482 103.84C806.122 103.62 805.827 103.33 805.597 102.97C805.377 102.61 805.267 102.15 805.267 101.59C805.267 100.99 805.427 100.445 805.747 99.955C806.077 99.455 806.567 99.06 807.217 98.77C807.877 98.47 808.702 98.32 809.692 98.32C810.352 98.32 811.002 98.4 811.642 98.56C812.282 98.71 812.847 98.94 813.337 99.25L812.587 101.095C812.097 100.815 811.607 100.61 811.117 100.48C810.627 100.34 810.147 100.27 809.677 100.27C809.207 100.27 808.822 100.325 808.522 100.435C808.222 100.545 808.007 100.69 807.877 100.87C807.747 101.04 807.682 101.24 807.682 101.47C807.682 101.74 807.792 101.96 808.012 102.13C808.232 102.29 808.522 102.42 808.882 102.52C809.242 102.62 809.637 102.72 810.067 102.82C810.507 102.92 810.942 103.035 811.372 103.165C811.812 103.295 812.212 103.47 812.572 103.69C812.932 103.91 813.222 104.2 813.442 104.56C813.672 104.92 813.787 105.375 813.787 105.925C813.787 106.515 813.622 107.055 813.292 107.545C812.962 108.035 812.467 108.43 811.807 108.73C811.157 109.03 810.332 109.18 809.332 109.18Z" fill="#37474F"/>
<path d="M2.1991 180V169.5H4.2091L8.6791 176.91H7.6141L12.0091 169.5H14.0041L14.0341 180H11.7541L11.7391 172.995H12.1591L8.6491 178.89H7.5541L3.9691 172.995H4.4791V180H2.1991ZM16.454 180V171.93H18.794V180H16.454ZM17.624 170.805C17.194 170.805 16.844 170.68 16.574 170.43C16.304 170.18 16.169 169.87 16.169 169.5C16.169 169.13 16.304 168.82 16.574 168.57C16.844 168.32 17.194 168.195 17.624 168.195C18.054 168.195 18.404 168.315 18.674 168.555C18.944 168.785 19.079 169.085 19.079 169.455C19.079 169.845 18.944 170.17 18.674 170.43C18.414 170.68 18.064 170.805 17.624 170.805ZM25.9645 171.81C26.6045 171.81 27.1745 171.94 27.6745 172.2C28.1845 172.45 28.5845 172.84 28.8745 173.37C29.1645 173.89 29.3095 174.56 29.3095 175.38V180H26.9695V175.74C26.9695 175.09 26.8245 174.61 26.5345 174.3C26.2545 173.99 25.8545 173.835 25.3345 173.835C24.9645 173.835 24.6295 173.915 24.3295 174.075C24.0395 174.225 23.8095 174.46 23.6395 174.78C23.4795 175.1 23.3995 175.51 23.3995 176.01V180H21.0595V171.93H23.2945V174.165L22.8745 173.49C23.1645 172.95 23.5795 172.535 24.1195 172.245C24.6595 171.955 25.2745 171.81 25.9645 171.81ZM31.5243 180V171.93H33.8643V180H31.5243ZM32.6943 170.805C32.2643 170.805 31.9143 170.68 31.6443 170.43C31.3743 170.18 31.2393 169.87 31.2393 169.5C31.2393 169.13 31.3743 168.82 31.6443 168.57C31.9143 168.32 32.2643 168.195 32.6943 168.195C33.1243 168.195 33.4743 168.315 33.7443 168.555C34.0143 168.785 34.1493 169.085 34.1493 169.455C34.1493 169.845 34.0143 170.17 33.7443 170.43C33.4843 170.68 33.1343 170.805 32.6943 170.805ZM46.4648 171.81C47.1048 171.81 47.6698 171.94 48.1598 172.2C48.6598 172.45 49.0498 172.84 49.3298 173.37C49.6198 173.89 49.7648 174.56 49.7648 175.38V180H47.4248V175.74C47.4248 175.09 47.2898 174.61 47.0198 174.3C46.7498 173.99 46.3698 173.835 45.8798 173.835C45.5398 173.835 45.2348 173.915 44.9648 174.075C44.6948 174.225 44.4848 174.455 44.3348 174.765C44.1848 175.075 44.1098 175.47 44.1098 175.95V180H41.7698V175.74C41.7698 175.09 41.6348 174.61 41.3648 174.3C41.1048 173.99 40.7298 173.835 40.2398 173.835C39.8998 173.835 39.5948 173.915 39.3248 174.075C39.0548 174.225 38.8448 174.455 38.6948 174.765C38.5448 175.075 38.4698 175.47 38.4698 175.95V180H36.1298V171.93H38.3648V174.135L37.9448 173.49C38.2248 172.94 38.6198 172.525 39.1298 172.245C39.6498 171.955 40.2398 171.81 40.8998 171.81C41.6398 171.81 42.2848 172 42.8348 172.38C43.3948 172.75 43.7648 173.32 43.9448 174.09L43.1198 173.865C43.3898 173.235 43.8198 172.735 44.4098 172.365C45.0098 171.995 45.6948 171.81 46.4648 171.81ZM55.361 180.12C54.691 180.12 54.091 179.99 53.561 179.73C53.041 179.47 52.636 179.075 52.346 178.545C52.056 178.005 51.911 177.32 51.911 176.49V171.93H54.251V176.145C54.251 176.815 54.391 177.31 54.671 177.63C54.961 177.94 55.366 178.095 55.886 178.095C56.246 178.095 56.566 178.02 56.846 177.87C57.126 177.71 57.346 177.47 57.506 177.15C57.666 176.82 57.746 176.41 57.746 175.92V171.93H60.086V180H57.866V177.78L58.271 178.425C58.001 178.985 57.601 179.41 57.071 179.7C56.551 179.98 55.981 180.12 55.361 180.12ZM72.6826 171.81C73.3226 171.81 73.8876 171.94 74.3776 172.2C74.8776 172.45 75.2676 172.84 75.5476 173.37C75.8376 173.89 75.9826 174.56 75.9826 175.38V180H73.6426V175.74C73.6426 175.09 73.5076 174.61 73.2376 174.3C72.9676 173.99 72.5876 173.835 72.0976 173.835C71.7576 173.835 71.4526 173.915 71.1826 174.075C70.9126 174.225 70.7026 174.455 70.5526 174.765C70.4026 175.075 70.3276 175.47 70.3276 175.95V180H67.9876V175.74C67.9876 175.09 67.8526 174.61 67.5826 174.3C67.3226 173.99 66.9476 173.835 66.4576 173.835C66.1176 173.835 65.8126 173.915 65.5426 174.075C65.2726 174.225 65.0626 174.455 64.9126 174.765C64.7626 175.075 64.6876 175.47 64.6876 175.95V180H62.3476V171.93H64.5826V174.135L64.1626 173.49C64.4426 172.94 64.8376 172.525 65.3476 172.245C65.8676 171.955 66.4576 171.81 67.1176 171.81C67.8576 171.81 68.5026 172 69.0526 172.38C69.6126 172.75 69.9826 173.32 70.1626 174.09L69.3376 173.865C69.6076 173.235 70.0376 172.735 70.6276 172.365C71.2276 171.995 71.9126 171.81 72.6826 171.81Z" fill="#37474F"/>
<path d="M767.245 180V169.5H769.255L773.725 176.91H772.66L777.055 169.5H779.05L779.08 180H776.8L776.785 172.995H777.205L773.695 178.89H772.6L769.015 172.995H769.525V180H767.245ZM786.45 180V178.425L786.3 178.08V175.26C786.3 174.76 786.145 174.37 785.835 174.09C785.535 173.81 785.07 173.67 784.44 173.67C784.01 173.67 783.585 173.74 783.165 173.88C782.755 174.01 782.405 174.19 782.115 174.42L781.275 172.785C781.715 172.475 782.245 172.235 782.865 172.065C783.485 171.895 784.115 171.81 784.755 171.81C785.985 171.81 786.94 172.1 787.62 172.68C788.3 173.26 788.64 174.165 788.64 175.395V180H786.45ZM783.99 180.12C783.36 180.12 782.82 180.015 782.37 179.805C781.92 179.585 781.575 179.29 781.335 178.92C781.095 178.55 780.975 178.135 780.975 177.675C780.975 177.195 781.09 176.775 781.32 176.415C781.56 176.055 781.935 175.775 782.445 175.575C782.955 175.365 783.62 175.26 784.44 175.26H786.585V176.625H784.695C784.145 176.625 783.765 176.715 783.555 176.895C783.355 177.075 783.255 177.3 783.255 177.57C783.255 177.87 783.37 178.11 783.6 178.29C783.84 178.46 784.165 178.545 784.575 178.545C784.965 178.545 785.315 178.455 785.625 178.275C785.935 178.085 786.16 177.81 786.3 177.45L786.66 178.53C786.49 179.05 786.18 179.445 785.73 179.715C785.28 179.985 784.7 180.12 783.99 180.12ZM789.831 180L793.446 175.26L793.401 176.55L789.936 171.93H792.561L794.751 174.945L793.761 174.975L796.026 171.93H798.516L795.036 176.505V175.245L798.636 180H795.981L793.686 176.79L794.661 176.925L792.381 180H789.831ZM799.866 180V171.93H802.206V180H799.866ZM801.036 170.805C800.606 170.805 800.256 170.68 799.986 170.43C799.716 170.18 799.581 169.87 799.581 169.5C799.581 169.13 799.716 168.82 799.986 168.57C800.256 168.32 800.606 168.195 801.036 168.195C801.466 168.195 801.816 168.315 802.086 168.555C802.356 168.785 802.491 169.085 802.491 169.455C802.491 169.845 802.356 170.17 802.086 170.43C801.826 170.68 801.476 170.805 801.036 170.805ZM814.807 171.81C815.447 171.81 816.012 171.94 816.502 172.2C817.002 172.45 817.392 172.84 817.672 173.37C817.962 173.89 818.107 174.56 818.107 175.38V180H815.767V175.74C815.767 175.09 815.632 174.61 815.362 174.3C815.092 173.99 814.712 173.835 814.222 173.835C813.882 173.835 813.577 173.915 813.307 174.075C813.037 174.225 812.827 174.455 812.677 174.765C812.527 175.075 812.452 175.47 812.452 175.95V180H810.112V175.74C810.112 175.09 809.977 174.61 809.707 174.3C809.447 173.99 809.072 173.835 808.582 173.835C808.242 173.835 807.937 173.915 807.667 174.075C807.397 174.225 807.187 174.455 807.037 174.765C806.887 175.075 806.812 175.47 806.812 175.95V180H804.472V171.93H806.707V174.135L806.287 173.49C806.567 172.94 806.962 172.525 807.472 172.245C807.992 171.955 808.582 171.81 809.242 171.81C809.982 171.81 810.627 172 811.177 172.38C811.737 172.75 812.107 173.32 812.287 174.09L811.462 173.865C811.732 173.235 812.162 172.735 812.752 172.365C813.352 171.995 814.037 171.81 814.807 171.81ZM823.703 180.12C823.033 180.12 822.433 179.99 821.903 179.73C821.383 179.47 820.978 179.075 820.688 178.545C820.398 178.005 820.253 177.32 820.253 176.49V171.93H822.593V176.145C822.593 176.815 822.733 177.31 823.013 177.63C823.303 177.94 823.708 178.095 824.228 178.095C824.588 178.095 824.908 178.02 825.188 177.87C825.468 177.71 825.688 177.47 825.848 177.15C826.008 176.82 826.088 176.41 826.088 175.92V171.93H828.428V180H826.208V177.78L826.613 178.425C826.343 178.985 825.943 179.41 825.413 179.7C824.893 179.98 824.323 180.12 823.703 180.12ZM841.024 171.81C841.664 171.81 842.229 171.94 842.719 172.2C843.219 172.45 843.609 172.84 843.889 173.37C844.179 173.89 844.324 174.56 844.324 175.38V180H841.984V175.74C841.984 175.09 841.849 174.61 841.579 174.3C841.309 173.99 840.929 173.835 840.439 173.835C840.099 173.835 839.794 173.915 839.524 174.075C839.254 174.225 839.044 174.455 838.894 174.765C838.744 175.075 838.669 175.47 838.669 175.95V180H836.329V175.74C836.329 175.09 836.194 174.61 835.924 174.3C835.664 173.99 835.289 173.835 834.799 173.835C834.459 173.835 834.154 173.915 833.884 174.075C833.614 174.225 833.404 174.455 833.254 174.765C833.104 175.075 833.029 175.47 833.029 175.95V180H830.689V171.93H832.924V174.135L832.504 173.49C832.784 172.94 833.179 172.525 833.689 172.245C834.209 171.955 834.799 171.81 835.459 171.81C836.199 171.81 836.844 172 837.394 172.38C837.954 172.75 838.324 173.32 838.504 174.09L837.679 173.865C837.949 173.235 838.379 172.735 838.969 172.365C839.569 171.995 840.254 171.81 841.024 171.81Z" fill="#37474F"/>
<path d="M124.5 34.5H89.5" stroke="#37474F" stroke-linecap="square" stroke-dasharray="1 3"/>
<path d="M749.5 174.5H249.5" stroke="#37474F" stroke-linecap="square" stroke-dasharray="1 3"/>
<path d="M106.5 174.5H89.5" stroke="#37474F" stroke-linecap="square" stroke-dasharray="1 3"/>
<path d="M749.5 104.5H200.5" stroke="#37474F" stroke-linecap="square" stroke-dasharray="1 3"/>
<path d="M155.5 104.5H89.5" stroke="#37474F" stroke-linecap="square" stroke-dasharray="1 3"/>
<path d="M749.5 34.5H231.5" stroke="#37474F" stroke-linecap="square" stroke-dasharray="1 3"/>
<path d="M587.204 0.789486C586.811 0.400852 586.178 0.403911 585.789 0.796317L579.456 7.19095C579.068 7.58335 579.071 8.21651 579.463 8.60514C579.856 8.99378 580.489 8.99072 580.877 8.59831L586.507 2.9142L592.191 8.54366C592.583 8.93229 593.217 8.92923 593.605 8.53683C593.994 8.14442 593.991 7.51126 593.598 7.12263L587.204 0.789486ZM586 105.005L586.005 106.005L588.005 105.995L588 104.995L586 105.005ZM585.5 1.50483L586 105.005L588 104.995L587.5 1.49517L585.5 1.50483Z" fill="#37474F"/>
<path d="M751 172L750.5 214.5" stroke="#37474F" stroke-width="2" stroke-linecap="square"/>
<path d="M754.5 171.5L587.5 104.5" stroke="#37474F" stroke-width="2" stroke-linecap="square"/>
<circle cx="587.5" cy="36.5" r="7.5" fill="white" stroke="#37474F" stroke-width="2"/>
<circle cx="587.5" cy="104.5" r="7.5" fill="white" stroke="#37474F" stroke-width="2"/>
<circle cx="750.5" cy="171.5" r="7.5" fill="white" stroke="#37474F" stroke-width="2"/>
<defs>
<linearGradient id="paint0_linear_9_2" x1="750" y1="35.5007" x2="94.7207" y2="35.5007" gradientUnits="userSpaceOnUse">
<stop stop-color="#0176BD"/>
<stop offset="1" stop-color="white"/>
</linearGradient>
</defs>
</svg>
