<?xml version="1.0" encoding="UTF-8" standalone="no"?>
<!DOCTYPE svg PUBLIC "-//W3C//DTD SVG 1.1//EN" "http://www.w3.org/Graphics/SVG/1.1/DTD/svg11.dtd">
<svg xmlns="http://www.w3.org/2000/svg" version="1.1" viewBox="0.00 0.00 84.00 91.00">
<path fill="#72b8f9" d="
  M 38.61 0.00
  L 45.50 0.00
  Q 78.88 5.24 84.00 38.61
  L 84.00 45.46
  Q 81.93 64.14 67.38 75.54
  Q 66.75 76.04 66.75 75.24
  L 66.75 66.56
  Q 66.75 66.08 67.06 65.71
  Q 80.83 49.10 74.32 30.84
  C 66.93 10.14 43.41 1.33 24.34 12.63
  C 5.35 23.87 2.32 49.35 16.96 65.56
  Q 17.25 65.87 17.25 66.30
  L 17.25 75.23
  Q 17.25 76.02 16.62 75.53
  Q 2.00 64.11 0.00 45.33
  L 0.00 38.50
  Q 5.24 5.13 38.61 0.00
  Z"
/>
<path fill="#ffffff" d="
  M 54.62 91.00
  L 29.29 91.00
  C 24.22 89.64 22.91 86.35 22.90 81.17
  Q 22.85 57.45 22.87 33.75
  Q 22.88 25.38 31.76 25.36
  Q 41.37 25.33 50.99 25.40
  C 56.84 25.45 61.12 27.27 61.12 33.62
  Q 61.14 57.94 61.12 82.25
  Q 61.12 89.23 54.62 91.00
  Z
  M 34.04 33.54
  L 33.95 31.96
  Q 33.93 31.55 33.54 31.41
  Q 30.53 30.31 29.31 32.03
  Q 28.64 32.98 28.65 35.53
  Q 28.69 59.61 28.67 83.43
  A 1.82 1.82 0.0 0 0 30.49 85.25
  L 53.47 85.25
  A 1.85 1.85 0.0 0 0 55.32 83.41
  Q 55.34 58.91 55.31 34.25
  C 55.31 30.78 53.44 30.82 50.41 31.28
  Q 49.86 31.36 49.99 31.90
  C 50.50 34.02 49.43 34.64 47.46 34.66
  Q 41.18 34.72 35.19 34.64
  A 1.16 1.16 0.0 0 1 34.04 33.54
  Z"
/>
</svg>
