<?xml version="1.0" encoding="UTF-8" standalone="no"?>
<!DOCTYPE svg PUBLIC "-//W3C//DTD SVG 1.1//EN" "http://www.w3.org/Graphics/SVG/1.1/DTD/svg11.dtd">
<svg xmlns="http://www.w3.org/2000/svg" version="1.1" viewBox="0.00 0.00 84.00 98.00">
<path fill="#72b8f9" d="
  M 38.57 0.00
  L 45.52 0.00
  Q 78.88 5.31 84.00 38.90
  L 84.00 45.96
  Q 82.23 61.99 70.91 73.18
  A 0.29 0.28 67.2 0 1 70.43 72.98
  Q 70.28 68.45 70.44 63.87
  Q 70.50 61.90 71.57 59.97
  C 88.10 29.96 57.77 -4.00 26.39 11.52
  C 8.29 20.47 2.24 43.96 13.35 61.32
  Q 13.63 61.76 13.63 62.29
  L 13.59 72.98
  A 0.28 0.28 0.0 0 1 13.11 73.18
  Q 1.71 61.95 0.00 45.84
  L 0.00 38.79
  Q 5.26 5.18 38.57 0.00
  Z"
/>
<path fill="#ffffff" d="
  M 55.13 43.31
  C 54.55 47.53 51.76 50.76 47.26 48.93
  C 45.13 48.07 43.53 45.76 41.88 43.98
  Q 41.52 43.60 41.00 43.62
  C 34.92 43.79 27.80 44.76 25.49 39.55
  C 24.35 36.96 24.72 33.12 24.73 30.06
  C 24.74 23.77 26.63 20.29 33.19 20.26
  Q 42.22 20.22 51.25 20.29
  C 57.60 20.34 59.24 24.19 59.26 30.01
  C 59.28 34.58 60.31 39.59 55.63 42.53
  Q 55.20 42.80 55.13 43.31
  Z
  M 49.90 37.77
  Q 51.65 38.19 53.04 37.31
  Q 53.50 37.01 53.50 36.47
  L 53.50 27.51
  A 1.49 1.49 0.0 0 0 52.01 26.02
  L 32.12 26.02
  A 1.62 1.61 0.0 0 0 30.50 27.63
  L 30.50 36.28
  A 1.54 1.53 -90.0 0 0 32.03 37.82
  L 43.66 37.83
  A 1.02 1.01 -20.9 0 1 44.41 38.16
  L 48.79 42.97
  Q 49.32 43.56 49.32 42.77
  L 49.33 38.22
  Q 49.33 37.64 49.90 37.77
  Z"
/>
<circle fill="#ffffff" cx="42.00" cy="31.94" r="2.30"/>
<circle fill="#ffffff" cx="48.52" cy="31.94" r="2.30"/>
<circle fill="#ffffff" cx="35.48" cy="31.94" r="2.30"/>
<path fill="#ffffff" d="
  M 30.68 98.00
  L 28.07 98.00
  Q 23.63 96.37 23.62 91.81
  Q 23.62 91.31 23.22 91.00
  Q 19.28 88.02 19.27 84.25
  Q 19.24 72.03 19.24 59.81
  C 19.24 45.43 27.35 46.97 38.72 47.01
  Q 39.20 47.01 39.56 47.34
  L 45.23 52.64
  Q 45.36 52.77 45.18 52.77
  L 28.96 52.77
  A 3.93 3.92 0.1 0 0 25.03 56.67
  Q 24.98 67.84 25.03 79.54
  C 25.04 83.54 24.49 86.41 28.84 87.14
  Q 29.34 87.23 29.34 87.74
  L 29.35 91.44
  A 0.37 0.36 70.5 0 0 29.94 91.73
  L 35.16 87.45
  Q 35.62 87.08 36.22 87.08
  L 55.22 87.07
  A 3.76 3.76 0.0 0 0 58.98 83.32
  Q 59.00 70.97 58.98 58.16
  C 58.98 53.34 57.56 53.17 53.29 52.71
  Q 52.79 52.65 53.25 52.43
  Q 56.32 50.96 57.87 47.93
  Q 58.11 47.47 58.58 47.67
  Q 64.72 50.28 64.74 56.50
  Q 64.77 68.18 64.74 79.86
  Q 64.73 85.87 63.32 88.40
  Q 60.81 92.91 54.76 92.90
  Q 46.46 92.89 38.19 92.85
  Q 37.69 92.85 37.30 93.14
  L 30.68 98.00
  Z"
/>
<rect fill="#ffffff" x="28.85" y="58.23" width="26.30" height="5.78" rx="2.81"/>
<rect fill="#ffffff" x="28.85" y="66.99" width="26.30" height="5.78" rx="2.81"/>
<rect fill="#ffffff" x="-8.83" y="-2.88" transform="translate(37.69,78.64) rotate(0.1)" width="17.66" height="5.76" rx="2.77"/>
</svg>
