<?xml version="1.0" encoding="UTF-8" standalone="no"?>
<!DOCTYPE svg PUBLIC "-//W3C//DTD SVG 1.1//EN" "http://www.w3.org/Graphics/SVG/1.1/DTD/svg11.dtd">
<svg xmlns="http://www.w3.org/2000/svg" version="1.1" viewBox="0.00 0.00 84.00 91.00">
<path fill="#72b8f9" d="
  M 38.61 0.00
  L 45.50 0.00
  Q 78.88 5.24 84.00 38.61
  L 84.00 45.43
  Q 82.58 58.91 74.15 69.08
  Q 73.74 69.56 73.72 68.93
  Q 73.53 63.61 73.64 58.29
  Q 73.69 55.72 74.73 52.36
  C 83.29 24.58 56.36 -0.36 29.08 10.21
  C 12.60 16.60 3.77 35.69 9.39 52.85
  Q 10.38 55.84 10.39 58.30
  Q 10.43 63.58 10.27 68.93
  Q 10.25 69.55 9.85 69.08
  Q 1.38 58.85 0.00 45.32
  L 0.00 38.50
  Q 5.24 5.13 38.61 0.00
  Z"
/>
<path fill="#ffffff" d="
  M 65.60 91.00
  L 18.30 91.00
  Q 15.14 89.59 15.13 86.63
  Q 15.08 71.69 15.15 57.65
  Q 15.16 55.57 16.68 54.17
  Q 25.84 45.77 35.39 37.15
  C 40.06 32.95 43.78 32.75 48.34 36.89
  Q 57.65 45.34 66.98 53.77
  Q 68.88 55.50 68.89 58.12
  Q 68.91 72.82 68.84 87.51
  Q 68.83 89.70 65.60 91.00
  Z
  M 60.87 56.09
  L 43.35 40.14
  A 2.00 2.00 0.0 0 0 40.65 40.14
  L 22.98 56.22
  A 0.29 0.29 0.0 0 0 23.02 56.68
  L 41.52 68.74
  Q 42.00 69.05 42.49 68.74
  L 60.81 56.78
  Q 61.29 56.47 60.87 56.09
  Z
  M 21.37 62.49
  A 0.32 0.32 0.0 0 0 20.88 62.76
  L 20.88 82.22
  A 0.32 0.32 0.0 0 0 21.37 82.49
  L 36.32 72.76
  A 0.32 0.32 0.0 0 0 36.32 72.22
  L 21.37 62.49
  Z
  M 62.63 82.49
  A 0.32 0.32 0.0 0 0 63.12 82.22
  L 63.12 62.76
  A 0.32 0.32 0.0 0 0 62.63 62.49
  L 47.68 72.22
  A 0.32 0.32 0.0 0 0 47.68 72.76
  L 62.63 82.49
  Z
  M 28.35 84.83
  A 0.23 0.23 0.0 0 0 28.48 85.25
  L 55.42 85.25
  Q 56.28 85.25 55.56 84.78
  L 42.49 76.25
  Q 42.00 75.93 41.52 76.25
  L 28.35 84.83
  Z"
/>
</svg>
