<?xml version="1.0" encoding="UTF-8" standalone="no"?>
<!DOCTYPE svg PUBLIC "-//W3C//DTD SVG 1.1//EN" "http://www.w3.org/Graphics/SVG/1.1/DTD/svg11.dtd">
<svg xmlns="http://www.w3.org/2000/svg" version="1.1" viewBox="0.00 0.00 84.00 91.00">
<path fill="#72b8f9" d="
  M 38.60 0.00
  L 45.50 0.00
  Q 78.88 5.24 84.00 38.61
  L 84.00 45.46
  Q 83.02 54.70 78.60 62.66
  Q 78.25 63.29 78.17 62.57
  C 77.73 58.53 78.28 56.24 75.32 52.33
  Q 75.01 51.92 75.13 51.42
  Q 78.63 36.34 71.50 24.52
  C 58.73 3.35 28.36 1.80 14.07 22.06
  Q 4.84 35.13 8.92 51.24
  Q 9.05 51.73 8.76 52.15
  C 5.64 56.61 6.42 58.37 5.81 62.67
  Q 5.72 63.29 5.41 62.74
  Q 0.98 54.64 0.00 45.35
  L 0.00 38.51
  Q 5.26 5.10 38.60 0.00
  Z"
/>
<path fill="#ffffff" d="
  M 42.50 20.79
  L 57.96 27.60
  Q 58.47 27.82 58.46 28.38
  Q 58.42 34.00 58.19 39.48
  Q 57.58 54.03 44.54 60.60
  Q 42.26 61.75 40.32 60.90
  Q 29.05 55.94 26.31 44.66
  C 25.17 39.95 25.55 33.67 25.58 28.28
  Q 25.59 27.80 26.02 27.61
  L 41.50 20.79
  Q 42.00 20.57 42.50 20.79
  Z
  M 42.77 55.09
  C 52.26 50.15 53.10 41.81 52.63 32.06
  Q 52.61 31.55 52.13 31.34
  L 42.38 27.04
  Q 42.00 26.87 41.63 27.04
  L 31.98 31.28
  Q 31.47 31.51 31.44 32.07
  C 31.01 41.95 31.70 50.35 41.34 55.11
  A 1.59 1.59 0.0 0 0 42.77 55.09
  Z"
/>
<path fill="#ffffff" d="
  M 66.11 91.00
  L 17.78 91.00
  Q 11.48 89.13 11.52 82.50
  Q 11.58 71.75 11.58 61.00
  C 11.57 53.59 17.27 52.29 23.71 52.86
  Q 24.17 52.90 24.44 53.28
  L 27.91 58.12
  Q 28.17 58.49 27.72 58.49
  L 18.43 58.56
  A 1.03 1.02 -89.4 0 0 17.42 59.56
  L 17.30 64.39
  Q 17.29 65.00 17.89 65.00
  L 66.06 65.00
  Q 66.63 65.00 66.64 64.44
  L 66.70 60.75
  Q 66.73 58.51 64.50 58.51
  L 56.29 58.51
  Q 55.81 58.51 56.09 58.12
  L 59.57 53.28
  Q 59.87 52.87 60.37 52.83
  C 66.35 52.41 72.42 53.50 72.42 60.50
  Q 72.42 71.88 72.42 83.25
  Q 72.42 89.29 66.11 91.00
  Z
  M 66.67 71.75
  A 0.99 0.99 0.0 0 0 65.68 70.76
  L 18.36 70.76
  A 0.99 0.99 0.0 0 0 17.37 71.75
  L 17.37 84.25
  A 0.99 0.99 0.0 0 0 18.36 85.24
  L 65.68 85.24
  A 0.99 0.99 0.0 0 0 66.67 84.25
  L 66.67 71.75
  Z"
/>
</svg>
